<svg xmlns="http://www.w3.org/2000/svg" viewBox="0 0 512 512">
    <path d="M273.4 368.4a18.4 18.4 0 0 0-18.6-16.5 18.6 18.6 0 0 0-18.2 14.1l-18.2 88.4a35.6 35.6 0 0 0-.9 7.8c0 20 16.7 33.8 37.3 33.8s37.4-13.8 37.4-33.8a36.2 36.2 0 0 0-1.3-9.4zM411 407.9a42.7 42.7 0 0 0-6-4.4L335.6 355c-6.8-4.2-14-4.1-19.3 1a13.5 13.5 0 0 0-2 17.2l52.5 69a38 38 0 0 0 4 4.7c9.1 10.1 29.3 10.7 40.4 0 11-11 10.8-30.4-.1-39zm52.2-72h-70.4c-4.6 0-8.9 3.4-8.9 8.2s3 7.8 7 9.1l66.4 20.6c9.6 2.2 22.6-6.4 22.6-17 0-13.7-7.6-20.9-16.7-20.9zm-335 8.2c0-5-4.6-8.2-9.5-8.2H48.4c-9 0-16.4 9.6-16.4 20.3s12.6 19.8 22.3 17.6l67.4-20.6c4.4-1.3 6.5-4.2 6.5-9.1zm48.3 11L107 403.4a32.3 32.3 0 0 0-6 4.4 26.3 26.3 0 0 0 0 38.5 29.4 29.4 0 0 0 40.4 0 30.8 30.8 0 0 0 4-4.7l52.5-68.6c3.5-5.6 3-12.5-2-17a15 15 0 0 0-19.4-1zm116.9-112.7c10-5.4 19.4-10.6 28.3-16.2 42.4-26.9 62.2-59 62.2-101 0-64.6-56-104.4-108.8-109-6.5-.5-15-.4-20 4s-5.8 12.5-6 19c-1.5 33.6-28.5 59-57 85.9-28 26.3-57 53.5-62.8 91A102.5 102.5 0 0 0 170 317a31.9 31.9 0 0 0 19.3 6.5 32.3 32.3 0 0 0 7.4-.9 31.8 31.8 0 0 0 21.3-17c14.9-30.3 45.7-47 75.6-63.2z"/>
    <path d="M139.8 156.6a376 376 0 0 1 41.4-43.2c20-18.7 37.8-35.6 46.5-53.8a88 88 0 0 0-46.5-11.4c-17.8 0-20.4 5.2-20.4 19 0 12.6-6.5 20.6-14.3 30.7-8.7 11.2-18.5 23.9-18.5 43 0 10.2 1.3 18.7 4.2 26.3q3.5-5.3 7.6-10.6zm190.5 83.1c-9.3 6-19 11.2-29.2 16.8-29 15.6-56.2 30.4-68.9 56.2a62.6 62.6 0 0 1-1.9 3.6 8 8 0 0 0 4 11.3c12.2 5.1 25 8.3 38.8 8.3a111.4 111.4 0 0 0 78.3-31.4 107.5 107.5 0 0 0 32.6-77.7 86.6 86.6 0 0 0-1.3-15 8 8 0 0 0-13.8-4 179 179 0 0 1-38.6 32z"/>
</svg>