<svg width="48" height="48" fill="none" xmlns="http://www.w3.org/2000/svg"><rect width="48" height="48" rx="24" fill="#FAFBFF"/><path d="M35.64 12.99a27.1 27.1 0 0 0-6.84-2.19.1.1 0 0 0-.1.06c-.3.54-.63 1.24-.86 1.8-2.58-.4-5.15-.4-7.68 0a18.5 18.5 0 0 0-.86-1.8.1.1 0 0 0-.11-.06 27.03 27.03 0 0 0-6.89 2.23 29.92 29.92 0 0 0-4.96 19.71c0 .03.02.06.04.08a27.55 27.55 0 0 0 8.4 4.38.1.1 0 0 0 .11-.04c.65-.91 1.22-1.87 1.72-2.88a.11.11 0 0 0-.06-.16 18.1 18.1 0 0 1-2.62-1.28.11.11 0 0 1-.01-.19l.52-.42a.1.1 0 0 1 .1-.01 19.33 19.33 0 0 0 16.9 0 .1.1 0 0 1 .1.01l.52.42c.06.05.06.15 0 .19a17 17 0 0 1-2.63 1.28.11.11 0 0 0-.05.16c.5 1 1.08 1.96 1.71 2.87a.1.1 0 0 0 .12.05 27.5 27.5 0 0 0 8.4-4.38.11.11 0 0 0 .05-.08A29.72 29.72 0 0 0 35.64 13ZM18.43 28.8c-1.66 0-3.02-1.57-3.02-3.5 0-1.92 1.34-3.48 3.02-3.48 1.7 0 3.04 1.58 3.02 3.49 0 1.92-1.34 3.49-3.02 3.49Zm11.16 0c-1.65 0-3.02-1.57-3.02-3.5 0-1.92 1.34-3.48 3.02-3.48 1.7 0 3.05 1.58 3.02 3.49 0 1.92-1.32 3.49-3.02 3.49Z" fill="#191C29"/></svg>