<svg xmlns="http://www.w3.org/2000/svg" viewBox="0 0 512 512"><path fill="#FFF" d="M394.2 197.6a300.4 300.4 0 0 0-53.3-90C301.2 61.6 249 32 208 32a16 16 0 0 0-15.5 20c13.9 53-14.9 97-45.3 143.7C122 234.4 96 274.3 96 320c0 88.2 71.8 160 160 160s160-71.8 160-160c0-43.3-7.3-84.5-21.8-122.4zm-105.9 221C278 429.7 265 432 256 432s-22-2.3-32.3-13.3S208 390.2 208 368c0-25.1 8.8-44.3 17.3-62.8 5-10.7 10-21.6 13-33.3a8 8 0 0 1 12.5-4.6A126.5 126.5 0 0 1 275 292c18.2 24 29 52.4 29 76 0 22.2-5.4 39.8-15.7 50.7z"/></svg>