<svg xmlns="http://www.w3.org/2000/svg" viewBox="0 0 512 512">
    <path d="M261.6 101.3a8 8 0 0 0-11.1 0L66.4 277a8 8 0 0 0-2.5 5.8V448a32 32 0 0 0 32 32H192a16 16 0 0 0 16-16V328a8 8 0 0 1 8-8h80a8 8 0 0 1 8 8v136a16 16 0 0 0 16 16h96a32 32 0 0 0 32-32V283a8 8 0 0 0-2.4-5.9z"/>
    <path d="m491 244.2-75-71.6V64a16 16 0 0 0-16-16h-48a16 16 0 0 0-16 16v32l-58-55.4a31.1 31.1 0 0 0-22-8.6 31 31 0 0 0-22.1 8.6L21.2 244.1c-6.3 6-7 15.9-1.4 22.4a16 16 0 0 0 23.2 1L250.5 69.4a8 8 0 0 1 11 0l207.6 198.3a16 16 0 0 0 22.6-.5 16.4 16.4 0 0 0-.8-23z"/>
</svg>