<svg width="48" height="48" fill="none" xmlns="http://www.w3.org/2000/svg"><rect width="48" height="48" rx="24" fill="#FAFBFF"/><path d="M24.0038 12.1957c3.8478 0 4.2995.0171 5.8203.0857 1.4064.0629 2.1668.2973 2.6757.4974.6746.263 1.1549.5718 1.658 1.0749.5031.5031.8176.9834 1.0748 1.658.1944.5088.4346 1.2692.4975 2.6757.0686 1.5208.0857 1.9725.0857 5.8202 0 3.8478-.0171 4.2994-.0857 5.8202-.0629 1.4065-.2973 2.1669-.4975 2.6758-.263.6746-.5717 1.1548-1.0748 1.658-.5031.5031-.9834.8175-1.658 1.0748-.5089.1944-1.2693.4345-2.6757.4974-1.5208.0686-1.9725.0858-5.8203.0858-3.8477 0-4.2994-.0172-5.8202-.0858-1.4064-.0629-2.1668-.2973-2.6757-.4974-.6746-.263-1.1549-.5717-1.658-1.0748-.5031-.5032-.8176-.9834-1.0749-1.658-.1944-.5089-.4345-1.2693-.4974-2.6758-.0686-1.5208-.0857-1.9724-.0857-5.8202 0-3.8477.0171-4.2994.0857-5.8202.0629-1.4065.2973-2.1669.4974-2.6757.263-.6746.5718-1.1549 1.0749-1.658.5031-.5031.9834-.8176 1.658-1.0749.5089-.1944 1.2693-.4345 2.6757-.4974 1.5208-.0743 1.9782-.0857 5.8202-.0857Zm0-2.5957c-3.9106 0-4.4023.0172-5.9402.0858-1.5323.0686-2.5786.3144-3.4933.6689-.9491.3659-1.7495.8633-2.5499 1.6637-.8005.8005-1.2922 1.6066-1.6638 2.5499-.3545.9148-.6003 1.9611-.669 3.499-.0685 1.5323-.0857 2.024-.0857 5.9346 0 3.9107.0172 4.4023.0858 5.9403.0686 1.5322.3144 2.5785.6689 3.499.3659.9491.8633 1.7495 1.6638 2.5499.8004.8004 1.6065 1.2921 2.5499 1.6637.9147.3545 1.961.6004 3.499.669 1.5379.0686 2.0239.0857 5.9403.0857 3.9163 0 4.4023-.0171 5.9402-.0857 1.5323-.0686 2.5786-.3145 3.499-.669.9491-.3659 1.7495-.8633 2.55-1.6637.8004-.8004 1.2921-1.6066 1.6637-2.5499.3545-.9148.6003-1.961.6689-3.499.0686-1.538.0858-2.0239.0858-5.9403 0-3.9163-.0172-4.4023-.0858-5.9403-.0686-1.5322-.3144-2.5785-.6689-3.499-.3659-.949-.8633-1.7495-1.6637-2.5499-.8005-.8004-1.6066-1.2921-2.55-1.6637-.9147-.3545-1.961-.6003-3.499-.669-1.5436-.0628-2.0353-.08-5.946-.08Z" fill="#191C29"/><path d="M24.0038 12.1957c3.8478 0 4.2995.0171 5.8203.0857 1.4064.0629 2.1668.2973 2.6757.4974.6746.263 1.1549.5718 1.658 1.0749.5031.5031.8176.9834 1.0748 1.658.1944.5088.4346 1.2692.4975 2.6757.0686 1.5208.0857 1.9725.0857 5.8202 0 3.8478-.0171 4.2994-.0857 5.8202-.0629 1.4065-.2973 2.1669-.4975 2.6758-.263.6746-.5717 1.1548-1.0748 1.658-.5031.5031-.9834.8175-1.658 1.0748-.5089.1944-1.2693.4345-2.6757.4974-1.5208.0686-1.9725.0858-5.8203.0858-3.8477 0-4.2994-.0172-5.8202-.0858-1.4064-.0629-2.1668-.2973-2.6757-.4974-.6746-.263-1.1549-.5717-1.658-1.0748-.5031-.5032-.8176-.9834-1.0749-1.658-.1944-.5089-.4345-1.2693-.4974-2.6758-.0686-1.5208-.0857-1.9724-.0857-5.8202 0-3.8477.0171-4.2994.0857-5.8202.0629-1.4065.2973-2.1669.4974-2.6757.263-.6746.5718-1.1549 1.0749-1.658.5031-.5031.9834-.8176 1.658-1.0749.5089-.1944 1.2693-.4345 2.6757-.4974 1.5208-.0743 1.9782-.0857 5.8202-.0857Z" fill="#191C29"/><path d="M24.0038 16.6094c-4.0822 0-7.3982 3.3103-7.3982 7.3982s3.3103 7.3982 7.3982 7.3982 7.3982-3.3103 7.3982-7.3982-3.3103-7.3982-7.3982-7.3982Zm0 12.195c-2.6528 0-4.8026-2.1497-4.8026-4.8025s2.1498-4.8026 4.8026-4.8026 4.8025 2.1498 4.8025 4.8026-2.1497 4.8025-4.8025 4.8025Zm7.6898-10.7657c.9536 0 1.7266-.773 1.7266-1.7266 0-.9536-.773-1.7266-1.7266-1.7266-.9536 0-1.7266.773-1.7266 1.7266 0 .9536.773 1.7266 1.7266 1.7266Z" fill="#FAFBFF"/></svg>