<svg width="48" height="48" fill="none" xmlns="http://www.w3.org/2000/svg"><path d="M44.46 0H3.54A3.54 3.54 0 0 0 0 3.54v40.92A3.54 3.54 0 0 0 3.54 48h40.92A3.54 3.54 0 0 0 48 44.46V3.54A3.54 3.54 0 0 0 44.46 0ZM14.3 40.89H7.09V17.97h7.22v22.92Zm-3.62-26.1a4.14 4.14 0 1 1 3.87-2.54 4.08 4.08 0 0 1-3.87 2.54ZM40.9 40.91h-7.22V28.39c0-3.7-1.57-4.84-3.6-4.84-2.13 0-4.23 1.62-4.23 4.93v12.43h-7.22V17.98h6.94v3.18h.1c.69-1.41 3.13-3.82 6.85-3.82 4.03 0 8.38 2.39 8.38 9.39v14.18Z" fill="#FAFBFF"/></svg>