<svg xmlns="http://www.w3.org/2000/svg" viewBox="0 0 512 512"><path fill="#FFF" d="m440 341.3-4.8-6c-22-26.5-35.3-42.6-35.3-118 0-39-9.3-71-27.7-95a130.5 130.5 0 0 0-56-41 3 3 0 0 1-1-.7C306.7 51.5 282.9 32 256 32s-50.6 19.5-59.3 48.6a3.1 3.1 0 0 1-.8.6c-56.4 23.2-83.8 67.8-83.8 136.1 0 75.4-13.3 91.5-35.3 118l-4.9 6a35.2 35.2 0 0 0-4.6 37.6c6.1 13 19.3 21 34.3 21h308.9c15 0 28-8 34.2-21a35.2 35.2 0 0 0-4.6-37.6zM256 480a80 80 0 0 0 70.4-42.1 4 4 0 0 0-3.5-5.9H189.1a4 4 0 0 0-3.5 5.9A80 80 0 0 0 256 480z"/></svg>