<svg xmlns="http://www.w3.org/2000/svg" viewBox="0 0 512 512">
    <path d="M336 256a76.8 76.8 0 0 1-56-25.8 99.9 99.9 0 0 1-26-61c-1.7-24.7 5.8-47.3 21.1-63.8S312 80 336 80c23.8 0 45.4 9 60.7 25.5a83.3 83.3 0 0 1 21.3 63.6 100.2 100.2 0 0 1-26 61 76.6 76.6 0 0 1-56 25.9zm66-88zm65.8 264H204.2a27.7 27.7 0 0 1-22-10.7 30.2 30.2 0 0 1-5.3-25.8 131.8 131.8 0 0 1 60.3-81A190 190 0 0 1 336 288c36.9 0 71 9 98.7 26a131 131 0 0 1 60.4 81.6 30.3 30.3 0 0 1-5.3 25.8 27.7 27.7 0 0 1-22 10.6zM147 260c-35.2 0-66.1-32.7-69-73a70.5 70.5 0 0 1 18-53.6c12.9-13.8 31-21.4 51-21.4s38 7.7 51 21.6a70 70 0 0 1 18 53.5c-3 40.2-33.9 72.9-69 72.9zm65.7 31.4a151.8 151.8 0 0 0-65.7-12.8c-29.5 0-58 7.6-80.6 21.6a108.5 108.5 0 0 0-49.6 66.7 27.4 27.4 0 0 0 4.8 23.3 25.3 25.3 0 0 0 20.1 9.8h111a8 8 0 0 0 7.9-6.6l.4-1.8a145.3 145.3 0 0 1 57.7-83.9 8 8 0 0 0-.6-13.4l-5.4-2.8z"/>
</svg>