<svg xmlns="http://www.w3.org/2000/svg" viewBox="0 0 512 512"><circle fill="#FFF" cx="256" cy="256" r="48"/><path fill="#FFF" d="m470.4 300-.5-.4-31.5-24.7a16.1 16.1 0 0 1-6.1-13.4V250a16 16 0 0 1 6-13.2L470 212l.5-.4a26.7 26.7 0 0 0 5.9-34l-42.7-74a1.6 1.6 0 0 1-.1-.2A26.9 26.9 0 0 0 401 92.1l-.3.2-37.2 14.9a16 16 0 0 1-14.4-1.3l-10-5.9a16 16 0 0 1-8.2-11.8l-5.6-39.6-.1-.7A27.2 27.2 0 0 0 298.8 26h-85.6a27 27 0 0 0-26.4 22.4l-.1.6-5.6 39.6a16 16 0 0 1-8.1 11.8 175.2 175.2 0 0 0-10 5.9 16 16 0 0 1-14.4 1.2l-37.2-15-.3-.1a26.9 26.9 0 0 0-32.5 11.3l-.1.2-42.8 74a26.7 26.7 0 0 0 6 34.1l.4.4L73.6 237a16.1 16.1 0 0 1 6.1 13.4V262a16 16 0 0 1-6 13.2L42 300l-.5.4a26.7 26.7 0 0 0-5.9 34l42.7 74a1.6 1.6 0 0 1 .1.2 26.9 26.9 0 0 0 32.5 11.3l.3-.2 37.1-14.9a16 16 0 0 1 14.5 1.3q5 3.1 10 5.9a16 16 0 0 1 8.2 11.8l5.5 39.6.2.7a27.2 27.2 0 0 0 26.4 21.9h85.6a27 27 0 0 0 26.4-22.4l.1-.6 5.6-39.6a16 16 0 0 1 8.1-11.8c3.5-1.9 6.8-3.8 10-5.9a16 16 0 0 1 14.5-1.2l37.1 15h.4a26.9 26.9 0 0 0 32.4-11.3 2.5 2.5 0 0 1 .2-.2l42.7-73.9a26.7 26.7 0 0 0-6-34.1zm-134.5-40.2a80 80 0 1 1-83.7-83.7 80.2 80.2 0 0 1 83.7 83.7z"/></svg>