<svg width="48" height="48" fill="none" xmlns="http://www.w3.org/2000/svg"><rect width="48" height="48" rx="24" fill="#FAFBFF"/><path d="M19.6 36.66c10.65 0 16.47-8.82 16.47-16.46l-.01-.75a11.85 11.85 0 0 0 2.9-3c-1.04.46-2.16.77-3.33.91a5.78 5.78 0 0 0 2.54-3.2 11.72 11.72 0 0 1-3.67 1.4 5.79 5.79 0 0 0-9.85 5.28 16.42 16.42 0 0 1-11.93-6.04 5.8 5.8 0 0 0 1.8 7.71 5.68 5.68 0 0 1-2.62-.72v.07c0 2.81 2 5.14 4.65 5.68a5.77 5.77 0 0 1-2.62.1 5.78 5.78 0 0 0 5.4 4.02 11.63 11.63 0 0 1-8.57 2.38 16.12 16.12 0 0 0 8.85 2.62Z" fill="#191C29"/></svg>