<svg width="450" height="300" fill="none" xmlns="http://www.w3.org/2000/svg"><path d="M313.59 18.49h-38.7v46.93h38.7V18.49Z" fill="#EBEBEB"/><path d="M309.17 22.77h-29.85v38.36h29.85V22.77Z" fill="#fff"/><path d="M280.48 22.77h-1.16v38.36h1.16V22.77Zm34.27-4.28h-1.16v46.93h1.16V18.49Zm-18.39 9.57h-7.04v20.97h7.04V28.06Z" fill="#DBDBDB"/><path d="M305.32 52.91h-19.37V42.04h19.37v10.87Zm-18.77-.6h18.17v-9.67h-18.17v9.67ZM420.9 18.49h-38.7v46.93h38.7V18.49Z" fill="#EBEBEB"/><path d="M416.47 22.77h-29.85v38.36h29.85V22.77Z" fill="#fff"/><path d="M387.79 22.77h-1.17v38.36h1.17V22.77Zm34.27-4.28h-1.17v46.93h1.17V18.49Zm-18.4 9.57h-7.04v20.97h7.04V28.06Z" fill="#DBDBDB"/><path d="M412.63 52.91h-19.37V42.04h19.37v10.87Zm-18.77-.6h18.17v-9.67h-18.17v9.67Zm-26.62-33.82h-38.7v46.93h38.7V18.49Z" fill="#EBEBEB"/><path d="M362.82 22.77h-29.85v38.36h29.85V22.77Z" fill="#fff"/><path d="M334.13 22.77h-1.16v38.36h1.16V22.77Zm34.27-4.28h-1.16v46.93h1.17V18.49Z" fill="#DBDBDB"/><path d="M351.04 32.69H345v15.24h6.03V32.7Z" fill="#EBEBEB"/><path d="M357.68 52.76h-16.8v-11.1h16.8v11.1Zm-16.2-.6h15.6v-9.9h-15.6v9.9Z" fill="#DBDBDB"/><path d="M264.97 74.74H237.9v6.71h27.07v-6.71Zm-65.41-46.75c-8.02.1-19.16.29-27.08.28h-.28V21h.3c4.5 0 15.97.04 20.3.1l6.78.08h.12v.12l-.12 6.71-.02-.02Zm0 0-.12-6.71.12.11-6.77.08c-4.3.06-15.86.1-20.3.1l.3-.3V28l-.28-.28c7.8 0 19.15.17 27.07.28h-.02Zm-15.11 8.47c-8.01.1-19.16.28-27.07.27h-.28v-7.29h.3c4.5 0 15.96.04 20.3.1l6.78.08h.12v.12l-.12 6.71h-.03Zm0 0-.11-6.72.11.12-6.77.07c-4.3.06-15.86.1-20.3.1l.3-.29v6.72l-.28-.29c7.8 0 19.16.17 27.08.29h-.03Zm-15.04-15.18h-27.07v6.71h27.07v-6.71Zm-21.26 95.08h-27.07v6.71h27.07v-6.71Zm264.02-8.46H385.1v6.7h27.07v-6.7Zm15.11 15.17c-8.02.1-19.16.3-27.08.28h-.28v-7.29h.3c4.5 0 15.97.05 20.3.1l6.78.08h.12v.11l-.11 6.72h-.03Zm0 0-.12-6.71.12.12-6.78.08c-4.3.06-15.85.09-20.3.1l.3-.3v6.71l-.28-.27c7.8 0 19.16.16 27.08.27h-.02ZM71.9 67.8c-8.02.1-19.16.29-27.08.28h-.28v-7.29h.3c4.5 0 15.97.04 20.31.1l6.77.08h.12v.12l-.12 6.71h-.02Zm0 0-.12-6.71.12.12-6.77.07c-4.3.06-15.86.1-20.31.1l.3-.3v6.72l-.28-.28c7.8 0 19.16.17 27.08.28h-.02Zm.39 96.51c0-6.18 38.71-11.19 86.46-11.19 14.97 0 29.05.5 41.33 1.36a1.41 1.41 0 0 1-.05-.35c0-6.18 38.71-11.19 86.47-11.19s86.47 5 86.47 11.19c0 6.18-38.72 11.19-86.47 11.19-14.97 0-29.05-.5-41.32-1.36.02.12.04.23.04.35 0 6.18-38.71 11.18-86.47 11.18-47.75 0-86.46-5-86.46-11.18Zm157.36 66.19c0-6.18-41.56-11.2-92.83-11.2-51.27 0-92.83 5.02-92.83 11.2s41.56 11.18 92.81 11.18 92.85-5.01 92.85-11.18Zm89.15-17.7c-53.54 0-96.94 5.01-96.94 11.2 0 6.17 43.4 11.2 96.94 11.2s96.94-5.01 96.94-11.19-43.4-11.2-96.94-11.2Zm-93.1 42.54c-47.76 0-86.47 5-86.47 11.19 0 6.18 38.71 11.19 86.47 11.19 47.75 0 86.46-5.01 86.46-11.2 0-6.17-38.71-11.18-86.46-11.18Z" fill="#EBEBEB"/><path d="M44 143.25c123.04-.37 261.06-.37 384.1 0-123.04.37-261.07.37-384.1 0Z" fill="#263238"/><path d="M72.43 106.85s5.32-19.1 9.57-25.6c4.25-6.48 12.2-13.6 12.2-13.6s-.21 29.44-21.77 39.2Z" fill="#0A33FF"/><path d="M71.4 106.87s9.56-17.6 6.79-34.68c-2.78-17.08-5.76-23.16-5.76-23.16S57.41 75.6 71.4 106.87Z" fill="#0A33FF"/><path d="M68.15 76.46c.33 1.54.56 3.09.66 4.65 0 .06-.07.06-.09 0a32.7 32.7 0 0 1-.78-4.63c-.01-.11.18-.14.2-.02Zm5.59-12.86c0-.05.09-.04.09 0a11.62 11.62 0 0 1-.51 3.24.07.07 0 0 1-.09-.02.07.07 0 0 1 0-.05c.2-1.06.33-2.12.51-3.17Z" fill="#263238"/><path d="M67.93 106.87s.39-18.38-4.89-27.52c-5.27-9.14-14.02-13.8-14.02-13.8s3.53 32.41 18.9 41.32Z" fill="#0A33FF"/><path d="M58.31 91.15a68.47 68.47 0 0 0 7.14 9.05 125.64 125.64 0 0 0-3.65-11.09c-2.96-2.59-5.9-5.28-7.7-8.82a.05.05 0 0 1 .09-.06c1.95 3.15 4.55 5.66 7.3 8.08a142.73 142.73 0 0 0-7.35-16 .12.12 0 1 1 .2-.1 87.47 87.47 0 0 1 4.61 8.4c-.5-1.97-.89-3.98-1.4-5.93a.04.04 0 0 1 .09 0 33.29 33.29 0 0 1 2.16 7.8 93 93 0 0 1 4.65 12.6c-.14-2.75-.31-5.5-.6-8.25 0-.05.08-.06.09 0 .58 3.02.85 6.1.8 9.17a94.1 94.1 0 0 1 1.91 8.3c0 .08-.1.11-.11.03-.29-1.17-.6-2.33-.91-3.49h-.06c-2.83-2.83-5.52-6.06-7.29-9.67l.03-.02Z" fill="#263238"/><path d="M52.2 76.2c.6.6 1.13 1.3 1.7 1.96a15.1 15.1 0 0 1 1.52 1.77s0 .06-.05.04a9 9 0 0 1-1.75-1.73 14.6 14.6 0 0 1-1.5-2.01.05.05 0 0 1 .08-.03Z" fill="#263238"/><path d="m82.96 108.22-.66 8.7-2 26.33H62.81l-2-26.32-.66-8.71h22.8Z" fill="#37474F"/><path d="m82.96 108.22-.4 5.3-21.96.87-.47-6.17h22.83Z" fill="#263238"/><path d="M58.6 110.62h25.9v-6.68H58.6v6.68Z" fill="#37474F"/><path d="M97.12 158.63c-.14 1.7 4.7 2.18 6.72 1.08a46.88 46.88 0 0 0 4.65-3.82 699.67 699.67 0 0 0 11.54-10.55l29.2 10.3 10.2-26.45s-26.28-10.75-27.93-11.4l-.3-.12c-7.49-2.87-13.69-5.06-14.33-4.6-1.67 1.2-19.63 43.86-19.75 45.56Z" fill="#AD6359"/><path d="M97.11 158.63c-.13 1.7 4.7 2.18 6.72 1.09a45.37 45.37 0 0 0 4.66-3.83 657.78 657.78 0 0 0 11.54-10.55l11.34 4.09 11.14-27.9c-.13-.06-24.22-9.46-25.62-8.46-1.69 1.21-19.65 43.87-19.78 45.56Z" fill="#0A33FF"/><path opacity=".5" d="M97.11 158.63c-.13 1.7 4.7 2.18 6.72 1.09a45.37 45.37 0 0 0 4.66-3.83 657.78 657.78 0 0 0 11.54-10.55l11.34 4.09 11.14-27.9c-.13-.06-24.22-9.46-25.62-8.46-1.69 1.21-19.65 43.87-19.78 45.56Z" fill="#fff"/><path d="M98.86 158.9c3.28-7.23 15.84-36.74 18.53-44.14 0-.06 0-.08-.05 0-3.4 7.1-15.72 36.7-18.6 44.1-.06.14.05.2.12.04Zm9.91-3.36a7.38 7.38 0 0 0-3.87-9.67c-.06 0-.1.07-.04.1a8.53 8.53 0 0 1 3.8 9.56l.04.03h.04l.03-.02Z" fill="#263238"/><path opacity=".1" d="M97.11 158.63c-.13 1.7 4.7 2.18 6.73 1.09a46.61 46.61 0 0 0 4.64-3.83c4.85-4.28 11.55-10.55 11.55-10.55l11.34 4.1 7.05-17.67-24.88-12.25c-5.68 12.27-16.34 37.8-16.43 39.1Z" fill="#191C29"/><path d="M129.4 152.47s52.7 12.1 72.09 8.6c9.27-1.67 15.97-13.6 11.51-22.75-4.16-8.53-29.6-17.2-36.79-22.2-2.26-1.57-2.02-7.8-2.02-7.8l-18.87-.25s-6.74 10.69-3.88 15.89l.16.26-8.52-3.24-13.68 31.49Z" fill="#0A33FF"/><path d="M129.4 152.47s52.7 12.1 72.09 8.6c9.27-1.67 15.97-13.6 11.51-22.75-4.16-8.53-29.6-17.2-36.79-22.2-2.26-1.57-2.02-7.8-2.02-7.8l-18.87-.25s-6.74 10.69-3.88 15.89l.16.26-8.52-3.24-13.68 31.49Z" fill="#191C29" opacity=".5"/><path d="M141.07 138.21c2.1-4.56 4.4-9 6.54-13.57.04-.09.18-.04.15.05-2.03 4.59-3.89 9.23-6 13.8-2.12 4.57-4.38 9.04-6.6 13.56-.06.11-.25.05-.2-.07 2.08-4.6 4.02-9.22 6.1-13.77Zm10.41-13.79c1.3.75 2.53 1.63 3.8 2.45a126.83 126.83 0 0 0 11.66 6.68 135.01 135.01 0 0 0 16.66 7.17 100.88 100.88 0 0 0 9.69 3.02v.05l-.02.03h-.05c-2.4-.6-4.76-1.12-7.11-1.8 1.25.8 2.47 1.61 3.71 2.4a.06.06 0 0 1 .03.06l-.01.02a.06.06 0 0 1-.03.03h-.05c-1.35-.82-2.73-1.62-4.08-2.45a.12.12 0 0 1-.04-.04.12.12 0 0 1-.02-.05.13.13 0 0 1 .03-.1l-1.2-.36a105.81 105.81 0 0 1-24.73-11.2c-1.45-.9-2.88-1.8-4.29-2.76a39.8 39.8 0 0 1-4.06-3c-.13-.07 0-.21.1-.15Z" fill="#263238"/><path d="M78.93 165.1c-.13 1.7 4.7 2.19 6.72 1.09a46.88 46.88 0 0 0 4.65-3.82 719.05 719.05 0 0 0 11.54-10.56l28.49 10.28 10.95-26.4s-11.73-4.96-22.89-9.4c-1.71-.7-3.4-1.35-5.05-2l-.3-.11c-7.49-2.88-13.7-5.06-14.33-4.61-1.7 1.17-19.65 43.83-19.78 45.54Z" fill="#AD6359"/><path d="M78.93 165.1c-.13 1.7 4.7 2.19 6.72 1.09a45.35 45.35 0 0 0 4.65-3.82c4.84-4.29 11.55-10.56 11.55-10.56l16.2 6.6 11.55-27.76-16.26-6.38-.3-.12c-7.5-2.88-13.69-5.06-14.33-4.6-1.7 1.18-19.65 43.85-19.78 45.56Z" fill="#0A33FF"/><path opacity=".5" d="M78.93 165.1c-.13 1.7 4.7 2.19 6.72 1.09a45.35 45.35 0 0 0 4.65-3.82c4.84-4.29 11.55-10.56 11.55-10.56l16.2 6.6 11.55-27.76-16.26-6.38-.3-.12c-7.5-2.88-13.69-5.06-14.33-4.6-1.7 1.18-19.65 43.85-19.78 45.56Z" fill="#fff"/><path d="M80.4 165.7c3.27-7.23 15.77-36.76 18.46-44.17 0-.06 0-.08-.05 0-3.4 7.11-15.66 36.74-18.53 44.15-.08.14.03.18.12.03Zm10.58-4.3a7.4 7.4 0 0 0-3.87-9.67c-.06 0-.1.08-.04.1a8.53 8.53 0 0 1 3.8 9.57l.04.02h.04s.02 0 .03-.02Z" fill="#263238"/><path d="m169.75 108.17-32.46-.49s-6.9 17.52-4.04 22.74c2.85 5.21 32.75 12.66 32.75 12.66l-41.1-15.65-13.68 31.5s49.97 10.87 76.48 8.2c9.95-1.02 16.2-14.02 10.36-24-6.13-10.5-28.37-24.88-28.37-24.88l.06-10.08Z" fill="#0A33FF"/><path opacity=".5" d="m169.75 108.17-32.46-.49s-6.9 17.52-4.04 22.74c2.85 5.21 32.75 12.66 32.75 12.66l-41.1-15.65-13.68 31.5s49.97 10.87 76.48 8.2c9.95-1.02 16.2-14.02 10.36-24-6.13-10.5-28.37-24.88-28.37-24.88l.06-10.08Z" fill="#191C29"/><path d="M125.96 127.36a558 558 0 0 0 43.66 18c1.87.68 3.74 1.45 5.65 2 .1 0 .05.17-.04.14-1.66-.6-3.37-1.06-5.05-1.62-1.68-.55-3.28-1.08-4.92-1.65l-2.06-.75.43.3 1.93 1.3c1.31.93 2.53 2.03 3.91 2.85.08.05 0 .19-.08.13-1.31-.93-2.79-1.63-4.13-2.5-.66-.43-1.3-.88-1.93-1.33-.6-.38-1.17-.82-1.7-1.3a343.78 343.78 0 0 1-25.34-10.24c-3.52-1.6-7-3.26-10.45-5.01-.2-.09-.06-.4.12-.32Zm-3.8 17.05c2.1-4.56 4.4-9.03 6.54-13.57.04-.09.18-.04.14.05-2.01 4.58-3.88 9.23-6 13.8-2.11 4.57-4.38 9.04-6.6 13.55-.06.11-.24.05-.19-.07 2.08-4.57 4.02-9.2 6.11-13.76Zm48.11-25.81c3.57 2.03 7 4.3 10.26 6.8 3.26 2.4 6.4 4.97 9.41 7.69a85.4 85.4 0 0 1 4.4 4.27 32.83 32.83 0 0 1 3.73 4.52 15.87 15.87 0 0 1 2.7 9.9 16.83 16.83 0 0 1-1.3 5.4 19.9 19.9 0 0 1-3 4.64c-.04.06-.13 0-.07-.08 1.14-1.3 2-2.8 2.54-4.44a16.75 16.75 0 0 0-1.28-14.29c-1.99-3.3-4.92-6.05-7.7-8.69a117.4 117.4 0 0 0-9-7.68 192.73 192.73 0 0 0-5.36-3.96c-1.8-1.3-3.65-2.54-5.4-3.9a.12.12 0 0 1-.02-.12l.04-.04a.13.13 0 0 1 .05-.02Z" fill="#263238"/><path d="M160.84 119.9a38.4 38.4 0 0 1 8.3-1.58 85.66 85.66 0 0 1 8.34-.48.06.06 0 0 1-.03.1c-2.82.25-5.63.6-8.43 1.02-2.8.43-5.4 1-8.15 1.2-.17.03-.17-.2-.03-.26Zm-22.07.4c1.73-.05 3.45-.21 5.16-.48 1.43-.2 2.88-.41 4.06-1.3 2.3-1.72 3.24-4.76 3.73-7.47 0-.07.12-.05.11 0-.39 2.95-.53 6.33-3.11 8.31a7.83 7.83 0 0 1-4.41 1.38 28.11 28.11 0 0 1-5.57-.36v-.06l.03-.03Z" fill="#263238"/><path d="M135.2 124.97c.17-1.71.47-3.4.9-5.07a67.16 67.16 0 0 1 3.52-10.7c0-.07.13-.04.1.04-1.06 3.13-2.04 6.3-2.85 9.52a85.56 85.56 0 0 0-1.09 4.8 9.95 9.95 0 0 0-.03 4.71 8.31 8.31 0 0 0 2.6 4.05s0 .03 0 0a8.52 8.52 0 0 1-3.16-7.35Zm-5.56 9.63c2.2.6 4.33 1.32 6.49 2.02l6.46 2.11c4.3 1.44 8.59 2.92 12.88 4.4 2.43.84 4.84 1.74 7.26 2.62.07 0 .04.13-.03.11a700.49 700.49 0 0 1-25.8-8.56c-2.4-.85-4.89-1.64-7.26-2.63l-.02-.02v-.04l.02-.02Z" fill="#263238"/><path d="M165.2 73.37c-.54 9.74.88 30.68 4.35 37.95 1.5 3.14 11.19 11.46 18.18 15.55 2.61 1.53 12.71-13.1 10.06-15.06-1.8-1.34-13.07-9.95-14.1-11.4-1.92-2.63-8.65-22.04-12.53-30.12-2.18-4.5-5.63-2.99-5.96 3.08Z" fill="#AD6359"/><path d="M185.26 124.1a52.8 52.8 0 0 0 5.17 5.3c1.51 1.2 5.95 4.59 7.45 3.06 1.03-1.04-1.35-3.33-3-5-.86-.87-1.7-2.5-1.11-3.05 1.03-.95 3.24 1.36 4.58 3.13 2.6 3.42 5.63 10.5 8.45 9.64 1.06-.33.7-3.5-.16-5.23 1.6 2.28 2.48 4.74 4.36 4.72.71 0 1.25-1.38 1.2-2.11a1.67 1.67 0 0 0 1.8.43c1.02-.44 1.13-1.68.82-3.13a.92.92 0 0 0 .83-.15c2.46-1.67-2.32-11.4-4.67-13.1a71.4 71.4 0 0 0-15.1-8.04c-4 1.14-10.62 13.52-10.62 13.53Z" fill="#AD6359"/><path d="M199.46 121.75a14.03 14.03 0 0 1 4.29 4.1c1.4 2.1 2.07 4.13 3.06 6.32v.05l-.02.01h-.05l-.02-.02a122.2 122.2 0 0 0-3.13-6.04 13.4 13.4 0 0 0-4.14-4.39s0-.04.01-.03Zm2.79-2.65a33.84 33.84 0 0 1 5.08 4.54c1.6 1.9 2.5 4.26 3.39 6.55a112.6 112.6 0 0 1 1.51 4.16c0 .06-.06.1-.09.04-.9-2.36-1.86-4.68-2.88-6.97a17.8 17.8 0 0 0-4-5.69c-.97-.91-2-1.75-3.04-2.6-.02-.01-.02-.05.03-.03Zm3.33-1.94c1.8 1.2 3.35 2.27 4.65 4.04 1.4 2.1 2.53 4.37 3.37 6.76.47 1.27.9 2.56 1.32 3.85 0 .05-.08.09-.1.03a69.84 69.84 0 0 0-3.49-8.4 13.9 13.9 0 0 0-2.43-3.55 25.5 25.5 0 0 0-3.33-2.72s0-.02.01-.01Z" fill="#263238"/><path d="m184.1 100.32-16.24 9.14s-4.49-22.55-3.08-34.64c1.1-9.43 4.32-9.83 7.74-2.57 3.41 7.26 11.58 28.07 11.58 28.07Z" fill="#0A33FF"/><path opacity=".1" d="M165.6 94.54c.02.28.02.56 0 .84-.13-1-.25-2.02-.36-3.05.2.72.32 1.46.36 2.21ZM177 82.8c-.05.67-.09 1.33-.17 1.99-.24 2.17-1.03 4.48-3.14 5.51a3.04 3.04 0 0 1-2.9-.05 3.99 3.99 0 0 1-1.72-2.55c-.6-2.64 1.03-5.13 2.27-7.31 1.2-2.04 2.22-4.29 1.8-6.68-.24-.53-.46-1.03-.67-1.46-.37-.8-.74-1.5-1.11-2.11a6.54 6.54 0 0 0-4.64-2.13c-.18.22-.34.46-.47.72a6 6 0 0 1 5.98 4.31c.28.9.36 1.86.22 2.79-.36 2.34-1.86 4.31-2.94 6.37-.95 1.8-1.65 3.9-1.05 5.95.48 1.65 1.8 3.12 3.6 3.22 1.65.1 3.15-.96 4.09-2.25 1.02-1.4 1.34-3.13 1.5-4.84l-.6-1.48H177Zm5.54 13.7c-1.91.5-3.91.32-5.88.22-1.96-.1-4.04-.11-5.9.68a5.4 5.4 0 0 0-3.25 3.8 3.9 3.9 0 0 0 2.22 4.33c1.23.6 2.6.82 3.97.67l1.83-1.03c-1.73.4-3.6.57-5.24-.17a3.31 3.31 0 0 1-2.08-2.55c-.09-1 .22-2 .85-2.8 1.42-1.91 4.03-2.27 6.26-2.24 2.5.04 5.05.48 7.5-.2h.04l-.27-.72h-.05Zm-17.32-4.17c.11 1.03.23 2.05.36 3.05v-.84c-.03-.75-.13-1.49-.32-2.21h-.04Zm11.83-9.53a64 64 0 0 1-.17 1.99c-.25 2.17-1.03 4.48-3.14 5.51a3.04 3.04 0 0 1-2.9-.05 3.99 3.99 0 0 1-1.72-2.55c-.6-2.64 1.03-5.13 2.27-7.31 1.2-2.04 2.22-4.29 1.8-6.68-.24-.53-.46-1.03-.67-1.46-.37-.8-.75-1.5-1.11-2.11a6.54 6.54 0 0 0-4.64-2.13c-.18.22-.34.46-.47.72a6 6 0 0 1 5.98 4.31c.28.9.35 1.86.22 2.79-.37 2.34-1.87 4.31-2.95 6.37-.94 1.8-1.64 3.9-1.05 5.95.48 1.65 1.8 3.12 3.6 3.22 1.66.1 3.16-.96 4.1-2.25 1.02-1.4 1.34-3.13 1.49-4.84l-.64-1.48Zm5.54 13.7c-1.91.5-3.92.32-5.88.22s-4.04-.11-5.9.68a5.4 5.4 0 0 0-3.25 3.8 3.9 3.9 0 0 0 2.22 4.33c1.22.58 2.57.81 3.92.67l1.83-1.03c-1.73.4-3.6.57-5.24-.17a3.31 3.31 0 0 1-2.08-2.55c-.09-1 .22-2 .85-2.8 1.42-1.91 4.03-2.27 6.26-2.24 2.5.04 5.05.48 7.5-.2h.04l-.27-.72Z" fill="#030402"/><path opacity=".1" d="m181.5 101.79-13.64 7.67s-4.5-22.55-3.08-34.64c.57-4.88 1.7-7.34 3.14-7.58l13.57 34.55Z" fill="#191C29"/><path d="m186.04 100.97-18.05 10.66.08-.85-1.35-.29.06-.64-.87-1.56 18.4-10.03-.09.9 1.14.47-.19.8.87.54Z" fill="#0A33FF"/><path opacity=".1" d="m186.04 100.97-18.05 10.66.08-.85-1.35-.29.06-.64-.87-1.56 18.4-10.03-.09.9 1.14.47-.19.8.87.54Z" fill="#191C29"/><path d="m133.64 113.66 42.43-.6c-.14.84-.05-21.24-5.24-42.8-1.16-4.76-8.24-6.83-11.66-4.57-15.02 9.87-25.62 48.52-25.53 47.97Z" fill="#0A33FF"/><path opacity=".1" d="M149.94 79.64c-1.08.61-2.2 1.15-3.35 1.62l.6-1.05c3.57-1.61 7.46-4.09 8.3-8.17a7.4 7.4 0 0 0-.05-3.24l.6-.6.1.37c.5 2.1.16 4.32-.96 6.17a13.94 13.94 0 0 1-5.24 4.9Zm20.88-9.38a5.44 5.44 0 0 0-.31-.93 7 7 0 0 0-7.18-.6c-2.18 1.08-3.47 3.28-4.27 5.48a11.77 11.77 0 0 0-.49 7.17c1.26 4.44 5.4 7.46 6.2 12.06.39 2.1.05 4.5-1.83 5.8-1.88 1.3-4.71.98-6.79.19-2.08-.8-4.3-3-3.42-5.48.45-1.26 1.54-2.16 2.45-3.1a6.42 6.42 0 0 0 1.59-2.53 3 3 0 0 0-.33-2.65 4.15 4.15 0 0 0-2.83-1.44 6.83 6.83 0 0 0-5.62 1.83c-1.85 1.8-2.05 4.32-2.72 6.68a6.84 6.84 0 0 1-1.7 3.13 5.6 5.6 0 0 1-2.9 1.47c-.49.08-.98.08-1.46 0l-.28.7c1.27.2 2.57-.02 3.7-.63a7 7 0 0 0 3.34-4.51c.6-2.07.75-4.42 2.27-6.09a6.14 6.14 0 0 1 4.92-1.92c.96.07 2.14.38 2.72 1.2a2.5 2.5 0 0 1 .05 2.4c-.8 1.9-2.8 2.91-3.7 4.75a4.6 4.6 0 0 0 .98 5.1c1.44 1.52 3.6 2.25 5.67 2.43 1.8.17 3.77-.17 5.12-1.49a6.1 6.1 0 0 0 1.62-4.76c-.12-1.9-.72-3.74-1.72-5.35-1.03-1.7-2.27-3.26-3.28-4.98a10.7 10.7 0 0 1-1.68-5.8c.09-2.2.73-4.35 1.86-6.23a6.6 6.6 0 0 1 4.94-3.4 6 6 0 0 1 5.13 1.87l.04.04c-.02-.14-.06-.27-.09-.41Zm3.5 19.7a4 4 0 0 1-.6.34 3.04 3.04 0 0 1-2.91-.05 4 4 0 0 1-1.71-2.55c-.6-2.64 1.02-5.13 2.27-7.31a21 21 0 0 0 1.12-2.2l-.26-1.32c-.57 1.9-1.8 3.6-2.7 5.33-.91 1.73-1.65 3.9-1.06 5.95.48 1.65 1.8 3.12 3.6 3.22.83.04 1.65-.17 2.35-.6l-.1-.81Zm-32.29 12.72a6 6 0 0 0-4.44-1.01c-.1.26-.2.52-.28.77 2.02-.37 4.33.16 5.4 2.08.85 1.55.6 3.4.3 5.06-.23 1.32-.55 2.63-.68 3.96h.72c.09-.81.25-1.62.4-2.4.55-2.87 1.26-6.41-1.42-8.46Zm22.49 4.16c-3-2.52-6.91-5.31-11.06-4.6a5.83 5.83 0 0 0-4.06 2.76 4.44 4.44 0 0 0-.2 4.52c1 1.67 2.92 2.43 4.68 3.04l2.25.76h2.18c-.1 0-.2-.06-.29-.1a313.5 313.5 0 0 1-4-1.35c-1.96-.67-4.47-1.72-4.63-4.11-.13-1.95 1.37-3.82 3.12-4.5 2.2-.86 4.69-.2 6.71.8 2.32 1.13 4.33 2.85 6.26 4.54a54.26 54.26 0 0 0 5.64 4.54h1.3c-2.91-1.73-5.34-4.16-7.9-6.3Zm11.17-1.73c-1.8.43-3.7.6-5.4-.13a3.3 3.3 0 0 1-2.08-2.55 3.93 3.93 0 0 1 .85-2.8c1.38-1.85 3.88-2.25 6.06-2.24 0-.24-.05-.48-.07-.72a10.6 10.6 0 0 0-4.24.73 5.4 5.4 0 0 0-3.25 3.8 3.89 3.89 0 0 0 2.22 4.33c1.53.69 3.25.88 4.9.53.35-.06.7-.14 1.05-.23 0-.23-.02-.48-.04-.72Zm-4.87-34.85a5.44 5.44 0 0 0-.31-.93 7 7 0 0 0-7.18-.6c-2.18 1.08-3.47 3.28-4.27 5.48a11.77 11.77 0 0 0-.49 7.17c1.26 4.44 5.4 7.46 6.2 12.06.39 2.1.05 4.5-1.83 5.8-1.88 1.3-4.71.98-6.79.19-2.08-.8-4.3-3-3.42-5.48.45-1.26 1.54-2.16 2.45-3.1a6.42 6.42 0 0 0 1.59-2.53 3 3 0 0 0-.33-2.65 4.15 4.15 0 0 0-2.83-1.44 6.83 6.83 0 0 0-5.62 1.83c-1.85 1.8-2.05 4.32-2.72 6.68a6.84 6.84 0 0 1-1.7 3.13 5.6 5.6 0 0 1-2.9 1.47c-.49.08-.98.08-1.46 0l-.28.7c1.27.2 2.57-.02 3.7-.63a7 7 0 0 0 3.34-4.51c.6-2.07.75-4.42 2.27-6.09a6.14 6.14 0 0 1 4.92-1.92c.96.07 2.14.38 2.72 1.2a2.5 2.5 0 0 1 .05 2.4c-.8 1.9-2.8 2.91-3.7 4.75a4.6 4.6 0 0 0 .98 5.1c1.44 1.52 3.6 2.25 5.67 2.43 1.8.17 3.77-.17 5.12-1.49a6.1 6.1 0 0 0 1.62-4.76c-.12-1.9-.72-3.74-1.72-5.35-1.03-1.7-2.27-3.26-3.28-4.98a10.7 10.7 0 0 1-1.68-5.8c.09-2.2.73-4.35 1.86-6.23a6.6 6.6 0 0 1 4.94-3.4 6 6 0 0 1 5.13 1.87l.04.04c-.02-.14-.06-.27-.09-.41Zm3.5 19.7a4 4 0 0 1-.6.34 3.04 3.04 0 0 1-2.91-.05 4 4 0 0 1-1.71-2.55c-.6-2.64 1.02-5.13 2.27-7.31a21 21 0 0 0 1.12-2.2l-.26-1.32c-.57 1.9-1.8 3.6-2.7 5.33-.91 1.73-1.65 3.9-1.06 5.95.48 1.65 1.8 3.12 3.6 3.22.83.04 1.65-.17 2.35-.6l-.1-.81Zm-32.29 12.72a6 6 0 0 0-4.44-1.01c-.1.26-.2.52-.28.77 2.02-.37 4.33.16 5.4 2.08.85 1.55.6 3.4.3 5.06-.23 1.32-.55 2.63-.68 3.96h.72c.09-.81.25-1.62.4-2.4.55-2.87 1.26-6.41-1.42-8.46Zm22.49 4.16c-3-2.52-6.91-5.31-11.06-4.6a5.83 5.83 0 0 0-4.06 2.76 4.44 4.44 0 0 0-.2 4.52c1 1.67 2.92 2.43 4.68 3.04l2.25.76h2.18c-.1 0-.2-.06-.29-.1a313.5 313.5 0 0 1-4-1.35c-1.96-.67-4.47-1.72-4.63-4.11-.13-1.95 1.37-3.82 3.12-4.5 2.2-.86 4.69-.2 6.71.8 2.32 1.13 4.33 2.85 6.26 4.54a54.26 54.26 0 0 0 5.64 4.54h1.3c-2.91-1.73-5.34-4.16-7.9-6.3Zm11.17-1.73c-1.8.43-3.7.6-5.4-.13a3.3 3.3 0 0 1-2.08-2.55 3.93 3.93 0 0 1 .85-2.8c1.38-1.85 3.88-2.25 6.06-2.24 0-.24-.05-.48-.07-.72a10.6 10.6 0 0 0-4.24.73 5.4 5.4 0 0 0-3.25 3.8 3.89 3.89 0 0 0 2.22 4.33c1.53.69 3.25.88 4.9.53.35-.06.7-.14 1.05-.23 0-.23-.02-.48-.04-.72Z" fill="#030402"/><path d="M154.87 72.52c-4.72 6.5-9.48 35.13-9 37.94 1.87 10.39 23.5 21.92 31.36 24.77 2.21.8 5.46-17.87 3.13-18.79-4.58-1.8-17.77-8.25-18.5-10-.72-1.76-1.04-22.18-1.05-30.65-.01-7.15-3.55-6.56-5.94-3.27Z" fill="#AD6359"/><path d="M178.34 115.8s3.75.65 7.26 1.41c4.2.91 14.17 5.17 16.66 17.04.96 4.55-1.8 7.2-3.65 2.66-1.29-3.2-1.9-5.54-2.62-6.46 0 0-1.5 5.06-4.41 6.05a56.53 56.53 0 0 1-7.76 2.03c-.2-.46-.37-.93-.51-1.41a6.42 6.42 0 0 1-6.5-2.18l1.53-19.14Z" fill="#AD6359"/><path d="M189.56 118.54c1.43 1.75 4.4 5.5 5.78 9.43 1.51 4.35 3.27 13.15.04 14.24-2.37.8-3.33-2.5-3.33-2.5s-.04 3.79-2.34 4.04c-2.09.23-2.68-2.4-2.68-2.4s-.42 2.3-2.48 2.13c-2.47-.2-1.2-4.98-3.52-7.35-.52-.5 8.53-17.6 8.53-17.6Z" fill="#AD6359"/><path d="M190.47 128.8a18.4 18.4 0 0 1 1.64 10.83c0 .1-.1.13-.1.04a45.37 45.37 0 0 0-1.58-10.85l.04-.02Zm-4.36 1.66c.77 1.7 1.95 6.79 1 10.91 0 .1-.1.13-.1.04.1-3.67-.21-7.34-.94-10.93 0 0 .04-.04.04-.02Z" fill="#263238"/><path d="M162.7 107.28c5.58 3.1 11.19 6.23 17.16 8.49 3.85.47 7.8 1.15 11.26 2.96 6.12 3.3 10.75 9.6 11.37 16.55a5.05 5.05 0 0 1-.67 3.34c.5-1.03.66-2.2.43-3.31-1.01-6.73-5.59-12.6-11.53-15.8-3.41-1.73-7.23-2.4-11-2.92-6-2.36-11.63-5.76-17.02-9.31Z" fill="#263238"/><path d="m162.92 105.45-18.32 3.3s3.17-22.8 8.47-33.74c4.14-8.55 7.32-7.86 8.16.12.84 7.98 1.7 30.32 1.7 30.32Z" fill="#0A33FF"/><path d="m162.92 105.45-18.32 3.3s3.17-22.8 8.47-33.74c4.14-8.55 7.32-7.86 8.16.12.84 7.98 1.7 30.32 1.7 30.32Z" fill="#0A33FF"/><path d="M144.89 106.7c.6-4.28 1.38-8.53 2.25-12.76.88-4.23 1.77-8.48 3.32-12.52-2.03 8.25-3.45 17.06-5.57 25.28Z" fill="#263238"/><path d="M149.48 82.07c0 .95-.05 1.9-.16 2.83a4 4 0 0 1 .16-2.83Zm13.44 23.38c-.71-7.88-.77-16.23-1.2-24.13 1.25 7.96 1.3 16.08 1.2 24.13Z" fill="#263238"/><path d="M162.54 82.15c.2.93.05 1.9-.43 2.74.08-.93.22-1.84.43-2.74Z" fill="#263238"/><path opacity=".1" d="m151.52 78.6.51-1.3a9.3 9.3 0 0 0 3.45-5.28c.1-.45.14-.9.15-1.35.21-.28.44-.54.7-.79.1 1.7-.32 3.4-1.2 4.86a12.64 12.64 0 0 1-3.6 3.86Zm11.15 20.78c-1.92 1.14-4.54.78-6.52 0-2.12-.82-4.3-3-3.42-5.47.45-1.26 1.54-2.16 2.45-3.1a6.42 6.42 0 0 0 1.59-2.53 3 3 0 0 0-.33-2.65 4.15 4.15 0 0 0-2.83-1.44 6.8 6.8 0 0 0-4.14.76l-.29 1.01a6.22 6.22 0 0 1 3.98-1.1c.96.08 2.14.38 2.72 1.2a2.5 2.5 0 0 1 .05 2.4c-.8 1.9-2.8 2.92-3.7 4.76a4.6 4.6 0 0 0 .98 5.1c1.44 1.51 3.6 2.25 5.67 2.43 1.3.15 2.63-.06 3.82-.6l-.03-.74v-.03Zm-.6-11.69c0-.45-.05-.9-.08-1.36-.48-.7-.96-1.4-1.39-2.14a10.7 10.7 0 0 1-1.68-5.8c.09-2.17.7-4.27 1.8-6.13a9.71 9.71 0 0 0-.26-.93 12.9 12.9 0 0 0-1.41 2.86 11.77 11.77 0 0 0-.49 7.16c.68 2.4 2.17 4.35 3.52 6.36l-.01-.02Zm-8.61 14.55a5.83 5.83 0 0 0-4.06 2.76c-.55.9-.8 1.95-.7 3l.7-.13v-.13c-.13-1.95 1.37-3.83 3.13-4.51 2.19-.86 4.68-.2 6.7.8.93.46 1.81 1 2.65 1.6l.97-.17c-2.75-2.03-6-3.8-9.4-3.22Zm1.7-27.47a8.45 8.45 0 0 0 1.2-4.86c-.26.24-.49.5-.7.78 0 .46-.06.9-.15 1.35a9.3 9.3 0 0 1-3.45 5.28c-.17.42-.34.85-.5 1.3a12.64 12.64 0 0 0 3.6-3.85Zm7.5 24.64c-1.9 1.13-4.53.78-6.51 0-2.12-.82-4.3-3-3.42-5.48.45-1.26 1.54-2.16 2.45-3.1a6.42 6.42 0 0 0 1.59-2.53 3 3 0 0 0-.33-2.65 4.15 4.15 0 0 0-2.83-1.44 6.8 6.8 0 0 0-4.14.76l-.29 1.02a6.22 6.22 0 0 1 3.98-1.1c.96.07 2.14.38 2.72 1.2a2.5 2.5 0 0 1 .05 2.4c-.8 1.9-2.8 2.91-3.7 4.75a4.6 4.6 0 0 0 .98 5.1c1.44 1.52 3.6 2.25 5.67 2.43 1.3.15 2.63-.06 3.82-.6a75.9 75.9 0 0 1-.03-.76Zm-.6-11.7c0-.45-.04-.9-.07-1.35-.48-.7-.96-1.4-1.39-2.14a10.7 10.7 0 0 1-1.68-5.81c.09-2.16.7-4.27 1.8-6.13a9.71 9.71 0 0 0-.26-.93c-.59.9-1.06 1.86-1.41 2.86a11.77 11.77 0 0 0-.49 7.17c.68 2.36 2.17 4.32 3.52 6.33h-.01Zm-8.6 14.53a5.83 5.83 0 0 0-4.06 2.76c-.55.9-.8 1.95-.7 3l.7-.13v-.13c-.13-1.95 1.37-3.83 3.13-4.51 2.19-.86 4.68-.2 6.7.8.93.46 1.81 1 2.65 1.6l.97-.17c-2.75-2.03-6-3.8-9.4-3.22Z" fill="#030402"/><path d="m164.54 106.7-20.55 4.13.36-.77-1.19-.72.28-.59-.32-1.76 20.68-3.42-.38.82.91.81-.43.7.64.8Z" fill="#0A33FF"/><path opacity=".1" d="m164.54 106.7-20.55 4.13.36-.77-1.19-.72.28-.59-.32-1.76 20.68-3.42-.38.82.91.81-.43.7.64.8Z" fill="#191C29"/><path d="M167.5 73.98c-2.08.45-6.35-2.08-7.77-5.07-.1-.2.33-2.28.73-4.8a54 54 0 0 0 .56-4.87c0-.33 9.84 3 9.84 3a25.35 25.35 0 0 0-1.32 6.05 3.83 3.83 0 0 0 .03.77c.14 1.24.16 4.44-2.07 4.92Z" fill="#AD6359"/><path d="M169.58 68.93v.11a5.9 5.9 0 0 1-1.03 0c-5.87-.47-7-7.92-7.2-9.8 1.76.36 9.5 3 9.5 3a25.5 25.5 0 0 0-1.33 6.06c0 .22.02.43.06.63Z" fill="#263238"/><path d="M160.37 47.45c-1.2 3.5.38 13.8 2.84 16.2 3.55 3.42 9.53 3.92 12.48-.4 2.85-4.2.6-17.56-2.19-19.72-4.05-3.21-11.37-1.27-13.13 3.92Z" fill="#AD6359"/><path d="M176.15 49.56c-.6-1.2-1.37-3.44-2.25-4.17-.87-.73-.57 1.2-1.98 1.43-1.63.27-3.05-1.3-4.6-1.73-1.55-.43-3.74 2-3.67 4.2.07 2.2.37 5.2.1 6.8-.25 1.58-3 2.73-3 2.73s-3.33-9.48-.15-13.93c3.17-4.44 10.97-3.93 13.03-1.72 2.07 2.21 2.52 6.39 2.52 6.39Zm-5.75 4.35s-.05.04-.05.07c.13.7.15 1.5-.44 1.8v.04c.77-.2.73-1.27.49-1.91Z" fill="#263238"/><path d="M169.68 53.28c-1.13.08-.88 2.33.16 2.26 1.05-.08.79-2.33-.16-2.26Zm4.55.28s.06 0 .06.06c.06.7.24 1.48.9 1.65v.04c-.8-.03-1.02-1.08-.96-1.75Z" fill="#263238"/><path d="M174.78 52.76c1.11-.2 1.44 2.04.4 2.23-1.02.2-1.34-2.06-.4-2.23Zm-6.1-.42c.3-.12.57-.25.84-.4.32-.1.59-.3.78-.57a.48.48 0 0 0-.14-.6 1.2 1.2 0 0 0-1.2 0c-.4.16-.73.47-.92.86a.5.5 0 0 0 .07.58.5.5 0 0 0 .57.13Zm6.85-.81a7.99 7.99 0 0 1-.92-.13c-.34 0-.66-.12-.92-.32a.47.47 0 0 1-.03-.6 1.2 1.2 0 0 1 1.16-.35c.43.04.83.23 1.12.55a.51.51 0 0 1-.41.85Zm-5.46 8.81c.17.15.36.37.6.37.26-.02.51-.1.74-.23 0 0 .04 0 .03.04a.94.94 0 0 1-.86.43.74.74 0 0 1-.6-.6c0-.01.06-.03.09 0Z" fill="#263238"/><path d="M170.65 58.2a2.4 2.4 0 0 0 1.67.94c.28.04.57.04.86 0h.16l.16-.03a.18.18 0 0 0 .12-.17v-.2c0-.54-.13-1.36-.13-1.36.2.09 1.24.47 1.2.19a35.71 35.71 0 0 0-1.48-7.2.07.07 0 0 0-.08 0 .06.06 0 0 0-.02.03c.2 2.24.8 4.43 1.05 6.68a4.15 4.15 0 0 0-1.16-.25c-.07 0 .25 1.57.24 1.8a3.32 3.32 0 0 1-2.53-.6c-.05.06-.1.11-.06.17Z" fill="#263238"/><path d="M172.84 58.87c-.27.4-.63.73-1.07.96-.24.1-.5.14-.76.1-.57-.11-.6-.6-.56-1.06.04-.24.11-.47.2-.7.64.46 1.4.7 2.2.7Z" fill="#263238"/><path d="M171.77 59.83c-.24.1-.5.14-.76.1-.57-.11-.6-.6-.56-1.06a1.31 1.31 0 0 1 1.32.96Z" fill="#FF98B9"/><path d="M169.3 57.9a2.95 2.95 0 1 1-.07-5.91 2.95 2.95 0 0 1 .08 5.9Zm-.06-5.51a2.57 2.57 0 1 0 .04 5.14 2.57 2.57 0 0 0-.04-5.14Zm6.78 4.61c-1.13 0-2.16-1.13-2.36-2.66a3.5 3.5 0 0 1 .34-2.14 1.83 1.83 0 0 1 3.12-.4c.5.55.8 1.23.88 1.97.21 1.61-.6 3.05-1.8 3.2l-.18.03Zm-.36-5.49h-.15a1.57 1.57 0 0 0-1.16.88c-.3.58-.4 1.24-.3 1.89.18 1.4 1.13 2.43 2.12 2.3.99-.13 1.63-1.38 1.43-2.77a3.12 3.12 0 0 0-.78-1.74 1.62 1.62 0 0 0-1.16-.57v.01Z" fill="#0A33FF"/><path d="m172.07 54.53-.29-.27c.4-.43 1.36-1.06 2.17-.4l-.25.31c-.73-.6-1.6.32-1.63.36ZM159.13 57l-.38-.13c.07-.18.64-1.7 1.5-1.95s6.1-.43 6.33-.43v.39c-1.52.05-5.61.23-6.23.42-.62.18-1.07 1.26-1.22 1.7Z" fill="#0A33FF"/><path d="M162.71 55.99s-2.28-3.34-3.8-2.52c-1.5.81.19 5.62 1.95 6.3a1.8 1.8 0 0 0 2.4-.94l-.55-2.84Z" fill="#AD6359"/><path d="M159.44 54.83c-.03 0-.04.04 0 .05 1.23.51 1.87 1.67 2.31 2.86a.99.99 0 0 0-1.48-.28l-.01.02v.04h.02a.04.04 0 0 0 .03 0 1.1 1.1 0 0 1 1.2.4c.22.31.42.64.57.99.06.11.26.05.21-.07.05-1.61-1.16-3.83-2.85-4Z" fill="#263238"/><path d="M332.84 156.44c-.36-1.41-22.4-35.3-24-36.03-.19-.1-11.62 6.86-11.62 6.86-.49.57-20.85-5.28-20.85-5.28l-1.99 24.93 37.71 1.88s4.87 3.35 9.35 6.12a56.87 56.87 0 0 0 5.9 3.4c1.88.64 5.86-.48 5.5-1.88Z" fill="#F7A9A0"/><path d="M315.56 151.15c1.71 1.13 3.84 2.52 5.88 3.79 2.75 1.71 5.2 3.17 5.91 3.4 1.85.6 5.83-.5 5.46-1.9-.36-1.41-22.38-35.3-24-36.04-.15-.06-7.08 4.12-10.16 6 5.57 5.93 20.03 21.5 22.57 25.48 2.95 4.62-4.64-.08-5.66-.73Z" fill="#263238"/><path d="M282.69 116.74s-31.62-14.74-45.77-14.66c-16.84.1-30.05 19.99-9.5 34.53 18.16 12.85 76.2 11.78 76.2 11.78l-13.17-22.52a110.58 110.58 0 0 0-37.29-8.23l28.99 6.08.54-6.98Z" fill="#F7A9A0"/><path d="M222.3 155.65c.43-1.38 24.05-34.2 25.7-34.84.19-.09 11.28 7.42 11.28 7.42.46.6 21.08-4.29 21.08-4.29l.8 25-37.77.08s-5.03 3.12-9.64 5.67a56.53 56.53 0 0 1-6.06 3.12c-1.9.54-5.82-.78-5.38-2.16Z" fill="#F7A9A0"/><path d="M227.68 157.8c2.08-.92 4.1-1.96 6.06-3.12l3.18-1.8c-1.05.54-9.03 4.63-5.72.26 3.55-4.68 26.96-25.66 26.96-25.66-2.8-1.9-10.02-6.75-10.2-6.68-1.65.66-25.28 33.45-25.7 34.85-.42 1.4 3.54 2.7 5.42 2.15Z" fill="#263238"/><path d="M281.32 116.25s28.33-9.95 45.4-7.91c16.7 1.99 23.57 22.95 7.26 34.31-17.78 12.4-80.02 6.35-80.02 6.35l12.32-22.05s23.68-6.9 44.49-6.7l-29.25 4.7-.2-8.7Z" fill="#F7A9A0"/><path d="M281.53 116.17s33.57-12.9 50.4-6.87c16.83 6.01 13.74 26.56 4.25 32.31-9.49 5.76-8.52 5.15-33.78 11.53-9.82 2.48-27.9 2.9-32.97 2.28-18.46-2.28-19.89-12.5-37.68-15.96-.66-.13-17.73-9.03-14.63-22.7 3.1-13.68 15.74-17.05 30.52-13.24 15.23 3.93 33.89 12.65 33.89 12.65Z" fill="#0A33FF"/><path d="M219.17 111.25a1.75 1.75 0 0 1-.72 1.42c.22-.49.46-.96.72-1.42Zm13.87-1.74a1.76 1.76 0 1 0 0 3.52 1.76 1.76 0 0 0 0-3.52Zm15.6 0a1.77 1.77 0 1 0 .02 0h-.02Zm15.63 0a1.77 1.77 0 1 0 .02 0h-.02Zm29.73 2.62a1.8 1.8 0 0 0 3.31-.86c-1.13.26-2.24.56-3.31.86Zm17.17-2.62Zm15.6 0a1.77 1.77 0 1 0 .04 0h-.04Zm-93.73 23.88a1.78 1.78 0 0 0-1.74 2.1 1.76 1.76 0 0 0 1.39 1.4 1.77 1.77 0 1 0 .35-3.5Zm15.6 0a1.77 1.77 0 1 0 .02 0h-.02Zm15.63 0a1.77 1.77 0 1 0 .02 0h-.02Zm15.63 0a1.78 1.78 0 0 0-1.74 2.1 1.76 1.76 0 0 0 1.39 1.4 1.77 1.77 0 1 0 .37-3.5h-.02Zm15.6 0a1.78 1.78 0 0 0-1.74 2.1 1.76 1.76 0 0 0 1.39 1.4 1.77 1.77 0 1 0 .4-3.5h-.05Zm15.6 0a1.77 1.77 0 1 0 .08 0h-.08Zm15.6 0a1.77 1.77 0 1 0 .1 0h-.1Zm15.63 0a1.76 1.76 0 0 0-1.3 2.96 19.4 19.4 0 0 0 1.4-2.96h-.1Zm-117.1-11.86a1.77 1.77 0 1 0 0 3.54 1.77 1.77 0 0 0 0-3.54Zm0 0a1.77 1.77 0 1 0 0 3.54 1.77 1.77 0 0 0 0-3.54Zm15.62 0a1.78 1.78 0 0 0-1.74 2.11 1.76 1.76 0 0 0 1.39 1.4 1.77 1.77 0 1 0 .35-3.51Zm15.63 0a1.78 1.78 0 0 0-1.74 2.11 1.76 1.76 0 0 0 1.39 1.4 1.77 1.77 0 1 0 .35-3.51Zm15.6 0a1.78 1.78 0 0 0-1.74 2.11 1.76 1.76 0 0 0 1.39 1.4 1.77 1.77 0 1 0 .38-3.51h-.03Zm15.6 0a1.77 1.77 0 1 0 .06 0h-.06Zm15.63 0a1.78 1.78 0 0 0-1.74 2.11 1.76 1.76 0 0 0 1.39 1.4 1.77 1.77 0 1 0 .4-3.51h-.05Zm15.6 0a1.78 1.78 0 0 0-1.74 2.11 1.76 1.76 0 0 0 1.39 1.4 1.77 1.77 0 1 0 .44-3.51h-.09Zm15.63 0a1.78 1.78 0 0 0-1.74 2.11 1.76 1.76 0 0 0 1.39 1.4 1.77 1.77 0 1 0 .44-3.51h-.09Zm-78.06 23.89a1.76 1.76 0 1 0 0 3.52 1.76 1.76 0 0 0 0-3.52Zm15.6 0a1.76 1.76 0 1 0 .03 0h-.03Zm15.6 0a1.77 1.77 0 1 0 .06 0h-.06Zm15.63 0a1.76 1.76 0 1 0 .06 0h-.06Zm15.6 0a1.76 1.76 0 0 0 0 3.52l.9-.24a1.76 1.76 0 0 0-.9-3.28Z" fill="#fff"/><path d="M253.54 125.35c4.62.76 9.31.98 13.99.66a76.31 76.31 0 0 0 13.2-2.1c4.16-1.04 8.23-2.36 12.31-3.66 4.03-1.34 8.12-2.47 12.26-3.38a53.45 53.45 0 0 1 12.46-1.29c.52 0 1.04.03 1.57.08h.02a.04.04 0 0 1 .03.02v.04l-.01.01h-.04c-4.25-.03-8.48.47-12.6 1.5-4.17.97-8.23 2.33-12.3 3.63-4.07 1.3-8.15 2.66-12.3 3.75A63.84 63.84 0 0 1 269 126.8a62.43 62.43 0 0 1-15.56-1.24c-.09-.02-.03-.22.1-.2Z" fill="#263238"/><path d="M254.47 120.86a50.2 50.2 0 0 0 6.76 1.85c2.28.5 4.56 1 6.86 1.39 1.34.26 2.7.44 4.06.54.06 0 .05.09 0 .08-1.2-.08-2.35-.1-3.52-.17a37.1 37.1 0 0 1-10.4-2.21c-1.27-.47-2.52-.97-3.76-1.46-.02 0-.02-.02 0-.02Zm-12.49 14.56a21.8 21.8 0 0 1 7.07 3.22 78.88 78.88 0 0 1 6.34 4.99 64.31 64.31 0 0 0 6.42 4.9 24.07 24.07 0 0 0 8.5 3.4 46 46 0 0 0 11.16.52c.03 0 .03.04 0 .05-6.36.45-13.2.44-19-2.66-4.8-2.59-8.4-6.87-12.6-10.2-2.34-1.84-4.95-3.45-7.89-4.12-.08-.03-.05-.11 0-.1Z" fill="#263238"/><path d="M268.64 149.6c3.38.27 6.77.33 10.16.38 3.4.06 6.78 0 10.16-.17a60.51 60.51 0 0 0 5.83-.54v.06l-.03.01c-3.38.4-6.74.87-10.14 1.1-3.39.22-6.79.22-10.17-.04-1.95-.15-3.9-.38-5.82-.64-.1-.01-.1-.18.01-.17Zm-3.94-31.69c2.1.27 4.21.38 6.33.35 2.11 0 4.23-.15 6.33-.44 1.19-.15 2.37-.4 3.53-.71.05 0 .07.06 0 .08a45.88 45.88 0 0 1-6.29 1.45c-2.12.3-4.27.34-6.4.16-1.2-.13-2.38-.33-3.55-.6-.15-.04-.1-.31.05-.29Zm-2.35-38.99a.32.32 0 0 0 .26.35l1.34.09c1.2-3.12 2.5-5.6 2.16-4.64a16.1 16.1 0 0 0-.84 4.71l2.64.14c1.04-5.5 2.4-9.57 2.29-8.3-.34 5.06-.04 6.69.32 8.43 6.37.3 14.73.6 20.77.7.7-3.04 1.32-6.33 1.42-6.1.82 1.71 1.05 4.2 1.07 6.12 1.92 0 3.46 0 4.4-.07 0 0 .45-2.55.51-3.4.18-2.15-.05-4.32-.67-6.39a31.4 31.4 0 0 0-2.8-5.98 17.86 17.86 0 0 1-1.6-3.97c-.26-1-.42-2.01-.5-3.04-.28-3.75-2.4-7-5.91-7.99-6.7-6.31-13.37-3.69-15.41 1.12-.2.47-.38 1-.56 1.6-.69 2.16-1.3 4.98-1.86 7.15-.21.85-.48 1.69-.8 2.5-1.67 3.98-5.52 6.2-6.23 16.97Z" fill="#263238"/><path d="M264.71 66.21c1.64-2.12 3.33-3.94 4.3-6.6.86-2.4 1.36-4.94 2.25-7.34 0-.04.07 0 .06 0-1.37 4.26-1.63 8.56-4.39 12.15-1.5 1.95-3 3.75-3.98 6.08a20.8 20.8 0 0 0-1.55 7.71c0 .1-.12.09-.14 0-.39-4.3.84-8.57 3.45-12Zm22.46-17.01c-.93-.35-1.8-5.56 1.61-8.04 3.4-2.48 7.8.35 5.97 4.62-1.16 2.69-5.6 4.14-7.58 3.42Z" fill="#263238"/><path d="M293.57 40.84a5.85 5.85 0 0 1 1.97 3.3 3.53 3.53 0 0 1-1.04 3.36 7.15 7.15 0 0 1-3.4 1.66c-.64.14-1.3.22-1.95.24a5.37 5.37 0 0 1-1.98-.21c.6.34 1.27.54 1.96.6.69.07 1.38.05 2.07-.04a6.83 6.83 0 0 0 3.81-1.7 4 4 0 0 0 1.13-1.85c.18-.71.17-1.46-.03-2.16a5.16 5.16 0 0 0-2.54-3.2Z" fill="#263238"/><path d="M283.48 82.52c-8.97 10.08-21 19.32-24.57 20.28-4.52 1.2-25.88-5.11-26.9-5.54-2.56-1.08 4.32-18.2 7.1-17.16 4.23 1.58 18.54 7.7 19.87 7.3 1.34-.41 9.18-3.7 20.06-8.88 7.51-3.59 10-2.25 4.44 4Z" fill="#F7A9A0"/><path d="M232.7 97.34c-2.13-.2-11.76-2-14.32-3.11-2.57-1.1-9.74-4.8-9.09-6.86.65-2.06 2.83-1.13 2.83-1.13s-2.78-2.05-1.94-4.05c.84-2 4.2-.47 4.2-.47s-2.7-2.31-1.72-4.25c.98-1.94 4.09.17 4.09.17s-2.57-2-1.09-3.26c1.8-1.51 6.1 2.7 9 3.7.66.23 13.8 3.66 13.8 3.66l-5.77 15.6Z" fill="#F7A9A0"/><path d="M216.46 77.47c3.18 3.08 5.1 3.88 9.37 4.8l.04.02a.07.07 0 0 1 0 .09.08.08 0 0 1-.04.02c-4.26-.5-6.82-1.15-9.52-4.8-.14-.17 0-.28.15-.13Zm-2.34 4c3.6 2.92 5.66 3.8 10.06 5.08.06 0 .04.13 0 .1-4.42-.87-6.96-1.59-10.16-4.98-.17-.15-.07-.33.1-.2Zm-1.77 4.83c3.66 2.57 5.9 3.64 10.33 4.33a.08.08 0 0 1 .07.08l-.02.05a.08.08 0 0 1-.05.03c-4.59-.26-7.39-1.58-10.39-4.38-.22-.19-.18-.28.06-.12Z" fill="#263238"/><path d="M241.38 80.92s-3.6-4.2-5.62-5.7-11.51-4.34-12.24-2.31c-.94 2.6 4.2 5.32 6.93 6.32 0 0-2.19 6 1.1 8.78 3.29 2.78 9.83-7.09 9.83-7.09Z" fill="#F7A9A0"/><path d="M223.5 73.7c.85 3 4.49 4.08 7.04 5.25a.25.25 0 0 1 .16.18v.12a.25.25 0 0 1-.07.11c-.75 2.59-1.05 6.46.75 8.67l.01.04a.07.07 0 0 1-.06.06l-.05-.01c-2.24-2.11-2.25-5.93-1.25-8.72-2.64-1.15-6.24-2.4-6.56-5.69h.03Z" fill="#263238"/><path d="m309.23 116.59-41.6.7 2.07-13.31s-3.38-2.93-1.41-8.49c1.29-3.64 7.12-12.17 10.07-15.72 7.2-8.65 12.18-3.82 14.18-1.6 7.6 8.5 16.69 38.42 16.69 38.42Z" fill="#F7A9A0"/><path d="m267.6 117.28 41.6-.69s-2.53-8.34-6.04-17.48c-2-.6-5.34-1.8-7.49-3.5-3.24-2.6-6.34-10.1-6.34-10.1l-14.45-1.14c-2.75 3.9-5.74 8.64-6.6 11.11-1.97 5.57 1.4 8.5 1.4 8.5l-2.08 13.3Z" fill="#0A33FF"/><path d="M281.69 87.39a1.76 1.76 0 1 1-3.53-.07 1.76 1.76 0 0 1 3.53.07Zm-1.77 22.12a1.76 1.76 0 1 0 0 3.52 1.76 1.76 0 0 0 0-3.52Zm15.6 0a1.76 1.76 0 1 0 .03 0h-.03Zm-23.44-11.86a1.77 1.77 0 1 0 .03 0h-.03Zm15.6 0a1.77 1.77 0 1 0 .06 0h-.06Zm15.44 1.46c-.42-.12-.9-.27-1.41-.45a1.75 1.75 0 0 0 .36 2 1.77 1.77 0 0 0 1.8.43 25.2 25.2 0 0 0-.7-1.98h-.05Z" fill="#fff"/><path d="M282.27 103.87c-1.8-.17-3.63-.2-5.44-.1-.9.07-1.8.17-2.69.3l-1.34.15a5.83 5.83 0 0 1-1.44.02v.02l.01.01h.01l.01.01a8.87 8.87 0 0 0 2.61.22c.91-.06 1.8-.16 2.74-.23a77.4 77.4 0 0 1 5.54-.26c.07 0 .07-.14-.01-.14Zm4.12 2.37a38.6 38.6 0 0 0-4.38-1.01 25.31 25.31 0 0 0-3.3-.34c-.36-.02-.8 0-1.2 0-.05 0-.06.06 0 .06.37.04.73.13 1.1.2l1.1.16 2.22.35c1.48.22 2.96.45 4.43.72.09 0 .1-.12.03-.14Z" fill="#263238"/><path d="M296.3 80.08c12.35 12.45 25.5 34 22.62 39.33-3.2 5.94-17.97-6.84-17.9-7.86.04-.77-6.04-16.71-10.66-28.3-4.61-11.6 2.88-6.26 5.93-3.17Z" fill="#F7A9A0"/><path d="M302.12 113.4c-.7-2-1.42-3.98-2.16-5.96l-2.23-5.93-2.3-5.9-1.18-2.93-1.2-2.94c.34 1 .71 2 1.06 3l1.1 2.97 2.23 5.93c.77 1.97 1.52 3.94 2.3 5.9a451.5 451.5 0 0 0 2.38 5.86Z" fill="#263238"/><path d="M294.72 94.32a11.07 11.07 0 0 0-1.3-2.12l-.51-.67a9.85 9.85 0 0 0 1.81 2.79Z" fill="#263238"/><path d="M318.66 119.9c-3.46 3.64-10.52 3.54-30.4 4.43-2.76.12-9.4-19.47-6.46-19.76 3.7-.35 18.1-.93 19.16-.84 8.93.77 20.04 13.7 17.7 16.17Z" fill="#F7A9A0"/><path d="M288.46 105.2s-7.37-1.53-12.24-2.3c-2.71-.44-7.43-.77-9.57-.17-3.2.88-16.02 6.64-14.7 9.78 1.2 2.84 11.6-3.5 11.6-3.5s-11.05 5.47-8.97 8.63c2.08 3.15 12.86-5.58 12.86-5.58s-11.22 5.88-8.57 8.8c2.01 2.2 12.22-5.16 12.22-5.16s-9.6 5.12-7.64 7.47c2.17 2.6 12-3.6 12-3.6 6 5.15 10.97 5.13 14.5 4.7.88-.07-1.5-19.07-1.5-19.07Z" fill="#F7A9A0"/><path d="M267.25 106.87c-1.32.6-2.67 1.2-3.93 1.9-1.26.7-2.5 1.46-3.7 2.29a24.61 24.61 0 0 0-4.32 3.65c2.48-2.28 6.97-4.9 8.23-5.6 1.26-.72 2.49-1.49 3.75-2.2.03-.01 0-.06-.03-.04Zm2.65 4.51c-1.65.83-3.33 1.6-4.95 2.5-1.62.91-3.05 1.9-4.6 2.92-.11.08-.03.12.1.04 1.57-.94 3.1-1.7 4.7-2.63 1.6-.93 3.15-1.93 4.77-2.8.03 0 0-.04-.02-.03Zm2.97 3.47c-2.56 1.21-5 2.7-7.26 4.41-.12.08 0 .12.12.04 2.4-1.5 4.25-2.71 7.2-4.36.03-.03 0-.12-.06-.1Zm36.97-7.02a17.05 17.05 0 0 0-11.4-4.14c-.05 0-.06.09 0 .09 4.29.25 9.86 3 11.4 4.12 0 .03.04-.04 0-.07Z" fill="#263238"/><path d="M288.91 76.76c-.12.78-3.46 6-6.96 6.04-1.15 0-1.52-6.22-1.52-6.22l-.13-.45-1.86-6.35 7.26-5.35 1.05-.7.86 3.97c0 .1.04.2.07.32.02.12.06.24.07.36l.22 1 .15.78c.04.27.1.53.15.8.35 1.92.56 3.85.64 5.8Z" fill="#F7A9A0"/><path d="M287.61 67.7a13.27 13.27 0 0 1-7.31 8.4l-1.86-6.35 7.26-5.35 1.05-.7s.4 1.8.86 4Z" fill="#263238"/><path d="M268.84 59.9c-1 11.57 5.82 13.47 8.31 13.68 2.27.2 10 .56 12.2-10.84 2.18-11.41-2.89-15.53-8.05-16.25-5.16-.71-11.47 1.84-12.46 13.4Z" fill="#F7A9A0"/><path d="M270.64 58.04c.27-.03.53-.06.8-.12.28 0 .56-.1.78-.27a.42.42 0 0 0 .03-.5 1 1 0 0 0-.99-.3c-.37.03-.72.2-.98.47a.44.44 0 0 0 .36.72Zm8.02.16c-.27-.05-.51-.14-.78-.22a1.32 1.32 0 0 1-.74-.38.41.41 0 0 1-.07-.26c0-.09.04-.18.1-.24a1.03 1.03 0 0 1 1.03-.18c.36.08.69.3.9.6.05.07.07.16.07.24a.44.44 0 0 1-.26.4.44.44 0 0 1-.25.04Zm-2.06 3.05s.06.04.05.08c-.09.78-.06 1.7.6 2.02v.04c-.87-.2-.9-1.41-.65-2.14Z" fill="#263238"/><path d="M277.34 60.49c1.28 0 1.16 2.56 0 2.55-1.15-.01-1.06-2.57 0-2.55Z" fill="#263238"/><path d="M277.84 60.65c.22.15.42.42.7.46.26.04.54-.22.76-.46 0 0 .04 0 .04.03 0 .49-.23.98-.75 1.03-.53.05-.8-.4-.9-.9-.02-.1.06-.21.15-.16Zm-5.65.22s-.07.04-.07.07c0 .79-.14 1.7-.87 1.93v.05c.89-.1 1.06-1.3.94-2.05Z" fill="#263238"/><path d="M271.52 60c-1.27-.14-1.47 2.4-.3 2.53 1.18.13 1.36-2.39.3-2.53Z" fill="#263238"/><path d="M270.97 60.14c-.2.12-.42.35-.67.35-.25 0-.46-.3-.6-.6h-.04c-.06.49.06 1 .53 1.14.46.13.76-.27.91-.75.02-.04-.04-.18-.13-.14Zm2.25 4.55s-.23 1.2-.27 1.72c0 .05.13.09.32.11a2.65 2.65 0 0 0 2.63-.83v-.04l-.01-.03-.03-.02h-.04c-.74.45-1.6.64-2.45.55 0-.16.46-1.99.37-2-.43.02-.86.09-1.28.21.42-2.45 1.2-4.8 1.6-7.25 0-.1-.11-.13-.14-.05-.94 2.5-1.61 5.1-2.03 7.74-.09.32 1.11 0 1.33-.11Z" fill="#263238"/><path d="M273.37 66.26c.28.48.67.88 1.15 1.16.26.15.56.2.86.17.66-.08.75-.66.7-1.2a3.31 3.31 0 0 0-.18-.8 4.2 4.2 0 0 1-2.53.67Z" fill="#263238"/><path d="M274.52 67.42c.26.15.56.2.86.17.66-.08.75-.66.7-1.2a1.49 1.49 0 0 0-1.56 1.03Z" fill="#FF9BBC"/><path d="M288.32 63.04c-2.4-.22-2.09-5.77-2.09-5.77s-4.03-1.09-5.5-4c0 0 .95 2.5 2.47 3.6.25.19-7.97-1.3-8.26-7.73 0 0-1.71 6.19-5.6 7.2-.18.05 1.02-5.4 2.75-6.98.67-.64 1.37-1.24 2.12-1.8a11.91 11.91 0 0 1 8.88-1.56c5.03 1.14 7.95 6.76 8.16 9 .42 4.36-1.79 8.14-2.93 8.04Z" fill="#263238"/><path d="M282.92 57c-4.5-.56-7.88-3.73-7.9-8.4a.1.1 0 0 0-.16-.06.1.1 0 0 0-.03.06c-.98 4.64 3.82 8.49 8.13 8.49.1 0 .07-.09-.04-.09Zm5.41 5.78c-2.35-1.45-2.55-3.95-2.54-6.47 0-.07-.12-.08-.13 0-.23 2.45 0 5.5 2.56 6.68a.12.12 0 0 0 .16-.05.12.12 0 0 0-.01-.13.11.11 0 0 0-.04-.03Z" fill="#263238"/><path d="M274.97 48.2h-.04c-.75 2.54-1.2 6.9-4.58 7.3a.07.07 0 0 0-.04.03.07.07 0 0 0 0 .08l.04.03c3.25-.1 4.77-4.74 4.62-7.45Z" fill="#263238"/><path d="M288.56 67c-.17.07-.35.11-.54.14-.18.03-.36.03-.54 0a1.5 1.5 0 0 1-.67-.22c-.16-.08-.31-.2-.44-.33a2.24 2.24 0 0 1-.44-.66l.64-3.1s2.53-3.6 4.2-2.72c1.67.87-.27 6.17-2.2 6.9Z" fill="#F7A9A0"/><path d="M290.17 61.61c.03 0 .03.05 0 .05-1.36.55-2.07 1.8-2.57 3.11a1.09 1.09 0 0 1 1.21-.5c.15.03.3.1.41.2.04 0 0 .08-.03.08a1.2 1.2 0 0 0-1.33.42c-.25.34-.47.7-.64 1.08-.06.12-.28.05-.23-.09-.02-1.76 1.32-4.16 3.18-4.35Z" fill="#263238"/><path d="M289.35 85.52s-.98-6.15.94-9.39l-.94-.6s-2.15 1.56-1.45 9.84l1.45.15ZM276.5 84.5l3.86-6.85-1.06.48-4.4 6.24 1.6.12Z" fill="#0A33FF"/><path d="M199.9 228.7c-1.67.6-51.18 1.6-53.05.46-.22-.12-1.03-16.5-1.03-16.5.06-.24-.76-1.8-2.02-4.01a715.86 715.86 0 0 0-10.44-17.2l29.4-8.88 12.08 24.18 3.08 6.17s6.75 2.64 12.63 5.27c3.6 1.61 6.78 3.1 7.52 3.65 1.9 1.47 3.53 6.28 1.84 6.87Z" fill="#FFC4C0"/><path d="M199.9 228.7c-1.67.6-51.18 1.6-53.05.46-.22-.12-1.03-16.5-1.03-16.5.06-.24-.76-1.8-2.02-4.01l31.03-1.9 3.08 6.17s6.75 2.64 12.63 5.27c3.6 1.61 6.78 3.1 7.52 3.65 1.91 1.47 3.54 6.28 1.85 6.87Z" fill="#fff"/><path d="M200.12 228.9c-1.72.6-51.31 1.46-53.22.3-.73-.44-1.6-8.08-1.07-16.54l31.97-.51s18.51 8.18 20.47 9.68c1.96 1.5 3.57 6.46 1.85 7.06Z" fill="#0A33FF"/><path opacity=".1" d="M146.9 229.2c.7.43 7.74.6 16.5.6l-16.8-17.12h-.79c-.51 8.44.36 16.08 1.09 16.52Z" fill="#191C29"/><path d="M199.37 226.93c-8.31-.07-41.86.47-50.08 1.04-.07 0-.07.05 0 .05 8.23.24 41.77-.6 50.08-.96.18 0 .18-.13 0-.13Zm-4.32-6.83a6.69 6.69 0 0 0-6.74 6.59c0 .04.09.04.1 0a7.72 7.72 0 0 1 6.67-6.51v-.05l-.02-.01-.01-.02Zm-14.63-7.17c-3.33 0-7.16 1.26-9.19 4.01-.07.11.08.22.18.17a46.16 46.16 0 0 1 9.07-3.77.21.21 0 0 0-.06-.4Zm2.58.97c-3.33 0-7.16 1.24-9.19 4-.07.11.08.22.17.16a45.95 45.95 0 0 1 9.08-3.76.21.21 0 0 0-.06-.4Zm2.6.95c-3.34 0-7.18 1.25-9.2 4-.07.11.08.22.17.17a46.24 46.24 0 0 1 9.08-3.76.21.21 0 0 0-.06-.41Zm2.58.95c-3.33 0-7.17 1.26-9.19 4.02-.08.1.07.21.17.16a45.8 45.8 0 0 1 9.08-3.76.21.21 0 0 0-.06-.41Zm-36.91 4.24c-3.74.08-3.6 5.87.11 5.8 3.71-.07 3.62-5.87-.11-5.8Z" fill="#263238"/><path d="M183.86 204c-1.7-1.37-3.8.04-4.8 1.5a17.5 17.5 0 0 0-2.87 8.56c0 .07.05.1.1.1a.4.4 0 0 0 .42.31c.06 0 .13-.02.18-.05 2.34-1.68 5.05-3.19 6.8-5.54 1.01-1.38 1.79-3.59.17-4.88Zm-3.96 7.15c-1.13.85-2.3 1.64-3.4 2.53.57-1.66 1.06-3.34 1.8-4.96.35-.78.75-1.53 1.2-2.26.7-1.12 3.93-3.95 4.32-.34.18 1.99-2.57 4-3.92 5.02Z" fill="#263238"/><path d="M167.92 215.43c2.9.4 5.88-.48 8.72-.97a.39.39 0 0 0 .3-.42.4.4 0 0 0-.07-.18.1.1 0 0 0 .03-.03v-.04a.1.1 0 0 0 0-.04 17.5 17.5 0 0 0-8.15-3.99c-1.75-.3-4.2.2-4.45 2.4-.2 2.04 1.9 3.04 3.62 3.27Zm-2.04-1.86c-2.3-2.81 1.98-3.11 3.27-2.84.82.2 1.64.45 2.43.75 1.66.6 3.21 1.44 4.8 2.2-1.4.16-2.79.44-4.2.65-1.67.24-5.03.8-6.3-.73v-.03Z" fill="#263238"/><path d="m141.56 208.33 34.87-5.28s-16.76-33.4-27.14-51.54c-5.76-10.07-21.55-10.57-29.22 1.5-10.26 16.14-18.21 31.26-22.8 39.6l-7.87.72 1.7 12.91 26.29 5.9c10.07 1.2 17.14-16.73 17.3-16.43 1.26 2.36 6.87 12.62 6.87 12.62Z" fill="#455A64"/><path d="M134.86 195.8c-.99-2.04-1.76-4.2-2.64-6.27-.89-2.07-1.71-4.03-2.56-6.04-1.71-4.07-3.48-8.13-5.14-12.22a232.52 232.52 0 0 1-2.7-7.01h-.02l-.02.02v.04c.67 2.2 1.37 4.38 2.1 6.56-.19-.38-.39-.76-.6-1.12l-1.71-3c0-.03-.08 0-.06.04.53 1 1.07 1.99 1.62 2.97.28.49.6.97.87 1.46a153.4 153.4 0 0 0 7.24 17.87c1.1 2.27 2.4 4.45 3.51 6.72.05.12.15.05.11-.02Zm7.48 6.33c-1.68-2.6-5.68-10.44-7.12-13.16a263.9 263.9 0 0 1-8.06-16.77 318.02 318.02 0 0 1-4.06-9.7h-.04c1.98 5.86 4.33 11.6 6.88 17.22 2.55 5.63 10.8 20.82 12.29 22.47.05.07.15.01.1-.06Zm-21.64-35.29c-3 5.37-6.08 10.7-9.1 16.05l-4.56 8.13c-.7 1.28-1.4 2.58-2.13 3.84a7.24 7.24 0 0 1-2.76 2.86c-1.4.66-2.86 1.17-4.37 1.52-1.7.5-3.38 1.03-5.09 1.5-.07 0-.04.14.04.12 1.52-.4 3.05-.75 4.58-1.13 1.4-.3 2.8-.67 4.16-1.12a6.8 6.8 0 0 0 3.08-2.13 24.58 24.58 0 0 0 2.15-3.6c3.02-5.5 6-11.03 8.97-16.58 1.68-3.15 3.35-6.3 5.05-9.44.01-.02-.02-.06-.02-.02Zm20.07 36.6c2.08-.38 4.2-.56 6.33-.83l6.34-.82c4.2-.56 18.56-2.84 19.64-3.2.07 0 .04-.13 0-.13-1.04-.04-10.43 1.2-12.53 1.53-4.2.6-8.4 1.36-12.6 2.07-1.2.2-2.4.43-3.6.64-1.2.22-2.4.47-3.6.6-.07.03-.06.15.02.14Z" fill="#263238"/><path d="M162.83 236.17c-.63-1.66-32.2-39.82-34.27-40.5-.24-.08-13.2 10-13.2 10-.52.76-26.13-3.5-26.13-3.5l1.08 30.6 46.2-3s6.4 3.4 12.24 6.14c3.6 1.7 6.78 3.12 7.67 3.32 2.36.52 7.06-1.4 6.41-3.06Z" fill="#FFC4C0"/><path d="M156.45 239.26c-.9-.19-4.08-1.62-7.67-3.32-5.86-2.74-12.27-6.14-12.27-6.14l-10.28.67L109 205.2c3.57.47 6.22.74 6.38.5 0 0 12.94-10.09 13.2-10 2.07.67 33.65 38.83 34.28 40.5.63 1.66-4.08 3.55-6.41 3.06Z" fill="#fff"/><path d="M163.11 236.21c-.66-1.7-32.4-39.83-34.5-40.52-.81-.26-7.16 4.05-13.2 9.98l20.48 24.56s18.25 8.69 20.66 9.17c2.41.48 7.25-1.48 6.56-3.19Z" fill="#0A33FF"/><path d="M161.13 236.93c-5.47-6.25-26.95-32.02-31.89-38.63-.04-.05 0-.08.04-.04 5.56 6.1 26.83 32.04 31.96 38.59.1.15 0 .22-.11.08Zm-7.99 1.19a6.67 6.67 0 0 1 .6-9.4c.05 0 .1.04.07.08a7.72 7.72 0 0 0-.6 9.25c.05.05-.02.11-.07.07Zm-14.98-6.42c-2.16-2.53-3.72-6.24-2.96-9.6 0-.13.22-.08.24 0a45.92 45.92 0 0 0 3.08 9.34.22.22 0 0 1-.04.3.22.22 0 0 1-.17.05.22.22 0 0 1-.15-.09Zm2.41 1.33c-2.16-2.52-3.72-6.24-2.95-9.6 0-.12.21-.08.24 0a46.06 46.06 0 0 0 3.07 9.37c.03.05.04.1.03.16a.21.21 0 0 1-.25.16.21.21 0 0 1-.14-.09Zm2.42 1.34c-2.16-2.53-3.73-6.24-2.96-9.6.03-.13.21-.08.24 0a46.2 46.2 0 0 0 3.1 9.42.23.23 0 0 1-.02.16.2.2 0 0 1-.06.07.22.22 0 0 1-.24.01.22.22 0 0 1-.06-.06Zm2.41 1.33c-2.16-2.52-3.73-6.24-2.95-9.6.03-.12.2-.08.23 0a46.06 46.06 0 0 0 3.07 9.34c.04.05.05.1.04.16 0 .06-.04.11-.08.15a.22.22 0 0 1-.17.04.22.22 0 0 1-.14-.09Zm-20.88-30.72c-2.4-2.88 2.1-6.6 4.47-3.7 2.39 2.9-2.08 6.58-4.47 3.7Z" fill="#263238"/><path d="M137.21 236.82c.64-2.86 0-5.9-.24-8.77a.4.4 0 0 0-.23-.3.4.4 0 0 0-.37.02.1.1 0 0 0-.03-.03.09.09 0 0 0-.08 0 17.49 17.49 0 0 0-4.64 7.79c-.45 1.73-.15 4.23 2 4.63 2.05.36 3.23-1.67 3.6-3.34Zm-2.01 1.88c-3 2.06-2.95-2.23-2.57-3.49.27-.8.58-1.6.95-2.37.79-1.57 1.65-3.1 2.6-4.59.03 1.42.2 2.82.28 4.23.11 1.69.39 5.08-1.26 6.22Z" fill="#263238"/><path d="M127.05 220.02c-1.5 1.59-.28 3.8 1.1 4.93a17.5 17.5 0 0 0 8.34 3.56s.02 0 .03-.02l.02-.03v-.04a.4.4 0 0 0 .31-.6c-1.48-2.47-2.76-5.3-4.95-7.24-1.28-1.11-3.43-2.07-4.85-.56Zm6.8 4.54c.75 1.2 1.44 2.4 2.24 3.6a52.45 52.45 0 0 1-4.8-2.2 18.5 18.5 0 0 1-2.16-1.36c-1.05-.8-3.6-4.23 0-4.33 2.03-.07 3.8 2.86 4.71 4.29Z" fill="#263238"/><path d="M104.14 194.44s-39.6-5.32-52.56-1.8c-18.08 4.86-20.16 26.58-6.23 34.84 17.65 10.46 78.85 4.62 78.85 4.62l-17.08-28.8s-25.63-4.8-48.6-2.93l46.36 5.74-.74-11.67Z" fill="#455A64"/><path d="M108.28 205.25a.7.7 0 0 1-.04-.16l-.04-.13c0-.1-.05-.2-.08-.3-.06-.2-.14-.39-.22-.6-.07-.2-.16-.38-.25-.6-.1-.18-.22-.35-.34-.52l-.04-.04h-.12a955 955 0 0 0-24.75-2.84c-2.83-.24-5.71-.4-8.58-.54a155.6 155.6 0 0 0-17.14.06l-1.6.13c-.12-.04-.24-.05-.36-.08l-.83-.17c-.52-.09-1.04-.15-1.56-.21-1.1-.14-2.18-.22-3.27-.4-.06 0-.08.11 0 .12 1.1.22 2.17.52 3.26.73l.95.18c-2.09.2-4.2.48-6.25.78-.07 0-.06.12 0 .11 2.83-.31 5.7-.45 8.54-.53 2.84-.07 5.66-.12 8.49-.07 5.72.12 11.46.43 17.17.84 3.21.23 22.68 2.5 25.9 2.5h.03c.03.09.06.17.1.24l.3.56.3.52.17.25.09.12.09.13.04.02c.02 0 .03 0 .04-.02a.06.06 0 0 0 .02-.04c0-.02 0-.03-.02-.04Z" fill="#263238"/><path d="M115.4 230.3c-1.01-1.65-1.89-3.43-2.82-5.14l-2.81-5.15c-1.87-3.42-8.55-14.91-9.2-15.71-.03-.05-.11 0-.09.07.33.9 4.52 8.52 5.48 10.2 1.93 3.4 3.94 6.72 5.92 10.07.57.96 1.15 1.9 1.73 2.85.58.95 1.2 1.88 1.71 2.86.03.05.11 0 .08-.05Zm-15.87-22.84c-1.7-.38-3.43-.6-5.15-.87l-5.17-.84c-3.44-.55-6.89-1.06-10.34-1.55a267.6 267.6 0 0 0-20.71-2.15c-3.91-.25-7.8-.34-11.74-.5-.08 0-.07.15 0 .15 6.96.04 13.94.78 20.86 1.57 6.93.78 13.7 1.67 20.54 2.63l5.8.84c1.92.28 3.92.65 5.88.84.1.02.1-.11.03-.12ZM75.04 163.2c3.67 4.91 10.4 7.06 16.33 7.72 6.06.67 12.93.45 18.56-2.04a14.72 14.72 0 0 0 6.29-4.94c1.63-2.4 1.94-4.93.43-7.3-1.2-1.91-4.01-3.37-3.93-5.06.07-1.7 1.56-2.96 2.02-4.57.8-2.75-.63-4.9-2.52-6.8-4.48-4.5-3.14-10.2-4.72-16.03-1.11-4.1-7.25-11.4-16.28-5.55 0 0-4.43.94-6.11 4.9-1.47 3.45-.48 8.67-2.49 11.89-1.72 2.74-4.06 3.08-5.7 5.96-.73 1.25-1.11 2.72.13 5.81.45 1.12.9 2.81.37 4.09-.72 1.77-2.94 2.49-3.75 4.34-1.1 2.53-.25 5.4 1.37 7.58Z" fill="#263238"/><path d="M114.34 164.56c2.86-.32 4.27-4.13 2.56-6.18-1.08-1.3-2.77-1.96-3.85-3.26-1.8-2.13 0-3.9 1.1-5.86 2.4-4.25-.46-7.34-3.52-10.2-2.32-2.15-2.7-4.52-2.71-7.53 0-.05.08-.05.08 0 .12 2.22.33 4.42 1.8 6.22 1.2 1.47 2.87 2.51 4.04 4.03 1.97 2.55 2.1 5.22.5 7.96-.46.78-1.3 1.66-1.52 2.53-.5 2.05 1.04 3.19 2.5 4.28 1.12.84 2.36 1.76 2.72 3.16.57 2.13-1.48 4.88-3.7 5-.09.03-.12-.14 0-.15Z" fill="#263238"/><path d="M112.69 166.6c1.8-.96 3.73-1.8 4.84-3.6 1.65-2.61-.15-4.73-1.84-6.71-.72-.85-1.32-1.7-1.2-2.85.14-1.72 1.48-3.11 1.8-4.8.7-4.06-3.3-6.71-5.23-9.8-1.93-3.08-2.5-6.76-3.1-10.33v-.04a.06.06 0 0 1 .05-.02c.02 0 .03 0 .04.02.02 0 .02.02.02.04.81 4.56 1.98 8.87 5.07 12.49 2.16 2.53 4.46 5.27 3.25 8.74-.3.85-.85 1.62-1.13 2.47-.55 1.69-.13 2.82.97 4.1 1.1 1.27 2.28 2.49 2.4 4.17.25 3.27-3.14 5.28-5.78 6.41a.16.16 0 0 1-.24-.19.16.16 0 0 1 .08-.1Zm-39.74-12.04c1.5-1.93 3.78-2.82 3.3-5.66-.34-1.96-1.36-3.55-.89-5.6.39-1.69 1.55-3 2.9-4.04 1.72-1.36 3.6-2.45 4.88-4.26 1.4-1.98 2.08-4.33 2.77-6.6 0-.05.1 0 .09 0-.76 3.1-1.66 6.26-4.14 8.5-1.3 1.18-2.85 2.05-4.14 3.24-2.3 2.13-2.37 4.55-1.5 7.34.4 1.28.75 2.57.12 3.84-.64 1.27-1.92 2.03-2.83 3.08-3.87 4.47 1.65 10.47 6.34 11.46.21.05.18.37-.04.33-3.51-.64-7.14-3.9-7.8-7.33a5.32 5.32 0 0 1 .94-4.3Z" fill="#263238"/><path d="M73.03 157.01c.1-2.05 1.45-3.15 2.51-4.72 1.67-2.49.1-5.04 0-7.72a6.5 6.5 0 0 1 1.96-4.75c1.63-1.8 3.7-3.03 5.05-5.1a13.06 13.06 0 0 0 2.12-7.4c0-.04.07-.04.07 0a12.5 12.5 0 0 1-3.67 9.64c-1.64 1.61-3.81 2.9-4.8 5.1-1.01 2.35.15 4.55.4 6.91a5.13 5.13 0 0 1-1.14 3.95c-.66.85-1.47 1.63-1.86 2.69a6.25 6.25 0 0 0 .31 4.42c1.8 4.37 6.32 7.2 10.72 8.05.16.03.13.27 0 .25-4-.69-7.57-2.93-9.93-6.23a8.46 8.46 0 0 1-1.74-5.09Z" fill="#263238"/><path d="M98.88 156.2c4.75 5.4 22.53 21.37 27.04 21.1 4.7-.28 21.77-6.06 25.31-8.4 1.97-1.31-6.15-17.72-8.31-16.4-2.16 1.33-15.83 7.74-17.73 7.85-1.9.1-19.76-11.27-25.9-13.27-10.57-3.45-2.97 6.21-.41 9.12Z" fill="#FFC4C0"/><path d="M158.27 164.4c-2.56 2.67-9.95 6.08-12.05 6.21-2.1.13-8.3-12.21-7.37-14.15.94-1.95 10.27-10.27 14.02-10.76 3.74-.48 8.06 15.95 5.4 18.7Z" fill="#FFC4C0"/><path d="M147.26 147.6c.55 1.88 2.07 1.33 2.07 1.33s-3.4 1.71-3.09 3.86c.32 2.15 3.32 1.25 3.53 1.2-.18.09-3.26 1.75-2.72 3.87.55 2.12 3.44.87 3.6.79-.14.13-1.98 2.02-1.2 3.54 1.34 2.61 6.18-2.08 8.56-1.94 0 0 .22 4.05.25 4.16 0 0 4.7-4.37 4.71-7.57a2.05 2.05 0 0 0-1.57-2.04s1.67-1.24 1.3-2.92c-.2-.87-1.75-1.33-1.75-1.33a2.57 2.57 0 0 0 .87-2.52c-.34-1.2-1.84-1.46-1.84-1.46s7.55-3.91 6.75-6c-1.37-3.6-17.06 5.66-18.6 4.95-.78-.32-1.13 1.28-.87 2.08Z" fill="#FFC4C0"/><path d="M159.76 146.5h.02v-.05h-.02c-3.7-.26-7.38.62-10.57 2.5-.1.07-.32.57-.21.51 2.9-1.58 7.02-2.6 10.78-2.96Zm1.25 4.03c.04 0 .04-.07 0-.07a17.1 17.1 0 0 0-11.36 3.46c-.1.09-.12.28 0 .19 2.3-1.58 7.97-3.27 11.36-3.58Zm-10.5 8.38c3.2-2.4 6.85-3.5 10.75-4.12.05 0 .04-.07 0-.08-1.99-.22-4.44.43-6.3 1.1a10.4 10.4 0 0 0-4.52 3c-.06.05 0 .15.07.1Z" fill="#263238"/><path d="M149.27 148.91c-.12.08.29.23.17.31-1.26.86-3.45 2.53-3 3.72.38.95 1.92 1.1 2.54.92l1.55-.44-1.3.95a6.6 6.6 0 0 0-1.51 1.52 2.35 2.35 0 0 0-.49 1.86 1.34 1.34 0 0 0 1.28 1.1c.7.02 1.38-.15 1.98-.48l1.71-.84-1.33 1.35c-.37.38-.7.8-.96 1.25-.27.43-.4.92-.39 1.42a1.2 1.2 0 0 0 .74 1.04c.5.13 1.02.1 1.5-.06 1.05-.32 2.08-.74 3.06-1.23.51-.23 1.02-.46 1.55-.67a3.95 3.95 0 0 1 1.63-.38c-.56.07-1.09.25-1.57.52-.5.25-.99.52-1.48.78-.97.57-2 1.05-3.07 1.43a3.1 3.1 0 0 1-1.8.12 1.7 1.7 0 0 1-1.15-1.49c-.04-.63.11-1.26.44-1.8.28-.52.64-1 1.05-1.42l.37.5c-.71.4-1.51.62-2.33.6-.45-.02-.87-.2-1.2-.49-.32-.3-.54-.7-.64-1.14a2.99 2.99 0 0 1 .6-2.36 7.2 7.2 0 0 1 1.68-1.63l.25.51c-.79.2-2.53.22-3.3-1.2-.73-1.93 2.75-3.94 3.42-4.27Z" fill="#263238"/><path d="M138.85 156.46s2.28-9.99 5.11-12c2.84-2.02 9.93.94 12.35 2.43 3.34 2.05 1.53 4.23-.6 4.38-2.45.16-6.05-.8-6.3-.87 0 0 1.41 5.83-1.67 8.95-3.07 3.11-8.89-2.9-8.89-2.9Z" fill="#FFC4C0"/><path d="M151.2 144.65c2.24.69 4.54 1.39 6.36 2.93 1.03.9 1.2 2.58-.08 3.37-1.04.7-2.4.67-3.54.6-1.58-.08-3.14-.4-4.62-.93l.34-.32c.4 1.44.5 2.96.26 4.44a9 9 0 0 1-1.7 4.04c.37-.62.68-1.28.9-1.98.7-2.23.67-4.63-.12-6.84a16.07 16.07 0 0 0 7.2.9c1.65-.32 2.23-1.72 1.02-3-1.66-1.53-3.94-2.35-6-3.25l-.02.04Z" fill="#263238"/><path d="m139.32 153.72 7.8 20.25s-16.56 4.7-21.82 4.27c-5.26-.44-23.19-17.33-28.83-24.31-5.65-6.98-2.53-9.75 5.73-6.37 8.27 3.38 22.14 11.89 23.28 11.7 1.14-.18 13.84-5.54 13.84-5.54Z" fill="#0A33FF"/><path d="M138.6 165.4c-.52-1.46-2.57-7.29-2.97-8.77h.04c.66 1.34 2.85 7.04 3.38 8.49a84.34 84.34 0 0 1 2.9 8.8c0 .06-.07.1-.1.04-1.3-2.79-2.25-5.7-3.25-8.56Z" fill="#263238"/><path opacity=".1" d="M128.45 177.97c-1.03.22-2.08.3-3.13.27-5.27-.44-23.19-17.33-28.8-24.31-4.94-6.1-3.18-9 2.84-7.36l29.1 31.4Z" fill="#191C29"/><path d="m71.83 194.17 44.25-1.94-3.85-17.1s3.85-4.95 1.2-9.99c-1.88-3.6-7.02-11.4-10.46-14.84-8.4-8.4-13.2-3.34-15.09-.82-7.16 9.66-16.05 44.7-16.05 44.7Z" fill="#0A33FF"/><path d="M97.7 174.08c1.92-.06 3.84.02 5.75.24.94.12 1.87.3 2.81.48l1.4.24c.5.09.99.12 1.49.1.04 0 .04.05 0 .06-.47.08-.93.13-1.4.15-.46 0-.91-.03-1.36-.09-.96-.11-1.92-.28-2.88-.4a72.84 72.84 0 0 0-5.87-.63.08.08 0 0 1-.03-.06c0-.02.01-.05.03-.06a.09.09 0 0 1 .06-.03Zm-4.47 2.26c1.54-.35 3.1-.62 4.67-.8.79-.09 1.57-.13 2.37-.15h1.13c.38 0 .83.06 1.25.06.04 0 .05.06 0 .06-.4 0-.78.1-1.2.14l-1.2.11c-.79.08-1.57.17-2.35.23-1.58.14-3.15.3-4.71.49-.03 0-.05-.12.04-.14Z" fill="#263238"/><path d="M84.46 152.11c-11.34 13.95-23.73 37.11-17.67 41.6 5.55 4.09 24.72-1.11 36.65-6.52 2.27-1.03-8.23-21.06-10.53-19.71a65.5 65.5 0 0 1-7.53 3.88c-.66.22 2.77-4.45 6.28-15.43 3.56-11.16-.71-11.8-7.2-3.82Z" fill="#FFC4C0"/><path d="M122.45 164.4c.14 2.4-5.77 2.23-5.77 2.23a4.42 4.42 0 0 1 1.92 2.3c.54 1.74-1.95 3.34-1.95 3.34.81.73 1.38 1.7 1.64 2.76.35 1.7-1.93 3.68-1.93 3.68a4.8 4.8 0 0 1-.08 3.33c-1.25 2.79-5.96 3.1-8.83 3.86-3.2.93-6.34 2.11-9.36 3.54l-6.54-21.14s12.2-8.15 15.72-8.17c2.98-.05 14.97.6 15.18 4.27Z" fill="#FFC4C0"/><path d="M116.63 166.54c-3.17-.74-6.5-.72-9.72-.67a.05.05 0 0 0-.06.05.05.05 0 0 0 .06.06c3.2-.1 6.5.67 9.7.71l.06-.01a.08.08 0 0 0 .03-.06c0-.02 0-.04-.02-.06a.08.08 0 0 0-.05-.02Zm-.07 5.46c-.74-.1-1.49-.1-2.22 0-.78.06-1.57.12-2.35.2-1.57.16-3.13.35-4.68.6-.07 0-.07.12 0 .1 1.56-.14 3.13-.27 4.7-.36l2.34-.11a10.15 10.15 0 0 0 2.3-.23.12.12 0 0 0 .02-.08.12.12 0 0 0-.03-.08.11.11 0 0 0-.08-.03Zm-.26 6.69a5.91 5.91 0 0 0-2 .1l-2.14.24a127.38 127.38 0 0 1-4.31.44.05.05 0 0 0-.02.04.05.05 0 0 0 .06.05c1.45-.1 2.9-.18 4.35-.3.72-.05 1.42-.1 2.14-.17a5.61 5.61 0 0 0 1.95-.37v-.02l-.03-.01Z" fill="#263238"/><path d="m90.97 168.05 5.87 22.8s-28.46 9.07-31.84 1.92c-3.39-7.14 12.14-35.16 21.51-43.41 9.38-8.26 6.35 4.13 6.11 5.12-1.09 4.4-6.65 16.02-6.65 16.02l5-2.45Z" fill="#0A33FF"/><path d="M90.47 168.1c-3.25 1.35-11.7 6.14-13.52 8.02-.05.05 0 .14.07.1 1.8-1.43 12.27-7.25 13.91-7.99l.13.26c.06.07.1.03.1-.05-.04-.19-.1-.37-.16-.55l-.53.21Zm-1.77 13.03c-.41-1.6-1.96-7.97-2.22-9.6 0 0 .04-.04.05 0 .55 1.5 2.26 7.74 2.67 9.34a90.5 90.5 0 0 1 2.11 9.6c0 .06-.07.1-.1.04-1.05-3.06-1.73-6.24-2.52-9.38Zm-19.47 14.04c5.88.83 24.35-3.45 27.5-4.27-.06-.33-.05-.45-.14-.93 0-.06.1-.1.1-.03.12.45.47 1.33.35 1.39-1.5.68-22.08 5.4-27.8 3.99-.1-.03-.1-.16-.01-.15Z" fill="#263238"/><path d="M87.07 148.89s7.2 7.8 12.97 6.68c4.8-.91 2.8-7.75 2.8-7.75a14.4 14.4 0 0 0-7.6-2.31 12 12 0 0 0-8.17 3.38Z" fill="#FFC4C0"/><path d="M92.67 147.31c.13.78 3.46 6 6.97 6.04 1.14 0 1.51-6.21 1.51-6.21l.14-.45 1.86-6.36-7.26-5.33-1.05-.71-.87 3.98c0 .1-.04.2-.06.31l-.08.36-.22 1-.15.78c-.04.27-.1.54-.15.8a42.38 42.38 0 0 0-.64 5.8Z" fill="#FFC4C0"/><path d="M93.97 138.26a13.3 13.3 0 0 0 7.32 8.4l1.86-6.36-7.26-5.3-1.05-.71s-.4 1.76-.87 3.97Z" fill="#263238"/><path d="M110.75 128.27c3.2 11.16-3.11 14.35-5.52 15.04-2.18.63-9.7 2.48-14.05-8.28-4.35-10.76-.18-15.8 4.74-17.49 4.92-1.7 11.61-.42 14.83 10.73Z" fill="#FFC4C0"/><path d="M108.6 126.8c-.27.04-.53 0-.8.05-.28.05-.57.01-.83-.12a.4.4 0 0 1-.12-.49 1.01 1.01 0 0 1 .91-.49c.37-.04.75.06 1.05.27a.45.45 0 0 1 .14.46.44.44 0 0 1-.35.32Zm-7.8 1.9c.25-.1.49-.23.72-.36.27-.09.5-.27.66-.5a.41.41 0 0 0-.13-.49 1.02 1.02 0 0 0-1.04 0 1.5 1.5 0 0 0-.77.76.43.43 0 0 0 .07.49c.06.06.14.1.23.13.09.01.18 0 .26-.03Zm2.62 2.61s-.05.05-.04.08c.25.76.4 1.66-.22 2.11v.04c.83-.34.64-1.54.26-2.23Z" fill="#263238"/><path d="M102.51 130.72c-1.25.25-.6 2.73.52 2.5 1.12-.25.53-2.73-.52-2.5Z" fill="#263238"/><path d="M102.06 130.97c-.19.19-.34.49-.6.6-.26.1-.6-.1-.85-.3-.03 0-.04 0-.03.04.1.47.41.92.94.86.53-.06.7-.55.7-1.06.02-.11-.09-.22-.16-.14Zm5.59-1.09c0-.03.06 0 .07.06.16.77.47 1.63 1.23 1.72v.05c-.87.08-1.27-1.07-1.3-1.83Z" fill="#263238"/><path d="M108.14 128.92c1.2-.4 1.9 2.06.78 2.4-1.13.33-1.8-2.08-.78-2.4Z" fill="#263238"/><path d="M108.7 128.93c.23.08.49.26.72.2.24-.05.4-.37.5-.68 0-.03.04 0 .05 0 .14.47.12 1-.3 1.2-.43.2-.8-.12-1.05-.55-.02-.05-.02-.2.08-.17Zm-3.8 8.47c.2.2.46.3.74.32.28-.06.55-.19.79-.36 0 0 .05 0 .04.03a1.06 1.06 0 0 1-.9.6.85.85 0 0 1-.74-.56c-.03 0 .03-.03.06-.03Zm2.5-3.6s.46 1.1.6 1.64c0 .05-.1.1-.29.17a2.65 2.65 0 0 1-2.73-.31.06.06 0 0 1-.02-.03l.01-.04a.06.06 0 0 1 .07-.03c.8.3 1.69.31 2.51.06 0-.16-.84-1.86-.76-1.89.43-.07.87-.08 1.3-.04-.88-2.32-2.13-4.48-3-6.8v-.06a.08.08 0 0 1 .09-.04 40.32 40.32 0 0 1 3.55 7.22c.1.32-1.12.21-1.33.15Z" fill="#263238"/><path d="M107.53 135.39c-.18.53-.49 1-.9 1.36-.23.2-.52.32-.82.34-.65.05-.86-.5-.9-1.02a3.48 3.48 0 0 1 0-.81c.83.33 1.76.37 2.62.13Z" fill="#263238"/><path d="M106.63 136.75c-.23.2-.52.32-.82.34-.65.05-.86-.5-.9-1.02a1.5 1.5 0 0 1 1.72.68Z" fill="#FF9BBC"/><path d="M92.15 135.42c2.11-.14 1.7-4.97 1.7-4.97s8.5-3.22 7.8-10.52a15.04 15.04 0 0 0 7.96 5.17s-2.92-8.62-9.43-8.91c0 0-7.32-1.07-10.8 5.9-3.58 7.13 1.35 13.43 2.77 13.33Z" fill="#263238"/><path d="M101.6 119.4c.33 1.08.41 2.22.26 3.34a8.24 8.24 0 0 1-1.56 3.93l-.26.34-.28.32c-.2.2-.38.42-.6.6l-.65.54-.34.27-.35.22-.72.45c-.5.26-1.01.48-1.52.7.46-.32.94-.6 1.4-.9l.65-.5.33-.26.3-.27.6-.57c.2-.18.35-.4.53-.6l.26-.3.23-.34a10.02 10.02 0 0 0 1.72-6.97Z" fill="#263238"/><path d="m105.07 131.27-.4-.3c.42-.6 1.53-1.6 2.66-.84l-.27.44c-1.01-.69-1.95.65-1.99.7Zm-16.17 6.39-.52-.03c0-.25.17-2.4 1.16-3.05 1-.65 7.6-2.84 7.89-2.94l.16.5c-1.91.63-7.05 2.4-7.76 2.88-.72.48-.9 2.05-.93 2.64Z" fill="#37474F"/><path d="M101.32 134.9c-.74.13-1.49.05-2.18-.22-1.38-.73-2.69-4.03-2.74-4.17l-.13-.32.34-.06c.26-.04 6.41-1 8.04.12.88.6.78 2.48.36 3.1-.53.77-2.2 1.39-3.7 1.55Zm-4.28-4.27c.46 1.06 1.46 3.09 2.36 3.55 1.2.63 4.53-.24 5.14-1.14.3-.43.36-1.94-.2-2.33-1.14-.78-5.34-.36-7.3-.08Zm12.58 1.8c-.57.1-1.16-.03-1.65-.34a3.1 3.1 0 0 1-.99-2.71c.32-1.62 3.95-2.86 4.36-3l.32-.11.05.33c0 .14.47 3.35.11 4.46a2.1 2.1 0 0 1-1.48 1.2c-.23.09-.48.14-.72.17Zm1.58-5.4c-1.2.43-3.48 1.47-3.67 2.47a2.57 2.57 0 0 0 .78 2.16 2.25 2.25 0 0 0 1.86.1 1.6 1.6 0 0 0 1.12-.85c.24-.75.05-2.82-.09-3.9v.02Z" fill="#37474F"/><path d="M92.86 139.06c.19.03.37.03.56 0 .18 0 .37-.03.54-.09.22-.07.43-.18.6-.34a2.11 2.11 0 0 0 .67-1.14L94 134.57s-3.18-3.07-4.62-1.86c-1.43 1.2 1.45 6.02 3.48 6.35Z" fill="#FFC4C0"/><path d="M90.25 134.09v.05c1.43.28 2.4 1.37 3.12 2.55a1.08 1.08 0 0 0-1.28-.28c-.15.07-.27.16-.37.28-.03 0 0 .08.04.06a1.2 1.2 0 0 1 1.39.16c.31.28.59.6.83.93.09.11.3 0 .22-.12-.32-1.7-2.1-3.82-3.95-3.63Z" fill="#263238"/><path d="M408.1 217.92s-23.6 10.6-54.3 10.02c-32.62-.6-48.24-11.54-48.24-11.54-23.46-19.16-25.4-46.91-8.09-63.39 10.48-9.96 17.96-7.8 30.42-9.15h.04a36.6 36.6 0 0 0 12.68-3.46c12.93-6.52 20.46-22.3 31.48-35.5a83.12 83.12 0 0 1 4.31-4.8c9.04-9.3 26.67-9.27 35.64 4.2 22.8 34.21 21.19 84.49-3.94 113.62Z" fill="#0A33FF"/><path d="M408.1 217.92s-23.6 10.6-54.3 10.02c-32.62-.6-48.24-11.54-48.24-11.54-23.46-19.16-25.4-46.91-8.09-63.39 10.48-9.96 17.96-7.8 30.42-9.15h.04a36.6 36.6 0 0 0 12.68-3.46c12.93-6.52 20.46-22.3 31.48-35.5a83.12 83.12 0 0 1 4.31-4.8c9.04-9.3 26.67-9.27 35.64 4.2 22.8 34.21 21.19 84.49-3.94 113.62Z" fill="#191C29" opacity=".1"/><path opacity=".1" d="M343.2 189.43c31.11 8.28 60-8.72 63.36-48.88 2.44-29.4-18.24-43.7-34.45-35.67-11.02 13.2-18.54 29-31.47 35.51a36.72 36.72 0 0 1-12.69 3.47h-.03c-.45.05-.89.1-1.33.13-14.44 8.66-7.58 39.01 16.61 45.44Z" fill="#191C29"/><path d="M223.5 233.61c1.86.04 50.32-14.96 51.8-16.7.16-.2-.6-7.37-1.86-13.07-.06-.27 17.2-22.9 17.2-22.9l-31.2-12.13-14.92 30.95-3.92 8.05s-16.15 16.26-17.59 18.35c-1.43 2.09-1.38 7.4.48 7.45Z" fill="#EBEBEB"/><path d="M222.13 233.88c1.95.05 52.53-15.42 54.09-17.23.6-.68-.32-3.8-2.78-12.8l-33.16 4s-17.11 16.09-18.6 18.25c-1.5 2.17-1.48 7.73.45 7.78Z" fill="#0A33FF"/><path d="M222.23 231.64c8.4-2.8 42.6-13.31 51.16-15.44.07 0 .08.03 0 .05-8.28 2.96-42.57 13.2-51.13 15.52-.16.05-.2-.07-.03-.13Zm2.17-8.35a7.12 7.12 0 0 1 8.99 4.47c0 .05-.08.08-.1 0a8.24 8.24 0 0 0-8.89-4.36.07.07 0 0 1-.03-.02.06.06 0 0 1 0-.07l.03-.02Zm12.46-12.09c3.37-1.08 7.68-1.09 10.63 1.04.12.09 0 .25-.12.23a49.24 49.24 0 0 0-10.45-.83.22.22 0 0 1-.23-.19.22.22 0 0 1 .03-.16.22.22 0 0 1 .14-.09Zm-2.31 1.8c3.38-1.09 7.68-1.1 10.63 1.04.12.08 0 .24-.12.23a49.14 49.14 0 0 0-10.55-.81.23.23 0 0 1-.12-.37.23.23 0 0 1 .16-.09Zm-2.31 1.85c3.38-1.09 7.68-1.1 10.64 1.04.11.08 0 .24-.12.22a48.84 48.84 0 0 0-10.45-.82.22.22 0 0 1-.2-.35.22.22 0 0 1 .13-.1Zm-2.31 1.82c3.38-1.08 7.68-1.09 10.64 1.04.11.08 0 .25-.12.22a49.18 49.18 0 0 0-10.45-.83.22.22 0 0 1-.07-.43Z" fill="#263238"/><path d="M232.2 208.16c2.55 1.8 5.8 2.43 8.72 3.37.31.1.53-.2.53-.46a.1.1 0 0 0 .09-.09 18.66 18.66 0 0 0-5.75-7.78c-1.51-1.15-4.1-1.88-5.4.07-1.19 1.84.33 3.84 1.81 4.89Zm-1.02-2.76c-.78-3.8 3.42-2 4.5-1.09.69.6 1.34 1.23 1.94 1.92a54.58 54.58 0 0 1 3.45 4.44c-1.41-.55-2.85-.97-4.28-1.46-1.7-.59-5.16-1.72-5.6-3.81h-.01Z" fill="#263238"/><path d="M252.93 205.09c-.94-2.13-3.6-1.84-5.3-.95a18.63 18.63 0 0 0-6.95 6.72.09.09 0 0 0 .03.08.1.1 0 0 0 .04.03.43.43 0 0 0 .09.38.43.43 0 0 0 .35.16c3.05-.44 6.35-.53 9.17-1.9 1.64-.81 3.44-2.5 2.57-4.52Zm-7.26 4.8c-1.5.25-3 .42-4.46.73a55.46 55.46 0 0 1 4.13-3.81c.7-.57 1.45-1.1 2.23-1.57 1.2-.7 5.65-1.8 4.24 1.8-.77 2.01-4.36 2.56-6.14 2.86v-.01Zm-2.75-8.68 34.42 5.06s18.76-34.1 26.34-42.6a11 11 0 0 1 1.38-1.35 7.2 7.2 0 0 1 2.49-.6c10.2-1.24 44.43 2.07 68.1.53l-11.07-14.77-4.9-6.55c-26.66-3-59.4-13.91-74.15-6.5-15.99 8-42.61 66.78-42.61 66.78Z" fill="#263238"/><path d="M247.23 195.36c5.85.75 4.2.46 10.02 1.27 2.86.4 17.23 2.36 19.84 3.18.01 0 .03 0 .03.02a.06.06 0 0 1-.03.09c-2.73 0-17.06-2.25-19.9-2.7-5.83-.92-4.15-.72-9.97-1.7a.08.08 0 0 1-.07-.02.1.1 0 0 1-.02-.03.1.1 0 0 1 0-.03v-.04l.03-.03.03-.01h.04Zm29.93 3.97c3.89-6.52 21.6-38.67 25.13-39.94 3.21-1.15 67.5.15 68.44.16.08 0 .08.1 0 .1-7.6-.1-66.36-.27-68.04.4-3.48 1.37-24.66 38.67-25.2 39.45-.12.21-.47.05-.33-.17Z" fill="#37474F"/><path d="M393.67 148.75s2.04 19.38-7.8 29.03c-11.77 11.54-89.45 8.66-101.49 4.8-12.04-3.86-12.42-23.31.73-27.82 12.52-4.29 68.02-6.78 69.33-7.3 1.32-.52 5.16-6.67 5.16-6.67l34.07 7.96Z" fill="#263238"/><path d="M377.23 148.2c0-.1.16-.07.15 0 0 2.52.9 4.95 2.51 6.88 1.85 2.13 4.57 3.31 7.03 4.56.24.12.06.5-.19.42a21.8 21.8 0 0 1-4.35-1.88 10.36 10.36 0 0 1-3.27-2.71 9.34 9.34 0 0 1-1.88-7.27Zm-22.25-1.97c.56-.7 1.15-1.37 1.73-2.05a164.7 164.7 0 0 1 4.14-4.8c.13-.14.4.07.27.23-.96 1.25-1.97 2.46-2.97 3.68l-1.53 1.87c-.54.55-1.02 1.15-1.44 1.8-.38.7.12 1.29.84 1.37a2.5 2.5 0 0 0 1.72-.65c1.08-.95 2.06-2 2.94-3.13.6-.65 1.14-1.3 1.72-1.92.58-.63 1.27-1.32 1.89-2 .04-.04.11 0 .08.07-.54.74-1.03 1.5-1.57 2.24a83.59 83.59 0 0 1-3.27 4.22 6.82 6.82 0 0 1-1.65 1.48c-1.03.6-2.82.74-3.36-.6a1.87 1.87 0 0 1 .46-1.8Z" fill="#37474F"/><path d="M286.04 182.63c4.15.08 8.29.32 12.44.4a422.54 422.54 0 0 0 62.66-3.47c3.96-.55 7.97-1 11.88-1.85a18.71 18.71 0 0 0 9.37-4.8c5.35-5.2 7.43-12.84 8.28-20.14.12-.98.21-1.95.29-2.94 0-.06.1-.06.1 0-.48 7.49-1.64 15.29-6.34 21.3a18.67 18.67 0 0 1-7.67 5.97c-3.7 1.48-7.8 1.83-11.72 2.37a463.83 463.83 0 0 1-50.93 3.86c-8.43.14-16.86 0-25.28-.4a75.27 75.27 0 0 1-3.12-.21.06.06 0 0 1-.01-.04.05.05 0 0 1 .05-.05Z" fill="#37474F"/><path d="M274.97 164.53a13.35 13.35 0 0 1 5.54-7.93c3-2.03 6.55-2.96 10.09-3.48 4-.6 8.04-.88 12.06-1.28 8.24-.8 16.5-1.54 24.75-2.23 8.25-.68 26.02-2.07 27-2.11.09 0 .1.14 0 .15-7.97.9-15.21 1.65-23.2 2.4-7.98.75-16.03 1.5-24.05 2.3l-12 1.2c-3.7.39-7.5.76-10.97 2.2-3 1.22-5.65 3.2-7.16 6.09a14.27 14.27 0 0 0-1.2 9.22 16.2 16.2 0 0 0 3.85 7.8 13.8 13.8 0 0 0 7.2 4.35c.73.16 1.61.27 2.28.4.06 0 .1.12.06.12-5.97.16-11.5-4.2-13.65-9.65a15.95 15.95 0 0 1-.6-9.55Z" fill="#37474F"/><path d="M366.37 105.78c-6.6 14.26-16.35 25.25-20 27.53-4.62 2.88-30.56 3.07-31.86 2.94-3.21-.34-1.33-21.75 2.12-21.52 5.24.33 23.25 2.3 24.6 1.39 1.34-.91 8.97-7.2 19.33-16.68 7.17-6.54 9.9-2.51 5.81 6.34Z" fill="#D3766A"/><path d="M319.04 136.1c-2.4.39-13.5 1.2-16.65.75-3.14-.45-12.09-2.45-12-4.9.1-2.43 2.78-2.06 2.78-2.06s-3.65-1.44-3.31-3.89c.34-2.45 4.46-1.73 4.46-1.73s-3.63-1.76-3.13-4.2c.5-2.45 4.54-1 4.54-1s-3.4-1.45-2.14-3.27c1.51-2.18 7.48 1.2 10.99 1.43.8.06 16.23 0 16.23 0l-1.77 18.87Z" fill="#D3766A"/><path d="M295.4 118.98c4.4 2.47 6.75 2.78 11.7 2.53.1 0 .13.14 0 .15-4.83.7-7.83.72-11.85-2.48-.18-.15-.05-.32.15-.2Zm-1.4 5.08c4.8 2.17 7.33 2.53 12.54 2.65.08 0 .08.13 0 .13-5.12.32-8.12.28-12.6-2.52-.22-.12-.16-.35.06-.26Zm-.55 5.82c4.8 1.77 7.56 2.29 12.63 1.75a.1.1 0 0 1 .06.03.1.1 0 0 1 .04.06.1.1 0 0 1-.02.06.1.1 0 0 1-.05.04c-5.11 1.05-8.58.42-12.7-1.8-.27-.14-.26-.25.04-.14Z" fill="#263238"/><path d="M323.74 118.36s-4.83-4.07-7.34-5.4c-2.52-1.34-13.7-2.79-14.16-.4-.6 3.1 5.7 5.22 8.92 5.86 0 0-1.36 7.16 2.83 9.66 4.18 2.5 9.75-9.72 9.75-9.72Z" fill="#D3766A"/><path d="M302.36 113.48c1.5 3.21 5.78 3.77 8.85 4.62a.3.3 0 0 1 .18.45c-.37 3.03 0 7.43 2.4 9.6.07.06 0 .17-.09.12-2.9-1.96-3.6-6.25-3-9.55-3.16-.83-7.42-1.58-8.4-5.21.02-.03.05-.04.06-.03Z" fill="#263238"/><path d="m320.7 113.8 3.04 25.44s20.46-2.2 24.9-5.34c4.45-3.15 14.7-19.17 19.2-28.4 4.5-9.24-.8-13.1-6.64-7.88s-20.3 17.8-21 18c-.7.2-19.5-1.82-19.5-1.82Z" fill="#455A64"/><path d="M327.41 129.07c-.35-2.84-.72-5.67-.97-8.52-.14-1.61-.29-3.23-.41-4.85 0-.06.1-.08.1 0 .47 2.83.94 5.67 1.27 8.52.34 2.85.7 5.67 1 8.52.16 1.62.28 3.23.35 4.86 0 0-.05.03-.06 0-.56-2.83-.92-5.68-1.28-8.53Z" fill="#263238"/><path opacity=".1" d="M367.87 105.5c-4.53 9.23-14.79 25.24-19.2 28.4-1.65 1.16-5.47 2.2-9.64 3.03l25.68-41.4c4.12-1.27 6.69 2.71 3.16 9.97Z" fill="#191C29"/><path d="M395.9 152.1c-.12.13-46.96-10.1-47.4-10.65-.6-.77 7.75-36 16.57-46.5 2.2-2.63 9.24-2.45 12.38.2 15.61 13.14 18.9 56.5 18.45 56.96Z" fill="#455A64"/><path d="M381.94 98.87c8.9 6.83 32.33 34.45 27.43 41-4.9 6.57-38.44 4.4-48.24 1.59-2.9-.84 4.56-19.37 7.67-20.29 2.58-.77 17.11 3.17 17.4 2.33.29-.96-2.93-7.08-8.12-18.27-6.02-12.9-.08-9.38 3.86-6.36Zm-26.8 20.15c-6.48.16-8.11 1.2-13.66-1.56-3.63-1.8-6.34-.26-3.87 3.16 4.04 5.6 12.44 7.14 15.5 6.84l2.03-8.44Z" fill="#D3766A"/><path d="M372.96 122.32s-7.8-2.77-14.69-3.27c-4.8-.35-15.27.06-23.4 11.82-1.93 2.8-2.7 8.14 2.1 4.73 3.43-2.4 4.86-5 7.11-6.04 0 0-.18 6.92 2.7 8.75a62.8 62.8 0 0 0 7.82 4.24c.34-.45.64-.92.92-1.4 0 0 2.85 1.45 7.54.2l9.9-19.03Z" fill="#D3766A"/><path d="M353.66 119.44c-2.01 1.51-6.22 4.8-8.73 8.67-2.78 4.3-6.98 13.34-3.78 15.37 2.34 1.48 4.25-1.8 4.25-1.8s-.95 4.1 1.47 4.98c2.2.8 3.51-1.86 3.51-1.86s-.14 2.6 2.12 2.96c2.72.43 2.59-5.07 5.73-7.01.7-.46-4.57-21.3-4.57-21.3Z" fill="#D3766A"/><path d="M349.97 130.29c-1.65 1.73-4.4 6.6-4.62 11.26 0 .11.07.17.1.07a50.38 50.38 0 0 1 4.57-11.3s-.03-.05-.05-.03Zm4.27 2.91c-1.28 1.64-3.89 6.82-3.95 11.52 0 .1.09.16.1.07a53.96 53.96 0 0 1 3.9-11.57l-.05-.02Zm-10.19-3.68c-1.97.94-3.14 2.18-4.68 3.68a29.5 29.5 0 0 1-2.4 2.12c-.77.6-1.89 1.49-2.9.93a1.72 1.72 0 0 1-.66-1.63 8.4 8.4 0 0 1 .74-2.53c0-.03-.03-.06-.05-.03-.38.73-.68 1.5-.9 2.3-.13.54-.1 1.11.09 1.64.49 1.09 1.86 1.01 2.75.54.53-.3 1.03-.65 1.5-1.05.45-.38.88-.77 1.31-1.17.87-.82 1.7-1.7 2.55-2.53a27.56 27.56 0 0 1 2.67-2.23v-.03l-.02-.01Z" fill="#263238"/><path d="M340.93 137.49a64.9 64.9 0 0 1 3.17-7.93c0-.03 0-.06-.05-.03-1.35 1.8-3.27 6.26-3.65 7.66-.39 1.4-.8 3.13-.57 4.56.36 2.15 1.86 2.33 2.4 2.35.65 0 1.29-.2 1.8-.6a5.71 5.71 0 0 0 1.4-1.85c0-.03-.02-.06-.05-.03-.6.98-1.7 2.02-2.9 2.06a2 2 0 0 1-1.45-.5 2.6 2.6 0 0 1-.63-1.68c-.05-1.35.13-2.71.53-4.01Z" fill="#263238"/><path d="m372.96 121.39-6.73 23.46s41.95 2.4 44.27-5.25c2.32-7.65-17.96-32.57-26.37-39.4-9.74-7.94-10.26-4.6-7.09 3.34a403.19 403.19 0 0 0 9.05 20.2l-13.13-2.35Z" fill="#455A64"/><path d="M399.34 127.47a46.77 46.77 0 0 0-13.16-3.96c-1.3-.2-2.59-.34-3.88-.49-.04 0-.05.06 0 .06 2.27.34 4.53.82 6.75 1.42 2.2.58 4.4 1.19 6.6 1.84 1.23.37 2.45.8 3.67 1.2.05.04.08-.05.02-.07Z" fill="#263238"/><path d="M373.06 121.3c.2 0 11.88 1.84 12.27 1.95l-3.48-6.53-.12-.24c-.27-.35-.54-.7-.79-1.06l-.96-1.42 1.02 1.34.46.64c-.3-.6-.6-1.15-.88-1.73-.46-.93-.89-1.87-1.31-2.81h.04c.87 1.62 1.8 3.2 2.67 4.8.87 1.59 4.2 7.55 4.2 7.55s-12.9-2.28-13.14-2.34a.08.08 0 0 1-.03-.03.08.08 0 0 1 0-.1.08.08 0 0 1 .05-.02Zm1.6 14.3c.74-2.62 1.46-5.24 2.29-7.83l1.42-4.42c0-.05.12-.03.1 0-.63 2.66-1.27 5.32-2.03 7.95-.76 2.63-1.48 5.23-2.26 7.83a77 77 0 0 1-1.48 4.4c0 .03-.06 0-.05 0 .55-2.65 1.28-5.28 2.01-7.93Z" fill="#263238"/><path d="M365.77 145.28c.29-.73.64-1.8.96-2.51.09-.2.23-.18.16 0-.2.66-.34 1.39-.54 2.06.6 0 1.17 0 1.76.05l2.03.09a226.48 226.48 0 0 0 12.07.11c5.4-.1 10.8-.49 16.15-1.15 1.5-.19 3-.41 4.49-.68 1.47-.24 2.92-.55 4.36-.94.04 0 .06.05 0 .07a25.7 25.7 0 0 1-3.75 1.13c-1.34.3-2.68.55-4.03.75a102 102 0 0 1-8.13.89c-5.39.4-10.79.56-16.2.5-1.51 0-3-.05-4.54-.1-.76 0-1.52-.06-2.29-.1-.76-.04-2.56-.05-2.5-.17Z" fill="#263238"/><path d="M368.4 105.16s9.26-7.02 14.59-6.17l4.02 4.6s1.43.68 2.01-.2c1.44-2.2 2.37-7.8-2.01-12.09-4.03-3.92-11.34-4.59-17.61-3.75-6 .8-11.58 4.03-10.27 8.05 1.3 4.03 9.27 9.56 9.27 9.56Z" fill="#455A64"/><path opacity=".1" d="M368.03 103.3s-6.09-5.63-6.42-8.55c-.33-2.92 5.68-4.9 9.48-5.5 5.87-.92 9.68-.08 12.48 3.35 2.8 3.44-15.54 10.7-15.54 10.7Z" fill="#191C29"/><path d="M368.53 102.12c2.1.4 7.08-2.93 9.28-6 .15-.21.08-2.64.14-5.6.04-1.8.13-3.79.34-5.6l-11.69 1.4c.38 2.34.48 4.73.28 7.1-.03.25-.09.5-.17.74v.12c-.45 1.38-1.48 7.22 1.82 7.84Z" fill="#D3766A"/><path d="m366.7 94.16-.04.12c.38.1.78.16 1.17.2 6.5.6 9-7.1 9.6-9.49l-10.83 1.33c.39 2.34.48 4.73.3 7.1-.05.25-.12.5-.2.74Z" fill="#263238"/><path d="M380.4 72c.88 4.16-2.3 15.67-5.4 18-4.51 3.41-11.4 3.17-14.15-2.14-2.69-5.14 1.72-20.07 5.15-22.15 5.03-3.08 13.1.12 14.4 6.29Z" fill="#D3766A"/><path d="M370.37 77.4c-.33-.17-.6-.38-.9-.6-.29-.22-.63-.37-.8-.77a.56.56 0 0 1 .25-.6 1.34 1.34 0 0 1 1.36.19c.44.24.77.64.92 1.1a.6.6 0 0 1-.5.73.6.6 0 0 1-.33-.05Zm-7.92-1.8c.35.02.71.02 1.07 0 .37.05.75-.03 1.08-.22a.56.56 0 0 0 .13-.66 1.37 1.37 0 0 0-1.26-.6 2 2 0 0 0-1.36.45.6.6 0 0 0 .03.9c.09.07.2.12.3.13Zm5.16 10.8c-.23.14-.48.35-.76.3-.3-.07-.57-.2-.8-.4H366a1.1 1.1 0 0 0 .88.67.86.86 0 0 0 .79-.55c.02-.02-.04-.06-.07-.02Zm-.25-2.56a2.73 2.73 0 0 1-2.07.75 3.37 3.37 0 0 1-1.14-.25l-.17-.07a.19.19 0 0 1-.09-.09.16.16 0 0 1-.02-.12v-.15c.13-.6.4-1.5.4-1.5-.24.05-1.48.28-1.39 0 .79-2.57 1.66-5.4 3-7.8a.07.07 0 0 1 .1-.05l.04.04v.06c-.66 2.5-1.75 4.86-2.46 7.35.45-.09.9-.11 1.35-.07.08.04-.6 1.73-.6 2v.04a3.8 3.8 0 0 0 2.97-.2c.09-.06.14.01.08.06Zm.77-4.94c0-.03.05.05.05.08-.2.78-.28 1.7.38 2.11v.04c-.86-.3-.73-1.52-.43-2.23Z" fill="#263238"/><path d="M369 78.23c1.28.17.85 2.71-.34 2.55-1.18-.15-.73-2.69.34-2.55Zm-5.4-.41s-.07 0-.07.06c-.1.8-.36 1.69-1.11 1.8v.04c.89.08 1.21-1.12 1.18-1.9Z" fill="#263238"/><path d="M363.03 76.88c-1.25-.3-1.76 2.23-.6 2.5 1.16.28 1.65-2.24.6-2.5Zm-.03-6.9c.66-.93 1.39-1.86 2.05-1.93.66-.07.54 1.92 1.93 2.31 1.86.53 3.5-1.46 6.12-.77 3.26.86 4.43 3.64 3.38 9.06-.94 4.85 1.69 6.06 1.69 6.06s4.57-10.24 2.31-14.4c-2.25-4.15-8.8-7.2-14.13-4.8-1.98.88-3.35 4.47-3.35 4.47Z" fill="#263238"/><path d="M377.05 81.28s3.04-3.48 4.66-2.36c1.61 1.13-.97 6.39-3.07 6.92a2.06 2.06 0 0 1-2.62-1.4l1.03-3.16Z" fill="#D3766A"/><path d="M380.93 80.4v.05c-1.47.42-2.36 1.65-3 2.95a1.14 1.14 0 0 1 1.72-.13c.04.03 0 .09-.05.08a1.26 1.26 0 0 0-1.43.28c-.3.32-.56.68-.78 1.05-.09.12-.3 0-.24-.11v-.03c.16-1.8 1.83-4.14 3.78-4.14Z" fill="#263238"/><path d="M369.56 64.76a17.3 17.3 0 0 1 4.97-.69c1.87.05 7.6 1.39 8.81 2.76 1.21 1.38.74 6.9.65 7.7-.08.8-1.2 5.58-3.11 6.48-1.91.89-.83-7.34-3.18-10.48-2.35-3.14-8.14-5.77-8.14-5.77Z" fill="#0A33FF"/><path opacity=".1" d="M369.56 64.76s5.8 2.63 8.14 5.78c2.34 3.14 1.25 11.37 3.19 10.47.84-.4 1.33-1.1 1.85-2.34 0-2.45-.4-6.32-2-9.2-1.5-2.7-4.53-4.41-7.92-5.33-1.1.12-2.2.33-3.26.62Z" fill="#191C29"/><path d="M379.66 85.8c.18-2.21-1.15-8.4-2.97-12.11-1.82-3.72-8.4-6.73-9.33-6.82-2.35-.22-3 .81-3.37.55-.37-.27 2.4-2.55 3.11-2.85a7.68 7.68 0 0 1 3.35-.31c1 .18 7.14 1.76 9 4.76 1.85 3.01 3.92 10.95 3.04 12.77-.21.44-.87.64-1.16 1.26-.38.81-.72 1.77-1.07 2.33-.27.46-.62.62-.6.42Z" fill="#0A33FF"/><path d="M376.4 72.1a11.5 11.5 0 0 0 1.67-.87 8.42 8.42 0 0 0 1.55-1.23l.01.01.01.01v.04a5.48 5.48 0 0 1-3.24 2.12c-.02 0-.02 0-.02-.02v-.03l.01-.03Zm3.62 11.52c.08-.14.2-.27.3-.4.12-.17.21-.34.29-.52a6 6 0 0 1 .4-1.02c.19-.24.39-.46.6-.65.29-.2.49-.49.58-.82 0-.05.08-.04.07 0-.1.66-.6 1.07-.99 1.58-.19.34-.35.7-.47 1.08-.15.35-.4.64-.72.83-.03.03-.1-.02-.06-.08Zm-.4-2.48c.25-.2.5-.42.73-.64.22-.24.42-.49.6-.75s.34-.53.52-.78c.18-.26.45-.6.64-.91 0-.04.08 0 .06.04-.2.33-.34.7-.53 1.03a8.64 8.64 0 0 1-1.2 1.53c-.22.23-.5.4-.79.52l-.03-.04Zm-.46-2.25a6.3 6.3 0 0 0 1.39-1.17c.4-.44.76-.9 1.12-1.38 0 0 .09 0 .07.04a7.44 7.44 0 0 1-1.01 1.54 3.54 3.54 0 0 1-1.54 1.03c-.03.02-.07-.04-.03-.06Zm-.56-2.18c.25-.12.48-.29.67-.5l.66-.66.6-.65c.22-.21.4-.47.51-.75 0-.04.09 0 .07 0-.07.3-.2.58-.37.82a6.07 6.07 0 0 1-1.36 1.45c-.22.2-.49.33-.78.37l-.02-.02v-.04l.02-.02Zm-.22-2.69a11.43 11.43 0 0 0 1.32-1.13c.2-.22.44-.41.63-.63l.02-.01h.04v.01l.01.02v.03c-.16.25-.34.5-.53.73a6.96 6.96 0 0 1-1.34 1.14c-.23.18-.5.3-.78.38h-.03l-.02-.03v-.05c.21-.18.44-.33.68-.46Zm-3.48-3.42c.26-.23.51-.47.79-.68l.88-.6a9.52 9.52 0 0 1 1.87-.88c.04 0 .08.04.04.07-1.16.72-2.37 1.4-3.53 2.14h-.02l-.02-.01v-.04Zm-1.03-2.07c.26-.23.54-.43.85-.6a10.22 10.22 0 0 1 2.06-.75l.01.02v.05l-1.87.9c-.3.15-.6.32-.88.5-.28.2-.52.45-.79.66h-.04c.17-.3.4-.57.66-.78Zm-1.69-1.13a5.1 5.1 0 0 1 2.57-1.26l-.01.02-.03.01c-.58.24-1.14.53-1.67.86l-.79.53c-.24.2-.5.39-.77.56 0 0-.04 0 0-.03.21-.26.44-.49.7-.7Zm-1.15-1.3c.26-.15.53-.29.8-.42.25-.15.53-.26.82-.32.04 0 .05.06 0 .08-.5.28-1 .6-1.5.88-.43.3-.83.66-1.2 1.05h-.03a2.8 2.8 0 0 1 1.11-1.27Zm-1.59-.6a4.74 4.74 0 0 1 1.6-.69c.04 0 .07.06 0 .07a5.6 5.6 0 0 0-1.48.8c-.45.33-.87.71-1.24 1.14h-.05a3.9 3.9 0 0 1 1.17-1.32Zm-2.29.64.24-.3c.18-.2.38-.37.6-.52.43-.3.9-.55 1.38-.76.05 0 .07.05 0 .07a6.24 6.24 0 0 0-2.11 1.6c-.07.1-.14.18-.23.27h-.05a.96.96 0 0 1 .17-.36Zm-1.34-.08a5.47 5.47 0 0 1 1-.8c.19-.1.38-.21.56-.33l.03-.01.02.02v.02l-.01.03a3.4 3.4 0 0 0-.53.39l-.48.39-.48.4a5.03 5.03 0 0 1-.5.41h-.02l-.01-.03v-.02c.13-.17.27-.33.42-.47Z" fill="#263238"/><path d="M368.03 103.3s8.03-10.36 16.43-10.42L382.97 99s-4.92-.6-14.58 6.16l-.36-1.86Z" fill="#455A64"/><path d="M385.2 99.39a10.57 10.57 0 0 0-4.5 0 20 20 0 0 0-4.3 1.38c-1.4.61-2.73 1.3-4.03 2.09l-1.9 1.23-1.86 1.32-.21.19-.2-.13a37.7 37.7 0 0 1-4.1-3.25c-.66-.58-1.28-1.2-1.86-1.85-.6-.66-2.94-3.49-3.27-5.4.75 1.89 4.09 5.79 5.4 6.88a49.55 49.55 0 0 0 4.2 3.02h-.4l1.86-1.37a97 97 0 0 1 1.93-1.26 25.14 25.14 0 0 1 4.16-2.06c1.44-.6 2.94-1 4.48-1.2.38-.06.77-.08 1.16-.1.4-.04.78 0 1.16 0 .78.03 1.56.2 2.28.51Z" fill="#263238"/><path d="M387 103.59c-.77-.67-1.49-1.4-2.15-2.17-.68-.76-1.3-1.56-1.88-2.4a25.28 25.28 0 0 1 4.03 4.6v-.03Z" fill="#263238"/><path d="M371.64 101.72a45.9 45.9 0 0 1-.26 7.92c-.21 1.83-1.8 8.29-3.8 7.8-1.99-.5 1.88-4.3 2.93-7.68 1.04-3.37.46-6.03.6-8.11l.53.07Z" fill="#0A33FF"/><path d="M371.64 101.72a45.9 45.9 0 0 1-.26 7.92c-.21 1.83-1.8 8.29-3.8 7.8-1.99-.5 1.88-4.3 2.93-7.68 1.04-3.37.46-6.03.6-8.11l.53.07Z" fill="#191C29" opacity=".1"/><path d="M364.39 101.12c-1 2.41-1.84 4.88-2.54 7.4-.45 1.61-1.3 7.58.56 7.8 1.86.21-.13-4.25.13-7.45.27-3.2 1.74-5.89 2.31-7.7l-.46-.05Z" fill="#0A33FF"/><path d="M364.39 101.12c-1 2.41-1.84 4.88-2.54 7.4-.45 1.61-1.3 7.58.56 7.8 1.86.21-.13-4.25.13-7.45.27-3.2 1.74-5.89 2.31-7.7l-.46-.05Z" fill="#191C29" opacity=".1"/><path d="m320.22 147.77-.04 1.86 46.14.92.03-1.86-46.13-.92Z" fill="#455A64"/><path d="m340.84 148.16-.04 1.86 25.53.51.04-1.86-25.53-.5Z" fill="#A6A6A6"/><path d="m341.17 149.96-40.43-.76-5.19-27.57 40.43.76 5.2 27.57Z" fill="#A6A6A6"/><path d="m339.34 149.92-40.43-.76-5.2-27.56 40.44.76 5.19 27.56Z" fill="#C7C7C7"/><path d="M319.2 136.42a2.4 2.4 0 0 1-2.46 2.65 3.07 3.07 0 0 1-2.94-2.75 2.4 2.4 0 0 1 2.46-2.65 3.06 3.06 0 0 1 2.94 2.75Z" fill="#EBEBEB"/><path d="M216.26 192.47c2.18 6.25 11.37 30.63 13.55 32.4 2.58 2.12 17.76 1.3 18.3-1.41 1.44-7.02-18.43-31.27-27.15-38.04-4.26-3.28-8.34-3.43-4.7 7.05Z" fill="#EB9481"/><path d="M215.1 222.24c-1.96 1.46 3.08 19.65 6.53 18.6 12.69-3.78 23.84-11.66 25.59-14.51a6.6 6.6 0 0 0-4.33-9.73c-6.49-1.55-25.85 4.2-27.78 5.64Z" fill="#EB9481"/><path d="M221.66 221.18s-16.27-2.08-22.63.03c-3.18 1.06-15.75 7.68-14.22 10.77 1.39 2.79 5.26-.11 5.26-.11s-4.53 2.77-2.3 5.12c2.23 2.34 6.92-1.9 6.92-1.9s-5.01 2.6-2.4 4.88c2.27 1.98 8.2-2.35 8.2-2.35s-5.57 2.16-3.44 4.41c2.35 2.5 12.04-2.89 12.04-2.89 6.6 4.2 10.34 2.6 15.32.93.83-.27-2.75-18.89-2.75-18.89Z" fill="#EB9481"/><path d="M193.28 236.04c.38-.32.77-.6 1.16-.95a25.15 25.15 0 0 1 4.74-3.21c.82-.46 1.8-.87 2.66-1.38h.06l.01.02.01.02v.03l-.01.01-.02.02c-.85.49-1.68 1.02-2.48 1.6l-2.4 1.65c-.8.55-1.58 1.02-2.37 1.54-.4.25-.77.53-1.16.8-.34.3-.72.55-1.1.77-.04 0-.08-.04-.06-.07.3-.31.61-.6.96-.85Zm-4.14-3.58a38.94 38.94 0 0 1 4.2-3.36 26.93 26.93 0 0 1 4.8-2.56l.02.02v.04c0 .01 0 .03-.02.03-1.49 1.02-3 2-4.5 3-.75.48-4.03 2.8-4.4 3-.08.04-.16-.1-.1-.17Zm7.94 7.04a38.73 38.73 0 0 1 4.02-3.1 34.5 34.5 0 0 1 4.72-2.14c.06 0 .11.06.06.1-1.51.83-3.04 1.63-4.51 2.53-.72.44-3.48 2.36-4.2 2.72-.07.03-.13-.06-.09-.11Z" fill="#263238"/><path d="M204.72 185.84c-15.72 21.5-30.35 53.94-33.12 60.51-1.89 4.47 22 13.92 22.8 10.7 1.06-4.13 13.6-46.26 18.04-65.45 2.47-10.59-4.73-9.87-7.72-5.76Z" fill="#EB9481"/><path d="M190.23 265.4c3.89-1.76 4.2-8.35 4.2-8.35L172.9 243.7c-1.73 4.49-6.67 8.96-11.97 10.3-6 1.51-12.11 3.86-12.53 4.49-.78 1.2.72 3.07 5.01 3 4.3-.08 12.6-1.64 13.15-1.6.17.04.34.08.5.14.2.14 4.92 5.37 7.2 6.92 1.38.95 6.83.79 10 .54 5.08-.39 5.34-1.62 5.97-2.09Z" fill="#EB9481"/><path d="M174.22 256.64s-10.23-2.08-12.23-1.2c-2 .89-14.75 4.23-15.57 5.4-.81 1.17.72 3.08 5.01 3 4.3-.07 12.6-1.63 13.15-1.6.55.04 9.12 3.32 10 3.38.88.06-.36-8.98-.36-8.98Z" fill="#EB9481"/><path d="M168.6 254.65c-1.15.03-2.29.1-3.43.17l-1.71.15-.86.1c-.14 0-.29.05-.43.07-.15.03-.31.09-.44.13a554.3 554.3 0 0 0-6.54 2.03c-2.18.7-4.34 1.38-6.52 2.15a7.2 7.2 0 0 0-1.56.8 3.2 3.2 0 0 0-.67.6 1.5 1.5 0 0 0-.36.87 1.22 1.22 0 0 0 .36.86c.21.2.46.38.73.5a6 6 0 0 0 1.65.5 7.47 7.47 0 0 1-1.57-.64 2.47 2.47 0 0 1-.63-.51.92.92 0 0 1-.24-.7 1.8 1.8 0 0 1 .94-1.2c.47-.28.98-.51 1.51-.68a443.2 443.2 0 0 0 6.55-2.01c2.17-.7 4.34-1.4 6.5-2.17.53-.18 1.08-.3 1.63-.36.56-.09 1.13-.16 1.7-.23l3.39-.43Z" fill="#263238"/><path d="M175.59 258.56s-11.23-2.23-13.2-1.37c-1.97.86-14.75 4.23-15.56 5.4-.82 1.17.72 3.07 5 3 4.3-.07 12.6-1.63 13.15-1.6.55.04 9.12 3.31 10 3.38.89.06.61-8.81.61-8.81Z" fill="#EB9481"/><path d="M170.33 255.94a83.42 83.42 0 0 0-7.34.85c-.35.07-.7.17-1.04.29-2.67.84-5.34 1.7-8 2.58L150 261l-1 .35c-.34.11-.67.24-1 .4-.33.16-.65.36-.93.6-.33.25-.56.6-.67.99-.05.22-.03.44.05.64.09.2.21.36.36.5.29.25.6.45.96.6.66.26 1.36.44 2.06.55 1.4.22 2.82.2 4.2-.07a13.05 13.05 0 0 1-6.12-.82 3 3 0 0 1-.82-.53.76.76 0 0 1-.26-.74c.1-.29.28-.54.52-.71.26-.22.55-.41.85-.56.6-.27 1.3-.46 1.95-.68l4-1.3c2.66-.89 5.32-1.76 7.96-2.7.32-.13.65-.23.98-.31l1.02-.22c.69-.14 1.38-.26 2.07-.37l4.15-.68Z" fill="#263238"/><path d="M175.58 258.2s-10.2.33-12.06 1.14c-1.85.8-10.7 2.55-11.46 3.66-.76 1.1.67 2.85 4.65 2.8 3.99-.05 8.73-.14 9.23-.1l9.06.71c.8.06.58-8.22.58-8.22Z" fill="#EB9481"/><path d="M172.83 257.44c-1.8.18-3.6.38-5.4.6l-2.7.31-.67.1a5.3 5.3 0 0 0-.68.13c-.44.11-.88.24-1.31.36a97.56 97.56 0 0 0-8.95 3.2c-.43.19-.85.4-1.25.65a1.13 1.13 0 0 0-.49.73c-.04.3.04.6.23.84.3.4.68.72 1.13.95.83.47 1.76.72 2.72.75h5.4c1.8 0 3.63-.03 5.4-.07.89 0 1.8.07 2.7.12.9.04 1.8.07 2.7.07-1.8-.29-3.56-.52-5.4-.71l-5.4.03c-1.8 0-3.6 0-5.4-.04a5.4 5.4 0 0 1-2.45-.66 2.87 2.87 0 0 1-1.03-1 .5.5 0 0 1 .24-.59c.37-.22.75-.42 1.15-.6l1.23-.52a80.5 80.5 0 0 1 2.52-.98c1.69-.6 3.37-1.26 5.09-1.8l1.28-.4c.43-.1.87-.19 1.31-.24l2.68-.4 5.35-.83Z" fill="#263238"/><path d="m198 227.7 42.37.72s-8.36-30.87-21-43.28c-5.83-5.7-12.52-2.75-15 2.6-7.94 16.86-6.37 39.97-6.37 39.97Z" fill="#C7C7C7"/><path d="m239.82 226.59-41.91-.73c0-.55-.04-1.2-.04-1.99l41.34.72c.25.77.45 1.44.61 2Zm-2.26-7.1-39.63-.69c0 .7-.04 1.36-.05 1.99l40.35.7-.67-2Zm-1.83-5.1-37.51-.66c-.06.68-.1 1.34-.14 1.99l38.4.67-.75-2Zm-2.02-5.11-34.98-.6-.23 1.99 36.03.63c-.27-.7-.53-1.35-.82-2.02Zm-2.22-5.1-31.98-.56c-.13.66-.24 1.32-.35 1.98l33.23.6c-.29-.69-.6-1.35-.9-2.03Zm-2.5-5.12-28.41-.5c-.17.66-.32 1.32-.46 1.98l29.89.53c-.34-.67-.67-1.34-1.02-2Zm-2.9-5.12-24.06-.42a35.5 35.5 0 0 0-.6 1.98l25.87.45c-.4-.69-.8-1.35-1.2-2.01Zm-3.53-5.13-18.6-.33c-.3.65-.57 1.3-.84 1.97l20.9.37c-.46-.7-.96-1.37-1.46-2.01Zm-3.24-3.67a12.92 12.92 0 0 0-1.83-1.5l-9.57-.16a9.59 9.59 0 0 0-2.15 1.95l14.08.25-.53-.54Z" fill="#A6A6A6"/><path d="M208.12 185.9c.52 1.04 4.47 3.93 7.8 2.84 1.71-.57 0-6.65 0-6.65l-.05-.47-.6-6.6-9.97-2.56s2.67 13.14 2.82 13.44Z" fill="#EB9481"/><path d="M205.25 172.46s.6 3 1.28 6.14c3.28 3.08 7.28 3.33 9.37 3.42l-.67-7-9.98-2.56Z" fill="#263238"/><path d="M220.48 162.23c5.4 11.2-.6 15.81-3.1 16.88-2.25.96-9.82 4.38-16.36-6.2-6.54-10.6-3.04-16.66 1.85-19.35 4.9-2.68 12.2-2.55 17.6 8.67Z" fill="#EB9481"/><path d="M202.33 175.85c2.18 1.41 6.28 3.6 9.53 2.34 6.28-2.48 5.69-12 5.69-12s3.44-1-.17-7.9c0 0-.27-7.47-9.98-7-9.72.47-10.85 8.6-10.85 8.6s-3.71 9.83 5.78 15.96Z" fill="#263238"/><path d="M210.56 152.11s-6.36-3.47-12.96 2.44c-7.85 7.02-5.4 31.13-5.9 33.28-.5 2.15-1.42 2.66-1.73 4.6-.32 1.93 1.27 3.18 1.47 3.87.19.68-1.74 4.2-1.74 4.2s10.6 2.8 17.25 1.5c4.85-1.03 9.64-2.32 14.35-3.86 0 0-1.5-2.14-1.5-3.15 0-1.02 1.2-2.36 1.08-4.2-.11-1.84-2.87-4.08-3.15-5.06-.27-.98.95-21.23-.64-27.6-1.6-6.37-6.53-6.02-6.53-6.02Z" fill="#263238"/><path d="M221.64 197.63a9.7 9.7 0 0 1-1.48-2.26 1.4 1.4 0 0 1-.12-.7c.33-1.46 1.62-2.77 1.37-4.34-.32-1.2-1.5-2.21-2.3-3.15-.52-.5-.9-1.14-1.09-1.84v-.7c.26-7.59.6-17.26-.64-24.78a13.53 13.53 0 0 0-1.74-5.02c1 1.5 1.7 3.19 2.02 4.96 1.54 7.52 1.25 17.25.89 24.85v.64c.18.6.5 1.13.95 1.57.83 1.04 2 2.05 2.3 3.4.23 1.68-1.1 2.95-1.56 4.45-.02.2 0 .4.09.6.34.82.79 1.6 1.33 2.3l-.02.02Zm-32.46 1.93c.43-.93 1.05-2.1 1.41-3.05a2.05 2.05 0 0 0-.27-.4c-.84-1.04-1.55-2.32-1.4-3.71.1-1.63 1.2-3 1.75-4.44.31-.98.41-2.02.3-3.04-.24-8.89-.37-23.94 6.46-30.43a9.06 9.06 0 0 1 2.66-1.73 9.92 9.92 0 0 0-2.56 1.84c-6.42 6.7-6.15 21.44-6.06 30.3a7.49 7.49 0 0 1-.37 3.22c-.6 1.52-1.7 2.7-1.85 4.31-.08 1.03.2 2.06.78 2.91.2.34.46.65.67 1a.3.3 0 0 1 .06.18c-.47 1.06-1 2.08-1.59 3.07l.01-.03Z" fill="#263238"/><path d="M219.97 166.43s-3.6-3.15-5.1-1.77c-1.51 1.38 1.88 6.41 4.1 6.66a2.12 2.12 0 0 0 2.21-1c.15-.24.25-.52.29-.8l-1.5-3.1Z" fill="#EB9481"/><path d="M215.87 166.07v.06c1.56.23 2.64 1.36 3.5 2.6a1.2 1.2 0 0 0-1.4-.22 1.2 1.2 0 0 0-.4.33c-.02.04 0 .09.06.07a1.32 1.32 0 0 1 1.51.1c.35.28.67.6.95.96.1.11.31 0 .23-.15-.4-1.86-2.45-4.05-4.45-3.75Z" fill="#263238"/><path d="m221.95 235.8 5.67 37.98s23.77 1.48 49.37-9.71c23.4-10.25 12.5-28.67-6.05-30.38-16.58-1.49-45.45 1.7-49 2.11Z" fill="#37474F"/><path d="M199.7 271.4c6.29 2.51 18.38 1.85 19.92 1.84 1.55.1 13.58 1.54 20-.55 11.72-3.8 10.8-14 10.48-20.57-.52-10.8-9.75-23.7-9.75-23.7l-42.35-.71s-7 13.93-8.21 24.66c-.76 6.53-1.53 14.49 9.9 19.03Z" fill="#37474F"/><path d="M223.31 256.31c-.16-2.22-.7-9.24-.78-10.53-.04-.64-.2-4.38.06-4.4 1.34-.06 2.68-.05 4.01.05h3.93a103.77 103.77 0 0 0 8.07-.52.29.29 0 0 1 .19.14.2.2 0 0 1 .03.11.27.27 0 0 1-.07.22.28.28 0 0 1-.21.09c-2.67.31-5.35.52-8.03.6-1.31.05-6.37.16-7.54 0 0 .53.27 2.48.31 2.93.56.02 1.12.07 1.68.15a55.45 55.45 0 0 0 13.2-.38.05.05 0 0 1 .05.05.05.05 0 0 1-.05.06c-2.52.5-5.07.77-7.63.82-1.2 0-2.4 0-3.6-.08a61.42 61.42 0 0 1-3.63-.39v.26c.12 1.2.71 8.44.92 10.8 1.3.65 7.72 3.83 8.49 3.44 1.48-.75 6.55-3.92 8.02-4.7a87.6 87.6 0 0 0-1.17-9.65c-.26-1.1-.43-2.21-.51-3.33 0-.1.14-.17.2-.08l.1.14v.07c.38.95.67 1.95.85 2.96a77.71 77.71 0 0 1 1.49 10.07.42.42 0 0 1-.2.39c-2.22 1.2-8.33 4.9-8.88 4.98-1.06.16-8.88-3.51-9.09-3.66-.2-.15-.18-.33-.2-.6Zm-14.64-.48c.25-2.22 1.02-9.21 1.15-10.5.07-.64.36-4.36.13-4.39a26.44 26.44 0 0 0-3.65 0 85.76 85.76 0 0 1-10.76-.73.28.28 0 0 0-.2.07.28.28 0 0 0-.05.38c.05.06.1.1.18.11 2.4.35 4.82.6 7.26.75 1.2.08 5.78.27 6.84.12-.03.53-.35 2.48-.4 2.91a39.66 39.66 0 0 1-6.74.25 47.8 47.8 0 0 1-6.76-.69c-.08 0-.09.1 0 .1 2.26.55 4.57.86 6.89.95 1.1.04 2.18 0 3.28-.03.6-.03 1.2-.08 1.8-.13a9.38 9.38 0 0 0 1.53-.2l-.04.26c-.16 1.2-1 8.4-1.28 10.8-1.2.6-7.17 3.7-7.86 3.3-1.3-.76-5.78-4.02-7.08-4.8a96.56 96.56 0 0 1 1.45-9.61c.28-1.1.48-2.2.6-3.33 0-.1-.12-.17-.18-.08l-.1.14v.07c-.38.95-.68 1.94-.89 2.94a81.58 81.58 0 0 0-1.78 10.03.43.43 0 0 0 .17.39c1.97 1.24 7.36 5.01 7.86 5.1.96.18 8.21-3.36 8.4-3.5.19-.15.2-.4.23-.68Zm7.23-23.71c-1.71 9.93-4.75 27.2-.97 36.47-4.36-9.14-1.33-26.7.96-36.47Zm27.84 1.76c3.88 4.74 7.04 10.33 7.86 16.48-1.63-5.93-4.66-11.27-7.86-16.48Zm-3.82-8.08h-42.29l-1.2 4.38h45.3l-1.8-4.38Z" fill="#263238"/><path d="M267.1 234.5c1.52.8 2.94 1.79 4.2 2.94.57.54 1.03 1.13 1.63 1.65.6.53 1.24 1.08 1.8 1.65 1.14 1.1 2.09 2.29 3.18 3.41a13.5 13.5 0 0 1 2.71 3.73c0 .05.14 0 .11-.03-.6-1.33-1.08-2.69-1.66-4.05a10.96 10.96 0 0 0-1.75-2.67c.48.52.96 1.04 1.49 1.54.86.8 1.64 1.68 2.3 2.64 0 .05.16 0 .13 0-.45-.94-.84-1.9-1.24-2.85l-.2-.41c.23.32.47.64.72.95.36.46.74.91 1.07 1.38.15.22.3.43.43.65l.06.1c0 .11.05.22.12.32.06.1.16.18.26.23.04 0 .09 0 .07-.03-.23-.98-.52-1.95-.85-2.9a17.14 17.14 0 0 0-6.78-7.8c-.21-.12-.69.07-.6.22.52.76 1.11 1.48 1.72 2.2l-.15-.11a21.57 21.57 0 0 0-3.36-2c-.06-.03-.2.04-.16.08.6.83 1.2 1.7 1.84 2.5.22.27.47.52.71.77l-.33-.29c-.68-.53-1.4-1-2.17-1.38-1.67-.9-3.22-1.85-5.01-2.6-.15-.06-.39.1-.28.16Zm10.7 15.52a25.82 25.82 0 0 0-1.36-5.05 6.65 6.65 0 0 0-1.6-2.16c-.75-.7-1.7-1.28-2.5-1.96-.04-.04-.16 0-.11.07a9.4 9.4 0 0 1 1.46 2.36c.42.78.89 1.54 1.42 2.26a14.75 14.75 0 0 1 2.56 4.53c0 .06.13.01.13-.05Z" fill="#EB9481"/></svg>