<svg width="400" height="400" fill="none" xmlns="http://www.w3.org/2000/svg"><path d="M68.36 334.4c71 36.3 186.14 36.3 257.14 0s71-95.2 0-131.46c-71.01-36.27-186.13-36.3-257.14 0-71 36.3-71 95.16 0 131.46Z" fill="#F5F5F5"/><path d="M61.42 282.29c-.9 0-1.44-.75-1.44-2V145.72L224.8 50.58V184.6a7.16 7.16 0 0 1-3.2 5.6L62.74 281.88c-.4.25-.85.39-1.32.4Z" fill="#FAFAFA"/><path d="M224.3 51.38V184.6a6.77 6.77 0 0 1-3 5.2L62.5 281.46c-.32.21-.7.33-1.08.35-.88 0-.98-1.08-.98-1.53v-134.3L224.3 51.4Zm.94-1.6L59.5 145.45v134.84c0 1.6.8 2.47 1.92 2.47a3.14 3.14 0 0 0 1.55-.47l158.8-91.69a7.67 7.67 0 0 0 3.47-6V49.76v.02Z" fill="#E0E0E0"/><path d="M59.51 145.45v22.52l165.73-95.69V49.76L59.51 145.45Z" fill="#0A33FF"/><path d="M72.5 146.65v3.2c0 .65.48.93 1.04.6l50.96-29.42v-5.6l-50.96 29.42a2.33 2.33 0 0 0-1.04 1.8Z" fill="#FAFAFA"/><path d="M129.96 112.28c.58-.34 1.04-.06 1.04.6v3.2a2.32 2.32 0 0 1-1.04 1.8l-5.46 3.15v-5.6l5.46-3.15ZM59.5 138.2a7.67 7.67 0 0 1 3.47-6l158.8-91.7c1.92-1.1 3.47-.2 3.47 2v7.26L59.5 145.45v-7.26Z" fill="#455A64"/><path d="M206.82 52.91a3.56 3.56 0 0 0-1.6 2.81c0 1.04.72 1.46 1.6.94a3.6 3.6 0 0 0 1.6-2.81c.03-1.05-.7-1.46-1.6-.94Zm5.18-2.97a3.58 3.58 0 0 0-1.6 2.8c0 1.04.73 1.46 1.6.95a3.6 3.6 0 0 0 1.6-2.82c0-1.04-.74-1.45-1.6-.93Zm5.11-2.98a3.57 3.57 0 0 0-1.6 2.8c0 1.05.73 1.46 1.6.95a3.6 3.6 0 0 0 1.6-2.81c.03-1.04-.7-1.46-1.6-.94Z" fill="#0A33FF"/><path d="M173.24 86.94a7.86 7.86 0 0 0-3.54 6.16c0 2.26 1.6 3.2 3.54 2.04a7.83 7.83 0 0 0 3.55-6.15c.01-2.26-1.59-3.18-3.55-2.05ZM157 96.32a7.85 7.85 0 0 0-3.55 6.15c0 2.27 1.6 3.2 3.55 2.06a7.85 7.85 0 0 0 3.54-6.16c0-2.27-1.58-3.17-3.54-2.05Zm32.49-18.72a7.84 7.84 0 0 0-3.55 6.15c0 2.27 1.6 3.2 3.55 2.05a7.83 7.83 0 0 0 3.55-6.15c0-2.3-1.58-3.23-3.55-2.05Zm16.25-9.44a7.84 7.84 0 0 0-3.55 6.15c0 2.27 1.6 3.2 3.55 2.05a7.83 7.83 0 0 0 3.56-6.15c0-2.27-1.6-3.19-3.56-2.05Z" opacity=".1" fill="#000"/><path d="m76 169.72 38.57-22.27c1.91-1.1 3.46-.21 3.46 2v37.03a7.67 7.67 0 0 1-3.46 6L76 214.74c-1.91 1.1-3.46.21-3.46-2v-37.02a7.67 7.67 0 0 1 3.46-6Zm55.2-31.9L212 91.2c1.91-1.11 3.46-.22 3.46 2v37.02a7.66 7.66 0 0 1-3.46 6l-80.8 46.63c-1.91 1.1-3.46.2-3.46-2v-37.03a7.67 7.67 0 0 1 3.46-6ZM76 226l61.31-35.4c1.92-1.1 3.47-.32 3.47 1.75a7.42 7.42 0 0 1-3.46 5.75L76 233.5c-1.91 1.1-3.46.32-3.46-1.75A7.44 7.44 0 0 1 76 226Zm0 13.14 61.31-35.4c1.92-1.1 3.47-.32 3.47 1.75a7.43 7.43 0 0 1-3.46 5.75L76 246.64c-1.91 1.1-3.46.32-3.46-1.75a7.43 7.43 0 0 1 3.46-5.75Zm0 13.12 61.31-35.4c1.92-1.1 3.47-.32 3.47 1.76a7.42 7.42 0 0 1-3.46 5.75L76 259.77c-1.91 1.1-3.46.32-3.46-1.75a7.44 7.44 0 0 1 3.46-5.76Z" fill="#E0E0E0"/><path d="M105 207.74a4.6 4.6 0 0 1 2.08-3.6l106.33-61.39a4.6 4.6 0 0 1 4.16 0l2.34 1.35a4.6 4.6 0 0 1 2.07 3.6v81.5a4.6 4.6 0 0 1-2.07 3.6L113.6 294.2a4.6 4.6 0 0 1-4.16 0l-2.34-1.36a4.6 4.6 0 0 1-2.08-3.6l-.02-81.5Z" fill="#0A33FF"/><path opacity=".4" d="m105.6 205.69 5.9 3.4 109.87-63.43a4.39 4.39 0 0 0-1.47-1.56l-2.3-1.35a4.57 4.57 0 0 0-4.14 0l-106.38 61.39a4.3 4.3 0 0 0-1.48 1.55Z" fill="#fff"/><path opacity=".1" d="M105 207.74v81.5a4.6 4.6 0 0 0 2.08 3.6l2.34 1.35a4.57 4.57 0 0 0 3.06.4l.42-.11.24-.1a1.26 1.26 0 0 1-1 0 1.43 1.43 0 0 1-.63-1.36V211.5a1.83 1.83 0 0 1 1.08-1.78l-1.08-.62-5.91-3.41a4.25 4.25 0 0 0-.6 2.05Z" fill="#000"/><path opacity=".2" d="m111.51 209.1 49.24 18.4a8 8 0 0 0 9.5-3.13l7.9-12.11 43.62-66.83-42.04 67.28 42.25 16.54a4.3 4.3 0 0 1-.64 2.07l-41.72-18.4-9.22 14.68a8 8 0 0 1-10.02 3.07l-6.54-2.89-41.7 66.62a1.43 1.43 0 0 1-.63-1.37v-1.35l42.15-63.94-42.15-18.64Z" fill="#000"/><path d="M199.24 115.53v187.12c0 2.2 1.55 3.1 3.46 2l84.07-48.54a7.67 7.67 0 0 0 3.46-6V63c0-2.2-1.55-3.1-3.46-2l-84.07 48.54a7.65 7.65 0 0 0-3.46 6Z" fill="#FAFAFA" stroke="#E0E0E0" stroke-width="1.17" stroke-miterlimit="10"/><path d="M204.11 119a1.91 1.91 0 0 1 .9-1.45l9.6-5.53c.5-.28.9-.1.9.43a1.9 1.9 0 0 1-.9 1.45l-9.6 5.53c-.49.29-.9.1-.9-.42Zm0 3.74a1.9 1.9 0 0 1 .9-1.46l9.6-5.53c.5-.29.9-.1.9.42a1.91 1.91 0 0 1-.9 1.46l-9.6 5.52c-.49.29-.9.1-.9-.41Zm0 3.72a1.9 1.9 0 0 1 .9-1.45l9.6-5.53c.5-.29.9-.1.9.42a1.9 1.9 0 0 1-.9 1.45l-9.6 5.53c-.49.32-.9.1-.9-.42Z" fill="#455A64"/><path d="M283.74 78.48v-1.5c0-.01 0-.03-.02-.05a.1.1 0 0 0-.14-.04l-1.15.52a.14.14 0 0 1-.19-.09c-.06-.2-.15-.39-.26-.57a.3.3 0 0 1 0-.28l.8-1.55a.17.17 0 0 0-.07-.22l-.8-.48a.17.17 0 0 0-.22.06l-.96 1.43a.3.3 0 0 1-.25.12 2.85 2.85 0 0 0-.69.07.14.14 0 0 1-.11-.12l-.13-1.26c0-.09-.08-.13-.15-.08l-1.3.74a.34.34 0 0 0-.15.24l-.13 1.44c-.01.1-.06.2-.13.28-.26.24-.5.51-.72.8a.24.24 0 0 1-.26.07l-.8-.29a.2.2 0 0 0-.23.09l-.95 1.65a.2.2 0 0 0 .04.24l.67.57a.3.3 0 0 1 .07.12v.14c-.13.33-.23.66-.31 1a.5.5 0 0 1-.16.25l-1.18.8a.35.35 0 0 0-.14.26v1.49a.1.1 0 0 0 0 .06.1.1 0 0 0 .15.03l1.15-.52a.14.14 0 0 1 .2.1c.06.2.14.39.25.57a.31.31 0 0 1 0 .28l-.8 1.54a.18.18 0 0 0 .07.23l.8.48a.18.18 0 0 0 .23-.05l.96-1.44a.3.3 0 0 1 .25-.12 2.84 2.84 0 0 0 .68-.07.13.13 0 0 1 .12.12l.12 1.26c0 .09.08.13.16.08l1.3-.74a.36.36 0 0 0 .14-.25l.13-1.44c.02-.1.06-.2.14-.27.26-.24.5-.51.72-.8a.24.24 0 0 1 .25-.07l.8.29a.2.2 0 0 0 .24-.09l.95-1.65a.21.21 0 0 0 .02-.13.21.21 0 0 0-.07-.11l-.66-.57a.25.25 0 0 1-.06-.26c.12-.33.22-.66.3-1 .02-.1.07-.2.16-.25l1.18-.8a.37.37 0 0 0 .14-.26Zm-5.07 4.72c-1.2.7-2.18.14-2.18-1.26a4.8 4.8 0 0 1 2.18-3.79c1.21-.7 2.19-.13 2.19 1.27a4.8 4.8 0 0 1-2.19 3.78Z" fill="#37474F"/><path d="M244.74 115.36c9.82-5.67 17.78-1.07 17.78 10.27 0 11.35-7.96 25.13-17.78 30.8-9.83 5.67-17.79 1.07-17.79-10.26 0-11.34 7.96-25.14 17.79-30.81Z" fill="#455A64"/><path d="M244.62 124.29c3.2-1.84 5.76-.35 5.76 3.33a12.76 12.76 0 0 1-5.76 9.98c-3.2 1.84-5.78.35-5.78-3.33a12.74 12.74 0 0 1 5.78-9.98ZM256 143.9c0-6.04-4.25-8.5-9.48-5.47l-3.32 1.89c-5.23 3.02-9.48 10.4-9.48 16.42v1.66c.99.32 2.02.47 3.06.47 2.8-.1 5.54-.92 7.93-2.4a35.06 35.06 0 0 0 11.3-11.16v-1.4Zm-27.31 29.4 32.11-18.53c.95-.55 1.73-.16 1.73.88a3.72 3.72 0 0 1-1.73 2.87l-32.1 18.54c-.96.56-1.74.16-1.74-.88a3.7 3.7 0 0 1 1.73-2.88Z" fill="#0A33FF"/><path d="m225.24 186.57 39-22.57c.95-.55 1.73-.16 1.73.88a3.71 3.71 0 0 1-1.74 2.87l-38.99 22.57c-.96.55-1.74.16-1.74-.88a3.7 3.7 0 0 1 1.74-2.87Z" fill="#455A64"/><path d="m265.27 182.2 10.92-6.31c.58-.33 1.04-.18 1.04.34a2.08 2.08 0 0 1-1.04 1.54l-10.92 6.3c-.57.33-1.04.18-1.04-.33a2.12 2.12 0 0 1 1.04-1.55Z" fill="#37474F"/><path d="m210.72 209.94 16.04-9.25c.95-.55 1.73-.1 1.73 1v11a3.83 3.83 0 0 1-1.73 3l-16.04 9.26c-.95.55-1.73.1-1.73-1v-11a3.84 3.84 0 0 1 1.73-3Z" fill="#0A33FF"/><path d="m213.28 211.48 10.92-6.3c.58-.33 1.04-.18 1.04.33a2.1 2.1 0 0 1-1.04 1.55l-10.92 6.3c-.58.33-1.04.18-1.04-.34a2.08 2.08 0 0 1 1.04-1.54Zm-1.04 5.55v3.2c0 .67.46.93 1.04.6l10.92-6.3a2.3 2.3 0 0 0 1.04-1.8v-3.2c0-.67-.46-.93-1.04-.6l-10.92 6.27a2.31 2.31 0 0 0-1.04 1.83Z" fill="#FAFAFA"/><path d="m236.72 194.94 16-9.26c.96-.55 1.74-.1 1.74 1v11a3.82 3.82 0 0 1-1.74 3l-16 9.26c-.96.56-1.73.1-1.73-1v-11a3.82 3.82 0 0 1 1.73-3Z" fill="#0A33FF"/><path d="m239.28 196.47 10.92-6.3c.57-.33 1.03-.18 1.03.33a2.1 2.1 0 0 1-1.03 1.55l-10.92 6.3c-.58.33-1.04.18-1.04-.34a2.1 2.1 0 0 1 1.04-1.54Zm-1.04 5.55v3.2c0 .67.46.93 1.04.6l10.92-6.3a2.3 2.3 0 0 0 1.03-1.8v-3.2c0-.66-.47-.93-1.04-.6l-10.92 6.3a2.3 2.3 0 0 0-1.03 1.8Z" fill="#FAFAFA"/><path d="m262.72 179.93 16-9.27c.95-.55 1.73-.1 1.73 1v11.02a3.84 3.84 0 0 1-1.73 3l-16 9.26c-.96.55-1.74.1-1.74-1v-11.01a3.83 3.83 0 0 1 1.74-3Z" fill="#0A33FF"/><path d="m265.27 181.46 10.92-6.26c.58-.34 1.04-.18 1.04.34a2.06 2.06 0 0 1-1.04 1.53l-10.92 6.3c-.57.34-1.04.19-1.04-.33a2.1 2.1 0 0 1 1.04-1.58Zm-1.04 5.56v3.2c0 .65.47.92 1.04.6l10.92-6.32a2.29 2.29 0 0 0 1.04-1.8v-3.2c0-.66-.46-.93-1.04-.6l-10.92 6.3a2.3 2.3 0 0 0-1.04 1.82Z" fill="#FAFAFA"/><path d="m212.46 235.2 64.56-37.27c1.92-1.1 3.46-.32 3.46 1.75a7.4 7.4 0 0 1-3.46 5.75l-64.56 37.27c-1.92 1.1-3.47.32-3.47-1.75a7.43 7.43 0 0 1 3.47-5.75Zm0 15.02 64.56-37.28c1.92-1.1 3.46-.32 3.46 1.76a7.4 7.4 0 0 1-3.46 5.75l-64.56 37.28c-1.92 1.1-3.47.32-3.47-1.76a7.43 7.43 0 0 1 3.47-5.75Z" fill="#E0E0E0"/><path d="M233.47 256.85 256 243.84c.96-.55 1.74-.1 1.74 1v7.26a3.82 3.82 0 0 1-1.74 3l-22.53 13c-.96.56-1.73.1-1.73-1v-7.25a3.83 3.83 0 0 1 1.73-3Z" fill="#0A33FF"/><path d="M213.87 236.31a3.59 3.59 0 0 0-1.6 2.82c0 1.03.72 1.45 1.6.93a3.6 3.6 0 0 0 1.6-2.81c.02-1.03-.7-1.46-1.6-.94Zm5.15-2.97a3.58 3.58 0 0 0-1.6 2.81c0 1.03.72 1.46 1.6.94a3.57 3.57 0 0 0 1.6-2.82c.02-1.03-.7-1.47-1.6-.93Zm5.14-2.94a3.59 3.59 0 0 0-1.6 2.82c0 1.03.73 1.45 1.6.93a3.6 3.6 0 0 0 1.6-2.81c.03-1.08-.7-1.5-1.6-.94Zm5.15-3.02a3.59 3.59 0 0 0-1.6 2.82c0 1.03.73 1.46 1.6.94a3.6 3.6 0 0 0 1.6-2.82c.03-1.03-.7-1.46-1.6-.94Zm5.15-2.98a3.6 3.6 0 0 0-1.6 2.82c0 1.04.72 1.46 1.6.94a3.59 3.59 0 0 0 1.6-2.82c.02-1.03-.7-1.45-1.6-.93Zm5.14-2.97a3.58 3.58 0 0 0-1.6 2.82c0 1.03.73 1.45 1.6.93a3.58 3.58 0 0 0 1.6-2.81c.02-1.03-.7-1.46-1.6-.94Zm5.15-2.97a3.6 3.6 0 0 0-1.6 2.81c0 1.03.73 1.46 1.6.94a3.59 3.59 0 0 0 1.6-2.82c.05-.99-.7-1.45-1.6-.93Zm-30.88 32.88a3.6 3.6 0 0 0-1.6 2.81c0 1.04.72 1.46 1.6.94a3.58 3.58 0 0 0 1.6-2.81c.02-1.04-.7-1.46-1.6-.94Zm5.15-2.98a3.59 3.59 0 0 0-1.6 2.82c0 1.04.72 1.45 1.6.93a3.58 3.58 0 0 0 1.6-2.8c.02-1.05-.7-1.46-1.6-.95Zm5.14-2.98a3.6 3.6 0 0 0-1.6 2.82c0 1.04.73 1.46 1.6.94a3.58 3.58 0 0 0 1.6-2.81c.03-1.04-.7-1.47-1.6-.95Zm5.15-2.98a3.57 3.57 0 0 0-1.6 2.82c0 1.04.73 1.45 1.6.93a3.58 3.58 0 0 0 1.6-2.8c.03-1.04-.7-1.46-1.6-.95Zm5.15-2.97a3.6 3.6 0 0 0-1.6 2.82c0 1.04.72 1.45 1.6.93a3.58 3.58 0 0 0 1.6-2.8c.02-1.04-.7-1.47-1.6-.95Zm5.14-2.97a3.58 3.58 0 0 0-1.6 2.81c0 1.04.73 1.46 1.6.94a3.56 3.56 0 0 0 1.6-2.82c.02-1.03-.7-1.45-1.6-.93Zm5.15-2.98a3.6 3.6 0 0 0-1.6 2.82c0 1.04.73 1.45 1.6.93a3.59 3.59 0 0 0 1.6-2.81c.05-1.04-.7-1.46-1.6-.94Z" fill="#FAFAFA"/></svg>