<svg width="390" height="308" fill="none" xmlns="http://www.w3.org/2000/svg">
    <g clip-path="url(#a)">
        <path d="M57.1 115.81c-76.14 43.97-76.13 115.2 0 159.2 76.14 44 199.6 43.97 275.74 0 76.15-43.95 76.14-115.2 0-159.2-76.13-44-199.6-43.96-275.73 0Z"
              fill="#F0F3FF"/>
        <path d="m277.55 61.05-10.49-4.17-.99-12.95s6.58 1.82 7.96 4.06c2.24 3.6 3.92 8.78 3.52 13.06Z" fill="#0A33FF"/>
        <path opacity=".5" d="m277.55 61.05-10.49-4.17-.99-12.95s6.58 1.82 7.96 4.06c2.24 3.6 3.92 8.78 3.52 13.06Z"
              fill="#191C29"/>
        <path d="M250.78 39.51c-2.96.2-6.5 2.67-7.24 3.91-1.35 2.3-3.2 31.12-.44 33.95 3.49 3.57 19.68 9.74 26.48 8.94a12.85 12.85 0 0 0 9.6-6.26c1.19-2.59-4.32-28.19-6.35-30.87-3.25-4.34-18.28-9.92-22.04-9.67Z"
              fill="#0A33FF"/>
        <path opacity=".3"
              d="M250.78 39.51c-2.96.2-6.5 2.67-7.24 3.91-1.35 2.3-3.2 31.12-.44 33.95 3.49 3.57 19.68 9.74 26.48 8.94a12.85 12.85 0 0 0 9.6-6.26c1.19-2.59-4.61-29-6.63-31.68-3.26-4.34-18-9.11-21.77-8.86Z"
              fill="#191C29"/>
        <path d="M266.92 69.2c-.72-6.24-.99-12.52-.8-18.8-.22-1.85 1.6-5.6 1.6-5.6a15.2 15.2 0 0 1 4.8 3.54c2.03 2.68 7.83 29.1 6.63 31.68l-.13.27-.18.29v.04l-.21.32v.04l-.28.37c-.2.27-.45.55-.7.8l-.43.43a13.27 13.27 0 0 1-5.9 3.32c-3.54-.2-3.42-8.12-4.4-16.7Z"
              fill="#0A33FF"/>
        <path opacity=".4"
              d="M266.18 50.38c-.22-1.85 1.6-5.6 1.6-5.6a15.2 15.2 0 0 1 4.8 3.54l.21.35c-.3.9-.84 1.71-1.55 2.34a20.74 20.74 0 0 1-5.16 3.06c0-2.29.1-3.7.1-3.7Z"
              fill="#191C29"/>
        <path d="M276.35 66.22c-.13-.06-2.09-1.26-2.3-1.35-.4-.16-5.47 4-5.92 4.67-.3.46 1.33 11.64 1.6 12.1.09.16 2.2 1.18 2.3 1.34.25.45 5.6-3.78 5.9-4.72.32-.93-1-11.82-1.58-12.04Z"
              fill="#0A33FF"/>
        <path opacity=".18"
              d="M276.35 66.22c-.13-.06-2.09-1.26-2.3-1.35-.4-.16-5.47 4-5.92 4.67-.3.46 1.33 11.64 1.6 12.1.09.16 2.2 1.18 2.3 1.34.25.45 5.6-3.78 5.9-4.72.32-.93-1-11.82-1.58-12.04Z"
              fill="#191C29"/>
        <path d="M270.43 70.88c-.3.46 1.32 11.64 1.6 12.1.28.45 5.6-3.78 5.92-4.72.3-.93-1-11.82-1.6-12.04-.4-.16-5.48 3.99-5.92 4.66Z"
              fill="#0A33FF"/>
        <path opacity=".4"
              d="M274.05 64.87c.21.09 2.17 1.3 2.3 1.35-.4-.16-5.48 4-5.92 4.65l-2.3-1.3c.45-.7 5.53-4.86 5.92-4.7Z"
              fill="#191C29"/>
        <path opacity=".3"
              d="M270.43 70.88c-.3.46 1.32 11.64 1.6 12.1.28.45 5.6-3.78 5.92-4.72.3-.93-1-11.82-1.6-12.04-.4-.16-5.48 3.99-5.92 4.66Z"
              fill="#191C29"/>
        <path d="M268.13 69.58c.38-.3 1.65.23 2.2.63.57.4 1.32 2.4 2.7 2.65 1.37.24 3.1-1.74 3.4-2.92.3-1.17.54-3.6-.19-4.4a2.2 2.2 0 0 0-2.8-.55c-.91.59-5.29 3.49-5.31 4.59Z"
              fill="#0A33FF"/>
        <path opacity=".1"
              d="M268.13 69.58c.38-.3 1.65.23 2.2.63.57.4 1.32 2.4 2.7 2.65 1.37.24 3.1-1.74 3.4-2.92.3-1.17.54-3.6-.19-4.4a2.2 2.2 0 0 0-2.8-.55c-.91.59-5.29 3.49-5.31 4.59Z"
              fill="#191C29"/>
        <path d="M274.26 69.9a1 1 0 0 0-.38.97.4.4 0 0 0 .65.3.97.97 0 0 0 .38-.97c-.08-.35-.37-.49-.65-.3Z"
              fill="#37474F"/>
        <path d="M266.08 54.12s-.44-1.1 4-4.33c2.94-2.13 3.28-1.66 4.67 1.07.8 1.55 1.6 3.48 2.78 10.19.6-.07.89-1.91 0-5.91-1.43-6.19-3.2-9.39-6.57-11.05-8.63-4.25-14.46-5.8-19.88-4.88-5.06.85-8.34 2.64-8.2 7.2-.01-.03 7.14 8.13 23.2 7.7Z"
              fill="#0A33FF"/>
        <path opacity=".35"
              d="M266.08 54.12s-.44-1.1 4-4.33c2.94-2.13 3.28-1.66 4.67 1.07.8 1.55 1.6 3.48 2.78 10.19.6-.07.89-1.91 0-5.91-1.43-6.19-3.2-9.39-6.57-11.05-8.63-4.25-14.46-5.8-19.88-4.88-5.06.85-8.34 2.64-8.2 7.2-.01-.03 7.14 8.13 23.2 7.7Z"
              fill="#191C29"/>
        <path d="M273.13 181.65c-.7-7.78-.05-11.05-.88-23.2-.1-3.11-.26-6.45-.52-9.42-.87-9.96-2.55-13.36-2.72-15.28 0 0 0-12-.95-33.78-.45-10.26-3.64-13.34-6.23-18.76l-31.76.33c-1.68 13.6-1.6 38.8-1.3 52.65.13 7.07 3.54 42.16 3.61 43.03.26 3.08 0 4.3-1.28 5.6-2.64 2.75-6.5 5.37-9.83 7.78.5 1.2 4.55 1.12 6.53.18a52.74 52.74 0 0 0 7.4-4.57c2.75-1.96 6.25-3.55 6.26-6.5a3 3 0 0 1 .08-.51c0-1.72 4-24.38 4.3-30.25.07-4.54-.1-9.08-.51-13.6l2.84-17.4s1.8 9.06 4.06 17.66c1.84 7 5.07 16.24 7.15 24.86 2.01 9.94 4.88 17 5.42 21.97.16 1.18 1.74 12.85 2.4 15.52.67 2.67 6.8 2.67 7.14-1.94.18-3.04-1.08-12.9-1.21-14.37Z"
              fill="#B16668"/>
        <path d="M215.6 193.78a2.4 2.4 0 0 0 .5 2.54c1.07.87 4.21 2.3 8.37 1.8 4.15-.52 6.4-1.73 8.07-3.05 1.67-1.32 4-3.2 5.86-3.56 1.5-.25 2.92-.8 4.2-1.6.56-.5.48-2.78.48-2.78l-27.49 6.65Z"
              fill="#263238"/>
        <path d="M241.63 178.38s.3 0 .41.53c.1.54.27 2.44.55 3.47.43 1.8.57 3.65.41 5.5-.22 1.16-3.07 1.97-4.89 2.62a23.3 23.3 0 0 0-5.89 3.51 17.7 17.7 0 0 1-8.8 3.1c-4.13.06-6.81-1-7.63-2.4-1.03-1.74-.23-2.75 4.52-4.8.9-.4 4.05-2.17 5.13-2.8 1.13-.68 2.2-1.44 3.2-2.28.5-.43 1-.88 1.45-1.36.47-.42.88-.9 1.2-1.45l.14-.37c.13-.34.24-.7.3-1.06.09-.38.13-.92.5-1.13a3.2 3.2 0 0 1 1.7-.2c.62.04 1.23.12 1.84.24.7.16 1.5.21 1.92.8.27.5.4 1.04.4 1.6v.8c0 .12-.06.31.1.27.17-.05.34-.44.4-.57.13-.29.21-.6.35-.9a4.81 4.81 0 0 1 1.35-1.67c.27-.15.54-.32.8-.5.28-.25.46-.59.53-.96Z"
              fill="#37474F"/>
        <path d="M219.58 190.24c5.98.4 7.87 3.88 8.13 6.04-1.37.49-2.8.77-4.25.84-4.14.06-6.99-1-7.81-2.4-.97-1.63-.32-2.95 3.93-4.48Z"
              fill="#FAFAFA"/>
        <path d="M228.58 190.3c.06 0 .13-.03.18-.07a.28.28 0 0 0 .07-.08.29.29 0 0 0 .04-.1l-.01-.1a.27.27 0 0 0-.05-.1 7.25 7.25 0 0 0-5.42-2.02.29.29 0 0 0-.26.3.3.3 0 0 0 .33.25 6.73 6.73 0 0 1 5 1.89c.03.02.07.03.12.02Zm2.54-1.43c.07 0 .14-.02.2-.06.05-.04.09-.1.1-.18a.28.28 0 0 0-.07-.2 7.26 7.26 0 0 0-5.41-2.02.29.29 0 0 0-.27.3.3.3 0 0 0 .33.25 6.7 6.7 0 0 1 5 1.89l.12.02Zm2.39-1.62c.07 0 .13-.02.19-.06a.28.28 0 0 0 .07-.08.28.28 0 0 0 .03-.1v-.12a.28.28 0 0 0-.06-.1 7.29 7.29 0 0 0-5.42-2 .27.27 0 0 0-.18.1.3.3 0 0 0-.05.1v.1a.27.27 0 0 0 .1.19.3.3 0 0 0 .09.05 6.76 6.76 0 0 1 5.1 1.9l.13.02Zm2.34-1.62a.3.3 0 0 0 .18-.06.26.26 0 0 0 .08-.08.26.26 0 0 0 .03-.1v-.11a.27.27 0 0 0-.06-.1c-1.15-1.37-3.74-2.26-5.91-2.04a.28.28 0 0 0-.26.3.3.3 0 0 0 .31.25c1.97-.2 4.38.63 5.4 1.84.03.03.06.06.1.07a.3.3 0 0 0 .13.03Z"
              fill="#F0F0F0"/>
        <path d="M265.24 200.09c.2 2.66.66 4.42 1.68 5.97 1.02 1.56 2.92 2.03 4.8 1.55 1.88-.48 4.34-1.73 4.86-4 .61-2.06.73-4.24.36-6.36l-11.7 2.84Z"
              fill="#263238"/>
        <path d="M273.05 180.7c.8.04 1.06 3.63 1.6 7.2.54 3.83 1.77 5.4 2.24 8.55.54 3.6-.06 5.2-1.38 7.4-1.3 2.19-6 4.37-8.37 1.28-1.93-2.52-2.04-5.34-1.91-8.93.05-3.04-.07-6.08-.37-9.1-.2-2.7-.86-5.4-.18-5.7l.18 1.27c.03.49.13.97.27 1.43.09.2.26.41.33.1a1.9 1.9 0 0 0 0-.68c-.13-1 .4-1.08.69-1.16a36.9 36.9 0 0 1 3.65-.53c.6-.05 2.68-.15 2.95.17.18.32.28.67.28 1.04.08.53.21.94.23.8 0-.4-.07-1.4-.07-1.64-.01-.24-.06-.55-.07-.8 0-.25-.06-.47-.07-.7Z"
              fill="#37474F"/>
        <path d="M277.1 198.54a8.59 8.59 0 0 1-1.4 5.48c-1.3 2.2-6.4 4.39-8.76 1.3a9.78 9.78 0 0 1-1.7-5.24c1.37-2.42 9.63-3.56 11.87-1.54Z"
              fill="#FAFAFA"/>
        <path d="M266.92 196.15h.1c2.3-.87 4.77-1.13 7.2-.74a.29.29 0 0 0 .34-.21.27.27 0 0 0-.22-.33 14.52 14.52 0 0 0-7.61.8.27.27 0 0 0-.16.27c0 .03.01.07.03.1a.3.3 0 0 0 .32.11Zm7.1-3.45a.28.28 0 0 0 .25-.18.29.29 0 0 0-.02-.22.27.27 0 0 0-.16-.13c-3.55-1.1-7.46.65-7.6.72a.26.26 0 0 0-.12.38.3.3 0 0 0 .4.1s3.83-1.7 7.13-.68a.2.2 0 0 0 .13.01Zm-.15-2.52a.28.28 0 0 0 .24-.18.25.25 0 0 0 .02-.11.26.26 0 0 0-.2-.24 10.86 10.86 0 0 0-7.75.72.28.28 0 0 0-.1.39c.05.06.11.1.19.12.07.02.15 0 .22-.03a10.4 10.4 0 0 1 7.3-.64l.08-.03Z"
              fill="#F0F0F0"/>
        <path d="M273.65 187.7c.05-.01.1-.03.14-.06a.3.3 0 0 0 .1-.13.28.28 0 0 0 .01-.1.28.28 0 0 0-.1-.2.29.29 0 0 0-.09-.05c-3.65-1.25-7.64.7-7.79.8a.27.27 0 0 0-.13.16.26.26 0 0 0 .03.22.3.3 0 0 0 .18.13.3.3 0 0 0 .22-.04s3.9-1.89 7.3-.73h.13Z"
              fill="#EBEBEB"/>
        <path d="M265.16 81.29c3.63 6.06 3.8 11.04 4.38 29.19.58 18.15.1 19.67.2 21.86.1 2.2 1.5 6.08 2.82 16.86.79 6.95.88 13.95.28 20.92 0 0-.8 1.74-5.16 2.16-4 .38-6.03-1.03-6.03-1.03s-5.98-18.23-7.6-24.7c-1.6-6.47-5.83-24.23-5.83-24.23l-2.04 13.34s1.3 5.93.19 15.4c-.63 5.5-1.6 10.97-2.9 16.35a20 20 0 0 1-6.5 1.17c-1.97.03-3.9-.47-5.6-1.43 0 0-3.52-25.27-3.66-36-.13-10.73-.9-41.6 2.92-55.4l34.53 5.54Z"
              fill="#37474F"/>
        <path d="M265.28 134.31s-2.24-2.16-6.49-1.6-5.96 2.91-5.96 2.91c4.55-2.05 12.45-1.3 12.45-1.3Zm-10 2.04c2.51.44 5.03.63 10.5-.45-2.61-.58-10.5.45-10.5.45Zm-16.48-2.15c-1.6-.8-7.43-1.9-11.1-1.4l.05 1.16a57.2 57.2 0 0 1 11.04.23Zm-10.96 1.26.07 1.1c2.79-.15 5.56-.48 8.3-1-4.2-.26-8.37-.1-8.37-.1Z"
              fill="#B16668"/>
        <path d="M268.84 140.73c-.15-.62-.3-1.21-.42-1.77-1.18-5-.76-8-.85-16.31 0-2.5-.05-5.1-.11-7.86-.23-10.8-1.3-26.4-7.2-34.14l-.47.3c4 5.22 5.73 15.95 6.5 23.44-5.71-.66-7.07-6.02-8.91-13.37-.25-1-2.02-8.8-2.3-9.87l-.55.13c.28 1.07 2.05 8.86 2.3 9.86 1.8 7.35 3.2 13.17 9.5 13.81.31 3.3.46 6.63.53 9.85.05 2.76.08 5.35.1 7.86.1 8.33-.32 11.35.87 16.41l.43 1.78c1.6 6.47 4.12 13.47 3.2 30.4.2-.1.4-.23.59-.37.9-16.76-1.64-23.7-3.2-30.15Zm-34.49-46.74c.8 3.56 5.26 5.49 8 6.08l.55 2.3c-.12 1.93-.24 9.5-.36 11.59-.7 11.54-1.06 19.45-.4 22.14 1.73 7.07 1.3 11.56.53 19.72l-.25 2.62c-.44 4.74-1.02 6.71-1.35 9.7l.6-.14c.32-3 .88-4.87 1.32-9.51.07-.92.16-1.79.24-2.63.8-8.2 1.22-12.73-.53-19.88-.64-2.6-.24-11.03.41-21.99.08-1.33.15-8.17.23-9.44l2.6 18.29.21 12.8 2.07-13.34-3.86-24.44c-3.7 0-7.27-1.38-10-3.87Z"
              fill="#263238"/>
        <path d="M214.66 70.16c-1.86.71-2.96.25-4.14 0-1.86-.36-2.77-.67-3.83-.2-1.06.47-1.25 1.03-2.11 1.22-1.59.37-3.15.82-4.68 1.36a1.84 1.84 0 0 0-.5 2.6c-.89-.06-1.41 1.5-.13 2.95-.8.14-1 1.7-.16 2.6-.35.53-.17 1.3.64 1.92a11.9 11.9 0 0 0 2.51 1.4c.6.27 1.17.12 2.1-.28a8.96 8.96 0 0 0 1.8-.95c.7.12 2.35.57 5.6-1.48a19.62 19.62 0 0 1 5.15-2.34s1.39-7.28-2.25-8.8Z"
              fill="#B16668"/>
        <path d="M210.52 76.6c-.5-.08-.98-.21-1.45-.38-.23-.1-.45-.2-.66-.34a1.2 1.2 0 0 1-.4-.47 5.77 5.77 0 0 0-.4-.89 1.41 1.41 0 0 0-.66-.65 1.34 1.34 0 0 1 .7 1.06c.1.47.18.96.22 1.45.01.49-.06.97-.21 1.43a1.46 1.46 0 0 1-.7.87h-.05a1.13 1.13 0 0 1-1.37-.73c-.52-1.15-1.1-2.26-1.53-3.43-.7-1.51 0-2.16.98-3.2-1.05.98-1.73 1.66-1.22 3.07l-.13-.1a1.7 1.7 0 0 0-.43-.23.8.8 0 0 0-.39-.07v.07c0 .01.25.07.37.12a2 2 0 0 1 .63.55l.09.14.08.1c.36.95.8 1.86 1.2 2.78-1.06-.09-2.26.2-3.2-.28a3.67 3.67 0 0 1-.65-.53c-.61-.57-1.3-1.19-1.9-1.77.72.92 1.54 1.75 2.45 2.48 1.07.5 2.22.18 3.34.12l.14.3c.13.32.36.58.66.75.11.07.23.1.36.13-1.14.31-2.4 1.1-3.54.8-1.17-.51-2.35-1.15-3.54-1.65 1.13.68 2.29 1.3 3.48 1.85 1.2.27 2.3-.42 3.37-.9.47.03.9.24 1.22.59.53.91-2.34 2.1-3.02 2.4a2.8 2.8 0 0 1-2.65-.14 27 27 0 0 1-2.56-1.19c.8.51 1.63.96 2.5 1.35.43.22.89.38 1.37.46.49.02.97-.08 1.42-.28.77-.32 1.51-.71 2.2-1.17.55.5-.03 1.29-.44 1.74.66-.32 1.17-1.4.47-1.75.65-.46 1.1-.99.8-1.48a1.92 1.92 0 0 0-1.3-.52l.27-.12a1.22 1.22 0 0 0 1.29-.74 4.1 4.1 0 0 0 .37-2.33c.74.43 1.57.69 2.42.74Z"
              fill="#9A4A4D"/>
        <path d="m242.18 52.31.19-11.74c-5.8 0-8.63 1.16-12.47 9.43a638.7 638.7 0 0 0-7.2 16.38s-5.47 2.76-8.8 4.07l2.09 8.8a458.7 458.7 0 0 1 9.64-2.8c5.88-1.66 7.45-3.42 9.26-5.7 2.1-2.66 2.47-5.26 3.7-8.88a95.48 95.48 0 0 1 3.59-9.56Z"
              fill="#B16668"/>
        <path d="M267.08 61.98s-3-1.03-4.5-7.1c-.68-2.75-.14-6.51.56-10.86l-8.46-2.55s-2.74-.42-8.74-.8l-3.56-.1s-11.06 6.07-14.44 11.76c-1.37 2.3-2.03 6.9 1.44 12.64.19 4.17-.26 14-.26 14s5.42 5.14 16.38 5.1c15.73-.06 18.3-6.23 18.3-6.23-.2-4.47 2.14-11.4 3.28-15.86Z"
              fill="#0A33FF"/>
        <path opacity=".2"
              d="M267.08 61.98s-3-1.03-4.5-7.1c-.68-2.75-.14-6.51.56-10.86l-8.46-2.55s-2.74-.42-8.74-.8l-3.56-.1s-11.06 6.07-14.44 11.76c-1.37 2.3-2.03 6.9 1.44 12.64.19 4.17-.26 14-.26 14s5.42 5.14 16.38 5.1c15.73-.06 18.3-6.23 18.3-6.23-.2-4.47 2.14-11.4 3.28-15.86Z"
              fill="#FAFBFF"/>
        <path d="M240.5 66.04s2.68 3.53 8.67 2.67c6-.85 7.26-5.32 7.26-5.32s.22 5.8-6.93 6.79c-7.16.98-9-4.14-9-4.14Z"
              fill="#0A33FF"/>
        <path d="M256.91 42.12s-2.9 3.78-3.5 12.53c-1.03 14.93 11.02 22.13 11.02 22.13.19-2.44.25-4.88.18-7.33 0 0-5.55-5.88-4.95-11.9.8-8 2.21-11.61 3.45-13.49 0-.04-3.44-1.85-6.2-1.94Z"
              fill="#0A33FF"/>
        <path opacity=".2"
              d="M256.91 42.12s-2.9 3.78-3.5 12.53c-1.03 14.93 11.02 22.13 11.02 22.13.19-2.44.25-4.88.18-7.33 0 0-5.55-5.88-4.95-11.9.8-8 2.21-11.61 3.45-13.49 0-.04-3.44-1.85-6.2-1.94Z"
              fill="#191C29"/>
        <path d="M215.52 54.7a.3.3 0 0 1 .28-.05l10.45 1.88c.32.08.6.27.8.54L238.48 74c.09.14.1.24.05.3l-.93 1.1c-.06.07-.14.08-.28.06l-10.4-1.88a1.49 1.49 0 0 1-.85-.54l-11.43-16.92c-.09-.13-.1-.24-.05-.3l.93-1.1Z"
              fill="#455A64"/>
        <path d="M225.77 57.82c.15.1.28.21.38.35L237.6 75.1c.08.13.1.23.05.3l.92-1.1c.04-.04 0-.16-.05-.3l-11.43-16.92c-.1-.14-.23-.26-.38-.35l-.93 1.1Z"
              fill="#37474F"/>
        <path d="m237.38 75.45-10.47-1.87a1.5 1.5 0 0 1-.84-.55l-11.43-16.92c-.17-.25-.06-.4.23-.36l10.44 1.88c.34.08.64.27.84.55L237.6 75.1c.16.24.06.4-.21.35Z"
              fill="#263238"/>
        <path d="m226.88 61.22-1.17-1.73a1.69 1.69 0 0 0-.96-.62l-.4-.07c-.54-.1-.72.2-.42.64l1.16 1.73c.24.3.58.53.96.62l.4.07c.53.1.74-.19.43-.64Z"
              fill="#37474F"/>
        <path d="M226.44 61.08a1.6 1.6 0 0 0-.9-.57c-.33-.05-.47.1-.3.35.24.29.56.48.91.56.33.07.46-.1.3-.34Z"
              fill="#455A64"/>
        <path opacity=".2"
              d="M226.18 61.02a.8.8 0 0 0-.47-.28c-.17 0-.23.04-.14.18a.8.8 0 0 0 .46.29c.15.02.2-.06.15-.19Z"
              fill="#FAFBFF"/>
        <path d="M225.56 59.8a1.6 1.6 0 0 0-.9-.56c-.33-.06-.46.1-.3.35.24.29.56.48.91.56.34.07.47-.1.3-.35Z"
              fill="#455A64"/>
        <path opacity=".2"
              d="M225.27 59.75a.8.8 0 0 0-.46-.29c-.17 0-.23.05-.15.18a.8.8 0 0 0 .47.29c.17.05.25-.05.14-.18Z"
              fill="#FAFBFF"/>
        <path d="m227.54 59.24.13-.15a.15.15 0 0 1 .14-.06h.2a.1.1 0 0 1 .07.03l.04.05 1.04 1.54a.32.32 0 0 1 0 .34l-.13.14a.16.16 0 0 1-.15.07h-.2a.13.13 0 0 1-.1-.07l-1.04-1.54a.29.29 0 0 1 0-.35Z"
              fill="#263238"/>
        <path d="m228.75 61.15-1.03-1.53a.29.29 0 0 1 0-.35l.13-.14a.14.14 0 0 1 .05-.06.15.15 0 0 1 .08-.02c.02 0 .05 0 .07.02a.1.1 0 0 1 .05.06l1.05 1.53a.32.32 0 0 1 0 .35l-.13.14a.15.15 0 0 1-.27 0Z"
              fill="#455A64"/>
        <path d="m229.24 61.75.14-.17a.15.15 0 0 1 .06-.06.16.16 0 0 1 .08 0h.2c.03 0 .05 0 .07.02.02 0 .03.02.04.04l1.04 1.55a.32.32 0 0 1 0 .34l-.13.15a.17.17 0 0 1-.15.06l-.2-.04a.17.17 0 0 1-.1-.07l-1.04-1.54a.3.3 0 0 1 0-.28Z"
              fill="#263238"/>
        <path d="m230.47 63.67-1.04-1.54a.29.29 0 0 1 0-.34l.12-.14a.16.16 0 0 1 .06-.05.15.15 0 0 1 .14 0c.03 0 .04.03.06.05l1.04 1.54a.32.32 0 0 1 0 .34l-.13.15a.15.15 0 0 1-.06.05.15.15 0 0 1-.15 0 .15.15 0 0 1-.04-.06Z"
              fill="#455A64"/>
        <path d="m231.04 62.93-.53-.8c-.4-1.4.5-2.27 1.56-.8.84 1.13 3.5 2.7 4.41 4.21.92 1.5 1.24 3.1 3.55 4.41 2.44 1.4 17.47 2.7 17.47 2.7l1.7-16.8s1.24-8.58 3.94-11.82c4.25 1.48 5.53 2.9 6.58 5.02 1.72 3.45 1.37 7.2.2 15.28-1.09 7.7-1.91 12.3-2.92 15.17-1.25 3.53-2.83 5.21-9.24 4.36-6.4-.86-12.94-3.84-20-6.22-3.4-1.14-5.6-1.6-8.29-3.1-1.04-.52-2-1.2-2.84-2.01a6.48 6.48 0 0 1-1.72-2.66 2.12 2.12 0 0 0-.2-.54 3.2 3.2 0 0 0-.37-.45 4.08 4.08 0 0 1-.67-.86 6.21 6.21 0 0 1-.3-1.13 3.86 3.86 0 0 0-.13-.52 2.92 2.92 0 0 0-.26-.5 4.28 4.28 0 0 1-.66-1.29.75.75 0 0 1 .22-.7l-.54-.65a3.92 3.92 0 0 1-.54-.89.3.3 0 0 1 0-.14.3.3 0 0 1 .18-.22c.92-.6 1.93-.08 2.75.44 2.16 1.35 3.2 2.65 5.53 3.76 3.2 1.53 3.36.06 3.36.06l-2.24-3.31Z"
              fill="#B16668"/>
        <path d="M257.5 72.63c1.58.14 3.13.52 4.6 1.13a8.42 8.42 0 0 0-4.5-2.02l-.1.9Zm-34.93-8.65c.4.49.83.95 1.28 1.4l1.34 1.34c.23.22.44.46.68.67a17.46 17.46 0 0 0 2.28 1.72l-.72-.62c-.24-.2-.48-.4-.72-.63l-.7-.63c-.22-.21-.42-.45-.66-.68-.44-.45-.9-.88-1.37-1.3l-1.41-1.27Zm.62 2.34c.22.43.49.83.8 1.2a18.25 18.25 0 0 0 3.13 3.07l-.94-1.06-1-1.06-1-1.06c-.36-.35-.7-.7-1-1.1Z"
              fill="#9A4A4D"/>
        <path d="m263.06 10.8.1.11c1.03 1.04 1.7 2.06 3.12 2.55a7.9 7.9 0 0 1 3.69 2.26 4.62 4.62 0 0 1 1.06 3.54c-.1.56-.4.73-.63 1.19a2.41 2.41 0 0 0 .12 1.89c.36.66.63 1.37.8 2.1a3.93 3.93 0 0 1-1.6 3.27 4.9 4.9 0 0 0-1.51 1.66c-.37.93.06 1.99-.06 2.98-.23 1.74-2.13 2.84-3.88 2.85-1 0-2.1-.22-2.92.35-.62.43-.92 1.2-1.5 1.68-.6.43-1.31.65-2.05.63a7.32 7.32 0 0 1-3.55-.66 4.92 4.92 0 0 1-2.46-2.6c-.38-1.03-.35-2.2-.8-3.2-.8-1.93-3.04-2.93-3.96-4.8a4.16 4.16 0 0 1 0-3.72c.47-.92 1.3-1.66 1.6-2.66.33-1.3-.33-2.61-.35-3.94a4.07 4.07 0 0 1 1.87-3.42c1.06-.66 2.36-.8 3.45-1.4.66-.37 1.22-.9 1.85-1.32a6.33 6.33 0 0 1 7.6.67Z"
              fill="#263238"/>
        <path d="M260.88 12.25a5.5 5.5 0 0 1 1.69 4.06c0 .48-.09.95-.29 1.38a2.64 2.64 0 0 1-2.76 1.2 4.9 4.9 0 0 1-2.7-1.64 6.7 6.7 0 0 1-1.6-2.96c-.16-.67-.36-1.9 0-2.55 1.08-1.84 4.56-.56 5.66.5Z"
              fill="#0A33FF"/>
        <path d="M258.5 11.22a6.3 6.3 0 0 0-3.43-1.9 19.2 19.2 0 0 1-3.2-.58c-1.15-.4-2.16-1.12-3.3-1.53a7.79 7.79 0 0 0-7.5 1.68c-.9.8-1.72 1.77-2.88 2-.59.07-1.17.1-1.76.09a5.6 5.6 0 0 0-4.38 3.03 9.65 9.65 0 0 0-1.06 4.17c-.05 1.3.55 2.48.61 3.73.06 1.26-1.13 2.52-1.41 3.8-.3 1.27 0 2.97 1.16 3.73a5.33 5.33 0 0 1 1.32-3.48 7 7 0 0 0 1.39 5.32 5.75 5.75 0 0 0 4.97 2.14c.72-.14 1.45-.23 2.19-.28 1.44.06 2.65 1.08 3.78 1.99a5.7 5.7 0 0 0 4.6 1.46c1.84-.25 3.83-.52 5.43-1.5 1.6-.94 3.07-2.09 4.38-3.4 2.71-2.88 3.47-6.62 3.11-10.45-.08-1.36-.4-2.7-.96-3.94a6.73 6.73 0 0 0-1.06-1.6c-.1-.1-.97-.84-1.01-.57a5.23 5.23 0 0 0-.99-3.91Z"
              fill="#263238"/>
        <path d="M259.28 25.08c-1.54-.55-2.82.05-3.6 1.68-.68 1.4-2.2.95-1.9-1.22-3.52-3.2.44-5.38-2.48-8.48-1.82-1.93-5.6-1.3-7.06 0a3.7 3.7 0 0 0-4.32-1.6c-1.6.6-2.56 1.6-3.27 3.79-.71 2.18.1 2.73-.25 4.35-.35 1.13-.6 2.3-.72 3.48-.4 5.4 1.31 8.46 3.02 9.66a9.2 9.2 0 0 0 5.5 1.52l-.16 3.01s-3.58 5.04-3.47 8.87c3.28-.93 6.45-2.2 9.46-3.83 4.8-2.65 5.16-4.57 5.16-4.57l.16-9.84c.37.85 2.54 1.83 4.28.34 2.19-1.94 2.38-6.2-.35-7.16Z"
              fill="#B16668"/>
        <path d="m237.26 22.05 2.4-1a1.27 1.27 0 0 0-1.67-.75 1.38 1.38 0 0 0-.73 1.75Zm8.82-.4 2.23 1.38a1.25 1.25 0 0 0 0-1.44c-.1-.14-.23-.26-.37-.35a1.38 1.38 0 0 0-1.86.4Z"
              fill="#263238"/>
        <path d="m245.7 30.56-3.63 1.26a1.92 1.92 0 0 0 2.61 1.12 1.81 1.81 0 0 0 1.02-2.38Z" fill="#9A4A4D"/>
        <path d="M243.63 33.06a2.02 2.02 0 0 1 1.99-1.83h.18a1.7 1.7 0 0 1-1.12 1.69c-.33.13-.7.18-1.06.14Z"
              fill="#F28F8F"/>
        <path d="m243 22.86-.97 6.7-3.35-1.28 4.31-5.42Z" fill="#9A4A4D"/>
        <path d="M244.99 24.57a1.1 1.1 0 1 0 2.2.09 1.1 1.1 0 0 0-2.2-.09Zm-7.4-.64a1.1 1.1 0 1 0 2.2.08 1.1 1.1 0 0 0-2.2-.08Z"
              fill="#263238"/>
        <path d="M244.2 38.2c3.53-.57 7.4-.93 9.68-5.8a8.9 8.9 0 0 1-3.85 5.54 14.1 14.1 0 0 1-5.82 1.96v-1.7Z"
              fill="#9A4A4D"/>
        <path d="m110.65 54.23 11.12-4.05 1.44-13.54s-6.94 1.71-8.46 4c-2.46 3.72-4.38 9.08-4.1 13.6Z" fill="#0A33FF"/>
        <path d="m110.65 54.23 11.12-4.05 1.44-13.54s-6.94 1.71-8.46 4c-2.46 3.72-4.38 9.08-4.1 13.6Z" fill="#263238"/>
        <path d="M139.37 32.49c3.1.3 6.73 2.99 7.46 4.32 1.35 2.44 2.4 32.7-.57 35.59-3.76 3.62-20.93 9.6-28 8.55-5.86-.86-9.19-5.2-9.9-6.86-1.17-2.75 5.4-29.4 7.6-32.16 3.55-4.44 19.47-9.84 23.4-9.44Z"
              fill="#0A33FF"/>
        <path opacity=".15"
              d="M139.37 32.49c3.1.3 6.73 2.99 7.46 4.32 1.35 2.44 2.4 32.7-.57 35.59-3.76 3.62-20.93 9.6-28 8.55-5.86-.86-9.19-5.2-9.9-6.86-1.17-2.75 5.71-30.25 7.92-33 3.55-4.44 19.15-9 23.09-8.6Z"
              fill="#191C29"/>
        <path d="M121.54 63.1c.93-6.52 1.4-13.1 1.39-19.69.29-1.92-1.52-5.88-1.52-5.88a15.8 15.8 0 0 0-5.15 3.56c-2.21 2.75-9.1 30.24-7.93 33l.14.28c.04.1.1.2.17.3v.05l.22.34v.04l.27.4c.2.28.45.57.72.88l.43.47a13.93 13.93 0 0 0 6.08 3.65c3.8-.14 3.89-8.44 5.18-17.4Z"
              fill="#0A33FF"/>
        <path d="M122.93 43.41c.29-1.92-1.52-5.88-1.52-5.88a15.8 15.8 0 0 0-5.15 3.56c-.09.12-.17.23-.23.36.28.96.81 1.82 1.54 2.5 1.6 1.38 3.39 2.5 5.31 3.37.1-2.45.05-3.9.05-3.9Z"
              fill="#263238"/>
        <path d="M111.78 59.68c.13-.05 2.21-1.25 2.44-1.34.42-.15 5.6 4.35 6.06 5.07.3.5-1.75 12.16-2.03 12.63-.1.17-2.35 1.17-2.45 1.34-.29.48-5.8-4.13-6.05-5.13-.25-.99 1.4-12.35 2.03-12.57Z"
              fill="#0A33FF"/>
        <path opacity=".18"
              d="M111.78 59.68c.13-.05 2.21-1.25 2.44-1.34.42-.15 5.6 4.35 6.06 5.07.3.5-1.75 12.16-2.03 12.63-.1.17-2.35 1.17-2.45 1.34-.29.48-5.8-4.13-6.05-5.13-.25-.99 1.4-12.35 2.03-12.57Z"
              fill="#191C29"/>
        <path d="M117.8 64.78c.32.5-1.73 12.16-2.02 12.64-.28.47-5.79-4.14-6.04-5.13-.26-1 1.41-12.36 2.02-12.58.4-.18 5.62 4.32 6.05 5.07Z"
              fill="#0A33FF"/>
        <path opacity=".4"
              d="M114.18 58.38c-.24.07-2.32 1.28-2.45 1.33.4-.15 5.6 4.36 6.05 5.07l2.45-1.34c-.41-.74-5.6-5.25-6.05-5.06Z"
              fill="#191C29"/>
        <path opacity=".3"
              d="M117.8 64.78c.32.5-1.73 12.16-2.02 12.64-.28.47-5.79-4.14-6.04-5.13-.26-1 1.41-12.36 2.02-12.58.4-.18 5.62 4.32 6.05 5.07Z"
              fill="#191C29"/>
        <path d="M120.27 63.4c-.4-.31-1.73.2-2.33.6-.6.42-1.46 2.53-2.9 2.7-1.46.18-3.2-1.92-3.48-3.16-.27-1.24-.45-3.8.33-4.6a2.32 2.32 0 0 1 2.96-.5c.93.66 5.42 3.86 5.42 4.97Z"
              fill="#0A33FF"/>
        <path opacity=".1"
              d="M120.27 63.4c-.4-.31-1.73.2-2.33.6-.6.42-1.46 2.53-2.9 2.7-1.46.18-3.2-1.92-3.48-3.16-.27-1.24-.45-3.8.33-4.6a2.32 2.32 0 0 1 2.96-.5c.93.66 5.42 3.86 5.42 4.97Z"
              fill="#191C29"/>
        <path d="M113.83 63.6a1.07 1.07 0 0 1 .37 1.04.43.43 0 0 1-.26.35.42.42 0 0 1-.43-.06 1.03 1.03 0 0 1-.37-1.03c.1-.37.4-.5.69-.3Zm9.05-16.28s.5-1.13-4.08-4.66c-3.02-2.32-3.38-1.84-4.93.98-.87 1.6-1.8 3.6-3.2 10.6-.61-.1-.87-2.04.22-6.2 1.69-6.44 3.62-9.74 7.2-11.38 9.18-4.19 15.34-5.6 21-4.5 5.26 1.06 8.69 3.02 8.37 7.82 0 0-7.75 8.28-24.58 7.34Z"
              fill="#37474F"/>
        <path d="m145.96 175.68-.8-10.3 12.43-1.01s-.72 8.1-.74 11.82c.16 1.74.53 3.44 1.1 5.09 0 0-4.95 2.47-7.45 1.34-2.5-1.13-4.07-5.28-4-6.04l-.54-.9Z"
              fill="#FFBDA7"/>
        <path d="M171.78 194.12c.17 0 .2 1.66-.8 2.4a12.1 12.1 0 0 1-8.9 1.6c-4.14-.87-6.31-2.34-7.88-3.89-1.57-1.54-3.77-3.73-5.6-4.3a13.45 13.45 0 0 1-4.53-2.73c-.52-.6-.26-3.04-.26-3.04l27.97 9.96Z"
              fill="#263238"/>
        <path d="M145.89 174.7s-.23.1-.38.66c-.14.56-.47 2.61-.8 3.7a20.25 20.25 0 0 0-.85 5.91c.13 1.28 3.36 3.04 5.15 3.88 2.09 1.13 4 2.56 5.66 4.25 1.84 1.79 5.85 3.81 8.58 4 3.2.21 6.95-.57 7.9-2.03 1.16-1.8 2.08-3.92-2.54-6.53a85.06 85.06 0 0 1-4.95-3.41c-2.8-2.1-4.73-3.96-5.84-7.38-.07-.41-.3-.79-.61-1.06a1.5 1.5 0 0 0-.92-.16c-1.61.07-3.22.25-4.8.56-.67.26-1.6.56-1.66 1.39 0 .29.04.58.12.86 0 .17.08.4-.08.5-.15.08-.33-.05-.44-.17-.44-.52-.83-1.08-1.17-1.66a12.9 12.9 0 0 0-1.13-1.51 8.34 8.34 0 0 1-.8-.6 1.9 1.9 0 0 1-.44-1.2Z"
              fill="#455A64"/>
        <path d="M154.63 193.1c-.8-.76-1.6-1.5-2.46-2.17 0 0 5.37 3.9 7.76 2.48 1.54-.9.94-2.18.94-2.58 0-.4 5.37-2.78 6.81-2.85.29.2.59.4.9.57 3.63 1.8 4 3.78 3.2 6.2-.96 1.45-4.31 2.77-8.5 2.46-2.7-.22-6.8-2.32-8.65-4.12Z"
              fill="#37474F"/>
        <path d="M160.58 189.65c2.88 1.43 1.6 1.9.73 1.96-.86.06-5.6-3.3-8.5-5.97-2.92-2.68-5.23-6.4-6.34-7.43a23.8 23.8 0 0 1-1.26-1.28c.13-.66.24-1.26.33-1.6.14-.56.37-.67.37-.67.08.43.24.83.46 1.2.25.22.52.42.8.6.4.48.79.99 1.13 1.51.34.6.73 1.15 1.17 1.67 2.3 3.54 8.2 8.58 11.1 10Z"
              fill="#37474F"/>
        <path d="M161.1 191.18a.26.26 0 0 1-.17-.09.3.3 0 0 1-.09-.2.3.3 0 0 1 .09-.22c.91-.97 5.08-3.15 7.25-2.74a.3.3 0 0 1 .25.35.29.29 0 0 1-.12.2.3.3 0 0 1-.23.04c-2.03-.38-6 1.8-6.73 2.57a.3.3 0 0 1-.25.09Zm-2.47-1.85a.3.3 0 0 1-.18-.08.3.3 0 0 1 0-.43c.92-.97 5.09-3.14 7.26-2.73a.3.3 0 0 1 .19.12.28.28 0 0 1 .04.22.29.29 0 0 1-.12.2.28.28 0 0 1-.1.04.3.3 0 0 1-.12 0c-2.03-.38-6 1.8-6.73 2.57a.27.27 0 0 1-.24.09Zm-2.48-1.73a.26.26 0 0 1-.18-.08.3.3 0 0 1-.09-.21c0-.04 0-.08.02-.12a.3.3 0 0 1 .07-.1c.91-.97 5.08-3.15 7.25-2.73a.3.3 0 0 1-.1.58c-2.03-.37-6 1.8-6.73 2.57a.3.3 0 0 1-.24.09Zm-2.28-1.93a.35.35 0 0 1-.18-.08.3.3 0 0 1 0-.42c.92-.98 5.1-3.16 7.25-2.75a.3.3 0 0 1 .12.05.29.29 0 0 1 .13.19v.12a.29.29 0 0 1-.12.2.3.3 0 0 1-.23.03c-2.02-.37-6 1.79-6.73 2.56a.26.26 0 0 1-.24.1Zm-2.23-1.93a.32.32 0 0 1-.17-.08.3.3 0 0 1 0-.42c1.26-1.39 5.6-3.14 7.76-2.74a.3.3 0 0 1 0 .6.3.3 0 0 1-.1 0c-1.96-.37-6.1 1.31-7.2 2.55a.28.28 0 0 1-.28.1Z"
              fill="#263238"/>
        <path d="m126.45 179.25 3.11-12.56-12.08-2.28-.53 12.48s-1.01 3.33-.36 4.5c.66 1.18 7.9 2.59 8.6 1.83.68-.75 1.26-3.97 1.26-3.97Z"
              fill="#FFBDA7"/>
        <path d="M124.7 199.18c-.39 2.82-1.01 4.64-2.25 6.15-1.24 1.5-3.37 1.7-5.45.88-2.08-.81-4.7-2.54-5.13-5.1a14.3 14.3 0 0 1 .5-6.8l12.33 4.87Z"
              fill="#263238"/>
        <path d="M116.95 176.89c-.88-.07-.7 2.17-1.21 5.97-.56 4.13-2.46 7.32-3.2 10.62-.84 3.77-.75 5.53.56 8.09 1.3 2.56 6.4 5.64 9.2 2.7 2.3-2.4 2.62-5.4 2.72-9.28 0-3.28.17-6.56.53-9.82.39-2.86 1.6-5.48.9-5.91-.1.41-.92 3.3-1.42 3.2a5.5 5.5 0 0 1 .08-1.1 1.24 1.24 0 0 0-.17-.96 4.1 4.1 0 0 0-1.4-.8c-.85-.29-2.4-.66-3.23-.86-.44-.1-.87-.19-1.3-.25a3.75 3.75 0 0 0-1.13 0 .7.7 0 0 0-.5.32.89.89 0 0 0-.07.43 3.2 3.2 0 0 1-.18.8c0 .1-.14.23-.26.18a.27.27 0 0 1-.1-.1.27.27 0 0 1-.02-.15c.03-.46.16-2.84.2-3.08Z"
              fill="#455A64"/>
        <path d="M112.83 192.41c-.13.55-.92 4.15.13 4.98 1.06.83 2-1.89 2-1.89s2.85-.35 6.79 1.9c-.26.56.22 2.62 1.36 2.4 1.15-.24 1.9-4.4 1.9-4.46-.1 3.72-.46 6.62-2.7 8.95-2.83 2.93-7.9-.16-9.2-2.7-1.3-2.56-1.4-4.33-.56-8.1.08-.39.17-.72.28-1.08Z"
              fill="#37474F"/>
        <path d="M115.26 195.8c-.12 1.38-1.6.69-1.52-1.3.1-1.98 1.23-6.75 1.7-9.97.37-4.64.63-7.72 1.51-7.64v.14l-.18 2.94c-.23 2.84-.42 8.37-.87 10.93a40.04 40.04 0 0 0-.64 4.9Zm6.02 1.48a39 39 0 0 0 1.2-4.76c.49-2.53 2.1-7.58 2.9-10.29.25-.44 1.07-2.97 1.07-2.97.6.19-.07 2.61-.39 3.74-.3 1.13-.7 2.34-1.1 4-1 3.2-1.2 8-1.84 9.87-.63 1.87-2.23 1.74-1.84.4Z"
              fill="#37474F"/>
        <path d="m121.83 197.52-.13-.05c-2-1.21-4.33-1.8-6.67-1.67a.36.36 0 0 1-.25-.07.37.37 0 0 1-.14-.2.28.28 0 0 1 .05-.23.27.27 0 0 1 .2-.1 12.36 12.36 0 0 1 7.25 1.87l.05.1v.13c0 .03-.02.07-.04.1a.3.3 0 0 1-.33.12Zm.95-2.92a14.68 14.68 0 0 0-7.6-1.91.35.35 0 0 1-.36-.28v-.11a.26.26 0 0 1 .26-.2 15.12 15.12 0 0 1 8 2.05.3.3 0 0 1 .07.22.3.3 0 0 1-.04.12.3.3 0 0 1-.34.12Zm-7.18-4.75a.35.35 0 0 1-.25-.23.26.26 0 0 1 .12-.31.27.27 0 0 1 .11-.04c4-.6 7.75 1.8 7.9 1.9l.1.08a.3.3 0 0 1 .01.35.33.33 0 0 1-.21.11.33.33 0 0 1-.23-.06s-3.67-2.4-7.4-1.79h-.14Zm.44-2.67a.35.35 0 0 1-.26-.25.25.25 0 0 1 .03-.22.25.25 0 0 1 .2-.12 11.47 11.47 0 0 1 8.14 1.99.3.3 0 0 1 .05.1.3.3 0 0 1-.06.23.34.34 0 0 1-.45 0 10.86 10.86 0 0 0-7.65-1.73Zm.49-3a.4.4 0 0 1-.26-.23.27.27 0 0 1 .03-.22.27.27 0 0 1 .19-.13c4.14-.76 8 1.88 8.12 2l.08.08a.3.3 0 0 1 0 .33.34.34 0 0 1-.21.12.34.34 0 0 1-.24-.07s-3.72-2.58-7.56-1.88h-.15Z"
              fill="#263238"/>
        <path d="M122.63 81.58c-1.43 11.2-2.34 17.44-2.4 32.17 0 5.6.39 12.05.22 17.6.05 1.64 0 3.28-.2 4.91-.54 2.9-1.15 5.8-1.8 8.68a51.5 51.5 0 0 0-1.08 6.4c-.3 3.24-.05 6.56-.8 9.73-.34 1.18-.6 2.37-.8 3.58-.08.66-.05 1.33.11 1.97.16.65.67 1.1.86 1.67.27.86 0 2.13-.04 3.05 0 0 7.2 3.39 11.77 1.86.24-.8.32-2.14.8-2.8.34-.47 1.1-.73 1.51-1.19.44-.49.76-1.07.94-1.7.18-.9.28-1.81.3-2.73.24-2.14 1.25-4.1 1.98-6.13 1.96-5.47 1.76-11.33 3.02-16.95 1.7-7.57 2.53-12.37 3.52-17.78.98-5.4 2.87 10.87 2.87 10.88.01.99-.06 1.97-.2 2.95-.12 1.92-.11 3.82-.4 5.71-.63 4.22-.6 8.5.08 12.72.44 1.95.61 3.96.52 5.96-.1 1.32-.34 2.48.13 3.7.35.89.87 1.11 1.3 1.94.2.33.15 2.97.34 3.1 0 0 7.4 4.11 12.22.26 0-1 .12-1.99.37-2.96a4.15 4.15 0 0 0 1.45-2.85c.12-1.24-.23-2.16-.22-3.4.08-1.52.25-3.03.51-4.54.26-2.16.39-4.33.38-6.5 0-1.9-.26-3.9.07-5.74.46-3.13.72-6.29.8-9.46.63-12.27 1.27-37.26.28-53.14l-38.4-.97Z"
              fill="#455A64"/>
        <path d="M128.7 96.55c-.38 12.8-5.46 16.08-7.83 16.98 0 0 5.3-5.56 7.84-16.98Z" fill="#37474F"/>
        <path d="m144.29 102.15-4.16 24.09.4-2.24c1-5.4 2.88 10.88 2.88 10.88l-.34-10.62a44.6 44.6 0 0 1 .87-9.89l2.4-10.33a12.07 12.07 0 0 0 7.43-5.55c-2.92 2.73-9.48 3.66-9.48 3.66Zm-27.71 69.69c1.99 1.7 7.88 3.26 12 1.86l.9-3.5c-3.08.98-9.37.14-12.71-2.11l-.2 3.75Zm28.6-.47c1.33 1.47 8.4 2.59 12.22.42l.37-3.53c-2.89 1.56-10.17 1.35-12.92-.4l.33 3.5Z"
              fill="#263238"/>
        <path d="M120.28 116.27s-.05 16.12 0 17.27c.05 1.16 8.3 3.65 8.54 2.93.39-1.2.37-3.93 1.44-16.98-6.93-1.11-9.98-3.22-9.98-3.22Z"
              fill="#37474F"/>
        <path d="M128.8 123.97a2.4 2.4 0 0 0-.8-.08l-.91-.08a15.06 15.06 0 0 1-4-1.07c-.56-.23-1.08-.54-1.6-.8-.06 0-.07.08 0 .1.53.4 1.11.73 1.73.98a13.1 13.1 0 0 0 4.6 1.12c.34.08.69.06 1.02-.05l.01-.03v-.03c0-.02-.01-.03-.02-.03l-.03-.03Zm-3.57-2.32c-.08-.16-.13-.27-.32-.3a.56.56 0 0 0-.64.45.6.6 0 0 0 .3.6.55.55 0 0 0 .58 0 .42.42 0 0 0 .16-.35.9.9 0 0 0-.08-.4Zm-.17.48a.33.33 0 0 1-.43.07c-.2-.14-.15-.56.12-.58a.3.3 0 0 1 .23.07.37.37 0 0 1 .08.44Z"
              fill="#263238"/>
        <path d="M181.74 69.13a8.3 8.3 0 0 0 4.28.4c1.97-.19 2.93-.43 4 .16 1.06.6 1.19 1.19 2.07 1.46 1.6.54 3.17 1.16 4.71 1.86a1.9 1.9 0 0 1 .26 2.74c.94 0 1.33 1.69-.13 3.07.8.22.88 1.85-.08 2.7.31.6.06 1.38-.85 1.95-.86.5-1.78.91-2.74 1.2-.64.22-1.21 0-2.15-.49a9.22 9.22 0 0 1-1.77-1.15c-.73.06-2.5.37-5.68-2.06a15.35 15.35 0 0 0-4.97-2.76s-.87-7.83 3.05-9.08Z"
              fill="#FFBDA7"/>
        <path d="M185.38 76.2c.54-.02 1.07-.1 1.6-.23.25-.07.49-.16.72-.28.19-.11.35-.27.46-.45l.09-.17c.12-.25.25-.49.4-.72.18-.28.44-.5.76-.6a1.38 1.38 0 0 0-.8 1.03c-.17.48-.3.98-.37 1.48s-.04 1.01.08 1.5a1.48 1.48 0 0 0 .63.97h.05a1.17 1.17 0 0 0 1.5-.63c.65-1.14 1.34-2.24 1.9-3.41.86-1.5.23-2.24-.7-3.45.99 1.1 1.6 1.89.97 3.3l.14-.1c.15-.09.31-.15.48-.2a.96.96 0 0 1 .4 0v.07s-.26.06-.4.11a1.8 1.8 0 0 0-.7.5l-.1.14a.55.55 0 0 1-.1.1c-.46.94-1 1.86-1.5 2.77 1.1 0 2.33.41 3.38 0 .25-.14.5-.3.72-.5.68-.52 1.46-1.09 2.13-1.63-.83.88-1.76 1.66-2.77 2.34-1.16.41-2.32 0-3.48-.2l-.16.3a1.6 1.6 0 0 1-.75.71c-.13.06-.26.09-.4.1 1.16.43 2.35 1.37 3.6 1.19 1.25-.42 2.54-.98 3.83-1.37-1.26.56-2.49 1.14-3.8 1.6-1.25.16-2.33-.66-3.4-1.25-.48-.01-.95.16-1.32.48-.63.9 2.22 2.4 2.9 2.78a2.94 2.94 0 0 0 2.76.1 27.9 27.9 0 0 0 2.78-.99c-.88.46-1.79.84-2.72 1.15-.47.2-.97.32-1.47.36a3.2 3.2 0 0 1-1.45-.43c-.77-.4-1.5-.87-2.17-1.42-.61.48-.1 1.34.3 1.84-.66-.39-1.09-1.55-.34-1.86-.62-.54-1.03-1.12-.67-1.6.4-.32.9-.47 1.4-.42l-.27-.15a1.27 1.27 0 0 1-1.26-.89 4.21 4.21 0 0 1-.16-2.44c-.86.37-1.8.54-2.72.48Z"
              fill="#F0997A"/>
        <path d="m153.47 54.16 2.92-18c3.9.92 6.03 2.71 9.18 12.17a659.4 659.4 0 0 1 4.05 12.46s9.52 7.04 12.86 8.71l-3 8.93c-3.04-1.13-4.8-1.7-10.65-4-6.56-2.54-7.61-2.81-9.45-6.64-1.33-2.76-1.23-2.6-2.83-6.25-2.72-6.2-3.08-7.38-3.08-7.38Z"
              fill="#FFBDA7"/>
        <path d="M155.99 35.69c4.85 1.09 6.7 3.2 9.13 9.98a191.77 191.77 0 0 1 4.18 13.23 13.88 13.88 0 0 1-5.6 5.32c-3.65 1.73-6.3 1.08-6.3 1.08l-4.52-10.92 3.1-18.7Z"
              fill="#37474F"/>
        <path d="M136.82 34.17s-9.03 1.97-11.08 2.66c0 0-5.45 3.64-4.13 20.66.18 2.4.61 9.29.46 15.06-.1 4.11-.94 16.34-1.18 19.2 0 0 11.08 3.38 27 1.94 12.48-1.11 13.9-6.6 13.9-6.6s.33-23.61-.1-33.12c-.55-12.5-2.28-14.31-5.7-18.28-.45-.28-8.89-1.73-8.89-1.73l-10.28.21Z"
              fill="#F0F0F0"/>
        <path d="M157.38 46.85c.48 2.7.7 5.45.69 8.2-6.22 2.08-13.78 3.62-21.05 3.2 0-3.08-.18-5.6-.42-8.54 7.03.15 14.05-.81 20.78-2.86Z"
              fill="#E0E0E0"/>
        <path d="M134.75 8.78a4.63 4.63 0 0 0-3.2 2.77c-.6 1.26-.98 4.33 1.18 10.54a24.76 24.76 0 0 0 3.58 6.78 3.28 3.28 0 0 0 2 1.33l-.4-4.86-.36-4.2s2.84-.94 3.37-4.8c.43-3.13-.9-4.32-.9-4.32l-5.28-3.24Z"
              fill="#263238"/>
        <path d="M131.69 11.18c-.8-4.8 8.44-11.67 14.15-8.21 1.93-2.68 6.59-1.52 7.05 1.21 1.66-.8 4.86 3.04 4.11 5.08 1.6 4.5-.7 6.32-2.92 6.28-5.43-.1-11.25-.4-16.73-.12l-5.66-4.24Z"
              fill="#263238"/>
        <path d="M154.4 8.94c1.14 1.03 2.77 3.36 3.14 12 .25 5.88-1.21 8.47-3.35 9.51-1.8.85-3.77 1.27-5.76 1.22v3.52c5.13 4.8-8.88 6-12.33-.3l.1-9.6c-.37.72-2.25 1.19-3.66-.19-2.22-2.17-1.8-5.33-.16-6.5a3.11 3.11 0 0 1 5 1.38c1.88.63 3.25-1.95 2.66-9.02 7.6 1.81 9.52-4.2 14.36-2.02Z"
              fill="#FFBDA7"/>
        <path d="M148.43 31.67c-6.15-.3-9-3.2-9.74-5.45 0 0-.26 3.88 4 5.79a12.1 12.1 0 0 0 5.68 1.15l.06-1.49Z"
              fill="#F0997A"/>
        <path d="m151.08 24.15-4.05-1.2a2.02 2.02 0 0 0 .62 2.22 2 2 0 0 0 .72.38 2.21 2.21 0 0 0 2.71-1.4Z"
              fill="#B16668"/>
        <path d="M149.28 25.62a2.09 2.09 0 0 1-1.85-.66 1.98 1.98 0 0 1-.48-1 2.4 2.4 0 0 1 2.33 1.66Z" fill="#F28F8F"/>
        <path d="M144.8 17.48a1.14 1.14 0 0 0 .81.98 1.14 1.14 0 0 0 1.06-.21 1.15 1.15 0 1 0-1.86-.77Zm8.18-.66a1.15 1.15 0 0 0 2.28-.21 1.13 1.13 0 0 0-1.24-1.03 1.15 1.15 0 0 0-1.04 1.24Z"
              fill="#263238"/>
        <path d="m148.94 14.65 1.82 7.06 3.27-1.62-5.1-5.44Z" fill="#F0997A"/>
        <path d="m155.85 14.64-2.7-.66a1.33 1.33 0 0 1 1.6-1.04c.36.09.69.3.9.63.2.31.27.7.2 1.07Zm-12.57 1.08 2.48-1.36a1.36 1.36 0 0 0-1.88-.58 1.47 1.47 0 0 0-.6 1.94Z"
              fill="#263238"/>
        <path d="M155.49 8.72c-11.25.06-16 5.2-16 5.2-1.29.9-3.36 2.54-4.06 4.06a3.57 3.57 0 0 0-3.65 1.2 8.37 8.37 0 0 1-.8-2.32c-.8-3.78-.93-11.59 8-14.59 8.19-2.76 13.99-1.45 15.79 2.92.35 1.15.6 2.33.72 3.53Z"
              fill="#455A64"/>
        <path d="M139.22 12.87a15.4 15.4 0 0 1 5.14-6.26c2.5-1.9 8.04-2.8 10.54-3.12 4.36-.58 5.54.23 5.69.88 0 .16.19.88.23 1.04.05.14.05.3 0 .44-.5 1.12-3.79 3.4-3.79 3.4-5.66-.74-12.34 1.17-17.53 4.68l-.28-1.06Z"
              fill="#0A33FF"/>
        <path d="M139.47 13.93A28.3 28.3 0 0 1 157 9.26s3.28-2.3 3.8-3.41c.26-.62-.25-2.02-5.66-1.3-2.5.32-8.03 1.23-10.53 3.12a15.35 15.35 0 0 0-5.14 6.26Z"
              fill="#37474F"/>
        <path d="m138.82 106.02-.04-20.1-26.7-15.78.04 20.11 26.7 15.77Z" fill="#0A33FF"/>
        <path opacity=".4" d="m138.82 106.02-.04-20.1-26.7-15.78.04 20.11 26.7 15.77Z" fill="#191C29"/>
        <path d="M138.06 86.11v19.47c-1.25.22-1.7.52-2.84 1.7v-19.3s-.06-.36 2.84-1.86Z" fill="#F5F5F5"/>
        <path d="M134.45 89.32a3.43 3.43 0 0 1 1.55-2.67l1.96-1.1c.86-.49 1.54-.08 1.54.9v19.2l-.68.39-.03-18.93c0-.58-.41-.8-.92-.54l-1.76 1.01a2.05 2.05 0 0 0-.93 1.6v18.91l-.76.44.03-19.21Z"
              fill="#0A33FF"/>
        <path opacity=".25"
              d="M134.45 89.32a3.43 3.43 0 0 1 1.55-2.67l1.96-1.1c.86-.49 1.54-.08 1.54.9v19.2l-.68.39-.03-18.93c0-.58-.41-.8-.92-.54l-1.76 1.01a2.05 2.05 0 0 0-.93 1.6v18.91l-.76.44.03-19.21Z"
              fill="#191C29"/>
        <path d="m134.45 108.51-26.67-15.74v-19.2a3.36 3.36 0 0 1 1.55-2.65l1.95-1.11a1.07 1.07 0 0 1 1.09-.1l26.7 15.77a1.09 1.09 0 0 0-1.1.1l-1.95 1.1a3.43 3.43 0 0 0-1.56 2.66l-.01 19.17Z"
              fill="#0A33FF"/>
        <path d="M134.9 87.8a3.2 3.2 0 0 1 1.1-1.14l1.96-1.12a1.09 1.09 0 0 1 1.09-.1l-26.7-15.76a1.07 1.07 0 0 0-1.08.1l-1.96 1.1c-.46.29-.83.68-1.1 1.15l26.7 15.77Z"
              fill="#0A33FF"/>
        <path opacity=".15"
              d="M134.9 87.8a3.2 3.2 0 0 1 1.1-1.14l1.96-1.12a1.09 1.09 0 0 1 1.09-.1l-26.7-15.76a1.07 1.07 0 0 0-1.08.1l-1.96 1.1c-.46.29-.83.68-1.1 1.15l26.7 15.77Z"
              fill="#191C29"/>
        <path d="M111.78 74.17c1.64-1.5 2.54-2.01 4.17-2.4l1.27.75c-1.6.36-2.52.86-4.16 2.4l-1.28-.75Zm17.6 10.33c1.64-1.5 2.5-1.99 4.13-2.35l1.28.75c-1.6.35-2.5.84-4.15 2.35l-1.26-.75Z"
              fill="#0A33FF"/>
        <path d="M111.78 74.17c1.64-1.5 2.54-2.01 4.17-2.4l1.27.75c-1.6.36-2.52.86-4.16 2.4l-1.28-.75Zm17.6 10.33c1.64-1.5 2.5-1.99 4.13-2.35l1.28.75c-1.6.35-2.5.84-4.15 2.35l-1.26-.75Z"
              opacity=".4" fill="#FAFBFF"/>
        <path d="M125.68 37.4c-5.14 1.4-6.75 2-10.88 11.46-3.9 8.9-5.83 13.04-7.53 17.6-1.46 3.92-1.15 5.04.8 12.61 1.04 3.95 5.42 16.68 6.1 20.85a16 16 0 0 0 3.38 7.08c.5.65 1.21 1.8 1.98 2.11 1.23.5 2.71-.34 4-.3.74.16 1.5.19 2.25.08.64-.21 1.1-.8 1.76-.95.43-.1.9 0 1.32-.1a1.71 1.71 0 0 0 1.07-1.71c0-.1-.01-.21-.04-.31l-1.54-.9c-.84-.96-2.5-2.96-2.74-4.15-.32-1.6 1.77-1.38 3.75-1.28a3.4 3.4 0 0 0 3.4-2.6c.07-.92-3.4-.16-5.43-.88-2.04-.73-4.91-1.54-6.06-2.95-1.77-2.16-2.5-21.55-2.5-21.55l8.28-16.97s4.37-10.02-1.37-17.14Z"
              fill="#FFBDA7"/>
        <path d="M125.74 36.83c-4.58 1-6.46 1.8-8.8 6.63-2.35 4.83-7.8 17-7.8 17s.1 2.1 4.97 4.91c4.58 2.68 7.2 2.1 7.2 2.1s3.84-7.93 6.22-13.21c2.38-5.28 3.93-12.23-1.8-17.43Z"
              fill="#37474F"/>
        <path d="M129.96 35.73c5.36 5.01 4.28 32.36-8.23 37.98V71s4.21-4.26 5.97-17.47c.77-5.65-.03-11.4-2.32-16.62a23.3 23.3 0 0 1 4.58-1.16Z"
              fill="#455A64"/>
        <path d="M346.24 103.31c-.66 1.14-2.55.04-5.85-1.14-3.3-1.19-2.36-15.8-2.36-15.8s5.23-.1 6.28 4.76a161.72 161.72 0 0 1 1.93 12.18Z"
              fill="#0A33FF"/>
        <path opacity=".25"
              d="M346.24 103.31c-.66 1.14-2.55.04-5.85-1.14-3.3-1.19-2.36-15.8-2.36-15.8s5.23-.1 6.28 4.76a161.72 161.72 0 0 1 1.93 12.18Z"
              fill="#191C29"/>
        <path d="M318.46 78.47c-3.07 0-9.79 3.75-10.81 6.17-1.02 2.42-4.31 36.67-1.6 39.8 3.38 3.9 19.77 11.33 26.87 10.93 5.85-.33 11.29-5.84 12.14-7.43 1.4-2.6-1.3-37.6-3.2-40.5-3.16-4.7-19.47-9-23.4-8.97Z"
              fill="#0A33FF"/>
        <path opacity=".1"
              d="M318.46 78.47c-3.07 0-9.79 3.75-10.81 6.17-1.02 2.42-4.31 36.67-1.6 39.8 3.38 3.9 19.77 11.33 26.87 10.93 5.85-.33 11.29-5.84 12.14-7.43 1.4-2.6-1.3-37.6-3.2-40.5-3.16-4.7-19.47-9-23.4-8.97Z"
              fill="#FAFBFF"/>
        <path opacity=".2"
              d="M318.46 78.47c-3.07 0-9.79 3.75-10.81 6.17-1.02 2.42-4.31 36.67-1.6 39.8 3.38 3.9 19.77 11.33 26.87 10.93 5.85-.33 11.29-5.84 12.14-7.43 1.4-2.6-1.3-37.6-3.2-40.5-3.16-4.7-19.47-9-23.4-8.97Z"
              fill="#191C29"/>
        <path d="M344.47 105.16a274.14 274.14 0 0 0-1.13-10.52l-.27-1.98-.3-1.74c0-.18-.06-.35-.09-.52a10.48 10.48 0 0 0-.85-2.95 5.9 5.9 0 0 0-.3-.4l-.11-.13-.24-.27-.16-.16-.27-.25-.17-.16-.43-.36-.3-.23-.2-.15-.34-.25-.18-.13-.4-.27c-2.74 1.22-5.33 2.4-5.4 2.4-.07 0-2.94 1.87-2.7 6.17l.45 17.4v1.65c.1 2.3-1.37 23.65 5.12 22.26l.26-.05c4.35-1.66 7.89-5.35 8.56-6.6.15-.39.24-.78.26-1.19 0-.22.04-.48.07-.76v-.43c0-.45 0-.97.03-1.52v-.56a192.97 192.97 0 0 0-.61-13.92l-.14-1.77c0-.3-.04-.58-.06-.88 0-.52-.05-1.14-.1-1.73Z"
              fill="#0A33FF"/>
        <path opacity=".4"
              d="M342.46 89.37a7.1 7.1 0 0 0-.63-1.92c-3.13-4.7-19.44-9.01-23.37-8.98-3.07 0-9.79 3.75-10.81 6.17a17.9 17.9 0 0 0-.62 3.14c6.24 3.12 22.3 9.97 23.92 9.34 2-.8 11.34-7.46 11.5-7.74l.01-.01Z"
              fill="#191C29"/>
        <path d="M345.93 112.04c-.19-.09-2.94-2.03-3.26-2.19-.56-.26-8.4 5.38-9.1 6.33-.5.65.58 10.5.92 11.2.12.24 3.14 1.92 3.25 2.17.34.7 8.63-5.05 9.1-6.4.49-1.35-.09-10.73-.91-11.11Z"
              fill="#0A33FF"/>
        <path opacity=".18"
              d="M345.93 112.04c-.19-.09-2.94-2.03-3.26-2.19-.56-.26-8.4 5.38-9.1 6.33-.5.65.58 10.5.92 11.2.12.24 3.14 1.92 3.25 2.17.34.7 8.63-5.05 9.1-6.4.49-1.35-.09-10.73-.91-11.11Z"
              fill="#191C29"/>
        <path d="M336.82 118.38c-.5.64.6 10.5.93 11.2.32.7 8.62-5.05 9.1-6.4.48-1.36-.1-10.75-.92-11.13-.55-.27-8.4 5.37-9.11 6.33Z"
              fill="#0A33FF"/>
        <path opacity=".4"
              d="M342.67 109.86c.31.14 3.07 2.1 3.26 2.17-.56-.25-8.4 5.39-9.11 6.32l-3.26-2.17c.71-.95 8.55-6.6 9.11-6.33Z"
              fill="#191C29"/>
        <path opacity=".3"
              d="M336.82 118.38c-.5.64.6 10.5.93 11.2.32.7 8.62-5.05 9.1-6.4.48-1.36-.1-10.75-.92-11.13-.55-.27-8.4 5.37-9.11 6.33Z"
              fill="#191C29"/>
        <path d="M333.56 116.17c.58-.4 2.4.5 3.2 1.13.8.64 1.71 3.72 3.71 4.14 2 .42 4.72-2.28 5.26-4 .53-1.72 1.13-5.25.13-6.48-1-1.23-2.7-1.86-4.08-1.06s-8.1 4.72-8.22 6.27Z"
              fill="#0A33FF"/>
        <path opacity=".1"
              d="M333.56 116.17c.58-.4 2.4.5 3.2 1.13.8.64 1.71 3.72 3.71 4.14 2 .42 4.72-2.28 5.26-4 .53-1.72 1.13-5.25.13-6.48-1-1.23-2.7-1.86-4.08-1.06s-8.1 4.72-8.22 6.27Z"
              fill="#191C29"/>
        <path d="M342.54 117.27a1.47 1.47 0 0 0-.65 1.4.59.59 0 0 0 .31.52.6.6 0 0 0 .6-.03 1.44 1.44 0 0 0 .66-1.4c-.07-.52-.48-.75-.92-.49Z"
              fill="#37474F"/>
        <path d="M330.74 97.16s.96-4.12 5.82-7.14c4.86-3.01 5.04-2.12 6.7.6 1.5 2.44 2.37 11.71 2.46 12.6.1.9 1.15.7.8-4.99-.35-5.68-1.29-11.05-6.7-14.25-7.27-4.32-18.4-6.92-23.57-5.6-5.18 1.32-9.76 4.05-9.22 9.47 0-.07 7.03 8.73 23.7 9.3Z"
              fill="#0A33FF"/>
        <path opacity=".4"
              d="M330.74 97.16s.96-4.12 5.82-7.14c4.86-3.01 5.04-2.12 6.7.6 1.5 2.44 2.37 11.71 2.46 12.6.1.9 1.15.7.8-4.99-.35-5.68-1.29-11.05-6.7-14.25-7.27-4.32-18.4-6.92-23.57-5.6-5.18 1.32-9.76 4.05-9.22 9.47 0-.07 7.03 8.73 23.7 9.3Z"
              fill="#FAFBFF"/>
        <path d="m295.63 124.73 21.98 1.96-2.1 35.69a48.23 48.23 0 0 1 9.1 10.17c2.51 4 10.89 18.87 12.31 21.43a32.66 32.66 0 0 0 2.55 3.77c.52.68 1.23 1 1.46 1.8 1 3.62-1.2 9.6-3.38 12.68-.57.86-1.3 1.6-2.14 2.2a4.8 4.8 0 0 1-2.96.8 1.94 1.94 0 0 1-1.6-.84 2.4 2.4 0 0 1-.15-1.34c.23-1.67.36-3.35.39-5.03-.1-3.56-2.4-6.93-4.86-9.5-3.2-3.4-24-27.2-25.19-28.84-1.81-2.48-3.8-4.54-4.6-13.09-.8-8.67-1.4-27.41-.8-31.86Z"
              fill="#FFA8A7"/>
        <path d="M294.6 125s-2.16 16.22-2.8 30.8c-.37 8.53.63 10.96 2.93 14.09 2.87 3.9 7.6 7.7 12.37 12.06 5.67 5.17 18.18 16.06 20.23 18.15 0 0 6.66-2.09 9.38-7.36 0 0-4.5-9.21-8.7-16.49-4.18-7.27-8.23-12.86-8.23-12.86l6.06-33.81L294.6 125Z"
              fill="#455A64"/>
        <path d="m334.06 195.83.59-.24c-3.1-7.25-15.05-27.54-19.7-31.2l-.42.49c4.5 3.53 16.52 23.94 19.53 30.95Z"
              fill="#37474F"/>
        <path d="M334.65 188.47c-.94 2.4-7.2 8.75-10.36 8.43l3.81 4.1c2.88-.06 7.62-4.51 9.02-7.62l-2.47-4.9Z"
              fill="#37474F"/>
        <path d="m325.84 129.57-6.06 33.82s1.77 2.44 4 5.92l.28.44.25.38c.61.97 1.27 2.02 1.94 3.13l-.95 5.54c-.16.8 2.08 3.81 1.46 13.45-.12 1.87-.6 4.57-.89 6.32a3.9 3.9 0 0 0-1.05-.8c-4.47-4.06-13.24-11.72-17.71-15.81l-2.06-1.86c-.45-4.2-.67-8.43-.67-12.66.18-3.8 1.7-22.78 1.7-22.78a15.92 15.92 0 0 1-4.63-3.53 10.1 10.1 0 0 1-2.34-4.1 61.13 61.13 0 0 1-2.78-7.37l29.51-.09Z"
              fill="#37474F"/>
        <path d="M344.26 201.78c.5-.16 1.14 1.56 1.26 2.12.12.57-.6 3.01-1.16 4.3-.55 1.3-1.6 3-1.92 4.98-.32 1.99.14 5.3-1.16 8-1.3 2.7-4.97 5.81-10.2 6.3a7.05 7.05 0 0 1-4.08-.89 2.34 2.34 0 0 1-.88-1.75l18.14-23.06Z"
              fill="#263238"/>
        <path d="M341.23 214.38c.14-1.82.66-3.6 1.53-5.2.93-2.05 2.4-4.76 2.07-7a7.55 7.55 0 0 0-3.14-3.3c-1.68-1.06-2.09-2.53-2.99-2.17l.43.56a25.35 25.35 0 0 1-1.84 3.34 1.87 1.87 0 0 0-.23 1.6c.26.9.26 1.87 0 2.78a9 9 0 0 0-.67-1.65 1.76 1.76 0 0 0-1.27-.97c-1.06-.3-2.48.44-3.2.84-1.11.6-2.46 1.15-2.9 2.08-.39.8.44 1.84.8 2.5 1.06 1.8.5 4.05 0 5.95-.52 2.03-1.41 4.9-2.66 6.63-1.25 1.72-2.24 2.6-1.06 4.44a3.6 3.6 0 0 0 1.72 1.25c.67.25 1.38.37 2.1.35 2.96.01 5.83-1.05 8.06-2.99a9.7 9.7 0 0 0 2.32-3.47c.69-1.45.76-3.17.93-5.57Z"
              fill="#37474F"/>
        <path d="M328.27 218.44c-.3.69-.66 1.34-1.08 1.96-1.26 1.74-2.25 2.6-1.07 4.44a3.6 3.6 0 0 0 1.72 1.25 5.6 5.6 0 0 0 2.1.36 12.3 12.3 0 0 0 8.07-3 8.64 8.64 0 0 0 2-2.77c-.08-2.2-6.98-4.06-11.74-2.24Z"
              fill="#455A64"/>
        <path d="M310.68 221.82c-.18-3.65-.5-6.53-.74-9.86l-1.04-13.45-1.1-13.8c-.3-3.66.3-6.96 0-10.62a241.4 241.4 0 0 1 2.4-31.35 21.92 21.92 0 0 1-7.46-5.04c-5.56-5.5-6.34-10.8-6.34-10.8l2.58-.6 28.37-3.53c.67 4.5 1.9 10.8 2.23 16.73.7 12.18-7.78 35.31-7.78 35.31.4 1.6 2.8 8.44 2.07 14.84-1.13 10.1-1.37 20.84-1.6 26.3-.23 5.45-.72 8.51-.45 9.55.2.8.76 1.96.47 2.56-.4.8-1.06 1.2-1.98 2.35a42.46 42.46 0 0 1-3.37 3.75 11.66 11.66 0 0 1-3.72 2.4 9.67 9.67 0 0 1-5.48.92c-.63-.14-2.05-.44-2.19-1.06-.04-.49.11-.97.42-1.36 1.65-2.7 1.86-2.97 3.45-5.7 2-3.58 1.38-5.07 1.26-7.54Z"
              fill="#FFA8A7"/>
        <path d="M329.88 121.32c.58 5.14 1.32 8.63 1.53 12.38.22 4.95-.12 9.9-1.02 14.76-.9 5.41-6.4 28-6.79 29.92.98 4 1.98 7.54 1.22 16.5-1.1 12.93-2.75 24.4-2.75 24.4s-7.54 1.89-11.93-.2c0 0-4.1-35.89-4.44-44.27-.3-7.28 2.4-31.44 2.4-31.44s-11.57-3.72-13.47-16.43l35.25-5.62Z"
              fill="#455A64"/>
        <path opacity=".2"
              d="M320.09 176.06c.25-1.48 1-5.15 1.97-9.8 1.6-7.8 3.8-18.5 4.46-23.24.8-5.65-.3-17.2-.3-17.33l.64-.05c0 .11 1.08 11.74.3 17.45-.66 4.8-2.78 15.04-4.47 23.28-.92 4.47-1.72 8.32-1.96 9.79-.19 1.74-.06 3.5.37 5.18.85 4.35 1.13 8.78.84 13.2-.35 6.25-1.74 18.63-2.52 25.4l-.67.12c.8-6.72 2.2-19.25 2.54-25.54.3-4.37.04-8.76-.8-13.06a15.4 15.4 0 0 1-.4-5.4Z"
              fill="#191C29"/>
        <path d="M322.8 213.81c-2.35 1.43-10.92 2.05-13.26-.13l.56 5.53c2.4 1.7 8.93 1.84 12.08.14l.61-5.53Z"
              fill="#37474F"/>
        <path d="M322.89 232.35c.24.62.24 1.3 0 1.93-.26.58-1.1 1.25-2.4 2.09-1.3.84-3.2 1.37-4.42 3.24-.84 1.32-2.48 4.23-5.36 5.9a13.35 13.35 0 0 1-10.4 1.46c-3.64-1.14-4-2.67-4-4l26.58-10.62Z"
              fill="#263238"/>
        <path d="M308.51 227.49c-.1.64-.35 1.25-.74 1.76-1.06 1.83-2.87 3.53-4.38 5.04a49.22 49.22 0 0 1-5.13 4.38c-1.5 1.11-2.46 2.29-2.4 3.27.26 3.08 4.08 4.45 8 4.34a12.6 12.6 0 0 0 6.54-2.03c1.14-.8 2.14-1.8 2.96-2.93 1.72-2.34 2.03-3.56 4.11-4.8 1.77-1.06 3.75-1.32 5.45-3.87.64-1.72-.2-3.54-.46-5.27-.07-.78-.08-1.56-.04-2.35a.94.94 0 0 0-.75-.96l-.05.8c-.3.5-.75.88-1.27 1.13-.94.47-1.8.06-2.4.85a5 5 0 0 0-.57 1.13 5.78 5.78 0 0 1-.98 1.6c.13-.53.22-1.07.26-1.6 0-.88 0-1.46-.44-1.76a10.9 10.9 0 0 0-2.2-.9c-1.08-.35-2.2-.58-3.34-.67a1.76 1.76 0 0 0-1.93.61 4.8 4.8 0 0 0-.24 2.23Z"
              fill="#37474F"/>
        <path d="M300.08 237.2c-.71.58-1.42 1.14-2.11 1.66-1.48 1.11-2.46 2.3-2.4 3.28.26 3.08 4.09 4.44 8 4.33a12.59 12.59 0 0 0 7.34-2.6c.17-2.23-4.37-7-10.83-6.68Z"
              fill="#455A64"/>
        <path d="M274.98 86.3a20.5 20.5 0 0 1-.14-3.59c.27-3.5-.67-5.6-2.15-8.73-.25-.53-.51-1.06-.8-1.6a5.57 5.57 0 0 1-.35-.8c-.1-.25-.18-.46-.52-.44a.97.97 0 0 0-.62.32 2.87 2.87 0 0 0-.7 2.21c.1.8.26 1.58.49 2.35.13.59-.5.32-.8.14-1.4-.86-2.56-3.2-3.3-4.6-.4-.98-.87-1.92-1.4-2.82a3.2 3.2 0 0 0-1.51-1.21c-.43-.15-.86-.14-.99.4-.04.35 0 .7.1 1.02a2.4 2.4 0 0 1-.09 1.96c-.3.38-.53.79-.72 1.23-.07.6-.1 1.2-.11 1.8-.18.48-.39.95-.62 1.41-.06.62 0 1.25.19 1.84a14.3 14.3 0 0 0 1.25 3.6 14.6 14.6 0 0 0 3.1 4.31c.73.8 1.73 1.5 2 2.56.22.98.35 1.99.37 3 .06 1.36.18 3.53.2 5.5.07 9.18 1.16 14.27 4.2 18.14 1.54 1.96 3.44 1.92 8.66-1.6 6.3-4.26 17.42-11.9 17.42-11.9L300.8 84s-6.45.84-9.85 3.34c-4.57 3.37-12.71 10.59-12.71 10.59s-3.09-10.64-3.27-11.63Z"
              fill="#FFA8A7"/>
        <path d="M270.1 78.46c-.41 1.94-.26 3.97.43 5.84a6.17 6.17 0 0 1-1.2-2.94c-.1-1.66.26-2.34.77-2.9Z"
              fill="#F28F8F"/>
        <path d="M301.19 83.58c-5.12 1.16-8.2 1.6-12.72 5.38-4.96 4.2-10.17 9-10.17 9a17.18 17.18 0 0 1-7 15.62c.8 1.15 2.4 3.86 6.85 1.28 4.45-2.59 20.6-13.99 20.6-13.99l2.44-17.29Z"
              fill="#37474F"/>
        <path d="M278.3 97.95c.99 2.58 1.66 6.4.94 9.2 2.2-4.73.26-10.3.26-10.3l-1.2 1.1Z" fill="#263238"/>
        <path d="M330.24 85.86s.45 8 1.04 15.84c.49 4.96.6 9.94.37 14.9-.3 5.68.14 16.86.14 16.86-6.13 4.57-32.18 3.2-37.66-4.57.4-4.94.72-10.07.64-14.55-.1-5.5-1.27-14.84-.14-19.82 1.26-5.5 4.93-9.87 6.56-10.94 5.1-.97 11.41-1.6 15.04-1.18 4.8.53 9.51 1.7 14.01 3.46Z"
              fill="#FAFAFA"/>
        <path d="M313.64 83.08c.83 0 1.67.03 2.5.11 4.56.5 9.03 1.58 13.32 3.2.12 1.87.53 8.69 1.02 15.36v.23c.48 4.84.6 9.7.35 14.56-.26 5.01.04 14.36.12 16.5-2.22 1.4-6.86 2.22-12.56 2.22-9.19 0-20.08-2.27-23.46-6.62.34-4.2.71-9.54.62-14.34 0-1.6-.15-3.52-.28-5.6-.3-4.98-.65-10.62.13-14.05 1.16-5.1 4.5-9.23 6.08-10.35 4-.78 8.07-1.2 12.14-1.27m0-.8c-4.18.07-8.35.5-12.45 1.3-1.6 1.07-5.3 5.45-6.55 10.94-1.14 4.99 0 14.33.13 19.82.08 4.48-.24 9.6-.64 14.55 3.4 4.84 14.71 7.2 24.27 7.2 5.86 0 11.06-.88 13.39-2.62 0 0-.43-11.2-.14-16.85.24-4.97.12-9.95-.37-14.9-.59-7.87-1.03-15.85-1.03-15.85a54.4 54.4 0 0 0-14-3.44c-.86-.09-1.73-.13-2.59-.12l-.01-.03Z"
              fill="#E0E0E0"/>
        <path d="M317.17 77.7c2.4-2.99 4-4.76 5.69-9.06.67-1.74 1.8-6.04 1.28-8.35a4.13 4.13 0 0 0-2.95-3.2 4.8 4.8 0 0 0-1.44-4.63 3.62 3.62 0 0 0-3.73-.94 3.1 3.1 0 0 0-5.23-1.93 3.27 3.27 0 0 0-3.2-1.81 3.56 3.56 0 0 0-3.13 2.27 5.6 5.6 0 0 0-3.42-1.55 3.31 3.31 0 0 0-3.14 1.76c-.51 1.14-.19 2.45.16 3.64a1.93 1.93 0 0 0-2.07-.17 1.9 1.9 0 0 0-.96 1.85c.14.46.22.94.23 1.42a1.1 1.1 0 0 1-.8.9 1.1 1.1 0 0 1-1.15-.37 2.33 2.33 0 0 0 2.63 2.9 1.8 1.8 0 0 0 .63 1.82c.44.29.97.4 1.49.33l19.1 15.12Z"
              fill="#263238"/>
        <path d="M297.71 74.11c.54 3.2 1.75 4.71 3.87 5.55 1.14.37 2.35.54 3.55.5l.2 2.62c-6.57 7.25 9.17 7.04 12.38.62l-.27-9.23s1.29 1.65 3.65.32a4.98 4.98 0 0 0 1.93-5.98c-.99-2.45-3.3-1.6-4.04-.93-.75.68-1.6 1.84-2.2 1.76-.93-.12-1.11-.92-1.3-1.52-.45-1.5-.6-3.08-.46-4.64-.6-.36-1.45-.72-1.67-1.48-.8-2.74.13-3.52.72-4.67-2.36-1.75-6.1 1.05-8.84 1.27-3.15.24-3.77-1.6-5.48-1.44a15.22 15.22 0 0 0-1.76 5.4 36.7 36.7 0 0 0-.28 11.85Z"
              fill="#FFA8A7"/>
        <path d="M305.13 80.17c2.5 0 6.12-.35 8.29-2.28a9.39 9.39 0 0 0 2.72-4.65s-.4 3.45-1.53 4.97a9.88 9.88 0 0 1-5.26 3.14c-1.36.2-2.73.33-4.1.38l-.12-1.56Z"
              fill="#F28F8F"/>
        <path d="m299.34 62.38 2.49-.6a1.23 1.23 0 0 0-1.5-.96 1.34 1.34 0 0 0-1 1.56Zm10.84 1.48-2.24-1.27a1.24 1.24 0 0 1 1.24-.68 1.34 1.34 0 0 1 1 1.95Z"
              fill="#263238"/>
        <path d="m301 69.22 3.47 1.28.91-6.72c-1.24-.25-3.2 3.1-4.38 5.44Z" fill="#F28F8F"/>
        <path d="m307.2 71.66-3.6 1.24a1.9 1.9 0 0 0 2.6 1.1 1.8 1.8 0 0 0 1-2.34Z" fill="#B16668"/>
        <path d="M305.15 74.14a1.99 1.99 0 0 1 2.15-1.81 1.67 1.67 0 0 1-1.1 1.66c-.34.13-.7.18-1.05.15Z"
              fill="#F28F8F"/>
        <path d="M322.31 83.4a27.13 27.13 0 0 0-6.3 15.86c-1.66 25.04 16.05 29.94 16.05 29.94s.32-5.16.6-9.37c0 0-12.63-6.73-11.8-19.53.58-9.12 4.8-14.68 7.07-15.33a35.2 35.2 0 0 0-5.62-1.56Z"
              fill="#263238"/>
        <path d="M335.96 129.15c-2.4-.8-4-1.72-6.52-3.88-4.63-4-4.9-4.6-8.74-8.14-1.31-1.2-2.48-2.4-3.03-2.94a14.92 14.92 0 0 1-2.93-3.02 9.38 9.38 0 0 1-1.6-3.52c-.15-1.34-.62-2.72-.35-4.1.08-.4.22-.8.28-1.17.06-.56.06-1.13 0-1.69-.04-.97.1-1.95.41-2.88a5.1 5.1 0 0 1 1.35-2.04 1.78 1.78 0 0 1 1.75-.6 30.1 30.1 0 0 0-.4 2.19c.16 1.19.67 2.3 1.46 3.2 1.43 1.96 2.68 2.97 2.87 2.6.18-.4-.35-1.6-.13-3.58.23-1.96.8-2.66 1.38-2.8.97-.22.94.8 1.31 2.4.45 1.88 1.24 2.91 1.3 5.68.04 2.4-.37 2.98.97 4.08.76.64 3.37 2.15 3.37 2.15s-.7-2.65-1.84-7.16c-2.2-8.76-1.43-15.84 1.01-18.99 3.6 1.36 8.4 3.68 10.47 10.83 2.2 7.6 2.23 8.74 4.34 23.8 1.55 10.98-3.06 10.74-6.73 9.58Z"
              fill="#FFA8A7"/>
        <path d="M327.9 84.97c4.73 1.13 7.39 2.89 8.94 5.89 2.4 4.58 3.35 8.61 4.14 14.78 1 7.8 3.5 18.89 1.33 22.3-1.69 2.65-5.05 2.26-7.43.8 2.69-7.68.53-13.73-6.15-17.66 0 0-2.3-6.98-3.26-10.6-.96-3.6-1.2-12.82 2.43-15.51Z"
              fill="#37474F"/>
        <path d="M328.73 111.11c3.06 2.34 9.75 5.78 10.57 9.46 0 0-.07-2.91-4.1-6.47a55.2 55.2 0 0 0-7.1-5.44l.63 2.45Zm-19.55-45.13a1.07 1.07 0 1 1-2.15-.02 1.07 1.07 0 0 1 2.15.02Zm-7.72-.84a1.08 1.08 0 1 1-2.16 0 1.08 1.08 0 0 1 2.16 0Z"
              fill="#263238"/>
        <path d="M88.68 216.4c.06-3.37.98-29.28.98-29.28l-14.08 7.65c1.5 15 2.97 22.1 3.09 24.7.04.18.06.36.07.54-.1 2.95 3.5 4.68 6.28 6.74a53.35 53.35 0 0 0 7.53 4.87c2.03 1.02 6.68.52 7.24-.68-3.38-2.53-6.81-4.8-9.2-7.9-1.26-1.62-1.96-3.54-1.9-6.65Z"
              fill="#C8856A"/>
        <path d="M105.13 235.06a2.4 2.4 0 0 1-.6 2.53c-1.14.84-4.47 2.17-8.76 1.5-4.3-.66-6.6-1.96-8.27-3.34-1.68-1.38-4.04-3.34-5.98-3.8-1.53-.31-3-.92-4.3-1.78-.57-.53-.41-2.81-.41-2.81l28.32 7.7Z"
              fill="#263238"/>
        <path d="M78.58 218.68s-.3-.04-.43.48-.36 2.45-.68 3.46c-.5 1.8-.7 3.67-.6 5.53.2 1.18 3.12 2.09 4.99 2.82 2.17.95 4.19 2.21 6 3.74a18.85 18.85 0 0 0 9 3.42c4.28.21 7.1-.75 8-2.14 1.12-1.71.8-3.48-4.08-5.74a50.3 50.3 0 0 1-5.23-3.2c-2.9-2.2-3.64-3.16-5.16-6.08-.18-.46-.4-.9-.68-1.3a1.53 1.53 0 0 0-1.6-.45c-1.42.17-2.83.44-4.22.8-.67.26-1.6.56-1.64 1.34 0 .27.06.54.16.8.06.16.1.38-.06.46-.16.1-.33 0-.46-.13-.47-.47-.9-.97-1.28-1.5a4.46 4.46 0 0 0-.75-.76 8.82 8.82 0 0 1-.8-.53 1.5 1.5 0 0 1-.48-1.02Z"
              fill="#37474F"/>
        <path d="M101.57 230.62c-6.23.17-8.8 4.35-9.1 6.51 1.41.54 2.89.88 4.39 1 4.28.21 7.28-.75 8.18-2.13 1.06-1.63.88-3.7-3.47-5.38Z"
              fill="#FAFAFA"/>
        <path d="M91.78 231.08a.35.35 0 0 1-.2-.07.26.26 0 0 1 0-.39c.9-.94 3.9-2.86 6.14-2.56a.28.28 0 0 1 .27.31.3.3 0 0 1-.35.24c-2.1-.28-4.89 1.6-5.6 2.4a.3.3 0 0 1-.12.06.3.3 0 0 1-.14 0Zm-2.62-1.51a.32.32 0 0 1-.18-.06.26.26 0 0 1 0-.4c.9-.94 3.9-2.86 6.14-2.55a.28.28 0 0 1 .2.1.28.28 0 0 1 .06.21.29.29 0 0 1-.23.23h-.12c-2.1-.28-4.89 1.6-5.6 2.4a.3.3 0 0 1-.12.07.3.3 0 0 1-.15 0Zm-2.42-1.72a.33.33 0 0 1-.19-.07.26.26 0 0 1 0-.4c.9-.93 4.57-3.25 6.81-2.95.04 0 .08.02.1.03a.28.28 0 0 1 .15.18v.11a.29.29 0 0 1-.22.23h-.12c-2.1-.28-5.55 2.03-6.26 2.77a.34.34 0 0 1-.13.08.35.35 0 0 1-.14.02Zm-2.37-1.72a.32.32 0 0 1-.2-.07.26.26 0 0 1 0-.39c1.24-1.33 5.08-3.26 7.33-2.96a.3.3 0 0 1 .26.32.31.31 0 0 1-.13.18.32.32 0 0 1-.21.05c-2.03-.27-5.68 1.6-6.78 2.77a.28.28 0 0 1-.27.1Z"
              fill="#F0F0F0"/>
        <path d="m59.16 201.85-13.6-2.02c-.66 8.3-.37 15.63-1.3 23.04-.17 1.4-1.72 10.8-1.6 13.74.18 4.41 5.97 4.99 6.67 2.46.7-2.53 3.73-14.3 3.93-15.47 1.27-4.45 2.56-9.45 5.2-18.91.12-.41.58-2.44.7-2.84Z"
              fill="#C8856A"/>
        <path d="M51.6 240.94c-.09 2.74-.93 5-2.2 6.07a5.15 5.15 0 0 1-4.91 1.12c-1.87-.52-4.05-1.84-4.67-4-.76-2.64-.39-4.12.15-6.47l11.64 3.28Z"
              fill="#263238"/>
        <path d="M44.35 221.96c-.8 0-1.16 3.44-1.77 6.85-.64 3.65-1.91 5.1-2.48 8.1-.65 3.43-.4 5.36.8 7.5 1.2 2.13 5.79 4.39 8.23 1.5 1.98-2.34 2.78-4.9 2.77-8.34.04-2.91.27-5.82.68-8.7.26-2.57 1.35-4.95.69-5.27-.46 1.29-.94 3.2-1.2 2.71a4.99 4.99 0 0 1 0-.97 1.1 1.1 0 0 0-.17-.84 1.55 1.55 0 0 0-.85-.4c-.76-.16-3.1-.8-3.87-.92a9.52 9.52 0 0 0-1.17-.1c-.33-.02-.67 0-1 .09a.68.68 0 0 0-.42.33 1 1 0 0 0-.07.39c0 .24-.05.47-.13.7 0 .1-.1.22-.22.2-.11-.04-.12-.13-.12-.22 0-.42.09-.72.14-1.2 0-.22.07-.52.08-.75l.08-.66Z"
              fill="#37474F"/>
        <path d="M39.71 238.9a9 9 0 0 0 .91 5.66c1.23 2.13 5.88 4.15 8.61 1.53a9.04 9.04 0 0 0 2.4-5.15c-1.3-2.35-9.65-3.9-11.92-2.04Z"
              fill="#FAFAFA"/>
        <path d="M49.92 237.45h-.1s-3.86-2.04-7.4-1.45a.29.29 0 0 1-.33-.22.27.27 0 0 1 .05-.2.28.28 0 0 1 .08-.07.28.28 0 0 1 .1-.04c3.74-.62 7.64 1.45 7.78 1.51l.08.07a.26.26 0 0 1 .07.2l-.03.1a.31.31 0 0 1-.3.1Zm-7.19-4.05a.29.29 0 0 1-.24-.19.26.26 0 0 1 .03-.2.26.26 0 0 1 .17-.11c3.54-.93 7.62 1.36 7.77 1.44a.27.27 0 0 1 .14.26c0 .04-.02.07-.04.1a.3.3 0 0 1-.4.1s-4-2.27-7.31-1.4a.2.2 0 0 1-.12 0Zm.31-2.4a.3.3 0 0 1-.24-.19.26.26 0 0 1 .1-.28.25.25 0 0 1 .1-.04c3.89-1.1 7.78 1.34 7.9 1.43l.09.07a.25.25 0 0 1 .04.2c0 .04-.02.07-.05.1a.3.3 0 0 1-.4.06s-3.79-2.4-7.41-1.36a.37.37 0 0 1-.13 0Z"
              fill="#F0F0F0"/>
        <path d="M43.4 228.3a.3.3 0 0 1-.23-.18.25.25 0 0 1 .02-.22.26.26 0 0 1 .16-.13c3.65-1.06 7.82 1.43 8 1.52.04.01.06.04.09.06a.25.25 0 0 1 0 .3.31.31 0 0 1-.18.12.32.32 0 0 1-.22-.03s-4.08-2.45-7.47-1.46a.34.34 0 0 1-.17.01Z"
              fill="#EBEBEB"/>
        <path d="M58.83 111.87a6.05 6.05 0 0 1-1.25 2.89c-3.7 4.57-5.45 9.03-6.12 17.6a844.16 844.16 0 0 0-2.08 43.1c-.24 1.86-2.03 5.1-3.2 14.74a256.73 256.73 0 0 0-1.33 20.06s9.89 1.77 12.8-.92c1.65-6.27 6.78-22.16 9.6-31.27 2.47-8.27 4.46-20.5 4.46-20.5l3 17.24a48.27 48.27 0 0 0-.35 11.04c.44 5.7 2.45 20.5 2.45 20.5 1.8 1.97 10.34 1.95 12.58-.8 0 0 2.47-24.89 2.84-31.74.67-12.75 2.05-37.21-1.6-56-.14-.8-.52-3.88-.52-3.88-4.8 3.52-25.3 2.2-31.28-2.06Z"
              fill="#263238"/>
        <path d="M67.18 118.25a.26.26 0 0 0-.31.16c-.3.98-.54 1.86-.8 2.7-.8 3.07-1.42 5.29-3.95 7.58a8.58 8.58 0 0 1-6.2 2.06c1.34-6.29 3.78-11.25 7.5-15.26a.21.21 0 0 0 0-.33.27.27 0 0 0-.18-.07.27.27 0 0 0-.18.07c-3.83 4.13-6.32 9.23-7.66 15.71a57.7 57.7 0 0 0-1.02 7.85c-.8 11.9-1.92 29.89-2.32 34.6-.3 2.55-.9 5.04-1.78 7.45-.74 2.4-1.6 5.05-2.4 8.74-1.76 8-1.65 21.24-1.65 21.37a.25.25 0 0 0 .35.22.24.24 0 0 0 .15-.22c0-.13-.1-13.34 1.65-21.27a87.9 87.9 0 0 1 2.4-8.7 33.53 33.53 0 0 0 1.8-7.47c.4-4.73 1.6-22.72 2.33-34.63.15-2.55.48-5.08.97-7.59h.27a8.99 8.99 0 0 0 6.4-2.21c2.63-2.4 3.2-4.65 4.08-7.8.22-.8.46-1.71.8-2.67a.25.25 0 0 0-.07-.2.24.24 0 0 0-.08-.06.24.24 0 0 0-.1-.03Z"
              fill="#455A64"/>
        <path d="M44.88 207.64c1.8 1.78 9.8 3.06 12.73 1.7l-1.42 4.58s-2.1.91-6.25.36c-4.8-.64-5.26-2.15-5.26-2.15l.2-4.5Zm31.92-1.32c2.46.9 9.8.71 12.59-.8l-.26 3.81s-1.94 1.34-6.11 1.6c-4.17.27-5.82-.92-5.82-.92l-.4-3.7Z"
              fill="#455A64"/>
        <path d="m71.71 157.57 3.67-20.8a13.9 13.9 0 0 0 11.13-4.6s-.05 5.24-9.04 7.2l-4.1 19.16 1.38 16.25-3.04-17.2Z"
              fill="#191C29"/>
        <path d="M35.78 100.03c.32.15 3.66-.63 6.8-1.85V86.3a6.65 6.65 0 0 0-5.38 5.07c-2.22 8.03-1.42 8.66-1.42 8.66Z"
              fill="#263238"/>
        <path d="M60.38 80.78c2.96-.05 6.4 1.41 7.45 3.72.18.39 1.42 3.41 1.42 3.41 1.66 8 4.66 28.7 2.56 31.27-3.2 3.83-18.73 11.35-25.55 11.14-5.6-.18-11.06-5.3-11.84-6.84-2.57-5.07 4.16-33.33 5.96-36.17 2.88-4.61 16.2-6.49 20-6.53Z"
              fill="#0A33FF"/>
        <path opacity=".18"
              d="M71.78 119.17c-3.2 3.84-18.73 11.36-25.55 11.15a12.41 12.41 0 0 1-4.44-1.06 2.78 2.78 0 0 0 4-2.08c.52-2.09 1.38-18.63 1.38-32.8l22.07-6.47c1.67 8.02 4.67 28.69 2.54 31.27Z"
              fill="#191C29"/>
        <path opacity=".5"
              d="M39.66 88.78a7 7 0 0 1 .72-1.77c2.88-4.6 16.22-6.48 20-6.54 2.96-.05 6.4 1.42 7.45 3.72.17.37 1.42 3.42 1.42 3.42-5.91 3.17-20.67 6.36-22.27 5.79-1.93-.7-7.31-4.63-7.31-4.63Z"
              fill="#191C29"/>
        <path d="M35.63 110.66c.14-.07 2.24-1.54 2.48-1.65.44-.2 6.4 4.13 6.93 4.84.38.5-.66 10.79-.91 11.32-.1.18-2.4 1.45-2.5 1.64-.25.53-6.55-3.88-6.92-4.9-.37-1.04.27-10.96.91-11.25Z"
              fill="#0A33FF"/>
        <path opacity=".18"
              d="M35.63 110.66c.14-.07 2.24-1.54 2.48-1.65.44-.2 6.4 4.13 6.93 4.84.38.5-.66 10.79-.91 11.32-.1.18-2.4 1.45-2.5 1.64-.25.53-6.55-3.88-6.92-4.9-.37-1.04.27-10.96.91-11.25Z"
              fill="#191C29"/>
        <path d="M42.55 115.51c.37.5-.65 10.78-.92 11.3-.26.53-6.55-3.88-6.92-4.9-.37-1.04.28-10.96.91-11.25.43-.2 6.39 4.13 6.93 4.85Z"
              fill="#0A33FF"/>
        <path opacity=".4"
              d="M38.11 109c-.24.12-2.34 1.6-2.48 1.66.42-.2 6.4 4.13 6.91 4.84l2.5-1.64c-.54-.72-6.5-5.08-6.93-4.85Z"
              fill="#191C29"/>
        <path opacity=".3"
              d="M42.55 115.51c.37.5-.65 10.78-.92 11.3-.26.53-6.55-3.88-6.92-4.9-.37-1.04.28-10.96.91-11.25.43-.2 6.39 4.13 6.93 4.85Z"
              fill="#191C29"/>
        <path d="M45.04 113.86c-.45-.32-1.82.36-2.4.84-.58.48-1.32 2.83-2.85 3.15-1.52.32-3.59-1.75-4-3.05-.4-1.3-.84-4-.07-4.94a2.48 2.48 0 0 1 3.11-.8c1.03.61 6.12 3.61 6.21 4.8Z"
              fill="#0A33FF"/>
        <path opacity=".1"
              d="M45.04 113.86c-.45-.32-1.82.36-2.4.84-.58.48-1.32 2.83-2.85 3.15-1.52.32-3.59-1.75-4-3.05-.4-1.3-.84-4-.07-4.94a2.48 2.48 0 0 1 3.11-.8c1.03.61 6.12 3.61 6.21 4.8Z"
              fill="#191C29"/>
        <path d="M38.4 115.03a1.13 1.13 0 0 1 .49 1.06.46.46 0 0 1-.7.38 1.1 1.1 0 0 1-.5-1.06c.07-.4.38-.57.71-.38Zm8.78-20.93s-2.08-1.44-4.6-2.9c-2.52-1.45-3.94-1.94-4.8.98-.83 2.58-1.5 5.2-2 7.85-.48-.23-.44-1.1-.1-4.8.49-5.44-.2-7.86 5.43-10.04 8.73-3.37 16.06-6.03 21.05-4.91 5 1.12 6.17 3.91 7.07 7.4.02-.04-6.05 5.46-22.05 6.42Z"
              fill="#37474F"/>
        <path d="M81.67 80.9c4.66 1.37 6.31 3.36 8.94 7.26 2.73 4.08 6.53 9.51 10.62 15.64l16.22-2.88v8.63s-14.34 6.62-17.6 7c-3.27.4-4.26-.63-6.46-3.15-2.4-2.8-10.25-13.56-10.25-13.56L81.67 80.9Z"
              fill="#C8856A"/>
        <path d="M81.42 80.4c6.01 1.6 7.42 4.48 9.78 8.23a700.54 700.54 0 0 0 10.12 14.95s-1.5 4.08-4 6.08c-3.25 2.59-4.54 3.03-4.54 3.03s-2.63-3.06-4.53-5.44l-5.39-6.75-1.44-20.1Z"
              fill="#0A33FF"/>
        <path opacity=".6"
              d="M81.42 80.4c6.01 1.6 7.42 4.48 9.78 8.23a700.54 700.54 0 0 0 10.12 14.95s-1.5 4.08-4 6.08c-3.25 2.59-4.54 3.03-4.54 3.03s-2.63-3.06-4.53-5.44l-5.39-6.75-1.44-20.1Z"
              fill="#FAFBFF"/>
        <path d="M121.22 91.25a8.5 8.5 0 0 0-.97-.47 1.65 1.65 0 0 1-1.06-1.53v-1.87h-6.1v1.87a1.67 1.67 0 0 1-1.06 1.53c-.33.13-.66.28-.97.46-1.41.8-2.12 1.86-2.12 2.93l-.04 18.75c0 1.06.7 2.13 2.1 2.94a11.2 11.2 0 0 0 10.15 0c1.41-.8 2.11-1.86 2.11-2.92l.06-18.76c0-1.05-.7-2.12-2.1-2.93Z"
              fill="#0A33FF"/>
        <path opacity=".2"
              d="M121.22 91.25a8.5 8.5 0 0 0-.97-.47 1.65 1.65 0 0 1-1.06-1.53v-1.87h-6.1v1.87a1.67 1.67 0 0 1-1.06 1.53c-.33.13-.66.28-.97.46-1.41.8-2.12 1.86-2.12 2.93l-.04 18.75c0 1.06.7 2.13 2.1 2.94a11.2 11.2 0 0 0 10.15 0c1.41-.8 2.11-1.86 2.11-2.92l.06-18.76c0-1.05-.7-2.12-2.1-2.93Z"
              fill="#191C29"/>
        <path opacity=".6"
              d="M122.36 101.65c-.1-2.94-11.8-5.98-12.49-3.5l-.04 14.76c0 .75.6 1.52 1.6 2.13a10.29 10.29 0 0 0 9.23 0c1.04-.6 1.64-1.38 1.64-2.12l.06-11.27Z"
              fill="#0A33FF"/>
        <path opacity=".2"
              d="M122.36 101.65c-.05-2.9-11.8-5.98-12.49-3.5l-.04 14.76c0 .75.6 1.52 1.6 2.13a10.29 10.29 0 0 0 9.23 0c1.04-.6 1.64-1.38 1.64-2.12l.06-11.27Z"
              fill="#FAFBFF"/>
        <path opacity=".2"
              d="M111.43 115.61c-2.57-1.47-2.56-3.85 0-5.3a10.32 10.32 0 0 1 9.3 0c2.56 1.47 2.55 3.84 0 5.3a10.4 10.4 0 0 1-9.3 0Z"
              fill="#191C29"/>
        <path opacity=".15"
              d="M119.78 89.34a7.91 7.91 0 0 0-4.88-.8v-1.18h-1.8v1.87a1.67 1.67 0 0 1-1.06 1.53c-.34.13-.66.28-.98.46-1.38.8-2.08 1.86-2.08 2.92l-.04 18.75c0 1.06.7 2.13 2.1 2.94a11.32 11.32 0 0 0 7.46 1c-5.85.39-7.25-2.1-7.25-3.89l.06-18.4a2.05 2.05 0 0 1 .53-1.6c.22.2.46.37.71.52a8 8 0 0 0 7.26 0c1.07-.63 1.6-1.45 1.5-2.26l-.13-.07a2.86 2.86 0 0 0-1.4-1.79Z"
              fill="#191C29"/>
        <path opacity=".4"
              d="M121.22 91.25a8.5 8.5 0 0 0-.97-.47 1.65 1.65 0 0 1-1.06-1.53v-1.87h-.66v2.5c0 .54.87.8 1.45 1.14.57.35 2.5 1.35 2.67 2.25.1 1.48.12 2.96.05 4.43 0 1.96 0 13.34-.04 14.62a4.49 4.49 0 0 1-2.88 4.18 8.8 8.8 0 0 0 1.37-.61c1.41-.8 2.11-1.83 2.11-2.95l.06-18.75c0-1.06-.7-2.13-2.1-2.94Z"
              fill="#FAFBFF"/>
        <path d="M121.28 90v.54a2.55 2.55 0 0 1-1.51 2.1 8 8 0 0 1-7.26 0 3.47 3.47 0 0 1-1.13-1 1.94 1.94 0 0 1-.36-1.1v-.56a1.24 1.24 0 0 1 0-.34 2.77 2.77 0 0 1 1.46-1.75l.08-.04a8 8 0 0 1 7.2.06 2.72 2.72 0 0 1 1.52 2.1Z"
              fill="#37474F"/>
        <path d="M116.58 92.94v-1.88c0-.76.19.26-1.12.25-1.14 0-2.14-2.62-2.84-3.48l-.08.04a2.77 2.77 0 0 0-1.47 1.75v.9c0 .4.14.79.37 1.11.3.4.69.74 1.13.99a8 8 0 0 0 7.26 0c-1.48.57-3.25 1.04-3.25.32Z"
              fill="#263238"/>
        <path d="M112.51 92.06c-2-1.16-1.99-3.04 0-4.19a8 8 0 0 1 7.26 0c2 1.16 2 3.03 0 4.19a8 8 0 0 1-7.26 0Z"
              fill="#0A33FF"/>
        <path d="M121.28 88.22v1.07c.02.12.02.24 0 .36a2.78 2.78 0 0 1-1.47 1.74 7.2 7.2 0 0 1-3.2.8c-1.4.09-2.8-.2-4.05-.86a3.52 3.52 0 0 1-1.12-.99 1.89 1.89 0 0 1-.33-.76 1.73 1.73 0 0 1 0-.35v-1.08a2.54 2.54 0 0 1 1.5-2.1l.27-.14a8.06 8.06 0 0 1 6.98.16 2.54 2.54 0 0 1 1.42 2.15Z"
              fill="#37474F"/>
        <path d="M112.52 90.26c-2-1.16-2-3.04 0-4.19a8 8 0 0 1 7.26 0c2 1.17 2 3.04 0 4.2a8 8 0 0 1-7.26 0Z"
              fill="#455A64"/>
        <path d="M111.4 90.38c.3.4.67.73 1.11.98 1.25.65 2.65.95 4.05.86 0-.36.22-.65-1.12-.92-1.11-.21-2.76-.68-3.53-1.9a2.59 2.59 0 0 1 .9-3.46l-.28.15a2.54 2.54 0 0 0-1.5 2.1v1.07c-.02.12-.02.24 0 .36.06.27.18.53.36.76Z"
              fill="#263238"/>
        <path d="M114.6 85.49v2.45a.8.8 0 0 0 .44.53c.3.17.63.26.98.27.42.03.85-.06 1.23-.26a.99.99 0 0 0 .34-.3.57.57 0 0 0 .1-.22V85.5a.8.8 0 0 0-.45-.64l-.08-.04a2.48 2.48 0 0 0-2.13 0 .8.8 0 0 0-.43.67Z"
              fill="#0A33FF"/>
        <path opacity=".35"
              d="M114.6 85.49v2.45a.8.8 0 0 0 .44.53c.3.17.63.26.98.27.42.03.85-.06 1.23-.26a.99.99 0 0 0 .34-.3.57.57 0 0 0 .1-.22V85.5a.8.8 0 0 0-.45-.64l-.08-.04a2.48 2.48 0 0 0-2.13 0 .8.8 0 0 0-.43.67Z"
              fill="#191C29"/>
        <path d="M114.6 85.48c0 .5.7.9 1.56.91.87 0 1.6-.4 1.6-.89 0-.5-.7-.9-1.56-.9-.86-.02-1.6.38-1.6.88Z"
              fill="#0A33FF"/>
        <path opacity=".5"
              d="M115.6 85.49c0 .17.26.32.56.32.3 0 .56-.14.56-.31 0-.18-.25-.32-.55-.32-.3 0-.56.13-.56.3Z"
              fill="#0A33FF"/>
        <path opacity=".3"
              d="M115.6 85.49c0 .17.26.32.56.32.3 0 .56-.14.56-.31 0-.18-.25-.32-.55-.32-.3 0-.56.13-.56.3Z"
              fill="#191C29"/>
        <path d="M114.22 85.23v.95a1.06 1.06 0 0 0 .55.66c.37.2.79.32 1.22.33.53.04 1.06-.07 1.54-.31.16-.1.3-.22.42-.37a.81.81 0 0 0 .14-.3v-.93a.97.97 0 0 0-.56-.8l-.1-.05a3.06 3.06 0 0 0-2.66.04.96.96 0 0 0-.55.78Z"
              fill="#0A33FF"/>
        <path opacity=".2"
              d="M114.22 85.23v.95a1.06 1.06 0 0 0 .55.66c.37.2.79.32 1.22.33.53.04 1.06-.07 1.54-.31.16-.1.3-.22.42-.37a.81.81 0 0 0 .14-.3v-.93a.97.97 0 0 0-.56-.8l-.1-.05a3.06 3.06 0 0 0-2.66.04.96.96 0 0 0-.55.78Z"
              fill="#191C29"/>
        <path d="M114.22 85.22c0 .62.86 1.13 1.94 1.14 1.08 0 1.95-.49 1.95-1.11 0-.63-.86-1.12-1.93-1.13-1.08 0-1.96.49-1.96 1.1Z"
              fill="#0A33FF"/>
        <path opacity=".5" d="M115.47 85.23c0 .23.31.4.7.4.37 0 .69-.17.69-.4 0-.21-.3-.4-.7-.4-.38 0-.69.19-.69.4Z"
              fill="#0A33FF"/>
        <path opacity=".3" d="M115.47 85.23c0 .23.31.4.7.4.37 0 .69-.17.69-.4 0-.21-.3-.4-.7-.4-.38 0-.69.19-.69.4Z"
              fill="#191C29"/>
        <path d="M123.3 98.2a4.58 4.58 0 0 1 2.12 3.25l-2.14.3.03-3.55Z" fill="#9A4A4D"/>
        <path d="M123.78 100.14c.97-.7 2.3 1.03 1.21 2.75.8 0 .76 1.56 0 2.56.8.18.47 1.9-.37 2.77.64 0 .56 1.5-.85 2.33-.8.46-2.02-.14-.42-1.97-1.48.47-1.13-2.06.15-2.56-1.94.55-1.03-2.06-.4-2.5-1.21-.42-1.27-1.94.68-3.38Z"
              fill="#B16668"/>
        <path d="M53 123.71c2.53-7.4 4.16-11.66 4.23-14 0 0-2.13-11.8-2.4-14.57-.8-7.2.5-10.63 1.95-11.4a52 52 0 0 1 5.4-1.77c5-1.43 12.18-1.6 16.8-1.54 1.75.1 2.28.15 2.28.15a43.08 43.08 0 0 1 6.3 5.73c3.7 4.3 4.86 7.2 4.27 11.62a10.62 10.62 0 0 1-2.45 5.24c-.28 2.14-.75 8.2-.75 8.2.05 2.4-.1 2.33 1.1 8.07C85.92 130.7 60.65 130 53 123.7Z"
              fill="#FAFAFA"/>
        <path d="M64.31 50.93a6.32 6.32 0 0 0-6.93 1.45c-1.73 1.86-2.14 4.57-2.4 7.1-.48 4.4-.85 8.79-1.1 13.2-.1 1.98-.46 3.93-.64 5.91-.2 2.23-.36 4.45-.48 6.68-.1.57 0 1.16.3 1.66.36.38.84.63 1.36.69 2.48.5 5.05.05 7.21-1.24 3.39-2.07 5.27-6.07 5.54-10.03a33 33 0 0 0-.71-7.66 54.67 54.67 0 0 0-1.15-5.55c-.33-1.16-.74-2.28-1-3.45-.55-2.4-.5-4.9.16-7.27"
              fill="#263238"/>
        <path d="M61.75 50.88a7.33 7.33 0 0 0-2.4 3.91c-.13.4-.13.84 0 1.24a1.53 1.53 0 0 0 1.6.8c.63-.1 1.2-.4 1.64-.85a6.3 6.3 0 0 0 1.9-3.6 2.11 2.11 0 0 0-.56-2.02c-.7-.46-1.63.07-2.18.52Z"
              fill="#0A33FF"/>
        <path d="M85.38 60.44c1.47-3.11.25-7.33-1.33-9.34-2.29-2.9-5.94-4.24-11.52-4.07-4.24.14-9.37 1.87-10.3 6.19-4 1.87-2.75 7.35-1.77 9.68 2.05 4.88 5.05 8.73 5.04 11.3l19.88-13.76Z"
              fill="#263238"/>
        <path d="M83.14 53.8c.94.75 2.5 2.84 2.27 6.64-.12 1.14.25 2.57.25 4.71 0 8.12-2.26 9.82-4.46 10.78-1.3.57-2.03.66-4.12.64v3.76s4.75 7.41 2.6 13.9c-9.86-6.67-14.2-14.5-14.2-14.51l-.1-9.16c-.05.04-1.3 1.14-3.35 0-2.21-1.2-3.07-4.94-1.6-6.65 1.48-1.71 3.52-.66 4.44.86.92 1.52 3.2 1.1 2.5-1.21 1.05-.5 2.34-1.55 1.4-5.8a4.7 4.7 0 0 1 1.2-3.86c1.73-1.53 5.07-1.17 6.96.72 2.58-2.08 4.24-2.36 6.2-.81Z"
              fill="#C8856A"/>
        <path d="m75.05 68.89 3.75 1.32a1.91 1.91 0 0 1-2.47 1.25 2.1 2.1 0 0 1-1.28-2.57Z" fill="#AF6152"/>
        <path d="M77.2 71.55a1.78 1.78 0 0 0-2.2-1.71 2.07 2.07 0 0 0 2.2 1.71Z" fill="#F28F8F"/>
        <path d="m78.05 60.62.5 7.24 3.63-1.7-4.13-5.54Zm-.97 15.95c-2.6-.15-8.17-1.6-9.53-5.03 0 0 .2 2.46 3.4 4.37 1.9 1 3.98 1.62 6.12 1.83l.01-1.17Z"
              fill="#AF6152"/>
        <path d="M75.1 62.9a1.15 1.15 0 0 1-2.3-.22 1.15 1.15 0 1 1 2.3.22Zm8.6-.3a1.15 1.15 0 1 1-2.25-.51 1.15 1.15 0 0 1 2.25.52Zm-.43-4.5a1.65 1.65 0 0 0-2 1.21l3.2.8a1.66 1.66 0 0 0-1.2-2.01Zm-10.82.6a1.65 1.65 0 0 0-.87 2.17l3.03-1.3a1.65 1.65 0 0 0-2.16-.87Z"
              fill="#263238"/>
        <path d="M82.42 49.46H70.05c-8.35 3.32-5.28 14.04-3.53 15.32 4.97-2.1 4.64-7.05 4.27-9.87 2.52 2.35 6.71 4.1 8.7 4.3a13.8 13.8 0 0 1-1.69-3.82 10.04 10.04 0 0 0 3.91 4.23c3.06 1.77 5.15.6 5.15.6s1.04-7.44-4.44-10.76Z"
              fill="#263238"/>
        <path d="M66.24 79.17c.23 1.6.61 3.15 1.13 4.67 1 3.2 1.37 5.8 1.6 12.7.23 6.9-2.31 39.2-1.6 46.99-5.13 0-13.31-3.4-17.14-7.54a87.34 87.34 0 0 1 2.78-15.6c1.83-6.98 3.74-7.54 3.35-11.28-.4-3.73-3.94-18.6-.9-26.18a42.7 42.7 0 0 0 5.3-1.04c4.86-1.11 5.48-2.72 5.48-2.72Z"
              fill="#0A33FF"/>
        <path opacity=".4"
              d="M66.24 79.17c.23 1.6.61 3.15 1.13 4.67 1 3.2 1.37 5.8 1.6 12.7.23 6.9-2.31 39.2-1.6 46.99-5.13 0-13.31-3.4-17.14-7.54a87.34 87.34 0 0 1 2.78-15.6c1.83-6.98 3.74-7.54 3.35-11.28-.4-3.73-3.94-18.6-.9-26.18a41.7 41.7 0 0 0 5.3-1.04c4.86-1.11 5.48-2.72 5.48-2.72Z"
              fill="#FAFBFF"/>
        <path d="m77.18 78.82.18.7c0 1.98 4.07 5.13 6.93 9.8 2.85 4.67 3.31 9.22 3.11 15.2-.2 5.98 1.36 28.33 1.97 31.25a8.13 8.13 0 0 0 3.38-4.87c-.47-3.53-1.32-9.69-1.83-11.84-.51-2.15-.48-5.67-.48-10.08-.02-1.91.1-3.82.36-5.72 0 0 2.83-3.5 1.17-10-1.66-6.5-10.55-12.8-10.55-12.8s-.28-.1-1.75-.44a9.7 9.7 0 0 1-2.5-1.2Z"
              fill="#0A33FF"/>
        <path opacity=".4"
              d="m77.18 78.82.18.7c0 1.98 4.07 5.13 6.93 9.8 2.85 4.67 3.31 9.22 3.11 15.2-.2 5.98 1.36 28.33 1.97 31.25a8.13 8.13 0 0 0 3.38-4.87c-.47-3.53-1.32-9.69-1.83-11.84-.51-2.15-.48-5.67-.48-10.08-.02-1.91.1-3.82.36-5.72 0 0 2.83-3.5 1.17-10-1.66-6.5-10.55-12.8-10.55-12.8s-.28-.1-1.75-.44a9.7 9.7 0 0 1-2.5-1.2Z"
              fill="#FAFBFF"/>
        <path d="M65.5 76.42a9.91 9.91 0 0 1-3.2 5.05s1.34 6.27 1.1 9.35c-.22 3.08-.85 6.07 0 6.04a22.4 22.4 0 0 0 3.43-.8s-2.05 3-1.85 3.95c.2.94 3.37 11.5 3.37 11.5s1.33-12.22 1.12-15.8c-.2-3.6-.85-10.18-2.13-13.95-.86-2.66-1.84-5.34-1.84-5.34Zm22 33.39c.18-3.44 1.98-12.08 2.21-13.8.23-1.73-2.21-3.3-2.21-3.3s1.48.39 1.97 0c.48-.37-2.5-4.68-5.03-7.51-2.53-2.83-7.37-7.14-7.37-7.14v2.27a32 32 0 0 1 3.7 4.87c2.2 3.66 6.36 7.62 6.73 24.61Z"
              fill="#0A33FF"/>
        <path d="M60.18 82s5.25 4.5 6.08 13.15c2.1 21.9-13.92 26.4-13.92 26.4.32-1.88.76-3.75 1.32-5.58 0 0 9.43-8.63 8.38-19.81-.74-8-4.56-12.74-6.6-13.25 0 .03 2.02-.53 4.74-.92Z"
              fill="#37474F"/>
        <path d="M49.55 121.85a14.56 14.56 0 0 0 5.6-3.57c4-3.62 4.18-4.16 7.46-7.35 1.11-1.1 2.1-2.17 2.58-2.65.94-.8 1.78-1.71 2.48-2.73.65-.94 1.1-2 1.33-3.12.1-1.18.47-2.4.2-3.6-.08-.34-.22-.68-.28-1.03a7.17 7.17 0 0 1-.06-1.46 7.1 7.1 0 0 0-.44-2.52 4.53 4.53 0 0 0-1.23-1.76 1.55 1.55 0 0 0-1.56-.46c.16.63.27 1.17.4 1.9a5.3 5.3 0 0 1-1.19 2.87c-1.22 1.75-2.28 2.68-2.45 2.34-.16-.33.26-1.41 0-3.13-.25-1.7-.74-2.3-1.28-2.4-.8-.17-.8.73-1.08 2.12-.34 1.66-1 2.59-.98 5.01 0 2.12.4 2.6-.74 3.6-.66.58-2.9 1.97-2.9 1.97s.54-2.34 1.42-6.32c1.7-7.74 1.7-15.33-1.37-16.33-3.68 1.09-7.27 3.2-8.9 9.48-1.72 6.71-1.73 7.71-3.2 20.96-1.02 9.62 3 9.29 6.2 8.18Z"
              fill="#C8856A"/>
        <path d="M55.42 105.86c-2.61 2.11-8.39 5.31-9.01 8.56 0 0 0-2.56 3.42-5.78a48.95 48.95 0 0 1 6.08-4.94l-.5 2.16Z"
              fill="#AF6152"/>
        <path d="M55.45 82.94c-2.58.6-5.82 2.32-7.33 5.15-1.51 2.82-1.92 4.85-2.88 8.98-.96 4.14-2.46 18.52-2.02 19.11a25.74 25.74 0 0 1 12.2-10.32s1.64-5.96 2.3-10.02c.66-4.06 1.95-10.94-2.27-12.9Z"
              fill="#0A33FF"/>
        <path opacity=".6"
              d="M55.45 82.94c-2.58.6-5.82 2.32-7.33 5.15-1.51 2.82-1.92 4.85-2.88 8.98-.96 4.14-2.46 18.52-2.02 19.11a25.74 25.74 0 0 1 12.2-10.32s1.64-5.96 2.3-10.02c.66-4.06 1.95-10.94-2.27-12.9Z"
              fill="#FAFBFF"/>
        <path d="M197.15 63.32c0-.06-.2-.23-.25-.09-.13.8-.19 1.6-.17 2.4a4.8 4.8 0 0 1-.66 2.02 4.24 4.24 0 0 1-2.59 1.72c-.23.04-.46.04-.7 0-.24 0-.46-.12-.7-.14h-.09a.15.15 0 0 0-.1.13c0 .03 0 .05.02.08.14.34.58.45.9.52.43.08.86.05 1.27-.08a4.96 4.96 0 0 0 2.22-1.46 4.3 4.3 0 0 0 1.01-2.33c.06-.45.08-.9.06-1.36v-.62c-.03-.27-.1-.54-.22-.8Zm8.18 2.26c-.34.14-.66.35-1 .48-.33.12-.67.2-1 .25-.69.1-1.38 0-2.02-.26a4.13 4.13 0 0 1-1.6-1.19 5.46 5.46 0 0 1-.59-.88 4.97 4.97 0 0 1-.42-.84c-.05-.13-.36-.25-.34 0 .03.45.13.9.3 1.31.17.37.39.7.65 1a4.38 4.38 0 0 0 5.28 1.17c.4-.15.76-.4 1.02-.75.1-.23-.15-.4-.28-.3Zm1.54 2.92h-.08l-.13-.1-.17-.14a1.04 1.04 0 0 1-.27-.53 1.4 1.4 0 0 1 0-.57c.06-.2.17-.38.24-.58.06-.2-.28-.36-.42-.24a1.6 1.6 0 0 0-.46 1 1.5 1.5 0 0 0 .5 1.36c.13.1.28.18.44.22.17.06.35.06.51 0a.16.16 0 0 0 .07-.1.16.16 0 0 0-.01-.1l-.22-.22ZM195.7 86.56a2.84 2.84 0 0 0-2.44-.75 1.8 1.8 0 0 0-.93.32.18.18 0 0 0-.04.24c.04.06.2.17.27.13.19-.07.38-.12.57-.14.13-.03.26-.04.4-.05.22 0 .44.03.66.08.44.1.83.34 1.1.7.21.44.24.95.08 1.41a5.6 5.6 0 0 1-.2.7l-.12.38c-.06.1-.1.23-.13.35 0 .13.2.34.32.22.27-.27.47-.59.6-.94.11-.29.2-.59.25-.9a1.91 1.91 0 0 0-.4-1.75Zm8.92 3.9a3.8 3.8 0 0 0-.73-1.45 4.59 4.59 0 0 0-6.8-.05 2.2 2.2 0 0 0-.73 1.26c0 .03.02.07.04.1a.21.21 0 0 0 .2.1l.1-.04c.3-.3.53-.68.8-.98.32-.33.69-.6 1.1-.8a4 4 0 0 1 4.71 1.02c.28.38.49.81.61 1.27.08.47.23.92.45 1.33.09.12.33.18.38 0 .1-.59.05-1.2-.13-1.76Zm4.6-5.68c.04 0 .04-.02 0-.05a.26.26 0 0 0-.14-.06.88.88 0 0 0-.25 0 2.84 2.84 0 0 0-1.55.28 3.96 3.96 0 0 0-2.3 2.9 3.05 3.05 0 0 0 .4 2.26c.06.11.27.15.22 0a4.46 4.46 0 0 1-.04-2.05c.1-.54.33-1.04.66-1.48a3.38 3.38 0 0 1 2.07-1.27 5.65 5.65 0 0 1 .81-.11l.2-.06c.08-.16.02-.36-.08-.36Z"
              fill="#E0E0E0"/>
    </g>
    <defs>
        <clipPath id="a">
            <path fill="#fff" transform="translate(0 .82)" d="M0 0h389.95v307.18H0z"/>
        </clipPath>
    </defs>
</svg>