<svg xmlns="http://www.w3.org/2000/svg" width="500" viewBox="0 0 375 375" height="500" version="1.0">
    <defs>
        <clipPath id="a">
            <path d="M28 21h319v336.75H28Zm0 0"/>
        </clipPath>
        <clipPath id="b">
            <path d="M5 0h365.203v345H5Zm0 0"/>
        </clipPath>
        <clipPath id="c">
            <path d="M69.875 80.355h235.5v270h-235.5Zm0 0"/>
        </clipPath>
        <clipPath id="d">
            <path d="M19 256.05h60V340H19Zm0 0"/>
        </clipPath>
        <clipPath id="e">
            <path d="M295 256.05h61V340h-61Zm0 0"/>
        </clipPath>
        <clipPath id="f">
            <path d="M18 256.05h171V375H18Zm0 0"/>
        </clipPath>
        <clipPath id="g">
            <path d="M186 256.05h171V375H186Zm0 0"/>
        </clipPath>
    </defs>
    <g clip-path="url(#a)">
        <path fill="#35f"
              d="M211.645 357.75s-19.676-23.902-65.493-31.672C101.445 315.691 47.56 272.121 33.632 211c-16.046-60.516 11-123.855 45.411-153.41 34.312-31.063 66.402-35.906 65.797-36.309.808.907-31.082 6.457-64.485 37.621-33.605 29.653-59.238 92.188-42.988 151.09 14.125 59.504 67.008 101.16 110.098 110.946a146.043 146.043 0 0 1 27.648 6.957c30.477 10.793 42.184 24.71 42.184 24.71Zm-48.036 0s19.68-23.902 65.496-31.672C273.711 315.691 327.7 272.121 341.523 211c16.047-60.516-11-123.855-45.41-153.41-34.312-31.063-66.402-35.906-65.797-36.309-.808.907 31.082 6.457 64.485 37.621 33.707 29.754 59.336 92.285 43.09 151.188-14.13 59.508-67.008 101.164-110.2 110.847a146.043 146.043 0 0 0-27.648 6.958c-30.477 10.793-42.184 24.71-42.184 24.71Zm0 0"/>
    </g>
    <g clip-path="url(#b)">
        <path fill="#35f"
              d="M132.934 288.156s12.511 4.239 16.648 14.223c5.25 12.504 2.93 22.894 2.93 22.894s-12.516-6.457-16.653-13.214c-5.953-9.48-2.925-23.903-2.925-23.903Zm-22 54.766s12.613 3.836 21.898-1.715c11.504-7.059 15.844-16.742 15.844-16.742s-13.926-2.117-21.293.91c-10.395 4.133-16.45 17.547-16.45 17.547Zm1.21-41.957c2.926 7.262 13.926 15.633 13.926 15.633s3.938-9.68 1.008-22.59c-2.32-10.29-13.621-16.645-13.621-16.645s-5.348 13.516-1.312 23.602Zm-29.164 25.52s11.504 5.847 21.395 2.015c12.309-4.84 18.164-13.516 18.164-13.516s-13.121-4.437-20.789-2.722c-10.598 2.32-18.77 14.222-18.77 14.222Zm7.77-40.446c1.613 7.465 10.695 17.45 10.695 17.45s5.45-8.676 4.844-21.587c-.504-10.386-10.39-18.355-10.39-18.355s-7.368 12.004-5.149 22.492Zm-32.496 19.668s10.094 7.664 20.285 5.648c12.715-2.625 19.781-9.886 19.781-9.886s-11.91-6.453-19.578-6.25c-10.597.3-20.488 10.488-20.488 10.488ZM72.28 267.48c.203 7.465 7.367 18.66 7.367 18.66s6.762-7.464 8.375-20.074c1.313-10.086-6.859-19.464-6.859-19.464s-9.285 10.39-8.883 20.878Zm-34.715 13.415s8.477 9.078 18.672 8.875c12.715-.301 20.79-6.254 20.79-6.254s-10.395-8.168-17.864-9.278c-10.394-1.414-21.598 6.657-21.598 6.657Zm19.68-34.797c-1.008 7.261 3.938 19.265 3.938 19.265s7.77-6.05 11.504-17.851c3.027-9.48-3.333-19.973-3.333-19.973s-10.593 8.27-12.109 18.559Zm-35.723 7.062s6.66 10.184 16.45 11.7c12.308 1.812 21.09-2.423 21.09-2.423s-8.579-9.785-15.641-12.003c-9.688-3.227-21.899 2.726-21.899 2.726Zm24.926-30.664c-2.222 6.758.504 19.266.504 19.266s8.477-4.54 14.129-15.332c4.54-8.672.2-19.77.2-19.77s-11.704 6.254-14.833 15.836Zm-35.726.707s4.644 10.992 13.93 14.121c11.503 3.934 20.886 1.211 20.886 1.211s-6.66-10.894-13.016-14.222c-9.082-4.641-21.8-1.11-21.8-1.11Zm29.066-25.617c-3.332 6.25-2.727 18.656-2.727 18.656s8.981-2.922 16.247-12.406c5.754-7.563 3.636-19.063 3.636-19.063S44.43 188.91 39.79 197.586Zm-34.613-5.348s2.62 11.399 10.996 16.04c10.496 5.745 19.883 4.738 19.883 4.738s-4.543-11.598-10.094-15.934c-7.871-6.156-20.785-4.844-20.785-4.844Zm32.39-20.375c-4.238 5.45-5.851 17.551-5.851 17.551s9.183-1.309 17.762-9.176c6.863-6.355 6.761-17.754 6.761-17.754s-12.617 1.817-18.672 9.38ZM5.074 160.77s.606 11.5 7.871 17.25c9.184 7.261 18.367 7.964 18.367 7.964s-2.421-12-7.066-17.144c-6.457-7.16-19.172-8.07-19.172-8.07ZM39.79 145.44c-5.047 4.54-8.68 15.934-8.68 15.934s9.082.305 18.77-5.848c7.77-4.945 9.488-16.039 9.488-16.039s-12.515-.3-19.578 5.953Zm-29.469-16.14s-1.414 11.195 4.742 18.054c7.57 8.575 16.348 10.793 16.348 10.793s-.3-12.003-3.933-17.75c-5.047-8.07-17.157-11.097-17.157-11.097Zm36.328-9.68c-5.648 3.527-11 13.918-11 13.918s8.68 1.914 19.075-2.422c8.375-3.43 11.91-13.918 11.91-13.918s-12.012-2.523-19.985 2.422Zm-25.73-20.578s-3.23 10.492 1.512 18.258c5.855 9.48 13.925 13.11 13.925 13.11s1.72-11.599-.707-17.75c-3.43-8.673-14.73-13.618-14.73-13.618Zm37.137-3.527c-6.055 2.418-13.02 11.496-13.02 11.496s8.074 3.226 18.77.91c8.578-1.918 13.828-11.399 13.828-11.399s-11.102-4.437-19.578-1.007ZM36.762 71.207s-4.946 9.582-1.719 17.852c4.039 10.187 11.203 15.129 11.203 15.129s3.633-10.993 2.32-17.247c-1.816-8.976-11.804-15.734-11.804-15.734Zm36.73 2.523c-6.156 1.31-14.531 8.977-14.531 8.977s7.266 4.535 18.066 4.031c8.676-.402 15.239-8.57 15.239-8.57s-9.993-6.254-18.774-4.438ZM57.145 46.7s-6.356 8.472-4.641 16.94c2.117 10.594 8.273 16.544 8.273 16.544s5.45-9.883 5.149-16.239C65.62 54.867 57.145 46.7 57.145 46.7Zm35.218 8.57c-6.254.203-15.64 6.152-15.64 6.152s6.257 5.648 16.652 6.96c8.375 1.11 16.246-5.75 16.246-5.75s-8.476-7.663-17.258-7.362ZM81.164 26.324s-7.57 7.059-7.367 15.531c.3 10.59 5.246 17.348 5.246 17.348s6.863-8.672 7.77-14.824c1.113-8.676-5.649-18.055-5.649-18.055Zm32.898 14.121c-6.054-.91-16.148 3.227-16.148 3.227s5.047 6.457 14.938 9.582c7.87 2.523 16.648-2.723 16.648-2.723s-7.063-8.773-15.438-10.086Zm-5.953-29.754s-8.48 5.547-9.789 13.715c-1.617 10.29 2.118 17.653 2.118 17.653s8.175-7.16 9.992-13.012c2.62-8.168-2.32-18.356-2.32-18.356Zm29.364 19.063c-5.75-1.918-16.145.402-16.145.402s3.734 7.063 12.817 11.801c7.265 3.734 16.55.203 16.55.203s-5.25-9.785-13.222-12.406ZM136.867 0s-9.183 3.832-11.804 11.598c-3.231 9.582-1.012 17.347-1.012 17.347s9.082-5.547 11.91-10.89c3.934-7.364.906-18.055.906-18.055Zm.406 23.805s6.86 3.832 13.016 1.812c7.57-2.62 11.402-7.765 11.402-7.765s-7.87-3.024-12.511-2.22c-6.66 1.11-11.907 8.173-11.907 8.173Zm105.051 264.351s-12.512 4.239-16.652 14.223c-5.246 12.504-2.926 22.894-2.926 22.894s12.516-6.457 16.652-13.214c5.954-9.48 2.926-23.903 2.926-23.903Zm5.551 37.117c-7.367-3.027-21.293-.906-21.293-.906s4.34 9.781 15.844 16.742c9.183 5.649 21.898 1.715 21.898 1.715s-6.156-13.316-16.449-17.55Zm13.926-47.808s-11.301 6.254-13.625 16.64c-2.926 12.91 1.012 22.594 1.012 22.594s11-8.37 13.824-15.633c4.136-10.187-1.211-23.601-1.211-23.601Zm11.605 34.797c-7.668-1.614-20.789 2.722-20.789 2.722s5.856 8.676 18.164 13.516c9.89 3.832 21.395-2.016 21.395-2.016s-8.074-11.902-18.77-14.222Zm5.852-48.715s-9.887 7.969-10.395 18.355c-.605 12.91 4.848 21.586 4.848 21.586s9.18-9.984 10.695-17.449c2.32-10.488-5.148-22.492-5.148-22.492Zm17.156 31.57c-7.668-.305-19.578 6.254-19.578 6.254s7.066 7.36 19.781 9.883c10.192 2.016 20.285-5.649 20.285-5.649s-9.789-10.085-20.488-10.488Zm-2.32-48.515s-8.176 9.378-6.864 19.464c1.618 12.61 8.38 20.075 8.38 20.075s7.163-11.196 7.363-18.66c.304-10.489-8.88-20.88-8.88-20.88Zm21.898 27.636c-7.367 1.008-17.762 9.278-17.762 9.278s8.075 5.953 20.79 6.254c10.19.203 18.668-8.875 18.668-8.875s-11.2-8.07-21.696-6.657Zm-10.191-46.8s-6.258 10.39-3.332 19.972c3.734 11.903 11.504 17.852 11.504 17.852s4.945-12.004 3.937-19.266c-1.414-10.187-12.11-18.559-12.11-18.559Zm25.933 22.898c-6.96 2.219-15.64 12-15.64 12s8.879 4.336 21.09 2.422c9.89-1.512 16.449-11.7 16.449-11.7s-12.11-5.851-21.899-2.722Zm-17.761-43.676s-4.239 11.098.203 19.77c5.652 10.793 14.129 15.332 14.129 15.332s2.722-12.508.504-19.266c-3.13-9.582-14.836-15.836-14.836-15.836Zm28.863 17.653c-6.36 3.328-13.02 14.222-13.02 14.222s9.286 2.621 20.79-1.21c9.285-3.13 13.925-14.122 13.925-14.122s-12.816-3.531-21.695 1.11Zm-24.422-39.438s-2.219 11.5 3.633 19.063c7.265 9.48 16.246 12.406 16.246 12.406s.508-12.508-2.723-18.66c-4.843-8.774-17.156-12.809-17.156-12.809Zm30.879 12.105c-5.547 4.336-10.09 15.934-10.09 15.934s9.387 1.008 19.879-4.738c8.379-4.64 11-16.04 11-16.04s-12.918-1.21-20.789 4.844Zm-30.273-34.496s-.204 11.5 6.761 17.754c8.578 7.867 17.762 9.176 17.762 9.176s-1.613-12.101-5.856-17.55c-6.054-7.563-18.667-9.38-18.667-9.38Zm31.89 6.457c-4.644 5.145-7.066 17.145-7.066 17.145s9.285-.606 18.367-7.969c7.266-5.847 7.871-17.246 7.871-17.246s-12.613.809-19.172 8.07Zm-35.12-29.351s1.718 11.094 9.487 16.035c9.688 6.152 18.77 5.852 18.77 5.852s-3.633-11.497-8.68-15.938c-7.062-6.351-19.578-5.95-19.578-5.95Zm31.89.808c-3.633 5.747-3.934 17.75-3.934 17.75s8.777-2.218 16.348-10.793c6.054-6.859 4.742-18.054 4.742-18.054s-12.11 3.027-17.156 11.097Zm-39.055-23.097s3.633 10.386 11.91 13.918c10.395 4.336 19.07 2.422 19.07 2.422s-5.449-10.391-11-13.922c-7.972-5.043-19.98-2.418-19.98-2.418Zm30.879-4.64c-2.52 6.151-.703 17.75-.703 17.75s8.172-3.63 14.027-13.212c4.742-7.664 1.512-18.254 1.512-18.254s-11.3 5.043-14.836 13.715Zm-41.98-16.138s5.25 9.38 13.828 11.399c10.796 2.418 18.77-.91 18.77-.91s-6.966-9.176-13.02-11.496c-8.375-3.43-19.579 1.007-19.579 1.007Zm29.066-9.683c-1.414 6.355 2.32 17.246 2.32 17.246s7.266-4.84 11.3-15.129c3.231-8.27-1.714-17.852-1.714-17.852s-9.988 6.86-11.906 15.735Zm-43.598-8.672s6.66 8.27 15.238 8.57c10.801.504 18.067-4.031 18.067-4.031s-8.379-7.668-14.535-8.879c-8.778-1.914-18.77 4.34-18.77 4.34Zm26.34-14.324c-.203 6.355 5.148 16.238 5.148 16.238s6.153-5.95 8.274-16.539c1.715-8.473-4.64-16.945-4.64-16.945s-8.477 8.27-8.782 17.246Zm-43.898-1.211s7.87 6.758 16.246 5.75c10.496-1.41 16.652-6.961 16.652-6.961s-9.383-5.95-15.64-6.152c-8.579-.301-17.258 7.363-17.258 7.363Zm23.109-18.254c.809 6.152 7.77 14.824 7.77 14.824s4.945-6.758 5.25-17.348c.199-8.472-7.368-15.53-7.368-15.53s-6.863 9.378-5.652 18.054Zm-42.79 6.152s8.68 5.246 16.653 2.723c9.89-3.125 14.938-9.582 14.938-9.582s-9.992-4.137-16.149-3.227c-8.476 1.313-15.441 10.086-15.441 10.086Zm19.075-21.484c1.918 5.75 9.992 13.012 9.992 13.012s3.633-7.364 2.118-17.653c-1.211-8.168-9.79-13.715-9.79-13.715s-4.945 10.188-2.32 18.356Zm-40.367 13.215s9.285 3.629 16.55-.203c8.981-4.743 12.817-11.801 12.817-11.801s-10.394-2.32-16.043-.403c-7.972 2.52-13.324 12.407-13.324 12.407Zm14.836-24.106c2.824 5.242 11.906 10.89 11.906 10.89s2.223-7.765-1.008-17.347C247.57 3.934 238.29 0 238.29 0s-2.926 10.691 1.008 18.156Zm-13.117-2.523c-4.746-.805-12.516 2.219-12.516 2.219s3.734 5.144 11.402 7.765c6.055 2.121 13.02-1.812 13.02-1.812s-5.348-7.063-11.906-8.172Zm0 0"/>
    </g>
    <g clip-path="url(#c)">
        <path fill="#2a1810"
              d="M69.879 249.371c1.25-5.168 4.57-9.101 7.82-13.07.563-.688.809-1.297.64-2.238-.839-4.735 1.536-8.301 4.466-11.59a27.959 27.959 0 0 1 10.007-7.121c.528-.223 1.012-.309.762-1.168-2.457-8.461-.203-13.993 7.524-18.336 3.386-1.903 6.968-3.348 10.933-3.47 4.45-.136 7.867 2.11 11 4.93 5.38 4.84 8.399 10.922 9.387 18.063.14 1.004.223 2.012 1.453 2.356.293.082.465.285.738-.094 4.485-6.235 11.047-8.903 18.22-10.492.675-.145 1.355-.239 2.257-.399-1.316-.765-2.543-1.277-3.598-2.09a16.911 16.911 0 0 1-4.105-4.41c-.293-.46-.551-.808-1.223-.742-8.34.848-14.18-3.328-18.855-9.602-5.356-7.187-6.047-15.144-3.43-23.52.977-3.128 1.668-6.378 3.645-9.116.16-.219.136-.586.144-.883.172-5.965 2.211-8.5 7.984-9.883 5.844-1.402 11.77-1.277 17.7-.879.894.059 1.27-.039 1.476-1.027.7-3.305 2.863-5.414 5.863-6.8 1.907-.88 3.93-1.528 5.711-2.677 1.165-.75 1.157-.87 0-1.629a19.569 19.569 0 0 1-4.136-3.644c-.938-1.09-1.028-2.11-.246-3.332a17.319 17.319 0 0 1 3.824-4.317c.61-.484.629-.75.027-1.257a7.183 7.183 0 0 1-2.078-3.004c-.601-1.559.055-2.852 1.711-3.137.617-.106.738-.219.527-.793-.46-1.277-.46-2.66-1.718-3.691-1.118-.91-.774-2.504.527-3.184.61-.32.633-.746.715-1.242 1.465-8.73 5.453-16.133 11.71-22.352 1.266-1.23 2.747-2.152 4.169-3.176h1.582c1.144.301 1.652 1.098 1.644 2.227-.02 4.238 1.77 7.824 4.074 11.211a28.751 28.751 0 0 0 3 3.672c.93.98 1.333.937 1.844-.262.356-.816 1.031-1.16 1.793-1.426 2.957-1.039 6.04-1.199 9.113-.968 4.438.328 8.637 1.507 12.399 4.007.684.454 1.156 1.403 2.023 1.352.864-.05 1.317-.969 1.93-1.504 3.691-3.191 8.008-5.387 12.133-7.914 3.48-2.125 6.683-4.508 8.55-8.336.837-1.71 3.04-1.875 4.344-.418 4.098 4.586 7.297 9.637 8.461 15.824.625 3.336 1.172 6.688 1.2 10.055.062 6.871-.81 13.594-4.598 19.598-.047.074-.09.152-.137.226-1.21 1.88-1.203 1.864 1.035 2.446 4.22 1.101 8.41 1.066 12.57-.418 2.887-1.028 4.438.136 4.391 3.191-.039 2.508-.879 4.812-1.976 7.14 1.71-.671 3.097-1.785 4.75-2.335.699-.27 1.418-.461 2.156-.582 2.074-.25 3.316 1.093 3.11 3.164-.352 3.578-2.22 6.53-3.829 9.593a50.014 50.014 0 0 1-6.066 8.93c-.528.617-.559 1.04-.14 1.82 1.038 1.938 1.054 4.016.304 6.102-1.34 3.691-3.578 6.805-6.121 9.758-3.168 3.68-6.832 6.816-10.551 9.906-.922.77-.871 1.004.262 1.438.75.293 1.554.28 2.328.43.879.171 1.582.558 1.992 1.355.352.648.883 1.09 1.582 1.32 5.68 2.27 11.156 4.95 16.438 8.04 1.582.933 3.43 1.37 5.078 2.187 8.828 4.34 15.226 11.164 20.047 19.582a56.024 56.024 0 0 1 6.835 19.675c.223 1.47.094 2.965.364 4.426v8.965a36.662 36.662 0 0 1-2.637 11.34c-2.098 5.172-5.312 9.586-9.078 13.637-3.555 3.816-7.649 6.96-12.059 9.757-2.16 1.368-3.789 3.375-5.273 5.477-2.586 3.691-4.656 7.66-6.738 11.621-2.864 5.457-6.594 10.262-10.551 14.914-2.055 2.402-4.219 4.707-6.332 7.055a33.187 33.187 0 0 1-6.149 5.351 3.407 3.407 0 0 0-1.48 1.93c-.43 1.383-.98 2.727-1.457 4.098-.668 1.925-1.863 2.636-3.781 1.965-1.52-.528-2.72-.23-3.938.636-1.215.867-2.559 1.524-3.762 2.43-2.437 1.848-5.32 1.8-7.367-.488-1.504-1.684-3.031-1.746-5.012-1.477a61.778 61.778 0 0 1-15.496.031c-3.675-.421-7.324-.937-10.789-2.32-.629-.262-1.21-.016-1.777.242-2.926 1.317-5.672 2.98-8.516 4.461-2.687 1.399-5.328 2.875-7.957 4.383-1.66.953-3.52 1.254-5.398 1.473h-4.195a11.376 11.376 0 0 1-5.36-1.942 2.563 2.563 0 0 0-1.637-.375c-9.714.438-18.199-2.758-25.703-8.793-4.363-3.511-7.746-7.879-10.648-12.62a64.637 64.637 0 0 1-7.856-19.04c-.195-.816-.289-1.691-1.46-1.68-3.575.043-5.043-3.074-5.16-5.683a25.16 25.16 0 0 1 0-2.238c.163-3.43-1.633-6.114-3.368-8.817-.336-.527-.87-.48-1.414-.46-3.55.097-5.46-1.723-5.484-5.329 0-1.012-.352-1.441-1.32-1.75-4.84-1.535-9.063-4.195-13.004-7.34-5.63-4.484-9.672-10.125-12.399-16.765-.555-1.364-.652-2.793-.926-4.2Zm0 0"/>
    </g>
    <path fill="#f8fbfc"
          d="M254.414 284.477c-2.64-7.16-5.758-14.098-9.973-20.489-4.746-7.21-10.57-13.32-18.464-17.175a27.606 27.606 0 0 0-6.036-2.188c-.707-.156-.82-.36-.433-1.02 1.316-2.277 2.488-4.628 3.18-7.19.062-.243.226-.477-.07-.892-.962 2.426-2.419 4.457-3.938 6.86-.153-2.696.617-4.813 1.46-6.918 4.426-11.024 11.098-20.45 20.708-27.48 9.156-6.696 19.433-8.669 30.457-5.52 3.03.89 5.86 2.21 8.492 3.953 3.469 2.477 5.16 6.098 6.422 9.992 1.793 5.54 2.347 11.266 2.054 17.028a56.746 56.746 0 0 1-3.73 17.949c-1.633 4.203-3.535 8.226-6.07 11.937a57.69 57.69 0 0 1-7.301 8.602c-3.43 3.36-7.402 5.898-11.281 8.613-1.512 1.055-2.934 2.23-4.38 3.375-.32.246-.562.707-1.097.563Zm0 0"/>
    <path fill="#cfc8c0"
          d="M86.734 223.227c2.477-2.637 5.61-4.301 8.852-5.786.602-.261.758.059.937.489.868 2.062 1.797 4.101 2.157 6.332.058.36 0 .918.578.843.527-.062.402-.593.43-.964.171-2.332-.45-4.52-1.231-6.676-.824-2.266-1.773-4.485-2.375-6.832-.855-3.38-.023-6.254 2.434-8.672 3.285-3.23 7.289-5.149 11.75-6.094 3.004-.637 5.757.137 8.18 1.977 5.273 3.976 8.902 9.027 10.195 15.61.195.987.422 1.976.597 2.968.051.308.41.77-.023.93a1.013 1.013 0 0 1-.711.03 1.017 1.017 0 0 1-.57-.429c-.309-.508-.555-.988-.43-1.7.305-1.76-.438-3.19-1.79-4.339.384 1.035.958 2.012.731 3.43a88.416 88.416 0 0 0-8.246-10.203c-.113.703.313 1.015.551 1.375 2.984 4.484 6.2 8.843 8.441 13.785.418.918.79 1.847 1.172 2.793.23.574.407 1.265 1.23 1 .977-.32.528-1.04.317-1.633-.265-.793-.594-1.55-.953-2.473 2.375.375 4.121 1.696 5.719 3.164.48.442 0 1.43.054 2.16.04.45-.222 1.094.458 1.2.675.101.617-.602.738-1.024a15.11 15.11 0 0 0 .367-1.668c.793-4.425 3.48-7.18 7.648-8.535 5.68-1.844 11.082-1.3 16.016 2.258.23.195.445.41.645.64.527 2.704.68 5.399-.418 7.997-.793 1.882-2.512 2.457-4.352 2.757-.266.043-.613.06-.723-.187-.437-.98-1.023-.492-1.582-.207a17.689 17.689 0 0 0-4.035 2.71c-.75.688-1.351.7-1.93-.194-.355-.551-.75-1.106-1.343-1.422-.594-.32-1.055-.219-.961.605.097.824.336 1.63.387 2.469.203 3.43-1.07 6.43-2.75 9.32-3.137 5.395-7.954 8.664-13.614 10.887-.656.262-1.285.559-1.918.863-3.644 1.602-7.164 3.45-10.379 5.82-3 2.227-5.703 4.778-8.386 7.356-1.985 1.348-4.274 1.902-6.578 2.11-3.32.292-6.684.351-9.817-1.176-2.262-1.098-3.937-2.899-5.59-4.746-4.68-5.18-6.05-11.34-5.226-18.106.09-.613.273-1.2.55-1.754.528-1.09 1-1.176 1.665-.18a12.341 12.341 0 0 0 2.335 2.48 8.674 8.674 0 0 0 2.356 1.423c.238.101.512.23.738 0 .223-.23.102-.496.016-.742a20.534 20.534 0 0 0-.996-2.293c-2.008-4.153-3.43-8.442-3.25-13.157.086-2.363.644-4.57 1.933-6.59Zm0 0"/>
    <path fill="#fdf8f4"
          d="M204.64 159.414c.247.473.247.477.497.57 1.945.75 3.984.918 6.039 1.008 1.054-.215.89.613.933 1.156.164 1.95-.027 3.86-.578 5.73-3.14 10.356-9.582 17.505-20.172 20.5-4.3 1.22-8.703 1.321-13.172 1.102-7.03-.343-13.792-1.992-20.542-3.773-4.282-1.129-8.34-.527-12.301 1.293a65.204 65.204 0 0 1-4.012 1.664c-5.902 2.215-9.375.527-12.832-3.781-.305-.375-.59-.766-.852-1.172-2.07-4.188-2.207-8.61-1.496-13.102.586-3.785 1.73-7.422 3.25-11.168a20.472 20.472 0 0 0 4.047 7.145c4.149 4.84 9.332 8.332 14.895 11.32.363.227.722.227 1.086 0 6.648-3.644 13.308-7.265 19.554-11.605 2.375-1.64 4.086-3.828 5.618-6.196.468-.73.78-1.523.93-2.375a6.325 6.325 0 0 0-.063-2.554c-.133-.649-.043-.88.672-.73 7.652 1.613 14.547 7.94 16.125 14.835.218.95.293 1.93.464 3.117.891-1.148.793-2.246.579-3.285-.196-.89.129-1.297.816-1.785 2.594-1.848 4.61-4.305 6.793-6.594 1.207-1.265 2.348-2.601 3.71-3.707.161.805.634 1.594.013 2.387Zm0 0"/>
    <path fill="#d3ccc4"
          d="M152.43 272.797c2.27 1.558 4.406 3.308 6.742 4.785 4.36 2.758 9.101 4.695 13.844 6.64 5.011 2.063 9.812 4.485 13.789 8.274 2.562 2.445 4.68 5.203 5.968 8.547-.433.148-.46.164-.687-.188a4.615 4.615 0 0 0-1.074-1.32c-.168-.12-.29-.34-.621-.246 0 .742.32 1.496-.047 2.277-.512 1.082-.696 1.2-1.781.72a9.032 9.032 0 0 1-.918-.497 2.242 2.242 0 0 0-.977-.39c.066.16.187.261.352.304 3.007 1.086 2.425.914 1.992 3.785-.133.871-.567 1.739-.93 2.57-.656 1.52-.644 1.903.547 3.09.18.13.305.301.375.512-.961 2.934-2.828 5.227-5.07 7.23-4 3.59-8.774 4.688-13.957 3.958-11.004-1.54-18.508-7.79-23.27-17.621-2.023-4.188-4.008-8.418-5.574-12.778-2.008-5.59-2.04-11.215 2.11-16.14a7.24 7.24 0 0 1 3.777-2.516c1.773-.469 3.546-.95 5.41-.996Zm0 0"/>
    <path fill="#cedadf"
          d="M254.414 284.477c2.016-1.946 4.297-3.559 6.594-5.153 3.234-2.238 6.476-4.426 9.379-7.144a54.906 54.906 0 0 0 9.945-12.457 48.075 48.075 0 0 0 3.234-6.72 61.494 61.494 0 0 0 3.145-10.112c.441-2.004.762-4.024.957-6.067.227-2.137.332-4.277.316-6.426-.168-6.257-1.007-12.378-3.742-18.074a15.848 15.848 0 0 0-4.02-5.304c-.202-.18-.417-.313-.425-.61 1.832.594 3.191 1.926 4.598 3.125 7.824 6.7 12.675 15.262 15.44 25.055 2.013 7.137 2.778 14.394 1.493 21.762-1.433 8.175-5.582 14.941-11.183 20.925-4.645 4.957-10.168 8.735-15.993 12.133-.261.16-.691.172-.765.637.433.32.832 0 1.23-.063.465-.097.926-.222 1.38-.379-4.95 5.497-7.84 11.989-11.493 18.004-1.434 2.375-3.117 4.551-5.012 7.024-.465-10.442-1.719-20.485-5.078-30.156Zm0 0"/>
    <path fill="#f3f8fa"
          d="M232.3 316.625a71.886 71.886 0 0 0-6-19.012c-5.273-11.004-12.394-20.57-22.093-28.093-2.617-2.028-5.426-3.73-8.723-4.446a10.395 10.395 0 0 0-3.93-.117c-.44.066-1.085.016-1.156.64-.097.833.747.454 1.157.669l-2.13 2.109a33.733 33.733 0 0 1-1.714-3.625c-.399-.977-.285-1.477.902-1.617a26.63 26.63 0 0 0 6.008-1.414c1.531-.555 3.012-1.223 4.086-2.535.734-.887 1.05-1.907.957-3.055-.047-.871-.336-1.344-1.3-.945.288-1.582 1-2.079 2.82-1.973 2.28.14 4.355.973 6.347 2.008 4.73 2.465 9.2 5.3 12.836 9.285.207.23.426.73.793.375.324-.309-.097-.645-.265-.91-1.93-2.86-4.684-4.844-7.387-6.88a35.354 35.354 0 0 0-4.809-3.038c1.242-.375 2.285-.746 3.07-1.48 1-.926 1.961-.774 3.118-.38 5.32 1.825 9.398 5.38 13.156 9.371 8.113 8.625 13.508 18.856 17.437 29.915 1.56 4.382 2.875 8.843 3.5 13.472.172 2.559.012 5.082-.765 7.54-.145.449-.192 1.179-.695 1.14-.645-.047-.504-.805-.528-1.293-.219-5.106-1.754-11.04-5.379-16.227.024 5.012 1.008 9.985.883 15.055-.086 3.473-.82 6.793-1.656 10.106-.66 2.636-1.547 5.218-2.168 7.875a6.473 6.473 0 0 1-.211.761c-.2.528-.367 1.164-1.11 1.09-.742-.078-.831-.691-.902-1.273a33.696 33.696 0 0 0-3.387-11.297c-.289-.598-.34-1.274-.761-1.801Zm0 0"/>
    <path fill="#a3988f"
          d="M152.43 272.797c-1.188.57-2.485.695-3.758.894-4.61.72-7.336 4.801-8.129 8.875-.606 3.164-.285 6.309.652 9.329.692 2.238 1.844 4.335 2.809 6.492 1.621 3.636 3.059 7.367 5.21 10.746 3.47 5.437 8.177 9.406 14.204 11.762 4.578 1.793 9.305 2.433 14.129 1.152 3.418-.902 6.113-2.961 8.332-5.664a19.381 19.381 0 0 0 2.934-4.79c.156-1.007.734-1.866 1.015-2.831.113-.387.387-.75.848-.692.46.063.512.528.562.922.024.172.02-.043 0 .133-.625 7.668-3.086 14.352-9.922 18.75-3.48 2.242-7.238 3.516-11.382 3.621-1.297-.586-2.727-.648-4.094-.957-8.082-1.828-13.926-6.629-18.086-13.617-2.375-4-4.25-8.285-6.363-12.43-1.118-2.191-2.293-4.347-3.582-6.437-.094-.153-.164-.266-.07-.11l.019-.023c.512 1.32 1.715 2.36 1.504 3.957-.813.086-1.145-.559-1.535-1.055-2.13-2.71-4.68-4.984-7.34-7.144a14.423 14.423 0 0 0-2.547-1.637c-1.664-.844-2.695-.398-3.29 1.418-.655 2.008-.644 4.059-.425 6.125.71 6.695 3.34 12.687 6.688 18.426 1.644 2.808 3.453 5.504 5.69 7.879 2.24 2.375 5.04 4.054 8.048 5.37 3.387 1.473 6.96 2.446 10.328 3.954.48.219.98.39 1.445.64.387.215.778.415 1.18.602.555.305 1.129.57 1.719.793 2.93 1.348 6.066 1.98 9.168 2.738 2.656.653 5.05-.047 7.304-1.32 2.746-1.55 5.477-3.164 7.184-5.977.094-.148-.04.028.086-.097.437-.453.875-1.274 1.582-.7.707.575.46 1.317-.203 1.907-.371.976-.664 1.984-1.278 2.855-2.699 3.031-5.726 5.64-9.527 7.219-3.664 1.52-7.262 1.64-10.848-.355-1.605-.891-3.203-1.801-4.808-2.696-2.805-1.562-5.785-2.699-9.059-2.836a3.692 3.692 0 0 0-1.414.192c-.347.61.14.73.528.902l3.43 1.516c-.04.629-.528.457-.872.453a24.016 24.016 0 0 1-8.805-1.719c-1.613-.656-3.312-1.086-4.882-1.848-5.54-4.03-9.637-9.289-12.844-15.261a68.965 68.965 0 0 1-6.48-16.891 22.673 22.673 0 0 0-2.34-6.113c-.348-.551-.391-1.121-.13-1.715 2.04-5.707 5.891-10.086 10.243-14.11.945-.425 1.847-.05 2.656.297 1.902.829 3.66 1.914 4.887 3.672a30.007 30.007 0 0 0 1.93 2.356c-2.422-4.692-3.325-9.563.042-14.453 3.696-2.938 7.61-5.47 12.329-6.457.32-.086.64-.082.957.015.316.098.582.274.796.528 1.157 1.168 2.38 2.296 3.575 3.445Zm0 0"/>
    <path fill="#f1ede6"
          d="M210.414 151.504c2.844-2.703 6-4.973 9.473-6.805a42.445 42.445 0 0 1 10.965-3.984c4.761-1.055 9.582-1.07 14.418-1.055 4.832.02 9.558-.379 14.171-1.844.793-.265.684.262.598.704-.168.843-.766 1.472-1.16 2.203-2.328 4.297-5.309 8.152-8.195 12.066a2.777 2.777 0 0 0-.649 1.297 24.389 24.389 0 0 0 6.793-4.95c2.414-2.663 5.418-4.277 8.918-5.011.574-.164.703-.055.488.563a51.47 51.47 0 0 1-5.472 10.894c-2.246 3.473-4.563 6.86-7.567 9.742-.914.875-1.582 1.98-2.347 3.23 1.722-.25 3.011-1.148 4.425-1.695l2.375-1.34c.813.493.196 1.055-.023 1.461-1.348 2.524-3.09 4.77-4.898 6.98-4.176 5.106-9.403 8.9-15.036 12.196-1.398.82-2.52 2.051-4.054 2.664-.7.184-1.367.657-2.133.16-.766-.496-.824-1.074-.043-1.484 1.035-.547 1.25-1.168.492-2.07-.433-.512-.398-.992-.047-1.555.864-1.387.922-2.781-.023-4.18-.559-.824-.465-1.636.406-2.148.875-.512.926-1.227 1.055-2.094.234-1.582.394-3.086-.223-4.625-.117-.293-.098-.472-.445-.601-.977-.36-1.863-.895-2.938-1.055-1.168-.184-1.61-.992-1.601-2.309.886-2.375 1.715-4.75 1.992-7.3a21.573 21.573 0 0 0-.211-5.356c1.789-.578 3.125.434 4.371 1.399 1.246.964 2.11 2.343 2.75 3.886.438-1.375 0-2.636-.234-3.883-.114-.644-.313-1.273-.2-1.937-.84-1.016-1.777-1.895-3.125-2.223.204-.757.922-.28 1.278-.62-.035-.528-.559-.602-.836-.891-.89-.86.625-1.055.328-1.79-1.582.727-3.09 1.801-4.723 2.637a87.807 87.807 0 0 1-8.93 3.895c-2.374.898-4.82.926-7.257 1.11-1.805.128-3.106-1.395-3.008-3.22.012-.363-.05-.718.082-1.062Zm0 0"/>
    <path fill="#d0cbc2"
          d="m218.883 105.68 1.058-1.32c.95.527.461 1.296.235 1.898-.242.652-.406 1.215-.102 1.879.215.43.207.855-.02 1.281-.722 1.27-.605 2.637-.488 3.988.043.446-.004.88-.136 1.309a3.315 3.315 0 0 1-.633 1.156 3.275 3.275 0 0 1-1.024.824 3.319 3.319 0 0 1-1.261.371c-.528.059-1.055 0-1.563.18-7.828 1.242-14.933 4.442-21.894 8.059 1.984-.989 3.957-2.012 6.023-2.813 2.067-.8 4.164-1.64 6.274-2.406 3.183-1.152 6.402-2.156 9.785-2.555 1.648-.199 3.238-.082 4.746.672.168.703-.38.633-.766.672-.558.059-1.152-.02-1.597.496.167.41.507.172.765.2.703.077.988.527.66 1.085-.449.742-.527 1.582-.793 2.352-.453 1.27-1.101 1.637-2.433 1.347-.446-.097-.899-.44-1.254.157-1.348.746-2.899.98-4.278 1.664-5.07 2.52-9.93 5.394-14.582 8.62a48.22 48.22 0 0 1-7.167 4.138c-1.106.511-1.934.406-2.813-.5-2.07-2.137-2.305-4.032-.727-7.137l1.2-1.422c-2.262.348-4.703 3.848-4.93 7.422-.82-.164-.793-.934-1.023-1.492-.774-1.93-.504-3.93-.325-5.922.028-.301.153-.598 0-1.008-.754.336-.789 1.32-1.496 1.637-.215.941-.418 1.883-.61 2.82-.76.11-1.054-.527-1.437-.953-1.027-1.14-1.847-2.445-2.87-3.594-1.665-1.844-3.548-2.566-5.993-1.824-1.289.394-1.512.098-1.32-1.32.648-.579 1.258-1.215 1.957-1.73 1.496-1.11 3.023-2.09 5.043-1.243.496.21 1.12.172 1.687.164 1.07-.016 1.957.246 2.43 1.316.66.016 1.152.415 1.605.813 1.848 1.621 3.856 1.422 5.91.527 1.919-.82 3.223-2.398 4.579-3.886.648-.711 1.226-1.5 1.957-2.13 1.617-1.39 2.531-3.34 3.957-4.882a.9.9 0 0 0 .265-.961c-.793.156-1.43.605-2.113.941-4.598 2.254-9.39 3.957-14.46 4.68-2.669.383-5.43.617-8.04-.5-.559-.238-1.336-.344-1.297-1.242 3.727-.985 7.07-2.73 10.18-4.985 1.484-1.074 3.144-1.867 4.781-2.695.344-.578.934-.773 1.516-.957a26.912 26.912 0 0 1 4.77-1.039c-4.716-.66-9.286-.039-13.837.906-1.238.301-2.496.461-3.77.477-.503 0-1.085.117-1.23-.621 2.852-1.082 5.489-2.688 8.246-4.008 5.54-2.637 11.38-3.781 17.504-3.09 1.953.219 3.864.758 5.368 2.184.265.238.515.363.793.066.277-.293.199-.578-.09-.898-1.512-1.66-3.145-3.164-5.114-4.266-.144-.082-.343-.105-.316-.465 1.96-.476 3.996-.5 6.02-.324 3.62.32 7.074 1.262 10.222 3.133.57.332 1.086.734 1.555 1.195 1.558 1.567 1.625 1.996.547 3.89-1.074 1.9-1.633 3.958-2.324 5.993-.301.445.078 1.055-.528 1.46.844.169 1.164-.148 1.29-.741l1.265-2.614c1.098.059.289-.863.621-1.199.137-.84.59-1.523 1.105-2.168.54-.148.692-.574.735-1.062Zm0 0"/>
    <path fill="#c9c2ba"
          d="M169.871 331.39c2.29-.527 4.645-.675 6.86-1.558 6.011-2.371 10.378-6.469 12.585-12.535.922-2.54 1.098-5.356 1.582-8.05.051-.294.211-.81-.242-.907-.449-.098-.484.394-.574.719a6.09 6.09 0 0 1-1.273 2.543c-1.086.074-.829-1.098-1.422-1.54-.977-.726 0-1.222.285-1.902.648-1.531 1.32-3.11 1.387-4.816.046-1.028-.91-.934-1.504-1.149-.594-.215-1.258-.047-1.535-.765-.04-.11.097-.418.171-.426a2.25 2.25 0 0 1 1.778.668c.472.398 1.129 1.004 1.586.574.453-.43.98-1.215.605-2.078-.086-.195-.066-.434-.144-.637-.133-.351-.22-.703.16-.933.375-.23.453.28.691.386.946.414 1.113 1.528 1.906 2.067.309.387.493.828.555 1.316a9.249 9.249 0 0 0 1.04 3.168c.902 2.535 1.234 5.188 1.612 7.828.07.489-.203 1.399.575 1.352.558-.035.336-.899.343-1.383.149-7.3-1.582-17.012-10.863-24.312 1.73.378 3.207 1.289 4.574 2.375a14.24 14.24 0 0 1 4.239 5.293c.097.207.066.613.453.265.05-.047-.04-.238-.063-.363.59-.262.907.18 1.235.496a20.883 20.883 0 0 0 7.87 4.867c.27.07.473.223.618.461.441.66 1.18.719 1.848.832 2.683.445 5.21 1.48 7.859 2.047 2.973 1.644 5.863 3.379 7.516 6.543 1.675 3.215 1.355 6.414-.368 9.426-.964 1.683-2.902 2.343-4.617 3.129-3.898 1.785-8.066 2.683-12.21 3.644-5.173 1.195-10.325 2.465-15.434 3.906-1.192.336-2.282.903-3.383 1.446-.504.246-.984.61-1.606.43l-.222.03c.086-.152.152-.316.195-.484.059-.46.316-1.054-.184-1.32-.62-.313-.78.402-1.027.754-2.754 3.93-6.637 6.226-11.094 7.668-1.238.402-2.511.207-3.761-.082-3.223-.742-6.496-1.301-9.453-2.903.046-1.44-.907-.835-1.586-.777a1.392 1.392 0 0 1-1.055-.527c-.188-.442-.664-.555-.965-.86-.648-.66-1.3-1.367-.812-2.41.273-.597.03-.988-.399-1.375-3.445-3.125-7.156-5.93-10.812-8.808-1.485-1.168-2.953-2.348-4.47-3.473a2.318 2.318 0 0 1-.616-.676c-.106-.187-.243-.402-.055-.601.195-.168.398-.18.613-.036.801.368 1.547.829 2.239 1.375 2.53 2.032 5.195 3.895 7.707 5.958.18.195.394.347.64.453 2.16.566 3.297 2.5 4.992 3.691 1.04.734 2.036 1.524 3.371 1.621.383.027.489.25.622.555.804 1.848 2.336 2.433 4.015 1.617.238-.117.11-.266.145-.418.203-.965.898-.93 1.629-.758.207.051.472.352.234.442-.883.332.629.695-.047.964.352.262.63-.039.899-.148 1.054-.437 2.004-1.242 3.027-.969.414-.039.129-.215.226-.066.036.055 0 .09-.09.09-.742 0-1.492-.063-2.16.386-.312.207-.722.317-.949 0-.34-.496.024-.793.461-1.011 1.34-.309 2.707-.11 4.047-.328Zm0 0"/>
    <path fill="#f7f2ec"
          d="M228.129 166.844c.367 1.406 1.137 2.261 2.734 2.144.367.012.676.149.93.414.527.575 1.152.72 2.004.5-1.14 1.18.394 2.02.2 3.086-.247 1.317-.286 2.692-.49 4.032-.046.324-.448.48-.773.64-1.082.528-1.21 1.172-.468 2.035.793.93.906 3.344.054 4.22-.586.605-.578.886.028 1.456.902.856.566 1.941-.63 2.305-.312.097-.734.246-.562.547.239.425.66.851 1.278.687.414-.11.812-.293 1.222-.445.125.676-.43.914-.832 1.207-4.57 3.308-9.023 6.777-13.808 9.805-3.383 2.136-6.817 4.12-10.641 5.343-1.316.422-2.73.59-4.102.856-.382.074-.847.07-.87.601-.024.418.347.563.667.72.602.288 1.266.3 1.903.44l2.601 1.36c.04.355-.238.445-.48.527-4.582 1.406-9.168 2.754-14.04 2.719-1.558 0-3.007-.461-4.648-.89.895 1.917 2.54 2.636 4.164 3.374 1.118.48 2.403.606 3.262 1.602-.262.363-.684.351-1.07.367-5.32.2-10.469-.45-15.242-3.031a17.8 17.8 0 0 1-4.485-3.395c-.234 1.055 1.028 1.844.383 2.899-.203 1.398.84 2.281 1.387 3.367-.04.719-.485.492-.809.3a4.867 4.867 0 0 1-1.894-1.784c-1.688-3.008-3.02-6.168-3.633-9.563-.387-2.137-.328-4.297.726-6.289 3.297-.059 6.594-.246 9.813-1.004.715-.168.93.328 1.242.711 2.094 2.57 4.402 4.879 7.328 6.535 1.145.649 1.906.602 2.797-.465 2.375-2.836 4.438-5.8 4.879-9.586.082-.722.547-.789 1.016-1 10.199-4.265 18.378-11.011 24.707-20.043 1.613-2.312 2.859-4.824 4.152-7.304Zm0 0"/>
    <path fill="#ecf5f7"
          d="m189.633 261.242-3.719.809c-.574.18-.457.629-.406 1.054 0 0-.235.457.164.18.262 1.473.808 2.867 1.297 4.274-.688.933-1.696 1.128-3.168.605-.278-1.144-.633-2.281-.473-3.488-.168.758-.168.758-.68.965-.57-1.938-.222-3.88-.058-5.82.16-.16.328-.321.504-.02.265.488.258.972-.024 1.453.22-.078.188-.352.164-.418-.496-1.473.446-2.813.371-4.238-.027-.27.02-.528.133-.77.117-.246.29-.441.512-.594 1.074-.656.293-.957-.191-1.363.101.422.406.863-.184 1.16-.887 1.774-1.09 3.719-1.402 5.637-.352 2.172.074 4.34.062 6.516-.137.957-.867.976-1.582.984-3.117.047-6.082-.715-9.012-1.684-3.656-1.203-6.93-3.164-10.183-5.16a46.782 46.782 0 0 1-8.555-6.957c-1.637-1.644-3.164-3.41-4.953-4.894-.418-.344-.902-.766-.586-1.453 1.723-3.38 2.664-6.918 2.336-10.758-.148-1.742 1.316-3.23 3.277-3.43.957-.102 1.93 0 2.903-.066 4.187-.23 7.449-1.864 8.968-6.036.485-1.32 1.848-.66 2.688-1.214.41-.266.527.644.723 1.027 3.75 7.121 8.304 13.715 12.925 20.27.47.667.871 1.39 1.602 1.867.43.285.68.32.96-.098 1.25-.988 1.786-.898 2.388.379.168.355.25.793-.114.93-1.285.488-.554 1.34-.336 1.972.586 1.696 2.391 2.371 3.375 3.77.266.363.805.281 1.239.336.382.05.863.043.945.527.082.54-.367.746-.781.918a7.609 7.609 0 0 1-2.055.547c.293.262.625.082.914.168.645.203 1.602.14 1.582 1.058-.023.762-.863.696-1.457.79-.172.027.035-.032-.121.046-.11.047-.082.157.008.22Zm0 0"/>
    <path fill="#cac4bb"
          d="M214.402 124.367c.016-.484.043-.887.746-.648 2.13.73 2.66.379 2.946-1.883.02-.172-.047-.395.043-.527.758-1.032 1.402-1.942-.746-1.223-.262.09-.391-.293-.489-.527-.101-.23.059-.414.262-.504.527-.239.95-.754 1.668-.512.188.078.379.102.582.066.2-.035.375-.12.524-.257 1.164-.497 1.69.554 2.402.933-1.488-1.48-3.48-1.828-5.54-1.965-.632-.043-1.32.2-1.863-.367.286-.273.614-.344.985-.21 1.406.366 1.984-1.044 3.05-1.427.337-.12.403-.933.333-1.558-.172-1.492-.567-3.055.488-4.426a.82.82 0 0 0 .059-.117c.46-.883-.864-1.555-.317-2.375.543-.817.79-1.582.418-2.492 2.7-3.2 6.129-5.48 9.656-7.63 2.657-1.616 5.356-3.163 8.036-4.745.886-.114 1.406.699 2.214.89.555.13.235.828-.214 1.121-.766.504-1.188 1.192-1.125 2.094.042.629.12 1.41 1.12.77.145-.094.34 0 .43.187-1.625 2.09-3.648 3.785-5.515 5.637a51.522 51.522 0 0 0-3.836 4.16c-2.07 2.547-2.711 5.54-2.836 8.727-.078 2.039-.399 4.027-1.793 5.66-.262.293-.445.582-.035.879.488.359.59-.157.789-.387 1.61-2.02 2.972-4.223 4.914-5.992 1.492-1.356 3.054-2.578 4.957-3.477-.168 4.098-1.453 7.63-4.02 10.738 2.43-2.308 4.586-4.816 6.996-7.07.63.02.332.48.329.75 0 4.426-1.188 8.38-4.801 11.442 1.183-.317 2.16-.684 2.976-1.399.223-.195.485-.398.825-.203-.149.488-.094.895.433 1.121.3.895-.527.887-.953 1.078-.836.383-1.73.64-2.523 1.117-.356.215-.864.317-.766.914 1.582.223 3.164.024 4.746-.03 2.961-.102 5.723.843 8.441 1.75 4.625 1.542 9.25 2.405 14.102 1.421.176.008.348.035.516.082-2.825 1.973-5.871 2.832-9.04 3.371-3.917.664-7.882.59-11.831.684-8.215.195-16.165 1.457-23.477 5.476-.133-.156-.145-.32-.043-.496a7.9 7.9 0 0 0 1.402-3.996 7.427 7.427 0 0 1-1.195 2.813c-.266.414-.562.93-1.23.73-.02 0-.04-.066-.036-.101a.465.465 0 0 1 .04-.125c.492-1.532.746-3.102.761-4.715.02-1.61-.199-3.184-.656-4.727-.387-1.363-.922-2.64-1.871-3.719-.203-.226-.676-.57.137-.578.957-.324 1.582.172 2.16.844 1.285 1.512 1.89 3.324 2.293 5.102a10.755 10.755 0 0 0-.907-5.102c-.32-.742-.062-1.105.79-.848l3.875.282c-.114-.7-.836-.383-1.106-.746 0-.684.637-.75 1.027-1.032 1.426-1.035 1.547-1.742.493-3.238-.332 2.266-1.157 2.723-3.372 1.844-1.597-.633-3.226-1.055-4.976-.953-.625.035-1.324.187-1.852-.356Zm0 0"/>
    <path fill="#cedadf"
          d="M147.664 248.02c.063.753.649 1.167 1.156 1.523 1.985 1.41 3.43 3.363 5.11 5.059 3.36 3.367 7.191 6.046 11.28 8.418a37.316 37.316 0 0 0 11.536 4.402c1.496.332 3.012.469 4.543.41.469-.023.883-.043.984-.613.602.187.528.746.625 1.191.223 1.07.512 2.13.872 3.164-.18-1.222-1.18-2.402-.512-3.82.203-.11.383-.082.543.078 1.117.57 2.152.203 3.168-.273 1.168 1.55 1 2.898-.086 4.582-2.43 3.754-4.656 7.66-5.54 12.144-.093.469-.152.945-.245 1.555-2.496-1.258-4.957-2.477-7.516-3.48-6.512-2.551-12.84-5.45-18.488-9.665-.84-.625-1.254-1.16-.844-2.246a8.143 8.143 0 0 0 .547-3.492c-.129-1.91-1.426-3.394-3.258-3.574-3.473-.336-5.988-2.219-8.094-4.828a1.674 1.674 0 0 1-.386-1.34c.12-1.219.355-2.457-.387-3.586-.192-.285-.031-.465.176-.668.28-.262.476-.688.8-.856 1.805-.925 2.918-2.492 4.016-4.085Zm0 0"/>
    <path fill="#d7c9be"
          d="M127.64 183.703c1.032 1 2.11 1.969 3.098 3 2.985 3.082 6.473 3.04 10.192 1.715 2.64-.941 5.113-2.309 7.812-3.09 3.63-1.055 7.188-.527 10.738.438 5.997 1.629 12.036 2.918 18.282 3.289 4.683.277 9.261.101 13.785-1.114 5.445-1.457 9.93-4.394 13.57-8.718 3.317-3.946 5.54-8.371 6.496-13.426.266-1.399.078-2.8.14-4.2.017-.398-.3-.492-.585-.605 1.422-.21 2.852-.394 4.27-.644.87-.153.562.472.542.804-.242 3.266-1 6.407-2.273 9.422-3.957 9.719-11.2 16.278-20.312 21.008-6.692 3.48-13.797 5.336-21.364 5.273-5.367-.035-10.21-1.906-14.941-4.203-2.567-1.234-5.082-2.648-8.106-2.09a6.9 6.9 0 0 0-1.847.528c2.562.027 4.976.64 7.238 1.844-4.375 2.086-8.547 4.453-13.488 2.902-6.285-1.961-10.54-6.223-13.246-12.133Zm0 0"/>
    <path fill="#f4f9f9"
          d="m189.633 261.242-.594-.058c.383-.649 1.106-.372 1.555-.696.129-.09.355-.16.379-.261a.433.433 0 0 0-.328-.504c-.637-.098-1.239-.504-1.915-.262-.359.129-.77.219-.843-.25-.094-.527.39-.613.789-.602.82.024 1.515-.39 2.27-.59a.41.41 0 0 0 .277-.156.405.405 0 0 0 .086-.308c-.047-.29-.317-.282-.528-.266-1.168.106-2.09-.16-2.355-1.484 0-.04-.051-.106-.074-.106-1.7.106-1.684-1.66-2.606-2.398-.238-.188-.64-2.344-.484-2.547.023-.04.05-.07.086-.094.726-.496.726-.496-.047-1.629-.461.098-.637.852-1.274.547.43-1.879 1.66-3.238 2.985-4.516 2.234-2.164 4.953-3.601 7.722-4.937 2.246-1.086 4.485-2.227 6.79-3.164 7.277-2.941 13.898-7.047 20.433-11.316.266-.18.566-.352 1.16-.72a50.636 50.636 0 0 0-5.437 12.227c-.602 2.082-1.055 4.188-.282 6.328.149.418-.035.672-.23.958-2.418 3.539-5.367 6.468-9.344 8.253-.652.34-1.312.348-1.976.028-1.868-.824-3.813-1.301-5.883-1.004-2.207.312-2.934 1.078-3.043 3.277a7.197 7.197 0 0 0 .039 1.965c.277 1.207-.234 1.883-1.227 2.418a15.765 15.765 0 0 1-6.101 1.867Zm0 0"/>
    <path fill="#cac4bb"
          d="M184.066 280.734c1.582-4.734 4.602-8.511 8.07-11.984.09-.09.196-.168.294-.262 2.55-2.449 2.55-2.457 5.734-.922 3.426 1.66 6.344 4.043 9.078 6.653a71.639 71.639 0 0 1 11.617 14.187c-.082.735-.757.79-1.23.985-5.129 2.214-10.469 2.77-15.957 1.89-3.957-.636-7.738-1.847-11.23-3.894-2.422-1.43-4.165-3.59-6.169-5.469a.898.898 0 0 1-.32-.555.888.888 0 0 1 .113-.629Zm0 0"/>
    <path fill="#504f4b"
          d="M182.219 245.945c-1.512-2.402-2.957-4.851-4.551-7.195-2.168-3.184-4.39-6.328-6.207-9.73-.309-.579-.606-1.16-.938-1.723-.707-1.2-1.355-2.375-.144-3.676.262-.281.316-.812.36-1.238.171-1.582-.477-2.172-2.071-1.824-.79.171-1.316.02-1.762-.711-.683-1.118-1.422-2.215-2.422-3.094-.64-.559-.375-.887.286-1.055 1.136-.297 2.289-.55 3.43-.828.425-.11.78.004 1.066.34 1.757 1.715 3.539 3.387 5.757 4.539.766.398.98 1.281 1.125 2.133.79 4.683 2.243 9.054 5.508 12.703 2.793 3.121 3.203 3.21 6.574.773 2.918-2.109 6.13-3.742 9.235-5.562a498.11 498.11 0 0 0 10.445-6.328c6.945-4.328 13.86-8.735 19.992-14.184 5.164-4.59 9.758-9.703 13.188-15.777.656-1.176 1.094-2.473 2.035-3.477.738.059.582.664.602 1.082a16.86 16.86 0 0 1-.45 5.024 17.026 17.026 0 0 1-1.906 4.672c-2.016 3.425-4.668 6.328-7.469 9.129-5.23 5.214-11.293 9.312-17.55 13.167-3.512 2.165-6.985 4.407-10.57 6.442-2.708 1.543-5.606 2.723-8.4 4.101-4.027 1.985-7.976 4.075-11.19 7.317-1.176 1.183-1.848 2.66-2.731 4.02-.293.445-.492 1.058-1.242.96Zm0 0"/>
    <path fill="#a3988f"
          d="M86.734 223.227c-.129 1.46-1.058 2.656-1.32 4.093-.73 4.051-.062 7.934 1.336 11.715.77 2.086 1.754 4.09 2.637 6.133.215.484.508 1.055.035 1.45-.426.35-.91-.075-1.336-.266-2.281-1.075-4.05-2.704-5.309-4.891a8.005 8.005 0 0 0-1.265 4.324c-.133 4.336.343 8.63 2.636 12.395 2.278 3.691 4.973 7.207 9.211 8.808 3.286 1.239 6.778 1.07 10.227.477 1.734-.297 3.293-1.133 4.996-1.5-1.25 1.406-2.516 2.8-3.75 4.223-2.027 2.324-3.852 4.789-4.867 7.746-.195.566-.399.628-.93.472-11.87-3.457-20.012-11.047-24.844-22.304-2.175-5.067-.746-9.598 2.348-13.809 1.293-1.754 2.602-3.492 3.977-5.336 1.363 2.777 3.187 5.012 5.273 7.047.281.262.582.855 1.059.457.472-.399 0-.813-.203-1.16-.977-1.563-1.977-3.11-2.965-4.66-3.258-5.141-2.973-8.97 1.074-13.512.613-.68 1.09-1.516 1.98-1.902ZM184.559 333.766c3.543-2.141 7.562-2.903 11.48-3.996 7.016-1.946 14.32-2.836 21.066-5.774a16.344 16.344 0 0 0 3.735-2.144c1.398-1.13 1.722-2.856 1.945-4.465.594-4.254-1.457-7.309-4.785-9.676-1.129-.79-2.414-1.39-3.34-2.469 3.86.23 7.621-.164 11.188-1.765.543-.247.77-.118.953.402 1.887 5.3 3.312 10.707 3.715 16.351.773 6.188-1.625 9.997-7.121 12.293-3.364 1.407-6.899 1.997-10.52 2.11-.309.015-.617 0-.918-.047-.398-.066-.812-.145-.879-.64-.07-.497.297-.68.66-.864.305-.152.696-.113 1.055-.527a12.228 12.228 0 0 0-4.965-.207c-4.172.574-8.394.789-12.516 1.73-3.164.723-6.355 1.332-9.324 2.735-1.054.496-1.234.382-1.425-.485-.192-.863.593-1.703-.004-2.562Zm0 0"/>
    <path fill="#5f5146"
          d="M171.57 161.973c-.36-.301-.367-.703-.465-1.078-.625-2.399-2.636-3.524-5.039-2.852-3.02.836-5.156 2.871-7.039 5.23-2.168 2.715-4.535 5.426-4.906 8.989-.195 1.879-1.219 2.406-2.422 3.386-2.324 1.903-4.062.942-6-.437-3.43-2.445-6.86-4.902-9.68-8.055-2.05-2.281-3.976-4.656-4.859-7.71-.312-1.079-.324-2.15-.41-3.239-.098-1.266.508-1.39 1.516-1.148a17.888 17.888 0 0 1 7.46 3.71c1.887 1.563 3.973 2.88 5.704 4.633.812.825 1.507.77 2.441-.015 4.441-3.746 9.23-6.946 14.809-8.793a31.469 31.469 0 0 1 7.05-1.43c1.157-.11 2.247.266 3.32.656 1.079.395 1.118 1.407 1.216 2.285.191 1.653-.473 3.09-1.426 4.387-.38.531-.84.985-1.27 1.48Zm0 0"/>
    <path fill="#a3988f"
          d="M184.066 280.734c-.02.364.11.668.383.914 2.422 2.176 4.504 4.696 7.543 6.196a33.998 33.998 0 0 0 10.067 3.144c4.918.746 9.757.32 14.433-1.511.809-.317 1.582-.707 2.375-1.055a77.383 77.383 0 0 1 6.594 12.07c.379.848-.149.953-.668 1.192-4.195 1.914-8.54 2.109-12.977 1.086-1.754-.403-3.5-.82-5.324-.688a3.889 3.889 0 0 0-1.531.297c-3.133-.734-5.711-2.477-8.125-4.5-.527-.445-.887-1.098-1.582-1.32-1.633-3.43-3.816-6.329-7.203-8.239a12.624 12.624 0 0 0-4.2-1.398c-.722-.121-.925-.383-.87-1.098a17.08 17.08 0 0 1 1.085-5.09Zm0 0"/>
    <path fill="#cfdadf"
          d="M232.3 316.625c1.083.43 1.126 1.582 1.505 2.414 1.586 3.457 2.738 7.066 3.011 10.899.028.421.102.828.606.863.453.023.578-.395.648-.715 1.23-5.441 3.387-10.688 3.918-16.262.367-3.68.27-7.351-.3-11.008-.266-1.632-.293-3.304-.387-4.96-.055-.95.078-1.915-.324-2.989 2.59 2.75 6.293 9.516 6.523 18.59.512-1.867 1.145-3.691 1.188-5.672.019-.945-.247-1.937.296-2.836 1.125 4.953 1.383 9.985 1.286 15.031-.024 1.055-.266 2.11-.18 3.153.281 3.527-2.508 4.656-4.766 6.281 1.844-6.312 1.317-12.684.969-19.082-.68.063-.606.582-.695.898-.465 1.48-.68 3-.645 4.551.344 6.996-1.351 13.582-3.91 20.004a3.21 3.21 0 0 0-.129.371c-.266.973-.484 1.762-1.848 1.098-.671-.328-1.511-.18-2.261.484-.793.707-1.903 1.075-2.86 1.606-.324.176-.507.265-.61-.23-.144-.735-.44-.79-.866-.126-.832 1.293-2.16 2.028-3.348 2.918-.625.477-1.262.227-1.844-.129a5.34 5.34 0 0 1-1.93-2.109c.356-.324.81-.328 1.223-.434 1.91-.488 1.91-.488 2.676 1.118.465-.086.578-.504.746-.84 1.547-3.102 2.54-6.328 2.504-9.852-.039-4.355.18-8.707-.195-13.035Zm0 0"/>
    <path fill="#3f3f3a"
          d="M153.234 266.762c.528 1.316-.265 2.508-.316 3.87-1-.359-1.816-.968-2.445-1.827.472-.461 1.535.183 1.488-.692-.027-.554-.992-.449-1.473-.472-3.152-.188-6.18-.059-9.187 1.43-5.25 2.6-9.57 6.355-13.895 10.167-3.77 3.325-7.344 6.82-10.195 10.992a33.977 33.977 0 0 0-3.25 5.825c-.61 1.437-.602 3.148-.82 4.746-.07.527.078 1.054.793.738.605-.262.687.121.75.531.082.528-.106.79-.7.848-1.722.176-3.164-1.125-3.222-3.023a18.282 18.282 0 0 1 1.5-8.032c.156-.355.504-.77.133-1.297-1.106.555-1.09 1.926-2.02 2.72-1-1.981-2.012-3.934-3.332-5.673-1.32-1.738-2.48-3.66-5.078-3.515.926.316 1.32 1.132 1.883 1.847-1.203.133-2.266-.996-3.477-.242-.058.031-.262-.074-.316-.164-.114-.215-.067-.469.195-.527.703-.145.527-.614.496-1.11-.2-2.867.399-5.539 2.082-7.91a.593.593 0 0 1 .332.195c.926 1.114 1.422 1.16 2.344.051 1.144-1.379 2.277-2.77 3.43-4.144.843-.996 1.652-2.035 2.582-2.965.355-.356.699-.836 1.34-.57.164.265-.024.449-.196.613 2.68-3.73 6.363-6.156 10.508-7.957.727-.313 1.375-.777 2.11-1.055a12.13 12.13 0 0 1 1.007-.281c.34-.078.86-.336 1.055.125.172.41-.262.683-.598.898-1.39.758-2.52 1.868-3.71 2.88-.68.585-1.321 1.073-2.282 1.175-.957.102-1.754.773-2.45 1.441a101.772 101.772 0 0 0-8.59 9.434 8.722 8.722 0 0 0-1.858 3.606 3.115 3.115 0 0 0 .023 1.812c.117.332.297.703.164 1.027-.594 1.446.32 2.313 1.18 3.2 1.054 1.086 1.34 1.078 2.152-.235.817-1.308 1.582-2.734 2.535-3.996a39.119 39.119 0 0 1 4.485-4.992c.347-.356.761-.59 1.246-.703 1.46-.422 2.449-1.676 3.851-2.196.117-.066.223-.144.32-.23.5-.324 1.028-.414 1.395.125.332.484-.105.816-.441 1.082-1.739 1.36-3.164 3.016-4.547 4.723-.77.957-1.762 1.82-1.926 3.164-.105 1.187-1.078 1.87-1.633 2.797-1.129 1.87-2.375 3.668-2.672 5.875.793-1.008 1.422-2.204 2.204-3.297 3.296-4.63 7.503-8.32 11.812-11.934a76.498 76.498 0 0 1 9.785-6.894c1.32-.79 2.828-1.2 4.153-1.989 2.277-1.105 4.75-1.261 7.21-1.582 1.665-.234 2.872.649 4.086 1.567Zm0 0"/>
    <path fill="#cac3bb"
          d="M205.434 154.445c-4.243 4.114-7.954 8.746-12.5 12.805-.993-2.277-2.04-4.273-3.516-6.016-3.594-4.242-7.93-7.12-13.629-7.57-.297-.023-.586.02-.719-.39-.558-1.704-2.09-2.282-3.535-2.903-2.023-.851-4.156-1.36-6.254-1.98 9.73-.735 18.625 1.054 25.614 8.812-.618-3.035-5.137-6.406-12.82-9.691.609-.356 1.195-.676 1.76-1.032.571-.351.821-1.007 1.173-1.542l1.215.527c.375-.11.773 0 1.242-.102-.793-.84-1.75-1.468-2.172-2.523-.164-.414-.691-.953.129-1.32l5.012 1.882c.843.442.347 1.016.046 1.672.895-.105 1.293.36 1.68 1.016 1.024 1.765 2.504 3.129 4.203 4.222 2.801 1.817 5.707 3.395 9.086 3.907.992.152 1.906-.067 2.856-.188.41-.023.965-.332 1.129.414Zm0 0"/>
    <path fill="#c2bfb6"
          d="M216.219 215.586c-4.106 3.02-8.555 5.512-12.801 8.32-5.781 3.828-12.078 6.82-17.727 10.864-.402.289-.671.265-1.007-.04-.774-.71-1.582-1.382-2.188-2.257-.601-3.055-.976-6.086 1.176-8.77.445-.555.96-1.031 1.742-1.055.656.485.793 1.524 1.785 1.653.59-.168.863.32 1.215.61.649.526 1.32.991 2.34 1.144-.594-1.235-1.422-2.14-1.941-3.23-.903-1.884-.895-1.93 1.054-2.157 3.43-.36 6.696-1.27 9.594-3.227.45-.304 1.082-.476 1.14-1.156.024-.293-.394-.527-1.34-.832 4.196-.492 8.177-1.601 11.688-4.086 2.453.54 3.883 2.356 5.27 4.219Zm0 0"/>
    <path fill="#d8c9bf"
          d="M205.973 207.441c-.793.422-2.758-.093-3.036-.855-.273-.762.266-1.168.922-1.227 4.524-.406 8.48-2.28 12.332-4.535 6.032-3.531 11.52-7.832 17.145-11.945.129-.125.234-.27.32-.426 2.375-1.539 4.774-3.055 7.121-4.621 3.36-2.227 6.657-4.523 9.391-7.543 2.637-2.922 5.195-5.89 7.121-9.348.246-.433.57-.879.332-1.437.996-.852 1.957-1.582 3.469-1.414.89.105 1.844-.399 2.902-.656-.094 2.058-.86 3.855-1.863 5.55-1.988 3.36-4.625 6.192-7.488 8.801a157.52 157.52 0 0 1-38.157 25.809 44.04 44.04 0 0 1-8.132 3.02c-.579.152-1.141.421-1.797.163-.594-.23-.645.203-.582.664Zm0 0"/>
    <path fill="#75746f"
          d="M153.234 266.762c-.144.133-.015.734-.25.457-2.488-2.942-5.468-1.684-8.359-1.043-.934.21-1.832.574-2.746.867-.719.043-.95-.469-1.156-1.004-.043-.566-.461-.266-.692-.266-2.75.184-5.277 1.282-7.886 2.004-.997.297-1.915.793-2.903 1.094-.902.117-1.965.621-2.672-.027-.914-.84-1.8-1.805-2.242-3.047-.07-.207-.187-.473-.086-.637.88-1.437.465-3.555 2.34-4.46.172-.134.348-.266.508-.395.055-.051.074-.145.16-.313l-1.945.434c-2.399.722-4.528 2-6.672 3.238-.25.172-.512.313-.793.422-.668.055-1.32.043-1.89-.379-.575-.422-.91-.965-.43-1.687 5.574-4.668 11.671-8.211 19.093-8.883a12.15 12.15 0 0 1 5.403.82c.73.262 1.097.633.87 1.582-.335 1.39.098 2.7 1.087 3.762 1.402 1.512 2.738 3.097 4.664 3.996.277.156.539.332.789.527-.61.66-1.613.606-2.11 1.446.528.347 1.04.195 1.528.078a15.456 15.456 0 0 1 3.246-.465c1.48-.055 2.562.476 3.144 1.879Zm0 0"/>
    <path fill="#a39890"
          d="M127.355 252.773c.79-.988 1.973-1.28 3.047-1.718 5.961-2.438 10.493-6.41 13.301-12.25 1.457-3.035 2.156-6.184 1.172-9.532-.125-.414-.32-.937.176-1.171.242-.13.5-.172.77-.133.273.039.507.152.702.344.54.46.989.992 1.352 1.601.39.758.742.723 1.352.129 1.418-1.387 3.132-2.352 4.921-3.203 1.036-.492 1.41-.356 1.082.832 3.958-.41 5.305-2.313 5.348-6.149.016-1.449.02-2.902.027-4.347 2.57 2.328 3.54 5.273 3.133 8.652-.367 3.063-3.093 5.645-6.375 6.121-.968.14-1.953.348-2.949.145 0-.41.348-.414.527-.567.309-.261 1.024-.261.766-.84-.277-.613-.863-.19-1.266-.027-1.832.735-3.386 1.832-4.464 3.528l-.399.62c-.656-1.081-.86-2.351-2.078-3.027.184.906.422 1.809.527 2.727.684 5.562 0 10.762-4.132 15.004-.91.933-2.22 1.437-2.836 2.687-.172.356-.489.137-.692.067-4.238-1.414-8.387-.79-12.512.5a1.651 1.651 0 0 1-.5.007Zm0 0"/>
    <path fill="#8a8177"
          d="M184.559 336.32c.105.793.62.477.964.309 4.204-2.059 8.758-2.902 13.305-3.563 3.957-.566 7.93-1.265 11.965-1.187.793.016 1.55.238 2.336.293.266.023.574.09.527.422-.02.172-.238.344-.398.48a.712.712 0 0 1-.363.125c-.614.09-1.602.016-1.516.758.074.652 1.055.316 1.621.293 4.355-.184 8.621-.86 12.422-3.164 3.445-2.078 5.152-5.219 5.05-9.285 0-.528.02-1.055.032-1.582.48 2.656.266 5.332.144 7.992-.09 2.137-.472 4.262-.707 6.394-.109.989-.449 1.582-1.558 1.918a58.247 58.247 0 0 1-13.625 2.41 58.237 58.237 0 0 1-13.809-.874c-2.043-.368-4.097-.758-6.215-.852 2.008-1.035 4.18-1.414 6.328-1.844 1.891-.379 3.81-.593 5.711-.894.442-.067 1.153.086 1.106-.586-.043-.528-.7-.375-1.113-.395-6.996-.36-13.453 1.5-19.504 4.875-1.453.805-2.883 1.657-4.485 2.418 1.024-1.328 1.38-2.902 1.782-4.46Zm0 0"/>
    <path fill="#3f3f3c"
          d="M182.219 245.945c.812-.355 1.054-1.191 1.39-1.86 1.778-3.585 4.848-5.773 8.118-7.765 4.062-2.476 8.441-4.336 12.714-6.386a42.411 42.411 0 0 0 4.004-2.258c4.485-2.793 9.024-5.54 13.453-8.453a84.355 84.355 0 0 0 11.758-9.41c.18.171.293.378.34.617.047.242.024.476-.074.703a48.05 48.05 0 0 0-6.649 7.73c-1.492 2.168-3.558 3.465-5.609 4.828-3.121 2.082-6.328 4.032-9.496 6.067-3.691 2.37-7.7 4.164-11.734 5.879-3.09 1.32-6.082 2.832-9.028 4.437a25.272 25.272 0 0 0-5.91 4.29c-.57.57-.945 1.25-1.398 1.886-.309.43-.442 1.281-1.106 1.11-.508-.126-.66-.856-.773-1.415ZM252.648 285.75a78.849 78.849 0 0 1 3.72 15.582c.632 4.633 1.128 9.266 1.32 13.938.039 1.054-.149 1.902-.918 2.726-1.512 1.629-2.883 3.387-4.536 5.067.395-9.793-.714-19.336-3.761-28.622a.8.8 0 0 0 .277-.57c.426-3.117 2.082-5.652 3.898-8.121Zm0 0"/>
    <path fill="#fcfbe7"
          d="M214.613 131.79c1.93 3.226 2.184 6.698.813 10.089-1.844 4.582-5.012 8.02-10.024 9.215a11.29 11.29 0 0 1-6.09-.317c.547-.554 1.274-.433 1.946-.511.586-.075 1.129-.23 1.32-.871.192-.637-.02-1.055-.527-1.454-.7-.543-.867-1.18.031-1.75.606.141.844.73 1.297 1.055.777.559 1.512.453 2.004-.36 1.687-2.773 2.062-5.687.887-8.757a5.498 5.498 0 0 0-.387-.828c-.965-1.633-2.317-1.633-3.34 0-.3.476-.383 1.082-.871 1.441-.848.262-1.258-.21-1.535-.91a69.355 69.355 0 0 1 9.742-6.594 9.771 9.771 0 0 1 4.734.551Zm0 0"/>
    <path fill="#c4bfb6"
          d="M240.055 97.031c-.598-.172-1.32 1.121-1.832-.176-.313-.789.125-2.507.855-2.964.313-.196.902-.164.793-.692-.133-.574-.559-.176-.91-.18-.602 0-.637-.98-1.32-1.054 2.445-1.867 4.898-3.723 6.457-6.64 2.554 2.745 4.484 5.777 5.597 9.23a45.267 45.267 0 0 1 2.164 11.82 45.138 45.138 0 0 1-1.011 11.969 11.9 11.9 0 0 1-.555 1.57c-.793 1.914-2.234 3.309-3.79 4.594-.663.55-.718.527-1.257.125 2.5-5.082 3.82-10.445 3.645-16.113-.149-4.79-1.43-9.176-5.094-12.551-.414-.383-.395-.656-.145-1.117a10.539 10.539 0 0 0 1.364-4.22c.023-.304.277-.792-.243-.87-.367-.063-.402.394-.503.664a17.816 17.816 0 0 1-2.836 5.011c-.73.297-1.75.344-1.364 1.598Zm0 0"/>
    <path fill="#767570"
          d="M223.613 255.191c-2.867-1.949-5.906-3.554-9.394-4.48 1.261-1.543 2.636-2.809 3.652-4.383.383-.598.895-.36 1.402-.23 4.45 1.125 8.38 3.254 12 6.03a38.267 38.267 0 0 1 7.555 7.602c.418.625.895 1.207 1.426 1.739-.691.894-1.117.922-2.133 0-.023 1.054-.594 1.543-1.512 1.68-.554.081-.918.464-1.316.82-.637.574-1.285.55-1.805-.153-1.117-1.5-2.441-2.836-3.441-4.418a3.164 3.164 0 0 0-1.766-1.273c-1.437-.43-2.34-1.496-3.426-2.34-.39-.297-.726-.59-1.242-.594Zm0 0"/>
    <path fill="#9a938b"
          d="M181.402 84.055c.735 5.96 3.57 10.773 7.536 14.992.265.285.667.613.515.988-.086.211-.601.262-.933.363-1.32.34-2.66.59-3.958 1.02-.917.309-1.57.082-2.253-.5-2.032-1.73-2.856-4.04-3.29-6.563-.199-1.386-.25-2.78-.144-4.183a.762.762 0 0 0-.563.758c-.109 1.562-1.128 2.586-2.058 3.68-2.98 3.527-5.106 7.44-5.39 12.171-.044.649-1.587 1.485-2.141 1.18-.395-.215-.22-.629-.203-.945a21.866 21.866 0 0 1 1.32-6.153c2.137-6.144 5.273-11.66 10.324-15.93.234-.199.465-.402.707-.59.172-.109.348-.206.531-.288Zm0 0"/>
    <path fill="#a29990"
          d="M214.402 124.367c2.598-.113 5.102.09 7.543 1.211 1.582.734 2.375-.027 2.22-1.781-.024-.285-.317-.555-.083-.863 1.984.984 2.207 3.097.441 4.3-.457.313-.953.575-1.43.86-.773-.168-1.534-.36-2.312-.496a12.659 12.659 0 0 1-2.246-.489l2.813-.777c-.414-.625-.946-.574-1.442-.566-2.785.03-5.355.867-7.804 2.109-5.766 2.938-11.047 6.621-16.184 10.527-1.816 1.383-3.648 2.75-5.883 3.41-2.754.817-4.96.176-6.46-1.863-1.7-2.304-1.716-4.629-.04-7.074.39-.574.774-1.168 1.356-1.582-.496 1.703-1.172 3.367-.286 5.187a7.268 7.268 0 0 0 2.012 2.387c.559.465 1.164-.023 1.688-.265 3.43-1.582 6.527-3.692 9.632-5.801a91.901 91.901 0 0 1 13.454-7.535c.937-.418 1.996-.598 3.011-.899Zm0 0"/>
    <path fill="#a3988f"
          d="M216.219 215.586c-.73-.688-1.535-1.316-2.18-2.078-.848-1.008-2.082-1.395-3.082-2.145l.992-1.054c1.133-1.196 1.02-1.602-.586-2.11-.242-.078-.484-.18-.925-.344 5.89-2.046 11.246-4.796 16.601-7.542 2.375-.063 3.86 1.023 4 2.949-3.277 3.691-7.121 6.75-11.043 9.715-1.219.925-2.516 1.742-3.777 2.609Zm0 0"/>
    <path fill="#6a6964"
          d="M223.613 255.191c.371-.437.91-.414 1.117-.015.567 1.113 1.848 1.34 2.547 2.222.47.586 1.203.434 1.801.832 1.426.942 2.098 2.344 3.07 3.579.579.73 1.368 1.27 1.844 2.14.23.418.906.227 1.192-.285.238-.473.62-.734 1.144-.789.969-.078 1.629-.316 1.383-1.496-.031-.149.176-.422.344-.527a.333.333 0 0 1 .32.003c.105.055.164.141.184.258.3 1.43 1.054.594 1.695.356 1.566 1.734 2.742 3.742 3.934 5.726 1.144 1.914 2.109 3.938 3.164 5.914 1.367 2.008-.317 3.164-1.301 4.457-.926 1.227-2.137 1.868-3.73 1.344a108.172 108.172 0 0 0-6.4-10.5c-1.44-2.086-3.066-4.023-4.651-5.992-.657-.813-.793-2.04-1.758-2.547-2.082-1.082-3.477-3.016-5.422-4.254a4.082 4.082 0 0 1-.477-.426Zm0 0"/>
    <path fill="#f69b78"
          d="M247.355 107.781c.48 6.035-1.054 11.606-3.875 17.219-.09-1.844-.851-1.031-1.648-.488.793-2.637 1.477-5.082 1.39-7.649-.046-1.254-.292-2.422-1.081-3.449-.633-.82-1.192-1.055-1.957-.102-.918 1.165-1.942 2.243-3.164 3.637.425-1.824.89-3.273 1.054-4.785.156-1.582-.183-1.812-1.66-1.191-2.516 1.054-4.46 2.882-6.441 4.668-.317-.45 0-.758.265-1.04 3.258-3.62 6.637-7.054 10.864-9.652 3.632-2.25 5.816-.386 6.253 2.832Zm0 0"/>
    <path fill="#d6c9bf"
          d="M255.285 166.86c-1.3 1.367-3.137 1.605-5.094 2.476a11.93 11.93 0 0 1 2.754-4.191c3.27-3.211 5.711-7 8.203-10.797 2.094-3.188 3.465-6.657 4.977-10.09l-.363-.137c2.527-.86 4.8-2.293 7.312-3.394.192.949-.172 1.636-.496 2.347-4.078 8.863-9.758 16.508-17.262 22.785-.277.22-1.273.641-.03 1Zm0 0"/>
    <path fill="#a39890"
          d="M169.559 117.523c1.093 1.168 2.546 1.477 4.03 1.582 5.516.422 10.641-1.171 15.704-3.113 1.926-.738 3.754-1.672 5.61-2.555.335-.16.742-.578 1.054-.265.367.355.016.86-.203 1.18-.59.867-1.262 1.671-1.914 2.492-2.238 2.812-4.469 5.664-7.27 7.93-3.164 2.562-5.605 2.288-9.37-.626-.083-1.238.655-1.277 1.652-1.332 4.746-.261 9.132-1.582 12.984-4.46.426-.274.738-.645.934-1.11-.48.32-.942.684-1.446.961-6.465 3.563-13.289 4.188-20.37 2.402a6.284 6.284 0 0 1-2.142-1 6.306 6.306 0 0 1-1.628-1.714Zm0 0"/>
    <path fill="#9e8474"
          d="M153.203 157.61c-1.937 1.5-3.914 2.952-5.8 4.523-.75.625-1.184.39-1.762-.13-2.243-2.034-4.567-3.956-7.16-5.538-2.075-1.266-4.286-2.211-6.723-2.492-.684-.075-.754-.309-.574-.93.394-1.34 1.304-2.14 2.523-2.684 3.145-1.39 6.516-1.68 9.879-1.906 1.703-.117 3.43-.027 5.129-.031 1.32.281 2.676-.078 4 .203l1.273.063c.313.25.805-.102 1.106.367a7.575 7.575 0 0 1-1.207 1.316c-1.375.129-2.692-.285-4.047-.383-3.328-.25-6.653-.36-9.969.106a12.15 12.15 0 0 0-3.902 1.113c-.395.2-.79.469-.813.957-.02.488.446.762.848.89 3.844 1.216 7.648 2.583 11.797 1.196 2.07-.691 4.152-1.363 6.219-2.07.921.597.757 1.664.554 2.34-.3 1.05-.578 2.203-1.37 3.09Zm0 0"/>
    <path fill="#3f3f3c"
          d="M233.902 211.133a2.13 2.13 0 0 1-.261-1.32c2.015-2.18 4.015-4.372 5.828-6.731 2.836-3.691 4.183-7.836 3.914-12.488a1.823 1.823 0 0 0-.262-.574.667.667 0 0 1 .082-.102c1.79-1.32 1.738-1.238 3.629-.082 1.223.742 2.61 1.223 3.957 1.734.645.243.66.371.313.98-.793 1.356-1.157 2.903-1.797 4.333-.723 1.629-1.844 2.96-2.668 4.512-.793 1.484-2.375 2.011-3.692 2.812a43.5 43.5 0 0 0-8.441 6.434c-.191.175-.39.34-.602.492Zm0 0"/>
    <path fill="#fdfdfb"
          d="M202.004 146.254c-.3.664-.617 1.289.508 1.539.425.094.578.547.46 1.07-.148.625-.07 1.38-.886 1.543-.918.184-1.848.246-2.777.364-4.614-.7-8.258-2.852-10.668-7.067 3.836-.43 6.789-2.445 9.672-4.601.593-.442 1.207-.86 1.808-1.286.504.188.703.895 1.371.805.242.375.66.399 1.031.484.848.196 1.247.766 1.32 1.583.075.816-.28 1.511-.984 1.683-1.582.383-1.254 1.336-.949 2.395.145.48.469.976.094 1.488Zm0 0"/>
    <path fill="#d8c9be"
          d="M210.414 151.504c.133.465.43.793.207 1.434-.422 1.214 1.535 2.62 3.11 2.558 5.785-.223 10.847-2.566 15.847-5.18 1.582-.828 3.117-1.742 4.645-2.668.265-.156.527-.468.793-.195.328.317-.192.512-.22.774-.073.695-1.16.835-.894 1.695-.636-.09-1.054.336-1.535.633-4.86 3.05-9.703 6.132-15.199 7.972-4.11 1.371-8.273 1.88-12.547.887.137-.793-.36-1.586 0-2.375a45.388 45.388 0 0 1 5.793-5.535Zm0 0"/>
    <path fill="#d7c9be"
          d="M172.195 199c-.175 1.16-.449 2.313-.504 3.473-.183 3.695 1.168 7.007 2.739 10.238.672 1.394 1.234 2.902 2.761 3.691.297.157.434.215.61-.074.84.988 2.008 1.707 2.508 3.176a18.875 18.875 0 0 1-4.704-1.961c-3.753-2.133-6.609-5.164-8.82-8.844-1.285-2.137-1.523-4.289-.445-6.633 1.687-3.656 1.629-3.691 5.61-3.164.085.024.167.055.245.098Zm0 0"/>
    <path fill="#e17253"
          d="M247.355 107.781c-.238-.496-.476-1-.718-1.496-1.094-2.222-2.48-2.652-4.625-1.445a32.816 32.816 0 0 0-9.535 7.86c-.817.995-2.016 1.663-2.52 2.937-.352.207-.574.207-.512-.305.29-2.352.528-4.695 2.016-6.707a43.807 43.807 0 0 1 5.672-6.207c1.781-1.629 3.527-3.3 4.976-5.242.442-.598.715-.711 1.262-.098 2.719 3.059 3.965 6.649 3.984 10.703Zm0 0"/>
    <path fill="#5c5b58"
          d="M242.32 278.91c.414-.14.727-.293 1.282-.191 1.293.238 1.793-1.106 2.605-1.817.113-.097.066-.406.18-.472 1.36-.817 1.398-1.996.96-3.32 1.696 3.1 3.016 6.37 4.258 9.675.364.977.688 1.969 1.032 2.957.082 1.133-.848 1.793-1.367 2.582a14.347 14.347 0 0 0-2.157 5.36c-.043.226.149 1.054-.664.746-1.46-5.028-3.472-9.84-5.738-14.555-.152-.3-.262-.633-.39-.965Zm0 0"/>
    <path fill="#cbc5bd"
          d="M167.184 146.492c-2.278.145-4.551.266-6.739 1.012-.793.266-1.562-.082-2.34-.152-.64-.059-.425-.563-.402-.91.2-2.665 1.738-4.41 3.942-5.684 2.109-1.223 4.535-1.88 6.632-3.653.207 3.024.953 5.665 2.875 7.84-.047.63-.5.438-.71.25-.946-.847-2.032-1.613-2.274-2.816.023.644.578 1.258.937 1.937 1.079 2.067 1.094 2.055-1.156 2.086a1.465 1.465 0 0 0-.765.09Zm0 0"/>
    <path fill="#fcfcf5"
          d="M178.79 145.727c-1.595 1.582-2.61 1.656-4.134.25-3.754-3.461-5.383-7.567-3.734-12.63.773-.988 1.68-.69 2.598-.261 1.18 1.46 2.355 2.93 3.542 4.383.204.25.395.457.192.793-.383.656-.316 1.054.441 1.535.692.426.09.969-.414 1.105-.578.153-.629.457-.62.938 0 .98.183 1.922.546 2.832.293.71.758 1.168 1.582 1.082Zm0 0"/>
    <path fill="#fcfbf4"
          d="M212.363 183.996c-.554-.543-.98-1.156-1.566-1.496-1.188-.684-.95-1.25-.2-2.156 2.348-2.824 4.04-6.043 5.29-9.492.312-.86.597-1.008 1.32-.383a106.87 106.87 0 0 0 3.766 3.086c.504.394.629.672.18 1.242a58.474 58.474 0 0 1-8.208 8.703Zm0 0"/>
    <path fill="#d7c9be"
          d="M176.418 212.957c-.145-1.281-1.102-2.36-.934-3.852.848.793 1.582 1.598 2.438 2.239a23.6 23.6 0 0 0 12.09 4.594c2.285.214 4.55.156 6.824.175.36.047.664.196.918.453-5.414 2.938-14.774 4.024-19.563-1.363-.636-.715-1.187-1.496-1.773-2.246Zm0 0"/>
    <path fill="#8a8077"
          d="M147.402 338.188c.993-.852 2.243-.653 3.266-.415 2.75.641 5.492 1.434 7.871 3.051a38.427 38.427 0 0 0 5.395 2.922c3.691 1.719 7.261.945 10.738-.754 2.898-1.414 5.215-3.59 7.523-5.77.246-.253.535-.437.864-.558-1.782 4.07-5.036 6.66-8.852 8.625-2.937 1.512-6.027 2.371-9.363 1.395-2.254-.672-3.996-2.172-5.703-3.672-3.375-2.957-7.453-4.13-11.739-4.825Zm0 0"/>
    <path fill="#fdfcfc"
          d="M224.172 161.023c3.266 2.848 3.293 2.985 1.371 6.774a48.95 48.95 0 0 1-2.785 4.746c-.34.527-.528.613-1.055.164-1.43-1.21-2.933-2.336-4.41-3.496a.832.832 0 0 1-.156-.496c0-.18.05-.348.156-.496 1.613-3.035 3.637-5.7 6.879-7.196Zm0 0"/>
    <path fill="#d8c9be"
          d="M256.828 149.129c.047.394-.18.664-.45.898-1.76 1.567-3.581 3.055-5.667 4.172-.465.281-.969.41-1.512.383 1.004-1.93 2.375-3.492 3.582-5.148a103.54 103.54 0 0 0 6.672-10.27c.219-.387.809-.918 0-1.355 1.965-.852 3.922-1.711 5.43-3.457 0 1.949-1.746 5.68-4.223 9.214-1.926 2.75-4.406 5.012-6.75 7.403 1.153-.34 1.863-1.36 2.918-1.84Zm0 0"/>
    <path fill="#8a7362"
          d="M153.203 157.61c.18-1.794 1.656-3.325 1.055-5.278-.04-.082-.063-.176-.016-.234.91-1.078.91-1.078-.234-1.899-.082-.605.199-.957.867-1.11l-.879-.41a62.906 62.906 0 0 1 15.8 2.68c-5.878.586-11.16 2.692-16.01 5.961-.188.11-.38.207-.583.29Zm0 0"/>
    <path fill="#5e5d5a"
          d="M115.504 262.031c-.129 1.785 1.195 1.703 2.355 1.848.094.652-.55.715-.863.973-1.457 1.18-2.7 2.586-4.156 3.757-1.621.7-2.348 2.309-3.488 3.485-1.301 1.347-2.375 2.902-3.579 4.351-1.316 1.61-2.148 1.477-2.945-.437.914-2.012 2.375-3.66 3.75-5.336a54.31 54.31 0 0 1 8.926-8.64Zm0 0"/>
    <path fill="#c16150"
          d="M177.887 94.332c.343 1.297.644 2.61 1.054 3.887a7.87 7.87 0 0 0 1.489 2.613c1.199 1.438 1.191 1.418-.586 2.3-2.043 1.013-4.063 2.067-6.098 3.09-.527.266-1.055.614-1.691.65-.23-3.216 2.855-9.829 5.832-12.54Zm0 0"/>
    <path fill="#fbfcfb"
          d="M266.02 199.227c-6.008-.676-11.512-.122-17.067 2 1.547-2.375 2.762-4.622 3.559-7.07.293-.91.789-1.2 1.828-.708 3.472 1.656 6.98 3.242 10.39 5.012.332.18.649.387 1.29.766Zm0 0"/>
    <path fill="#edf5f7"
          d="M149.879 211.215c2.973-1.028 6.039-1.434 9.137-1.63 1.613-.1 3.242-.058 4.855-.179.824-.058 1.32.211 1.664.918.512 1.04 1.485 1.793 1.828 2.938-1.09.3-2.242.465-3.258.925-1.847.844-3.308.653-5.07-.554-2.683-1.836-5.898-2.34-9.156-2.418Zm0 0"/>
    <path fill="#d8c9be"
          d="M193.563 214.512c-1.829-.09-4.137-1.778-4.63-3.38-.062-.206-.18-.429 0-.605.184-.18.387.024.57.121 2.138 1.137 4.462 1.141 6.767.973 4.222-.316 8.261-1.582 12.28-2.824l1.958.55.023.383c-5.539 3.543-11.406 5.54-18.176 3.61 0 .32.262.45.489.613.222.164.492.371.719.559Zm0 0"/>
    <path fill="#a39891"
          d="M171.965 108.613c1.12.617 2.297.262 3.402.055 4.39-.79 8.758-1.75 13.262-1.414 1.176.078 2.332.254 3.476.527-2.535.735-5.19.934-7.59 2.07-1.374-.742-2.613 0-3.663.626-1.243.746-2.395.933-3.809.789-2.309-.223-4.66-.016-6.934-.618-.703-.183-1.37-.492-2.3-.832Zm0 0"/>
    <path fill="#8a8178"
          d="M134.773 275.254c-.082 1.23-.867 2.207-1.273 3.324-1.043 2.86-.605 5.559.39 8.27.458 1.242.81 2.535 1.583 3.668a7.13 7.13 0 0 1-2.325-2.168c-1.91-2.809-4.5-4.52-7.89-4.965 3.039-2.871 6.117-5.688 9.515-8.13Zm0 0"/>
    <path fill="#a3988f"
          d="M185.414 222.648c-2.375 1.547-3.133 3.813-2.945 6.536.074 1.09.023 2.191.027 3.289-2.766-3.286-3.875-7.254-4.746-11.532a10.12 10.12 0 0 0 3.66.508c.465-.02 1.016.098 1.293-.426.336-.625-.305-.894-.57-1.316 1.933.066 2.898 1.184 3.281 2.941ZM166.09 125.656c0 1.055.285 1.32 1.457.973 3.371-1.004 4.824.281 7.305 3.355.925 1.145 1.656 2.453 2.863 3.352v2.976c-1.598-2.109-3.082-4.03-4.766-5.785-1.027-1.07-1.976-2.25-3.394-2.847-1.246-.528-1.973-.09-2.063 1.336.34-.77.727-1.348 1.582-.672.676.527 1.586.949.715 2.015a.657.657 0 0 0-.059.118c-.875 1.996-.875 2-2.558.59-.402-.337-.793-.7-1.164-1.055-2.07-2.04-2.063-2.336.082-4.356Zm0 0"/>
    <path fill="#888076"
          d="M136.805 337.48c.386-.293.722-.074 1.097.075 3.008 1.152 5.973 2.468 9.203 2.879 1.407.18 2.825.503 4.258.171 2.23.79 4.34 1.813 6.313 3.657a45.865 45.865 0 0 1-7.453-.79c-4.953-.91-9.493-2.769-13.418-5.992Zm0 0"/>
    <path fill="#e9d9b1"
          d="M194.855 193.379c.532-.356 1.13-1.031 1.668-.73.45.265.22 1.136.18 1.734-.25 3.691-2.195 6.562-4.566 9.23-.457.508-.793.117-1.137-.074-2.664-1.496-4.82-3.59-6.996-5.98l2.176-.614c.789 1.63 2.308 2.352 3.851 2.946a2.03 2.03 0 0 0 1.484.07 2.04 2.04 0 0 0 .665-.363c.199-.164.36-.356.488-.578.945-1.438 1.828-2.903 1.824-4.692a1.34 1.34 0 0 1 .363-.95Zm0 0"/>
    <path fill="#8a8077"
          d="M231.04 203.266c-.575-2.012-2.274-2.496-4-2.95 4.05-2.488 8.202-4.808 12.16-7.511-2.337 3.789-4.923 7.379-8.16 10.46Zm0 0"/>
    <path fill="#fdfbf6"
          d="M194.855 193.379c.141 2.289-.757 4.203-2.058 6.016-.871 1.214-2.031 1.152-3.129.757-1.219-.441-2.29-1.23-3.27-2.113-.363-.324-.582-.652-.218-1.11a82.818 82.818 0 0 0 8.675-3.55Zm0 0"/>
    <path fill="#a49890"
          d="M238.988 126.496c-1.336 1.227-2.91 1.906-4.718 2.04 4.19-3.384 5.582-7.692 5.39-12.63.488-.527.887-1.554 1.524-1.355.707.226.793 1.32.828 2.082.175 3.64-.707 6.976-3.024 9.863Zm0 0"/>
    <path fill="#f7f6e5"
          d="M198.52 192.332c-.266.082-.356-.09-.418-.32-.059-.23-.079-.504.21-.676.454-.262.891-.559 1.32-.848a44.086 44.086 0 0 0 8.759-7.515c.496-.559.77-.594 1.32-.098 1.937 1.734 1.95 1.742-.094 3.223a54.14 54.14 0 0 1-10.238 5.855Zm0 0"/>
    <path fill="#e9d8b4"
          d="M151.645 196.629a331.436 331.436 0 0 1 3.414-1.941 2.554 2.554 0 0 1 1.894-.375c1.55.351 1.98.992 1.785 2.593a16.817 16.817 0 0 1-1.652 5.512c-.73 1.477-.95 1.535-2.402.844-2.164-1.028-3.723-2.719-5.168-4.57-.7-.895-.563-1.317.543-1.454.828.899 1.496 1.934 2.328 2.832.242.313.527.582.851.813.688.398 1.442.851 2.2.32.378-.277.667-.633.859-1.062.195-.434.27-.883.219-1.356-.047-.941-.813-1.238-1.582-1.535-1.059-.414-2.258.008-3.29-.621Zm0 0"/>
    <path fill="#e9d8b0"
          d="M224.172 161.023c-1.438 1.118-2.899 2.215-4.086 3.61-1.184 1.398-2.29 2.793-2.8 4.578-.528-.121-.712-.41-.528-.95.867-2.671 1.597-5.366 1.508-8.214 0-.164.043-.43.14-.473.832-.383 1.68-.722 2.547-1.02.598-.19.918.407 1.32.704a8.67 8.67 0 0 1 1.899 1.765Zm0 0"/>
    <path fill="#f8f9f7"
          d="M157.824 206.281a16.15 16.15 0 0 0 3.574-7.73c0-.043 0-.11.028-.125.969-.621 1.664.394 2.535.437.328.016.851.11.5.727-1.113 1.953-2.05 3.957-2.02 6.285 0 .355-.261.406-.55.406Zm0 0"/>
    <path fill="#fcfcf5"
          d="M151.645 196.629c1.515 0 3.039-.098 4.421.75 1.274.793.938 1.82.485 2.851-.43.985-.887 1.942-2.297 1.454-2.184-.754-3.266-2.524-4.195-4.446Zm0 0"/>
    <path fill="#a3978f"
          d="M245.23 124.629c.461.363.715-.078.965-.297 1.23-1.074 2.477-2.14 3.332-3.566.196-.32.32-.73.75-.856-.484 2.903-1.968 5.367-3.468 7.832-1.223 2.008-2.743 2.938-5.082 1.738 1.406-1.386 2.445-3.125 3.503-4.851Zm0 0"/>
    <path fill="#d7c9be"
          d="M236.598 153.656c.668 2.168 1.41 4.336.527 6.875-1.395-3.46-3.344-6.043-7.219-6.332.262-.98 2.004-2.168 3-2.02 1.317.196 2.54.665 3.45 1.716a.11.11 0 0 0 .109-.024c.05-.066.094-.14.133-.215Zm0 0"/>
    <path fill="#a39990"
          d="M205.434 154.445c-.18-.277-.43-.265-.696-.168-3.285 1.055-6.191-.25-9.031-1.582a22.334 22.334 0 0 1-5.715-3.886c-.637-.586-1.32-1.215-1.715-1.961-.558-1.028-1.109-1.82-2.636-1.262.402-.883 1.582-1.223.808-2.164.496.086 1.082 0 1.281.664 1.196 3.984 4.266 6.039 7.84 7.535 3.91 1.633 7.684 1.961 11.543 1.055Zm0 0"/>
    <path fill="#e9d7b0"
          d="m224.793 160.266-2.902-2.11a74.279 74.279 0 0 0 6.558-3.558c.246 1.652.32 3.144-.035 4.644-1.137.594-2.207 1.414-3.621 1.024Zm0 0"/>
    <path fill="#a29890"
          d="M178.3 130.512c.266-.551.497-1.106.774-1.64.211-.407.617-.806 1.016-.677.547.176.222.735.18 1.137-.239 2.023-.625 4.04.078 6.066.199.66.472 1.293.816 1.891.266.957.414 1.961.973 2.848-1.61-.457-2.903-1.992-3.403-4.028-.41-1.636-.265-3.297-.18-4.953 0-.215.356-.629-.253-.644Zm0 0"/>
    <path fill="#a29992"
          d="M189.871 220.668c-.375.418-.941.066-1.414.363.492 1.723 1.461 3.188 2.566 4.57.16.2.45.38.266.66-.184.282-.476.184-.726.153-1.45-.184-2.297-1.332-3.375-2.11.23-.89-.59-1.374-.813-2.097-.145-.492-.379-.953-.621-1.535Zm0 0"/>
    <path fill="#403229"
          d="M170.086 162.203c0 .434.043.871-.176 1.281-.273.528-.437 1.336-1.133 1.266-.48-.043-.445-.805-.574-1.281a5.461 5.461 0 0 0-2.086-3.07c-.226-.172-.676-.227-.601-.59.074-.364.511-.457.836-.551 2.488-.707 3.753.297 3.734 2.945Zm0 0"/>
    <path fill="#a29992"
          d="M220.254 128.563c-.7.019-.742.292-.441.882 1.054 2.012 1.054 4.168.808 6.594-.59-.687-.512-1.36-.68-1.922-.527-1.758-1.09-3.46-2.437-4.824a2.176 2.176 0 0 0-1.586-.73 12.25 12.25 0 0 1 4.336 0Zm0 0"/>
    <path fill="#a2978e"
          d="M235.18 130.73c-.504-.68.035-.937.507-1.156a84.579 84.579 0 0 1 3.344-1.484.53.53 0 0 0 .39-.469c1.056-.2 1.599-1.2 2.54-1.582.195 1.844-1.297 3.621-3.168 3.871-1.23.16-2.535.02-3.613.82Zm0 0"/>
    <path fill="#a3978f"
          d="M165.824 223.938c.164-.422-.414-1.168.121-1.372a12.394 12.394 0 0 1 3.063-.593c.363-.04.195.382.125.613-.367 1.234-1.11 2.16-2.235 2.789-.867.492-1.296.387-1.082-.73.024-.235.024-.473.008-.708Zm0 0"/>
    <path fill="#989186"
          d="M168.766 112.031c2.039-.304 2.726 1.055 3.402 2.406.07.145.238.317.043.45a4.35 4.35 0 0 1-2.07.699c-.496.047-.528-.61-.66-.992-.282-.82-.481-1.668-.715-2.563Zm0 0"/>
    <path fill="#a39991"
          d="M167.184 146.492c.761-.457 1.64-.027 2.507-.308-.613-1.426-1.656-2.649-1.796-4.266.68.95 1.437 1.832 2.27 2.652.265.243.417.895.987.375l1.7 1.547Zm0 0"/>
    <path fill="#a49c92"
          d="M217.55 142.3c.774.173.856-.527 1.114-.933.707-1.097 1.012-2.375 1.399-3.656.503 1.441.074 3.11-1.45 5.762l-2.191 1.441Zm0 0"/>
    <path fill="#f6f3e9" d="M224.793 160.266c1.32.015 2.309-1.055 3.621-1.024-.035 1.29-.437 2.485-.84 3.664Zm0 0"/>
    <path fill="#a49991"
          d="M181.43 141.535c-.278 1.672 1.12 2.348 1.992 3.324.219.243.625.309.746.825-.68.043-1.32.261-1.938-.215-.136-.828-.93-1.196-1.32-1.864-.5-.875-1.039-1.707-.754-2.835.535.058.867.476 1.274.765Zm0 0"/>
    <path fill="#e6d7b5"
          d="M214.613 131.79c-.113.058-.242.179-.347.163-1.465-.23-2.93-.484-4.399-.73.235-.192.473-.371.723-.54 2.472-1.488 2.527-1.472 4.023 1.106Zm0 0"/>
    <path fill="#af5d59"
          d="M177.04 112.559c-1.075.867-2.083 1.148-2.977 1.629-.286.152-.528.128-.66-.145-.22-.414-.606-.813-.512-1.29.082-.37.53-.187.793-.19 1.004-.012 2.004-.004 3.355-.004Zm0 0"/>
    <path fill="#e4d4b1"
          d="M173.516 133.086c-.868.078-1.774-.203-2.598.266.168-.852.336-1.7.527-2.653a10.157 10.157 0 0 1 2.07 2.387Zm0 0"/>
    <path fill="#cac4bb"
          d="M215.148 112.715c.375.812-.039 1.058-.777 1.183a.702.702 0 0 1-.437-.05.683.683 0 0 1-.325-.297c-.265-.324.11-.422.29-.555.347-.262.085-.793.48-1.004.125.336-.285.77.144 1.024.286.168.422-.196.625-.301ZM240.055 97.027l-.79-1.011c.79-.067 1.274-.942 2.16-.586-.538.453-.73 1.218-1.37 1.597Zm0 0"/>
    <path fill="#d3ccc4" d="M194.367 305.504a3.682 3.682 0 0 1-1.039-3.168 10.932 10.932 0 0 1 1.04 3.168Zm0 0"/>
    <path fill="#f4f9f9"
          d="m185.68 263.277-.098.868c-.117-.793-.578-1.551-.164-2.352.113-.211.293-.36.508-.203.074.05 0 .3 0 .46-.086.41-.164.817-.246 1.227Zm0 0"/>
    <path fill="#8a7362" d="M152.734 148.629c-1.336-.05-2.687.277-4-.2 1.336-.007 2.68-.21 4 .2Zm0 0"/>
    <path fill="#cac4bb"
          d="M217.04 108.906c.054.156.065.36.175.465.324.332.387.707.062 1.012-.367.344-.527-.266-.859-.266.172-.43.242-.898.621-1.21Zm0 0"/>
    <path fill="#fcfcf5" d="M178.79 145.75c.331-.57.792-1.055 1.058-1.668 0 .766-.02 1.512-1.059 1.648Zm0 0"/>
    <path fill="#cac4bb" d="M218.883 105.68c.316.746.36 1.3-.738 1.054l.738-1.054Zm0 0"/>
    <path fill="#a29890"
          d="M102.297 218.266c-1.074-2.239 0-4.141 1.008-6.02.285-.527.738-.226.804.238.618 4.352 4.086 6.29 7.184 8.532.66.476 1.367.89 2.144 1.73-2.84-.203-5.402 1.29-8-.219-1.406-.812-2.68-1.656-2.867-3.445.625-.187.672.414.918.703.723.867 1.504 1.64 2.586 2.047-.672-1.078-1.879-1.637-2.511-2.758-.63-1.12-.508-2.37-.446-3.61-.789.821-.113 2.013-.82 2.802Zm0 0"/>
    <path fill="#291912"
          d="M102.297 218.266c-.031-1.317-.172-2.688 1.082-3.641.101.094.16.129.156.148-.847 2.872.434 4.864 2.637 6.508.316.239.898.578.582 1.024-.313.445-.79-.047-1.137-.23-1.316-.688-2.226-1.794-3.047-2.993-.101-.27-.191-.543-.273-.816Zm0 0"/>
    <path fill="#cecabf"
          d="M165.602 331.918c-.149.363-.329 1.035.32.613 1.031-.672 2.043-.117 3.066-.277-1.75-.25-2.843 1.223-4.347 1.582-.301.074-.63.266-.848-.024-.293-.402.262-.3.355-.488.38-.773-.472-.496-.699-.828l1.055-.219c-.691-.156-1.18-.265-1.582.106-.457.426.375.62.195 1.12-.785.024-1.558.126-2.32.306-1.012.238-2.129-.575-2.61-1.622-.25-.527-.351-.609-.949-.828-1.074-.398-2.289-.882-3.11-1.847-.82-.961-2.16-1.395-2.823-2.653-.262-.488-1.395-.433-1.965-.851a281.579 281.579 0 0 1-7.996-6.137 11.039 11.039 0 0 0-3.07-1.734c.335.355.687.687 1.054 1.004 4.867 3.77 9.82 7.421 14.387 11.558.324.29.738.488 1.027.805.29.32.594.652.383 1.164-.527 1.277-.313 2 .914 2.562.543.266.527.473.3.875-4.94-2.02-10.112-3.472-14.859-5.925-3.066-1.582-5.52-4.016-7.562-6.797a59.399 59.399 0 0 1-8.059-14.828c-1.492-4.07-2.484-8.313-2.183-12.707.105-1.54.281-3.164 1.648-4.282.594-.48 1.16-.617 1.918-.238 3.59 1.809 6.383 4.57 9.121 7.422.969 1.004 1.64 2.281 2.84 3.066.977.61 1.219 1.688 1.602 2.641 1.726 4.27 3.46 8.54 5.597 12.629 3.137 5.996 7.668 10.523 13.918 13.25 1.309.527 2.657.91 4.043 1.144.446.106.934.043 1.239.438Zm0 0"/>
    <path fill="#291811"
          d="M165.602 331.918c-8.176-1.055-13.899-5.762-18.184-12.461-2.875-4.48-4.66-9.508-6.7-14.402-.456-1.086-.984-2.149-1.48-3.223-.449-1.687-1.511-3.11-2.133-4.719l.29-.195c.605.945 1.242 1.871 1.808 2.836 2.774 4.726 4.945 9.758 7.48 14.617 3.126 5.973 7.286 10.918 13.5 13.871a28.63 28.63 0 0 0 7.891 2.395c.613.097 1.48-.168 1.797.746-.504.832-1.336.46-2.031.527-.738.059-1.488.008-2.238.008Zm0 0"/>
    <path fill="#cecabf"
          d="M157.426 336.668c.527-.86 1.27-.668 1.879-.211.5.379.113.742-.29.988a3.343 3.343 0 0 1-1.59-.777Zm0 0"/>
    <path fill="#251811"
          d="M214.93 116.98c1.66.043 3.328-.035 4.937.528 1.395.492 2.559 1.242 3.297 2.582-1.055-.61-1.945-1.543-3.226-1.715-5.805-1.469-11.004.86-16.258 2.715a112.882 112.882 0 0 0-10.91 4.57c-.293.14-.57.422-1.22.215 7.481-4.172 14.97-7.715 23.38-8.895Zm0 0"/>
    <path fill="#2d251e"
          d="M181.254 127.441c.469.29.89.637 1.484.61.512-.02 1.028 0 1.68 0-1.211.996-2.508.73-3.164-.61Zm0 0"/>
    <path fill="#cecabf"
          d="M156.598 333.078c.37.262 1.054.238 1.172.832.054.25-.329.363-.602.348a.985.985 0 0 1-.664-.238.965.965 0 0 1-.344-.614c-.055-.238.102-.414.438-.328Zm0 0"/>
    <path fill="#24201d"
          d="M183.191 267.871c.375 1.625.75 3.246 1.13 4.871-1.294-1.644-1.551-3.625-2.048-5.523-.437-3.992-.265-7.934.961-11.79.094-.292.102-.695.301-.843.477-.363.184.215.309.316a17.815 17.815 0 0 1-.871 4.672 18.311 18.311 0 0 0 0 6.227c.593.633.414 1.351.218 2.07Zm0 0"/>
    <path fill="#f4f9f9"
          d="M182.973 259.574c.047-1.601.34-3.16.87-4.672.626-.707-.261-.691-.488-.996.95-.445.95-.445 2.11 1.614-.367.386-.793-.79-1.14.039-.177.43-.84.765-.262 1.347a.64.64 0 0 1 .156.332c-1.531 1.211.015 3.192-1.262 4.68ZM183.191 267.871c-.304-.664-.175-1.379-.222-2.07.039-.672.078-1.348.113-2.024l.461-.043c-.106 1.395.543 2.676.262 4.094Zm0 0"/>
    <path fill="#585752"
          d="M126.574 260.715c-.625.894-1.703 1.601-1.21 2.969.038.105-.11.34-.231.437-1.195.961-.48 1.879.11 2.73.39.567.96.993 1.292 1.63.332.636 1.008.113 1.52.285.324.113.757-.094 1.14-.153.149.332-.101.5-.312.614-3.27 1.734-6.004 4.218-8.969 6.382a1.68 1.68 0 0 1-.23.133c-2.188 1.38-3.664 3.465-5.305 5.387-1.32 1.535-2.11 3.402-3.277 5.043-.555.793-.946.723-1.543.133a11.776 11.776 0 0 1-1.864-2.196c-.265-.457-.558-.921-.082-1.433.223-.207.27-.453.149-.73-1.012-2.274.125-4.075 1.351-5.801.996-1.383 2.07-2.7 3.223-3.957a169.827 169.827 0 0 1 5.434-5.696c.96-.969 1.94-1.941 3.511-1.898.567.015.961-.543 1.399-.91 1.265-1.047 2.39-2.262 3.894-2.97Zm0 0"/>
    <path fill="#65655f"
          d="m140.824 265.988 1.055 1.055c-.168.27-.402.445-.711.527-4.371 1.7-8.07 4.485-11.75 7.309a88.452 88.452 0 0 0-8.254 7.277 38.443 38.443 0 0 0-6.644 8.547c-.211.367-.387.684-.793.79a.493.493 0 0 1-.457-.122.496.496 0 0 1-.02-.473c1.11-1.996 1.766-4.222 3.125-6.09.633-.874 1.434-1.652 1.793-2.714.246-1.082 1.055-1.813 1.738-2.578a39.396 39.396 0 0 1 12.778-9.57c2.3-1.094 4.511-2.36 6.832-3.41.445-.161.718-.747 1.308-.548Zm0 0"/>
    <path fill="#2a231f"
          d="M139.75 266.754c-3.672 1.926-7.488 3.57-11.031 5.762-4.121 2.543-7.543 5.8-10.551 9.566-.184 0-.703.238-.39-.238a34.645 34.645 0 0 1 3.566-4.688c1.023-1.11 2.027-2.242 3.289-3.11.226-.155.64-.35.387-.698-.254-.344-.649-.282-1.036-.024-1.218.813-2.468 1.582-3.695 2.375-.234.156-.398.074-.602.024 1.868-1.996 4.094-3.547 6.31-5.106 1.026-.722 2.124-1.351 3.194-2.023.961-.38 1.844-.946 2.914-1.055.82.602 1.618.45 2.48.027 1.11-.5 2.25-.906 3.427-1.218.586-.153 1.347-.551 1.738.406Zm0 0"/>
    <path fill="#231d19"
          d="M112.848 268.594c1.386-1.88 3.27-3.235 5.011-4.73a41.689 41.689 0 0 1 6.524-3.364c.262-.105.578-.527.914-.066-2.277 1.277-4.762 2.171-6.89 3.714-2.13 1.543-4.22 3.11-5.626 5.399-.129.21-.297.406-.511.695-.375-.926.488-1.113.578-1.648Zm0 0"/>
    <path fill="#403c36"
          d="M139.75 266.754c-.605-.512-1.23-.227-1.844 0-1.347.484-2.695.953-4.011 1.512-.887.359-1.528.43-1.793-.696a33.204 33.204 0 0 1 7.585-2.11c.555-.077 1.11-.136 1.68-.202.098.465-.332.527-.55.754Zm0 0"/>
    <path fill="#2c1911"
          d="M202.004 146.254c-.23-.84-.477-1.676-.68-2.524-.207-.847-.398-1.535.988-1.433.793.058 1.301-.695 1.235-1.55-.059-.794-.379-1.415-1.39-1.349-.43.028-1.192.118-.665-.777.442-.695.59-1.543 1.156-2.184 1.028-1.16 2.25-1.16 3.168.141 1.375 1.918 1.559 4.149 1.34 6.406-.097 1.04-.031 2.227-1.144 2.903a.155.155 0 0 0-.067.11c0 1.167-.527 1.972-1.715 2.034-1.19.059-1.632-.984-2.226-1.777Zm0 0"/>
    <path fill="#cdaa99"
          d="M154.016 150.21c.086 0 .175 0 .261.028.582.106 1.25.305 1.356.875.101.57-.645.711-1.059.985-.105.074-.195.164-.297.246-2.136 1.02-4.394 1.691-6.66 2.344-1.918.546-3.836.808-5.824.316-1.984-.496-4.023-.813-5.934-1.598-.554-.23-1.3-.445-1.3-1.148 0-.766.675-1.223 1.34-1.461 1.144-.41 2.308-.89 3.503-1.035a45.873 45.873 0 0 1 14.614.449Zm0 0"/>
    <g clip-path="url(#d)">
        <path fill="#fff"
              d="M72.168 303.8c3.398 1.005 5.98.93 6.66-.12-2.078 4.945-11.98 22.933-14.156 31.007-.262.637-.336 1.293-.387 1.918-.008.032-.008.06-.008.082a4.837 4.837 0 0 0-.027.454c-.137 1.77-.453 3.117-5.043 2.691-6.969-.644-18.98-3.227-30.562-22.82-11.586-19.586-9.012-40.137-9.012-40.137 2.894 13.238 18.55 15.82 18.55 15.82-5.68-25.828 6.758-35.734 6.758-35.734s-1.285 14.64 6.657 29.703c5.148 9.777 14.27 15.297 20.57 17.137Zm0 0"/>
    </g>
    <path fill="#fff"
          d="M75.2 295.805c-.786 2.207 4.292 4.554 3.937 7.066a8.937 8.937 0 0 1-.301.8l-.008.009c-.68 1.05-3.262 1.125-6.66.12 1.598-4.976 2.57-7.128 3.031-7.995Zm0 0"/>
    <path fill="#fff"
          d="M92.563 313.035c-3 5.164-8.876 17.738-12.801 32.008h-.004c1.332-5.074 1.375-8.84-2.742-11.563-5.137-3.39-10.516-2.043-12.125.754-.082.149-.16.305-.22.454 2.177-8.075 12.079-26.063 14.157-31.008l.008-.008c.176-.27.27-.535.3-.8.356-2.513-4.722-4.86-3.937-7.067 0-.004 0-.008.008-.016.121-.234.207-.371.258-.445l.043-.067c.922-1.109 6.976-1.402 13.945.75 6.102 1.891 14.012 5.586 15.098 9 .05.196.09.395.117.602a2.27 2.27 0 0 1-.09.84c-1.18 3.765-10.941 3.765-12.016 6.566Zm0 0"/>
    <path fill="#fff"
          d="M104.668 305.629c.59 4.16-3.348 10.453-3.805 14.375-7.965-3.024-9.066-4.965-8.3-6.969 1.074-2.8 10.835-2.8 12.015-6.566a2.27 2.27 0 0 0 .09-.84Zm0 0"/>
    <path fill="#fff"
          d="M295.34 346.07c1.508 5.352.047 9.582-14.922 13.942-30.477 8.879-61.625 14.476-93.008 14.476-31.383 0-62.531-5.597-93.012-14.476-14.964-4.36-16.43-8.59-14.918-13.942.098-.351.192-.691.278-1.027h.004c3.925-14.27 9.8-26.844 12.8-32.008-.765 2.004.336 3.945 8.301 6.969 3.168 1.207 7.434 2.582 13.098 4.195 24 6.844 48.719 10.324 73.45 10.324 24.722 0 49.448-3.48 73.448-10.324 5.664-1.613 9.926-2.988 13.09-4.191 7.973-3.028 9.07-4.969 8.301-6.973 3.008 5.164 8.883 17.738 12.809 32.008h.003c.086.336.18.676.278 1.027Zm0 0"/>
    <path fill="#fff"
          d="M270.246 306.469c1.176 3.765 10.938 3.765 12.004 6.566.77 2.004-.328 3.945-8.3 6.973v-.004c-.45-3.95-4.438-10.3-3.79-14.457-.039.308-.012.617.086.922ZM299.613 295.797c.457.855 1.43 3.008 3.04 8.004-3.415 1.004-5.993.93-6.669-.13a7.48 7.48 0 0 1-.297-.766c-.003-.007-.003-.014-.003-.022-.375-2.516 4.746-4.88 3.93-7.086Zm0 0"/>
    <path fill="#fff"
          d="M295.684 302.883a1.777 1.777 0 0 0 .29.766c-.001.003.003.011.01.023 2.079 4.945 11.996 22.969 14.164 31.031a3.42 3.42 0 0 0-.226-.469c-1.61-2.796-6.98-4.144-12.117-.754-4.118 2.723-4.075 6.489-2.743 11.563h-.003c-3.926-14.27-9.801-26.844-12.809-32.008-1.066-2.8-10.828-2.8-12.004-6.566a2.119 2.119 0 0 1-.086-.922c.008-.059.012-.11.024-.164.02-.102.043-.207.066-.309 1.035-3.43 8.984-7.156 15.117-9.047 6.969-2.152 13.016-1.859 13.938-.75 0 0 .011.02.043.067.054.074.136.207.261.437 0 0 0 .008.004.016.817 2.207-4.304 4.57-3.93 7.086Zm0 0"/>
    <g clip-path="url(#e)">
        <path fill="#fff"
              d="M310.523 336.496c0-.016 0-.035-.007-.047-.051-.57-.13-1.156-.364-1.73 0 0 0-.008-.004-.016-2.168-8.062-12.086-26.086-14.164-31.031.676 1.058 3.254 1.133 6.668.129 6.301-1.84 15.426-7.36 20.57-17.137 7.938-15.062 6.65-29.703 6.65-29.703s12.444 9.906 6.757 35.734c0 0 15.664-2.582 18.558-15.82 0 0 2.575 20.55-9.007 40.137-11.586 19.593-23.598 22.175-30.567 22.82-5.144.477-4.925-1.27-5.09-3.336Zm0 0"/>
    </g>
    <g clip-path="url(#f)">
        <path fill="#00041a"
              d="M187.41 375.27c-29.215 0-59.71-4.747-93.23-14.508-15.125-4.407-17.125-8.969-15.45-14.903 1.594-5.632 1.723-9.171-2.144-11.726-2.477-1.637-5.293-2.242-7.73-1.668-1.504.36-2.704 1.144-3.29 2.16-.406.71-.464 1.523-.523 2.309-.074 1.046-.152 2.132-1.055 2.902-.898.762-2.394.996-4.851.773-7.922-.734-19.778-3.937-31.164-23.195-11.586-19.59-9.137-40.43-9.114-40.64a.778.778 0 0 1 .739-.68.774.774 0 0 1 .797.613c2.296 10.512 13.203 14.07 16.78 14.965-5.097-25.125 6.77-34.91 7.286-35.32a.764.764 0 0 1 .852-.075.778.778 0 0 1 .406.754c-.012.145-1.164 14.598 6.562 29.27 6.25 11.863 18.532 17.199 23.715 17.422 1.348.047 2.02-.22 2.184-.473.601-.938-.239-1.926-1.688-3.441-1.375-1.434-3.086-3.22-1.578-5.036 1.402-1.687 8.441-1.445 14.77.508 4.742 1.465 13.304 4.973 15.32 8.824.469.895.574 1.77.316 2.598-.761 2.43-4.047 3.406-7.218 4.356-2.09.62-4.454 1.328-4.809 2.253-.211.547-.207.965.012 1.403 1.113 2.238 7.55 4.93 20.867 8.73 23.95 6.832 48.59 10.297 73.238 10.297a.78.78 0 0 1 .778.781.778.778 0 0 1-.778.782c-24.793 0-49.574-3.485-73.664-10.356-17.504-4.996-20.84-7.535-21.836-9.535-.414-.836-.437-1.707-.074-2.66.633-1.649 3.039-2.363 5.82-3.192 2.656-.792 5.664-1.69 6.176-3.328.137-.425.066-.882-.207-1.402-1.477-2.824-8.363-6.191-14.398-8.059-7.16-2.207-12.551-1.605-13.118-.996-.523.63-.062 1.317 1.504 2.95 1.418 1.48 3.184 3.324 1.875 5.367-.543.851-1.781 1.265-3.558 1.191-6.356-.273-18.707-6.262-25.024-18.254-6.293-11.945-6.879-23.476-6.82-28.07-2.973 3.488-9.488 13.793-5.137 33.562a.793.793 0 0 1-.195.707.772.772 0 0 1-.691.235c-.149-.027-13.055-2.277-17.876-12.531-.109 6.87.801 21.605 9.125 35.683 11.024 18.64 22.383 21.735 29.97 22.434 1.925.18 3.171.043 3.698-.406.387-.329.446-.907.512-1.825.067-.918.14-1.957.727-2.976.797-1.383 2.36-2.442 4.281-2.899 2.848-.675 6.105.008 8.941 1.883 5.13 3.39 4.246 8.3 2.786 13.457-1.207 4.281-1.02 8.492 14.386 12.977 33.375 9.718 63.73 14.445 92.797 14.445.43 0 .778.348.778.781a.78.78 0 0 1-.778.782Zm0 0"/>
    </g>
    <path fill="#00041a"
          d="M72.168 304.586a.784.784 0 0 1-.742-1.023c2.32-7.223 3.37-8.641 3.48-8.782a.785.785 0 0 1 1.098-.113c.328.27.379.754.121 1.086-.059.082-1.035 1.492-3.219 8.289a.776.776 0 0 1-.738.543ZM64.246 337.922h-.012a.781.781 0 0 1-.765-.797c.074-4.48 6.293-16.867 10.836-25.91 2.007-3.996 3.738-7.445 4.093-8.578a.779.779 0 1 1 1.485.468c-.395 1.254-2.067 4.59-4.188 8.81-4.222 8.41-10.601 21.112-10.668 25.237a.784.784 0 0 1-.78.77ZM79.762 345.824a.781.781 0 0 1-.75-.988c4.148-15.082 10.242-27.656 12.879-32.195a.776.776 0 0 1 1.066-.282.782.782 0 0 1 .281 1.067c-2.605 4.48-8.617 16.898-12.726 31.824a.778.778 0 0 1-.75.574ZM100.867 320.785c-.027 0-.058 0-.09-.004a.782.782 0 0 1-.683-.867c.195-1.707.98-3.746 1.808-5.906 1.172-3.051 2.5-6.508 1.899-8.781a.777.777 0 0 1 .55-.954.774.774 0 0 1 .954.551c.73 2.762-.633 6.313-1.95 9.746-.793 2.067-1.543 4.016-1.714 5.524a.78.78 0 0 1-.774.691ZM66.395 307.355a.787.787 0 0 1-.332-.074c-12.227-5.754-17.114-15.66-17.313-16.078a.781.781 0 0 1 .36-1.043.778.778 0 0 1 1.038.363c.047.098 4.872 9.836 16.579 15.344a.788.788 0 0 1 .375 1.04.777.777 0 0 1-.707.448ZM61.676 310.8a.73.73 0 0 1-.387-.105c-8.32-4.77-13.863-13.023-14.098-13.37a.786.786 0 0 1 .22-1.087.777.777 0 0 1 1.077.219c.055.082 5.578 8.3 13.575 12.883a.784.784 0 0 1-.387 1.46ZM57.922 314.89a.784.784 0 0 1-.434-.132c-7.765-5.195-12.36-12.195-12.554-12.488a.782.782 0 0 1 .23-1.082.776.776 0 0 1 1.074.226c.047.07 4.625 7.035 12.117 12.047a.783.783 0 0 1 .215 1.082.775.775 0 0 1-.648.348ZM53.2 318.227a.76.76 0 0 1-.497-.184c-3.965-3.332-7.66-7.461-7.695-7.504a.78.78 0 0 1 1.16-1.039c.035.04 3.656 4.086 7.535 7.348.328.277.371.77.098 1.097a.774.774 0 0 1-.602.282ZM49.395 321.672a.785.785 0 0 1-.454-.149c-5.554-4.003-8.875-8.351-9.015-8.535a.786.786 0 0 1 .148-1.093.779.779 0 0 1 1.094.148c.031.043 3.324 4.352 8.684 8.21a.785.785 0 0 1-.457 1.419ZM47.84 326.406a.776.776 0 0 1-.38-.101c-8.687-4.903-14.136-15.48-14.362-15.93a.78.78 0 1 1 1.386-.71c.051.105 5.47 10.612 13.739 15.276a.786.786 0 0 1 .297 1.067.776.776 0 0 1-.68.398Zm0 0"/>
    <path fill="#00041a"
          d="M49.984 332a.738.738 0 0 1-.312-.066c-14.344-6.368-21.04-22.024-21.32-22.688a.784.784 0 0 1 .418-1.023.782.782 0 0 1 1.02.418c.065.156 6.745 15.754 20.51 21.867.391.172.571.633.395 1.027a.772.772 0 0 1-.71.465Zm0 0"/>
    <g clip-path="url(#g)">
        <path fill="#00041a"
              d="M187.41 375.27a.781.781 0 1 1 0-1.563c29.063 0 59.414-4.727 92.793-14.445 15.406-4.485 15.594-8.696 14.387-12.977-1.457-5.156-2.344-10.066 2.789-13.457 2.832-1.875 6.09-2.555 8.941-1.883 1.922.457 3.48 1.516 4.278 2.899.586 1.02.664 2.058.73 2.976.063.918.125 1.496.508 1.825.531.449 1.777.585 3.703.406 7.582-.7 18.941-3.79 29.969-22.434 8.324-14.078 9.23-28.812 9.12-35.683-4.82 10.253-17.726 12.503-17.874 12.53a.772.772 0 0 1-.692-.234.79.79 0 0 1-.19-.707c4.35-19.77-2.169-30.074-5.138-33.562.055 4.594-.527 16.125-6.824 28.07-6.316 11.992-18.664 17.98-25.023 18.254-1.77.078-3.012-.336-3.559-1.191-1.308-2.043.457-3.887 1.879-5.367 1.563-1.633 2.023-2.32 1.5-2.95-.566-.609-5.957-1.21-13.113.996-6.035 1.868-12.922 5.235-14.403 8.059-.273.52-.34.977-.207 1.402.512 1.637 3.52 2.536 6.176 3.329 2.781.828 5.188 1.542 5.82 3.19.368.954.34 1.825-.074 2.661-.996 2-4.332 4.54-21.836 9.535-24.086 6.871-48.87 10.356-73.66 10.356a.778.778 0 0 1-.777-.782.78.78 0 0 1 .777-.78c24.645 0 49.285-3.466 73.238-10.298 13.317-3.8 19.75-6.492 20.864-8.73.218-.438.222-.856.015-1.402-.355-.926-2.722-1.633-4.808-2.254-3.176-.95-6.461-1.926-7.219-4.356-.262-.828-.156-1.703.313-2.598 2.019-3.851 10.582-7.359 15.324-8.824 6.324-1.953 13.367-2.195 14.77-.508 1.507 1.817-.204 3.602-1.579 5.036-1.453 1.515-2.293 2.503-1.691 3.441.164.254.84.52 2.183.473 5.188-.223 17.465-5.559 23.715-17.422 7.738-14.692 6.574-29.125 6.563-29.27a.79.79 0 0 1 .406-.758.778.778 0 0 1 .851.079c.516.41 12.387 10.195 7.286 35.32 3.578-.895 14.484-4.453 16.785-14.965a.755.755 0 0 1 .793-.613.778.778 0 0 1 .738.68c.023.21 2.473 21.05-9.113 40.64-11.387 19.258-23.239 22.461-31.164 23.195-2.461.223-3.953-.011-4.848-.773-.906-.77-.984-1.856-1.059-2.902-.058-.786-.117-1.598-.523-2.309-.582-1.016-1.781-1.8-3.29-2.16-2.433-.574-5.25.031-7.726 1.668-3.87 2.555-3.742 6.094-2.148 11.726 1.68 5.934-.32 10.496-15.45 14.903-33.519 9.761-64.015 14.508-93.226 14.508Zm0 0"/>
    </g>
    <path fill="#00041a"
          d="M302.648 304.586a.776.776 0 0 1-.738-.543c-2.203-6.867-3.18-8.234-3.219-8.29a.792.792 0 0 1 .145-1.089.767.767 0 0 1 1.074.117c.113.14 1.16 1.559 3.48 8.781a.782.782 0 0 1-.742 1.024ZM310.57 337.922a.778.778 0 0 1-.777-.77c-.066-4.12-6.45-16.828-10.668-25.234-2.121-4.223-3.797-7.559-4.191-8.813a.785.785 0 0 1 .511-.98.779.779 0 0 1 .977.512c.355 1.133 2.086 4.586 4.094 8.578 4.539 9.047 10.757 21.43 10.832 25.91a.781.781 0 0 1-.766.797h-.012ZM295.055 345.824a.774.774 0 0 1-.746-.574c-4.11-14.926-10.125-27.344-12.727-31.824a.781.781 0 0 1 .277-1.067.775.775 0 0 1 1.067.282c2.637 4.539 8.73 17.113 12.883 32.195a.788.788 0 0 1-.543.96.976.976 0 0 1-.211.028ZM273.95 320.785a.774.774 0 0 1-.77-.691c-.176-1.508-.926-3.461-1.72-5.524-1.315-3.433-2.679-6.984-1.944-9.746a.777.777 0 1 1 1.5.402c-.602 2.274.726 5.731 1.898 8.782.832 2.16 1.613 4.199 1.809 5.906a.782.782 0 0 1-.684.867c-.031.004-.059.004-.09.004ZM308.426 307.355a.78.78 0 0 1-.332-1.488c11.707-5.508 16.527-15.246 16.574-15.344a.778.778 0 1 1 1.398.68c-.199.418-5.082 10.324-17.312 16.078a.77.77 0 0 1-.328.074ZM313.14 310.8a.776.776 0 0 1-.675-.394.785.785 0 0 1 .293-1.066c8.004-4.59 13.515-12.8 13.574-12.883a.775.775 0 0 1 1.078-.219.788.788 0 0 1 .215 1.086c-.23.348-5.773 8.602-14.098 13.371a.73.73 0 0 1-.386.106ZM316.895 314.89a.78.78 0 0 1-.43-1.43c7.488-5.01 12.066-11.976 12.113-12.046a.777.777 0 0 1 1.074-.226.782.782 0 0 1 .23 1.082c-.195.293-4.788 7.293-12.554 12.488a.774.774 0 0 1-.433.133ZM321.617 318.227a.766.766 0 0 1-.597-.282.78.78 0 0 1 .093-1.097c3.883-3.262 7.5-7.309 7.535-7.348a.78.78 0 0 1 1.102-.063.79.79 0 0 1 .063 1.102c-.04.043-3.731 4.172-7.7 7.504a.752.752 0 0 1-.496.184ZM325.422 321.672a.771.771 0 0 1-.629-.328.781.781 0 0 1 .176-1.09c5.367-3.867 8.648-8.168 8.683-8.211a.774.774 0 0 1 1.09-.148c.34.261.406.75.149 1.093-.137.184-3.461 4.532-9.016 8.535a.776.776 0 0 1-.453.149ZM326.977 326.406a.775.775 0 0 1-.676-.398.789.789 0 0 1 .293-1.067c8.281-4.671 13.687-15.171 13.742-15.277a.773.773 0 0 1 1.047-.34.782.782 0 0 1 .34 1.051c-.23.45-5.68 11.027-14.364 15.93a.802.802 0 0 1-.382.101Zm0 0"/>
    <path fill="#00041a"
          d="M324.832 332a.776.776 0 0 1-.71-.465.777.777 0 0 1 .394-1.027c13.78-6.121 20.449-21.711 20.511-21.867a.781.781 0 0 1 1.02-.418.784.784 0 0 1 .418 1.023c-.277.664-6.977 16.32-21.32 22.688a.738.738 0 0 1-.313.066ZM122.036 344.503a8.628 8.628 0 0 1 1.203-2.672 7.798 7.798 0 0 1 2.094-2.125c.844-.57 1.79-.96 2.844-1.171 1.062-.22 2.195-.18 3.406.109 1.426.355 2.582.977 3.469 1.86.894.886 1.473 1.89 1.734 3.015l-2.703 1.031a4.405 4.405 0 0 0-.484-1.297 3.679 3.679 0 0 0-.766-.937 4.508 4.508 0 0 0-.953-.625 4.804 4.804 0 0 0-1.047-.39c-.762-.188-1.46-.196-2.094-.032a4.158 4.158 0 0 0-1.671.844 5.694 5.694 0 0 0-1.266 1.453 6.252 6.252 0 0 0-.734 1.781 6.248 6.248 0 0 0-.157 2.063c.07.68.242 1.308.516 1.89a4.809 4.809 0 0 0 1.156 1.531c.488.43 1.067.727 1.735.891.351.086.726.133 1.125.14.406 0 .8-.05 1.187-.156a4.936 4.936 0 0 0 1.125-.5c.363-.226.688-.535.969-.921l2.125 2.046c-.387.52-.867.942-1.438 1.266a7.326 7.326 0 0 1-1.828.75 8.243 8.243 0 0 1-2.031.25c-.7 0-1.36-.078-1.984-.234-1.106-.274-2.059-.758-2.86-1.453a8.27 8.27 0 0 1-1.922-2.407 8.841 8.841 0 0 1-.906-2.937 8.289 8.289 0 0 1 .156-3.063ZM147.893 355.627l-.5 2.672-10.906-2.031 2.906-15.719 10.72 1.985-.5 2.671-7.673-1.421-.687 3.796 6.625 1.235-.469 2.469-6.625-1.235-.75 4.11ZM161.158 348.22a5.013 5.013 0 0 0-.515-.5 5.397 5.397 0 0 0-.938-.657 9.528 9.528 0 0 0-1.234-.593 5.657 5.657 0 0 0-1.375-.36c-.844-.101-1.496-.023-1.953.235-.461.25-.727.656-.797 1.218-.043.336 0 .622.125.86.133.23.336.45.61.656.28.2.632.399 1.062.594.437.187.953.398 1.546.625.727.305 1.395.617 2 .937.602.313 1.102.68 1.5 1.094.395.418.676.89.844 1.422.176.531.219 1.156.125 1.875-.105.867-.355 1.578-.75 2.14-.398.555-.89.973-1.484 1.266-.586.301-1.246.492-1.985.578a9.158 9.158 0 0 1-2.265 0 11.757 11.757 0 0 1-3.453-1.015 11.075 11.075 0 0 1-2.922-1.907l1.703-2.5c.125.157.344.368.656.625.313.262.696.532 1.156.813.458.281.961.531 1.516.75a7.637 7.637 0 0 0 1.75.453c1.695.219 2.617-.21 2.766-1.297a1.364 1.364 0 0 0-.188-.906c-.156-.27-.402-.516-.734-.734a7.617 7.617 0 0 0-1.235-.657 44.873 44.873 0 0 0-1.64-.703c-.73-.3-1.356-.613-1.875-.937a5.599 5.599 0 0 1-1.281-1.047 3.286 3.286 0 0 1-.704-1.281c-.136-.47-.167-1.004-.093-1.61.101-.812.343-1.508.718-2.094a4.372 4.372 0 0 1 1.454-1.39 5.599 5.599 0 0 1 1.968-.719 7.766 7.766 0 0 1 2.297-.031c1.125.137 2.13.437 3.016.906a11.46 11.46 0 0 1 2.281 1.563ZM164.24 360.352l1.375-15.922 3.078.266-1.375 15.922ZM179.834 351.086l-.172 10.25-3.094-.047.266-15.984 2.406.03 8.156 10.626.172-10.469 3.11.047-.266 15.969-2.531-.047ZM197.99 345.214l2.734-.125 6.875 15.656-3.203.172-1.688-3.922-5.578.281-1.25 4.063-3.203.156Zm4.047 9.625-2.5-6.157-1.985 6.375ZM211.739 350.006l1.172 10.187-3.078.36-1.829-15.875 2.391-.281 9.484 9.453-1.203-10.391 3.078-.36 1.829 15.86-2.516.297ZM224.951 350.571a8.532 8.532 0 0 1 .016-2.937c.168-1 .511-1.93 1.03-2.797a7.595 7.595 0 0 1 2.11-2.25c.875-.625 1.926-1.051 3.157-1.282 1.445-.257 2.753-.171 3.921.266 1.176.438 2.118 1.117 2.829 2.031l-2.047 2.063a3.94 3.94 0 0 0-.97-.985 3.58 3.58 0 0 0-1.093-.53 4.24 4.24 0 0 0-1.125-.188 5 5 0 0 0-1.11.062c-.773.149-1.413.43-1.921.844-.512.406-.914.89-1.203 1.453a5.647 5.647 0 0 0-.547 1.844 6.444 6.444 0 0 0 .062 1.922c.133.699.368 1.351.704 1.953a5.663 5.663 0 0 0 1.25 1.515c.5.407 1.062.711 1.687.907a4.107 4.107 0 0 0 1.953.093c.352-.062.711-.171 1.078-.328.375-.156.711-.359 1.016-.609.312-.258.586-.566.828-.922.238-.363.41-.781.516-1.25l2.765 1a4.623 4.623 0 0 1-.781 1.75 7.623 7.623 0 0 1-1.375 1.422 8.285 8.285 0 0 1-1.734 1.062 9.067 9.067 0 0 1-1.907.61c-1.117.2-2.183.148-3.203-.156a8.566 8.566 0 0 1-2.75-1.407 8.548 8.548 0 0 1-2.047-2.297 8.484 8.484 0 0 1-1.109-2.859ZM240.892 339.428l5.671 6.53 2.063-8.452 3.234-.797-3.125 11.484 1.344 5.422-3 .75-1.36-5.453-8.093-8.672Zm0 0"/>
</svg>