<svg width="300" height="101" fill="none" xmlns="http://www.w3.org/2000/svg"><g clip-path="url(#a)"><path d="M58.06 100.97s-5.53-6.67-18.4-8.83c-12.55-2.9-27.7-15.04-31.6-32.07C3.55 43.2 11.15 25.55 20.8 17.3c9.64-8.65 18.66-10 18.49-10.12.22.26-8.73 1.8-18.12 10.49-9.44 8.26-16.64 25.69-12.07 42.1 3.96 16.6 18.82 28.2 30.92 30.93a41.1 41.1 0 0 1 7.77 1.94c8.56 3 11.85 6.88 11.85 6.88l-1.6 1.44Zm-13.5 0s5.53-6.67 18.4-8.83c12.53-2.9 27.7-15.04 31.58-32.07C99.05 43.2 91.45 25.55 81.8 17.3 72.15 8.66 63.13 7.31 63.3 7.2c-.22.26 8.73 1.8 18.12 10.49 9.46 8.3 16.66 25.72 12.1 42.14C89.55 76.4 74.7 88 62.57 90.7a41.1 41.1 0 0 0-7.77 1.94c-8.56 3-11.85 6.88-11.85 6.88l1.62 1.44Z" fill="#0A33FF"/><path d="M35.95 81.57s3.52 1.18 4.68 3.96c1.47 3.49.82 6.38.82 6.38s-3.52-1.8-4.68-3.68c-1.67-2.64-.82-6.66-.82-6.66Zm-6.18 15.26s3.55 1.07 6.15-.47c3.23-1.97 4.45-4.67 4.45-4.67s-3.91-.59-5.98.25c-2.92 1.16-4.62 4.9-4.62 4.9Zm.34-11.7c.82 2.03 3.91 4.37 3.91 4.37s1.1-2.7.29-6.3c-.66-2.86-3.83-4.64-3.83-4.64s-1.5 3.77-.37 6.58Zm-8.2 7.12s3.24 1.63 6.02.56a11.62 11.62 0 0 0 5.1-3.76s-3.68-1.24-5.84-.76c-2.97.65-5.27 3.96-5.27 3.96Zm2.2-11.27c.45 2.08 3 4.86 3 4.86s1.53-2.41 1.36-6.01c-.14-2.9-2.92-5.12-2.92-5.12s-2.07 3.35-1.45 6.27Zm-9.13 5.48s2.83 2.14 5.7 1.57c3.56-.73 5.55-2.75 5.55-2.75s-3.35-1.8-5.5-1.74c-2.98.08-5.76 2.92-5.76 2.92Zm3.94-10.65c.05 2.08 2.06 5.2 2.06 5.2s1.9-2.08 2.36-5.6C23.7 72.62 21.4 70 21.4 70s-2.61 2.9-2.5 5.82Zm-9.76 3.74s2.38 2.53 5.25 2.47a11.04 11.04 0 0 0 5.84-1.74s-2.92-2.28-5.02-2.59c-2.92-.4-6.07 1.86-6.07 1.86Zm5.53-9.7c-.28 2.02 1.1 5.37 1.1 5.37s2.19-1.69 3.24-4.98c.85-2.64-.94-5.56-.94-5.56s-2.97 2.3-3.4 5.17ZM4.66 71.82s1.87 2.84 4.62 3.26c3.45.5 5.92-.68 5.92-.68s-2.4-2.72-4.4-3.34c-2.71-.9-6.14.76-6.14.76Zm7-8.55c-.63 1.88.14 5.37.14 5.37s2.38-1.27 3.97-4.27c1.27-2.42.05-5.51.05-5.51s-3.28 1.74-4.16 4.41Zm-10.03.2s1.3 3.06 3.9 3.93c3.24 1.1 5.87.34 5.87.34s-1.87-3.04-3.65-3.96c-2.56-1.3-6.12-.31-6.12-.31Zm8.16-7.14c-.94 1.74-.77 5.2-.77 5.2s2.52-.82 4.56-3.46c1.62-2.1 1.03-5.3 1.03-5.3s-3.52 1.14-4.82 3.56ZM.07 54.84s.73 3.18 3.08 4.47c2.95 1.6 5.59 1.32 5.59 1.32S7.46 57.4 5.9 56.2C3.7 54.47.07 54.84.07 54.84Zm9.1-5.68c-1.2 1.52-1.65 4.9-1.65 4.9s2.58-.37 4.99-2.57c1.93-1.77 1.9-4.94 1.9-4.94s-3.54.5-5.25 2.61Zm-9.13-3.1s.17 3.21 2.2 4.82a10.51 10.51 0 0 0 5.17 2.22s-.68-3.35-1.99-4.78c-1.81-2-5.38-2.25-5.38-2.25Zm9.75-4.26c-1.42 1.26-2.44 4.44-2.44 4.44s2.55.08 5.27-1.63c2.18-1.38 2.67-4.47 2.67-4.47s-3.52-.08-5.5 1.66ZM1.5 37.3s-.4 3.12 1.33 5.03c2.13 2.39 4.6 3 4.6 3S7.34 42 6.32 40.4C4.9 38.14 1.5 37.3 1.5 37.3Zm10.2-2.7c-1.58.98-3.08 3.88-3.08 3.88s2.43.53 5.35-.68c2.35-.95 3.35-3.87 3.35-3.87s-3.38-.7-5.61.67Zm-7.2-5.73s-.91 2.92.42 5.08a9.92 9.92 0 0 0 3.92 3.66s.48-3.23-.2-4.95c-.97-2.41-4.14-3.8-4.14-3.8Zm10.43-.99c-1.7.68-3.66 3.2-3.66 3.2s2.27.9 5.27.26c2.41-.53 3.89-3.18 3.89-3.18s-3.12-1.23-5.5-.28Zm-5.98-6.77s-1.4 2.67-.48 4.97a9.81 9.81 0 0 0 3.14 4.22s1.02-3.06.65-4.8c-.5-2.5-3.31-4.39-3.31-4.39Zm10.32.7c-1.74.37-4.09 2.5-4.09 2.5s2.04 1.27 5.08 1.13c2.43-.11 4.28-2.39 4.28-2.39s-2.8-1.74-5.27-1.24Zm-4.6-7.53s-1.78 2.36-1.3 4.72a9.35 9.35 0 0 0 2.32 4.61s1.53-2.76 1.45-4.52c-.09-2.54-2.47-4.81-2.47-4.81Zm9.9 2.39c-1.76.06-4.4 1.71-4.4 1.71s1.76 1.58 4.68 1.94c2.35.31 4.56-1.6 4.56-1.6s-2.38-2.14-4.84-2.05ZM21.4 8.6s-2.13 1.97-2.07 4.33a9.2 9.2 0 0 0 1.47 4.83s1.93-2.41 2.19-4.13c.3-2.41-1.6-5.03-1.6-5.03Zm9.24 3.94c-1.7-.26-4.53.9-4.53.9s1.41 1.8 4.19 2.67c2.21.7 4.68-.76 4.68-.76S33 12.9 30.65 12.54Zm-1.67-8.3S26.6 5.8 26.23 8.07c-.46 2.86.6 4.91.6 4.91s2.29-2 2.8-3.62c.74-2.28-.65-5.12-.65-5.12Zm8.25 5.31c-1.62-.53-4.54.12-4.54.12s1.05 1.96 3.6 3.29c2.04 1.04 4.65.05 4.65.05s-1.47-2.72-3.71-3.46Zm-.17-8.29s-2.58 1.07-3.32 3.24c-.9 2.67-.28 4.83-.28 4.83S36 7.8 36.8 6.3c1.1-2.06.26-5.04.26-5.04Zm.1 6.64s1.94 1.07 3.67.5a7.15 7.15 0 0 0 3.2-2.16s-2.21-.84-3.51-.62c-1.88.3-3.35 2.28-3.35 2.28Zm29.52 73.67s-3.52 1.18-4.68 3.96c-1.47 3.49-.82 6.38-.82 6.38s3.51-1.8 4.68-3.68c1.67-2.64.82-6.66.82-6.66Zm1.56 10.34c-2.07-.84-5.98-.25-5.98-.25s1.22 2.73 4.45 4.67c2.57 1.57 6.15.48 6.15.48s-1.73-3.71-4.62-4.9Zm3.91-13.32s-3.18 1.75-3.83 4.64c-.82 3.6.29 6.3.29 6.3s3.08-2.34 3.88-4.36c1.16-2.84-.34-6.58-.34-6.58Zm3.26 9.7c-2.16-.45-5.84.76-5.84.76s1.64 2.41 5.1 3.76c2.78 1.07 6.01-.56 6.01-.56s-2.27-3.31-5.27-3.96Zm1.64-13.58s-2.77 2.22-2.92 5.12c-.17 3.6 1.36 6.01 1.36 6.01s2.58-2.78 3-4.86c.66-2.92-1.44-6.27-1.44-6.27Zm4.82 8.8c-2.15-.08-5.5 1.74-5.5 1.74s1.99 2.05 5.56 2.76c2.86.56 5.7-1.58 5.7-1.58s-2.75-2.8-5.76-2.92Zm-.65-13.52s-2.3 2.62-1.93 5.43c.45 3.51 2.35 5.59 2.35 5.59s2.02-3.12 2.07-5.2c.09-2.93-2.5-5.82-2.5-5.82Zm6.15 7.7c-2.07.28-4.99 2.59-4.99 2.59s2.27 1.66 5.84 1.74c2.86.06 5.25-2.47 5.25-2.47s-3.15-2.25-6.1-1.86ZM84.5 64.65s-1.76 2.9-.94 5.56a10.63 10.63 0 0 0 3.23 4.98s1.4-3.34 1.1-5.37c-.39-2.84-3.4-5.17-3.4-5.17Zm7.28 6.38c-1.95.62-4.39 3.34-4.39 3.34s2.5 1.21 5.92.68c2.78-.42 4.62-3.26 4.62-3.26s-3.4-1.63-6.15-.76ZM86.8 58.86s-1.19 3.1.06 5.5c1.59 3.02 3.97 4.28 3.97 4.28s.76-3.49.14-5.37c-.88-2.67-4.17-4.41-4.17-4.41Zm8.1 4.92c-1.78.92-3.65 3.96-3.65 3.96s2.61.73 5.84-.34c2.61-.87 3.92-3.93 3.92-3.93s-3.6-.99-6.1.3Zm-6.85-11s-.62 3.21 1.02 5.32a10.5 10.5 0 0 0 4.56 3.46s.15-3.49-.76-5.2c-1.36-2.45-4.82-3.57-4.82-3.57Zm8.67 3.38c-1.55 1.2-2.83 4.44-2.83 4.44s2.64.28 5.58-1.32c2.36-1.3 3.1-4.47 3.1-4.47s-3.64-.34-5.84 1.35Zm-8.5-9.61s-.06 3.2 1.9 4.95c2.4 2.19 4.99 2.55 4.99 2.55s-.45-3.37-1.64-4.89c-1.7-2.1-5.25-2.61-5.25-2.61Zm8.96 1.8c-1.3 1.43-1.99 4.77-1.99 4.77s2.61-.16 5.16-2.22c2.04-1.63 2.21-4.8 2.21-4.8s-3.54.22-5.38 2.25Zm-9.87-8.18s.49 3.09 2.67 4.47c2.72 1.71 5.27 1.62 5.27 1.62s-1.02-3.2-2.44-4.44c-1.98-1.76-5.5-1.65-5.5-1.65Zm8.96.22c-1.02 1.6-1.1 4.95-1.1 4.95s2.46-.62 4.59-3c1.7-1.92 1.33-5.04 1.33-5.04s-3.4.84-4.82 3.1ZM85.3 33.95s1.02 2.9 3.35 3.88c2.92 1.21 5.35.68 5.35.68s-1.53-2.9-3.09-3.88c-2.23-1.4-5.61-.68-5.61-.68Zm8.67-1.29c-.7 1.72-.2 4.95-.2 4.95s2.3-1.01 3.95-3.68c1.33-2.14.42-5.09.42-5.09s-3.17 1.4-4.17 3.82Zm-11.79-4.5s1.48 2.62 3.89 3.18a9.5 9.5 0 0 0 5.27-.25s-1.96-2.56-3.66-3.2c-2.35-.96-5.5.27-5.5.27Zm8.17-2.7c-.4 1.78.65 4.81.65 4.81s2.04-1.35 3.17-4.21c.91-2.3-.48-4.98-.48-4.98s-2.8 1.91-3.34 4.39Zm-12.25-2.4s1.87 2.3 4.28 2.39c3.04.14 5.08-1.13 5.08-1.13s-2.36-2.13-4.08-2.47c-2.47-.53-5.28 1.21-5.28 1.21Zm7.4-4c-.06 1.78 1.44 4.53 1.44 4.53s1.73-1.66 2.33-4.6c.48-2.37-1.3-4.73-1.3-4.73s-2.39 2.3-2.47 4.8Zm-12.33-.33s2.21 1.88 4.56 1.6c2.95-.4 4.68-1.94 4.68-1.94s-2.63-1.65-4.4-1.71c-2.4-.09-4.84 2.05-4.84 2.05Zm6.49-5.09c.23 1.72 2.18 4.13 2.18 4.13s1.4-1.88 1.48-4.83c.06-2.36-2.07-4.33-2.07-4.33s-1.93 2.62-1.6 5.03Zm-12.02 1.72s2.44 1.46 4.68.76c2.78-.88 4.2-2.67 4.2-2.67s-2.81-1.16-4.54-.9c-2.38.36-4.34 2.8-4.34 2.8Zm5.36-6c.54 1.61 2.8 3.63 2.8 3.63s1.03-2.05.6-4.91c-.34-2.28-2.75-3.83-2.75-3.83S72.26 7.08 73 9.36Zm-11.34 3.69s2.6 1.01 4.65-.06a9.17 9.17 0 0 0 3.6-3.28s-2.92-.65-4.5-.11c-2.25.7-3.75 3.45-3.75 3.45Zm4.17-6.72c.8 1.47 3.34 3.04 3.34 3.04s.63-2.17-.28-4.84c-.74-2.16-3.35-3.26-3.35-3.26s-.82 2.98.29 5.06Zm-3.69-.7c-1.33-.22-3.51.62-3.51.62s1.04 1.43 3.2 2.16c1.7.6 3.66-.5 3.66-.5s-1.5-1.97-3.35-2.28Z" fill="#0A33FF"/><path d="M109.98 39.17c0-1.37.24-2.72.71-4.08a10.82 10.82 0 0 1 5.51-6.23c1.36-.67 2.88-1 4.6-1a9.5 9.5 0 0 1 5.2 1.38 8.33 8.33 0 0 1 3.2 3.56l-1.76 1.1a6.7 6.7 0 0 0-1.33-1.88 7.28 7.28 0 0 0-3.55-1.94 8.87 8.87 0 0 0-1.9-.21 7.7 7.7 0 0 0-3.62.83 8.35 8.35 0 0 0-2.65 2.18 9.35 9.35 0 0 0-1.62 3 11.08 11.08 0 0 0-.54 3.42 10.14 10.14 0 0 0 2.45 6.66 8.64 8.64 0 0 0 2.69 2.1c1.04.53 2.17.79 3.4.79a7.79 7.79 0 0 0 5.67-2.31c.53-.53.98-1.16 1.35-1.9l1.86.95a7.1 7.1 0 0 1-1.55 2.25 10.8 10.8 0 0 1-7.47 3.01c-1.56 0-3-.34-4.3-1.02a11.25 11.25 0 0 1-3.36-2.66 12.3 12.3 0 0 1-2.99-8Zm38.82 9.52v1.98h-15.3V27.99h15.02v1.98h-12.77v8.17h11.13v1.9h-11.13v8.65h13.06Zm17.57-16.46a6.97 6.97 0 0 0-2.58-1.75 9.37 9.37 0 0 0-3.65-.67c-2 0-3.47.38-4.4 1.13a3.78 3.78 0 0 0-1.37 3.08c0 .68.11 1.24.36 1.68.25.44.63.82 1.14 1.15.51.31 1.17.59 1.97.82a40 40 0 0 0 2.85.7c1.22.25 2.31.54 3.29.87.97.31 1.8.71 2.49 1.19.68.48 1.2 1.06 1.56 1.74.36.68.55 1.53.55 2.55a5.35 5.35 0 0 1-2.31 4.64 8 8 0 0 1-2.6 1.13c-1 .24-2.1.36-3.3.36-3.54 0-6.59-1.1-9.15-3.28l1.12-1.82a10.73 10.73 0 0 0 5.59 2.89c.79.16 1.62.23 2.5.23 1.81 0 3.23-.32 4.25-.97a3.27 3.27 0 0 0 1.52-2.96c0-.7-.14-1.28-.43-1.76s-.72-.9-1.3-1.25a8.78 8.78 0 0 0-2.15-.9c-.85-.26-1.85-.52-2.98-.78-1.2-.27-2.25-.56-3.15-.85a8.5 8.5 0 0 1-2.29-1.12 4.3 4.3 0 0 1-1.38-1.62 5.2 5.2 0 0 1-.47-2.31c0-1.05.2-1.98.6-2.8.4-.82.95-1.5 1.68-2.04a7.9 7.9 0 0 1 2.57-1.25c.98-.28 2.08-.43 3.28-.43 1.51 0 2.86.23 4.05.68a11.1 11.1 0 0 1 3.24 1.93l-1.1 1.8Zm6.16 18.44V27.99h2.24v22.68h-2.24Zm18.38-18.52v18.52h-2.23V27.99h1.72l15.09 18.87V28.02h2.25v22.65h-1.96L190.9 32.15Zm29.6-4.15h1.9l9.47 22.67h-2.38l-2.96-7.1H216.3l-2.92 7.1h-2.4l9.53-22.68Zm5.52 13.82-4.59-11.22-4.65 11.22h9.24Zm11.35-9.67v18.52h-2.23V27.99h1.72l15.09 18.87V28.02h2.25v22.65h-1.96l-14.87-18.52Zm21.03 7.02c0-1.37.24-2.72.71-4.08a10.82 10.82 0 0 1 5.51-6.23c1.36-.67 2.88-1 4.6-1a9.5 9.5 0 0 1 5.2 1.38 8.33 8.33 0 0 1 3.2 3.56l-1.76 1.1a6.7 6.7 0 0 0-1.33-1.88 7.28 7.28 0 0 0-3.55-1.94 8.87 8.87 0 0 0-1.9-.21 7.7 7.7 0 0 0-3.62.83 8.35 8.35 0 0 0-2.65 2.18 9.35 9.35 0 0 0-1.62 3 11.08 11.08 0 0 0-.54 3.42 10.14 10.14 0 0 0 2.45 6.66 8.64 8.64 0 0 0 2.69 2.1c1.04.53 2.17.79 3.4.79a7.79 7.79 0 0 0 5.68-2.31 7.2 7.2 0 0 0 1.34-1.9l1.87.95a7.1 7.1 0 0 1-1.55 2.25 10.8 10.8 0 0 1-7.48 3.01c-1.56 0-3-.34-4.3-1.02a11.25 11.25 0 0 1-3.36-2.66 12.3 12.3 0 0 1-2.99-8ZM282.06 28l7.45 12.2 7.52-12.2h2.43l-8.83 14.23v8.44h-2.24v-8.5l-8.8-14.18h2.47Zm-148.5 45.19c0 .51-.1.99-.31 1.42a3.46 3.46 0 0 1-2.04 1.82c-.46.18-.96.27-1.49.27h-6.45V63.09h6.59c.47 0 .9.1 1.28.3.4.2.72.48 1 .8a3.73 3.73 0 0 1 .32 4.26c-.35.57-.83.99-1.44 1.27.78.23 1.4.66 1.85 1.3.46.61.69 1.34.69 2.17Zm-1.35-.23a2.73 2.73 0 0 0-.67-1.79 2.53 2.53 0 0 0-.75-.58 2 2 0 0 0-.93-.23h-5.24v5.17h5.1c.35 0 .68-.07.97-.22a2.63 2.63 0 0 0 1.52-2.35Zm-7.59-8.7v5.02h4.7c.33 0 .64-.07.93-.2a2.4 2.4 0 0 0 1.22-1.36c.12-.3.18-.62.18-.95a3 3 0 0 0-.17-.98 2.39 2.39 0 0 0-1.16-1.33 2 2 0 0 0-.89-.2h-4.81Zm14.35 12.62c-1.1 0-1.91-.36-2.44-1.08-.53-.72-.8-1.8-.8-3.22V66.7h1.31v5.63c0 2.27.78 3.4 2.33 3.4a3.6 3.6 0 0 0 3-1.6c.26-.35.46-.72.62-1.14v-6.3h1.31V75c0 .37.16.55.47.55v1.15a2.6 2.6 0 0 1-.4.03h-.2a.96.96 0 0 1-.74-.32c-.2-.2-.29-.48-.29-.82v-1.16a4.79 4.79 0 0 1-4.17 2.45Zm13.29-9.02c-.88.03-1.65.28-2.3.74a3.71 3.71 0 0 0-1.4 1.89v6.2h-1.3v-9.98h1.23v2.4c.38-.77.88-1.37 1.5-1.8a3.54 3.54 0 0 1 2.27-.64v1.2Zm6.09 9.02a4.84 4.84 0 0 1-3.6-1.53 5.26 5.26 0 0 1-1.43-3.68 5.25 5.25 0 0 1 1.42-3.6 5.1 5.1 0 0 1 3.6-1.54 4.77 4.77 0 0 1 3.57 1.55 5.18 5.18 0 0 1 1.39 3.58v.3c0 .1 0 .18-.02.2h-8.58a4.08 4.08 0 0 0 1.19 2.68 3.55 3.55 0 0 0 4.36.56c.27-.15.52-.35.74-.57.22-.22.38-.47.5-.75l1.13.31c-.15.38-.37.71-.65 1.01a4.62 4.62 0 0 1-2.21 1.3c-.45.12-.92.18-1.41.18Zm3.7-5.7a3.86 3.86 0 0 0-2.33-3.35 3.63 3.63 0 0 0-4.7 1.9c-.2.44-.3.92-.35 1.44h7.38Zm5.79 5.7c-.48 0-.92-.08-1.33-.23a3.21 3.21 0 0 1-1.75-1.65 2.96 2.96 0 0 1-.25-1.21c0-.44.1-.84.3-1.21.2-.37.5-.7.88-.96A4.1 4.1 0 0 1 167 71a6.1 6.1 0 0 1 1.7-.22 9.17 9.17 0 0 1 2.96.5v-.89c0-.88-.25-1.57-.75-2.09-.5-.52-1.2-.78-2.07-.78-.52 0-1.05.1-1.59.3-.54.2-1.09.5-1.64.88l-.46-.86a6.8 6.8 0 0 1 3.78-1.3c1.25 0 2.24.35 2.96 1.05a3.9 3.9 0 0 1 1.09 2.91V75c0 .37.15.55.47.55v1.15c-.22.04-.38.06-.5.06-.33 0-.6-.08-.77-.25a.95.95 0 0 1-.3-.7l-.04-.78a4.7 4.7 0 0 1-1.75 1.38c-.7.31-1.45.47-2.26.47Zm.3-1a4.6 4.6 0 0 0 1.88-.37c.58-.25 1-.6 1.3-1.02.12-.11.2-.24.27-.37a.95.95 0 0 0 .08-.37v-1.63a8.37 8.37 0 0 0-2.78-.52 4 4 0 0 0-2.27.58c-.57.38-.86.88-.86 1.5 0 .31.06.6.18.88a2.27 2.27 0 0 0 1.26 1.17c.3.1.61.16.95.16Zm10.81 1c-1.1 0-1.9-.36-2.43-1.08-.54-.72-.8-1.8-.8-3.22V66.7h1.3v5.63c0 2.27.78 3.4 2.33 3.4a3.6 3.6 0 0 0 3.02-1.6c.25-.35.45-.72.6-1.14v-6.3h1.32V75c0 .37.15.55.46.55v1.15a2.6 2.6 0 0 1-.38.03h-.2a1 1 0 0 1-.75-.32c-.2-.2-.3-.48-.3-.82v-1.16a4.79 4.79 0 0 1-4.17 2.45Zm17.32 0c-.7 0-1.33-.14-1.92-.42a4.93 4.93 0 0 1-2.51-2.77 5.92 5.92 0 0 1-.01-3.96c.22-.63.54-1.18.94-1.65.4-.48.9-.85 1.45-1.12a4.03 4.03 0 0 1 1.84-.43c.85 0 1.6.23 2.25.68a5 5 0 0 1 1.55 1.59v-6.1h1.31V75c0 .37.16.55.47.55v1.15c-.2.04-.35.06-.47.06-.3 0-.58-.1-.81-.3a.91.91 0 0 1-.35-.72v-.98c-.4.65-.93 1.17-1.61 1.55a4.3 4.3 0 0 1-2.13.57Zm.29-1.14c.32 0 .67-.06 1.04-.19a4.28 4.28 0 0 0 1.85-1.32c.22-.3.36-.62.41-.97v-3.08a3.17 3.17 0 0 0-.56-.97 4.25 4.25 0 0 0-1.85-1.32 3.07 3.07 0 0 0-2.53.15c-.43.22-.8.53-1.12.9a4.5 4.5 0 0 0-.68 4.33 4.08 4.08 0 0 0 1.97 2.14c.45.22.94.33 1.47.33Zm11.9 1.14a4.84 4.84 0 0 1-3.6-1.53 5.26 5.26 0 0 1-1.43-3.68 5.25 5.25 0 0 1 1.42-3.6 5.1 5.1 0 0 1 3.6-1.54 4.77 4.77 0 0 1 3.57 1.55 5.18 5.18 0 0 1 1.39 3.58v.3l-.01.2h-8.59a4.1 4.1 0 0 0 1.19 2.68 3.55 3.55 0 0 0 4.36.56c.27-.15.52-.35.74-.57.22-.22.39-.47.5-.75l1.14.31a3.2 3.2 0 0 1-.66 1.01 4.62 4.62 0 0 1-2.2 1.3c-.46.12-.93.18-1.42.18Zm3.7-5.7a3.86 3.86 0 0 0-2.32-3.35 3.63 3.63 0 0 0-4.7 1.9c-.2.44-.31.92-.36 1.44h7.38Zm6.6 5.7c-.78 0-1.55-.12-2.3-.37a5.3 5.3 0 0 1-1.91-1.12l.59-.88a5.22 5.22 0 0 0 3.61 1.38c.8 0 1.45-.16 1.92-.49.49-.32.73-.78.73-1.4 0-.27-.07-.5-.2-.69a1.69 1.69 0 0 0-.56-.48 4.5 4.5 0 0 0-.95-.38l-1.32-.33c-.57-.14-1.07-.28-1.5-.42a4.7 4.7 0 0 1-1.05-.48c-.27-.18-.48-.4-.6-.66a2.2 2.2 0 0 1-.2-1 2.66 2.66 0 0 1 1.1-2.28c.33-.24.73-.42 1.2-.55a5.63 5.63 0 0 1 3.55.17c.62.26 1.13.59 1.52 1l-.64.76a3.63 3.63 0 0 0-1.36-.86 4.93 4.93 0 0 0-2.63-.17c-.3.07-.55.18-.77.33a1.61 1.61 0 0 0-.73 1.41c0 .27.04.5.13.66.09.17.24.31.45.43.2.12.46.23.77.33.32.1.7.18 1.15.28.64.16 1.2.32 1.69.48.49.15.9.33 1.22.53.34.2.59.45.75.75.17.29.25.64.25 1.07a2.6 2.6 0 0 1-1.06 2.19c-.7.53-1.66.8-2.85.8Zm15.34-12.06-.85-.34 1.12-1.78h1.39l-1.65 2.12Zm-.05 12.06a4.84 4.84 0 0 1-3.6-1.53 5.26 5.26 0 0 1-1.43-3.68 5.25 5.25 0 0 1 1.41-3.6 5.1 5.1 0 0 1 3.6-1.54 4.77 4.77 0 0 1 3.58 1.55 5.18 5.18 0 0 1 1.39 3.58v.3l-.02.2h-8.58a4.08 4.08 0 0 0 1.18 2.68 3.55 3.55 0 0 0 4.37.56c.27-.15.52-.35.73-.57.23-.22.4-.47.5-.75l1.14.31c-.15.38-.37.71-.65 1.01a4.62 4.62 0 0 1-2.21 1.3c-.45.12-.92.18-1.41.18Zm3.7-5.7a3.86 3.86 0 0 0-2.33-3.35 3.63 3.63 0 0 0-4.7 1.9c-.2.44-.3.92-.35 1.44h7.38Zm3.32-8.48h1.31v11.73c0 .38.1.67.3.88.21.21.5.32.88.32a4.4 4.4 0 0 0 1.04-.21l.24 1.05a5.7 5.7 0 0 1-1.82.34 2 2 0 0 1-1.44-.5c-.34-.34-.5-.81-.5-1.43V62.7Zm9.51 14.18a4.84 4.84 0 0 1-3.6-1.53 5.26 5.26 0 0 1-1.42-3.68 5.25 5.25 0 0 1 1.41-3.6 5.1 5.1 0 0 1 3.6-1.54 4.78 4.78 0 0 1 3.58 1.55 5.16 5.16 0 0 1 1.38 3.58v.5h-8.6a4.1 4.1 0 0 0 1.2 2.68 3.55 3.55 0 0 0 4.35.56c.28-.15.52-.35.74-.57.23-.22.4-.47.5-.75l1.14.31c-.15.38-.37.71-.65 1.01a4.65 4.65 0 0 1-2.21 1.3c-.45.12-.93.18-1.42.18Zm3.7-5.7a3.9 3.9 0 0 0-2.32-3.35 3.63 3.63 0 0 0-4.7 1.9c-.2.44-.31.92-.35 1.44h7.37Zm-5.55-8.48h1.38l1.15 1.78-.85.34-1.68-2.12Zm11.83 14-4.09-10h1.35l3.45 8.79 3.47-8.78H266l-4.09 9.99h-1.36Zm11.59.18a4.84 4.84 0 0 1-3.6-1.53 5.26 5.26 0 0 1-1.43-3.68 5.25 5.25 0 0 1 1.41-3.6 5.1 5.1 0 0 1 3.6-1.54 4.77 4.77 0 0 1 3.58 1.55 5.18 5.18 0 0 1 1.39 3.58v.3l-.02.2h-8.58a4.08 4.08 0 0 0 1.18 2.68 3.55 3.55 0 0 0 4.37.56c.27-.15.51-.35.73-.57.23-.22.4-.47.5-.75l1.14.31c-.15.38-.37.71-.65 1.01a4.62 4.62 0 0 1-2.21 1.3c-.45.12-.92.18-1.41.18Zm3.7-5.7a3.86 3.86 0 0 0-2.33-3.35 3.63 3.63 0 0 0-4.7 1.9c-.2.44-.3.92-.35 1.44h7.38Zm6.6 5.7a7.2 7.2 0 0 1-2.3-.37 5.32 5.32 0 0 1-1.92-1.12l.6-.88a5.21 5.21 0 0 0 3.61 1.38c.8 0 1.44-.16 1.92-.49.48-.32.72-.78.72-1.4 0-.27-.06-.5-.2-.69a1.68 1.68 0 0 0-.56-.48 4.5 4.5 0 0 0-.95-.38l-1.31-.33c-.58-.14-1.08-.28-1.5-.42a4.3 4.3 0 0 1-1.05-.48c-.28-.18-.48-.4-.61-.66a2.2 2.2 0 0 1-.2-1 2.66 2.66 0 0 1 1.1-2.28 3.9 3.9 0 0 1 1.2-.55 5.63 5.63 0 0 1 3.55.17c.63.26 1.14.59 1.52 1l-.64.76a3.63 3.63 0 0 0-1.36-.86 4.93 4.93 0 0 0-2.62-.17c-.3.07-.55.18-.78.33-.22.15-.4.35-.54.59-.12.23-.18.5-.18.82 0 .27.04.5.12.66.1.17.24.31.45.43.2.12.47.23.78.33.31.1.7.18 1.15.28.64.16 1.2.32 1.68.48.5.15.9.33 1.23.53.33.2.58.45.75.75.16.29.25.64.25 1.07 0 .92-.36 1.65-1.06 2.19-.71.53-1.66.8-2.85.8Z" fill="#FAFBFF"/></g><defs><clipPath id="a"><path fill="#fff" transform="translate(0 .5)" d="M0 0h300v100H0z"/></clipPath></defs></svg>