<svg xmlns="http://www.w3.org/2000/svg" width="500" viewBox="0 0 375 375" height="500" version="1.0">
    <defs>
        <clipPath id="a">
            <path d="M8 134h112v117.836H8Zm0 0"/>
        </clipPath>
        <clipPath id="b">
            <path d="M0 126.586h128.25V248H0Zm0 0"/>
        </clipPath>
    </defs>
    <g clip-path="url(#a)">
        <path fill="#35f"
              d="M72.574 251.836s-6.906-8.371-22.996-11.09c-15.695-3.637-34.617-18.89-39.504-40.289-5.636-21.187 3.86-43.363 15.942-53.71 12.047-10.876 23.316-12.571 23.105-12.712.281.317-10.914 2.262-22.644 13.172C14.68 157.59 5.68 179.48 11.383 200.105c4.96 20.833 23.527 35.415 38.656 38.84a51.686 51.686 0 0 1 9.711 2.438c10.7 3.777 14.809 8.652 14.809 8.652Zm-16.863 0s6.906-8.371 22.996-11.09c15.66-3.637 34.617-18.89 39.469-40.289 5.636-21.187-3.86-43.363-15.942-53.71-12.046-10.876-23.316-12.571-23.105-12.712-.281.317 10.914 2.262 22.644 13.172 11.832 10.418 20.832 32.309 15.13 52.934-4.962 20.832-23.528 35.414-38.692 38.804a51.686 51.686 0 0 0-9.711 2.438c-10.7 3.777-14.809 8.652-14.809 8.652Zm0 0"/>
    </g>
    <g clip-path="url(#b)">
        <path fill="#35f"
              d="M44.938 227.469s4.394 1.484 5.847 4.98c1.844 4.38 1.028 8.016 1.028 8.016s-4.395-2.262-5.848-4.625c-2.09-3.32-1.028-8.371-1.028-8.371Zm-7.723 19.176s4.43 1.34 7.687-.602c4.04-2.473 5.563-5.86 5.563-5.86s-4.89-.742-7.477.317c-3.648 1.45-5.773 6.145-5.773 6.145Zm.426-14.692c1.027 2.543 4.886 5.477 4.886 5.477s1.383-3.39.356-7.91c-.817-3.602-4.781-5.829-4.781-5.829s-1.88 4.73-.461 8.262Zm-10.243 8.934s4.04 2.05 7.512.707c4.324-1.696 6.38-4.73 6.38-4.73s-4.606-1.555-7.302-.954c-3.718.813-6.59 4.977-6.59 4.977Zm2.73-14.16c.567 2.613 3.755 6.109 3.755 6.109s1.914-3.035 1.703-7.555c-.18-3.636-3.652-6.426-3.652-6.426s-2.586 4.2-1.805 7.872Zm-11.41 6.886s3.544 2.684 7.122 1.977c4.465-.918 6.945-3.457 6.945-3.457s-4.18-2.262-6.875-2.192c-3.719.106-7.191 3.672-7.191 3.672Zm4.927-13.383c.07 2.614 2.585 6.536 2.585 6.536s2.375-2.614 2.942-7.028c.46-3.531-2.41-6.816-2.41-6.816s-3.262 3.637-3.117 7.308Zm-12.192 4.696s2.977 3.18 6.555 3.11c4.465-.106 7.3-2.192 7.3-2.192s-3.648-2.86-6.269-3.246c-3.652-.496-7.586 2.328-7.586 2.328Zm6.91-12.18c-.355 2.543 1.383 6.742 1.383 6.742s2.727-2.117 4.04-6.25c1.062-3.316-1.169-6.992-1.169-6.992s-3.722 2.899-4.254 6.5ZM5.82 215.22s2.34 3.566 5.778 4.094c4.32.636 7.402-.848 7.402-.848s-3.012-3.426-5.492-4.203c-3.399-1.13-7.688.957-7.688.957Zm8.754-10.739c-.781 2.368.176 6.747.176 6.747s2.977-1.59 4.96-5.368c1.595-3.035.071-6.922.071-6.922s-4.11 2.192-5.207 5.543Zm-12.543.25s1.63 3.848 4.887 4.942c4.039 1.379 7.336.426 7.336.426s-2.34-3.817-4.57-4.98c-3.192-1.626-7.653-.388-7.653-.388Zm10.203-8.968c-1.168 2.187-.957 6.531-.957 6.531s3.153-1.023 5.703-4.344c2.02-2.648 1.278-6.672 1.278-6.672s-4.395 1.446-6.024 4.485ZM.082 193.89s.922 3.988 3.86 5.613c3.687 2.012 6.98 1.66 6.98 1.66s-1.594-4.062-3.543-5.582c-2.762-2.152-7.297-1.691-7.297-1.691Zm11.371-7.137c-1.488 1.91-2.055 6.144-2.055 6.144s3.227-.457 6.239-3.21c2.41-2.227 2.37-6.215 2.37-6.215s-4.425.632-6.554 3.28ZM.047 182.87s.21 4.027 2.762 6.04c3.226 2.542 6.449 2.788 6.449 2.788s-.852-4.203-2.48-6.004c-2.266-2.507-6.731-2.824-6.731-2.824Zm12.187-5.367c-1.773 1.59-3.046 5.578-3.046 5.578s3.187.106 6.59-2.047c2.726-1.73 3.331-5.613 3.331-5.613s-4.394-.106-6.875 2.082Zm-10.347-5.649s-.496 3.918 1.668 6.32c2.656 3 5.738 3.778 5.738 3.778s-.105-4.203-1.383-6.215c-1.77-2.824-6.023-3.883-6.023-3.883Zm12.758-3.39c-1.985 1.234-3.864 4.87-3.864 4.87s3.047.673 6.696-.847c2.941-1.199 4.183-4.87 4.183-4.87s-4.219-.884-7.015.847Zm-9.036-7.203s-1.136 3.672.532 6.39c2.054 3.32 4.89 4.59 4.89 4.59s.602-4.058-.25-6.215c-1.203-3.035-5.172-4.765-5.172-4.765Zm13.04-1.239c-2.13.848-4.57 4.028-4.57 4.028s2.831 1.129 6.589.316c3.012-.668 4.852-3.988 4.852-3.988s-3.895-1.555-6.872-.356Zm-7.477-8.507s-1.738 3.355-.602 6.25c1.414 3.566 3.93 5.297 3.93 5.297s1.277-3.852.816-6.04c-.636-3.144-4.144-5.507-4.144-5.507Zm12.898.882c-2.164.457-5.105 3.141-5.105 3.141s2.55 1.59 6.344 1.414c3.046-.14 5.351-3 5.351-3s-3.508-2.191-6.59-1.555Zm-5.742-9.464s-2.23 2.964-1.629 5.933c.742 3.707 2.906 5.79 2.906 5.79s1.91-3.462 1.805-5.684c-.105-3.18-3.082-6.04-3.082-6.04Zm12.367 3.004c-2.199.07-5.492 2.152-5.492 2.152s2.195 1.976 5.844 2.437c2.941.387 5.707-2.015 5.707-2.015s-2.977-2.684-6.059-2.575ZM26.762 135.8s-2.657 2.472-2.586 5.437c.105 3.707 1.84 6.075 1.84 6.075s2.41-3.036 2.73-5.192c.39-3.035-1.984-6.32-1.984-6.32Zm11.55 4.945c-2.124-.32-5.667 1.129-5.667 1.129s1.77 2.258 5.242 3.355c2.765.883 5.847-.953 5.847-.953s-2.48-3.074-5.422-3.53Zm-2.09-10.418s-2.976 1.942-3.437 4.8c-.566 3.602.742 6.18.742 6.18s2.871-2.507 3.508-4.554c.922-2.86-.812-6.426-.812-6.426ZM46.533 137c-2.02-.668-5.669.145-5.669.145s1.313 2.468 4.5 4.128c2.551 1.309 5.813.07 5.813.07s-1.844-3.421-4.645-4.343Zm-.212-10.414s-3.222 1.34-4.144 4.059c-1.137 3.355-.356 6.074-.356 6.074s3.188-1.942 4.18-3.813c1.383-2.578.32-6.32.32-6.32Zm.14 8.332s2.411 1.344 4.571.637c2.66-.918 4.004-2.72 4.004-2.72s-2.762-1.058-4.39-.776c-2.34.386-4.184 2.859-4.184 2.859Zm36.888 92.55s-4.395 1.485-5.848 4.981c-1.84 4.38-1.027 8.016-1.027 8.016s4.394-2.262 5.847-4.625c2.09-3.32 1.028-8.371 1.028-8.371Zm1.949 12.997c-2.586-1.059-7.477-.317-7.477-.317s1.524 3.422 5.563 5.86c3.222 1.976 7.687.601 7.687.601s-2.16-4.66-5.773-6.144Zm4.89-16.738s-3.968 2.191-4.785 5.828c-1.027 4.52.356 7.91.356 7.91s3.86-2.934 4.851-5.477c1.454-3.566-.421-8.261-.421-8.261Zm4.075 12.183c-2.696-.566-7.301.953-7.301.953s2.055 3.035 6.379 4.73c3.472 1.345 7.512-.706 7.512-.706s-2.836-4.164-6.59-4.977Zm2.054-17.055s-3.472 2.79-3.652 6.426c-.21 4.52 1.703 7.555 1.703 7.555s3.223-3.496 3.754-6.11c.817-3.671-1.805-7.87-1.805-7.87Zm6.024 11.051c-2.695-.105-6.875 2.192-6.875 2.192s2.48 2.574 6.945 3.457c3.578.707 7.121-1.977 7.121-1.977s-3.437-3.531-7.191-3.672Zm-.817-16.984s-2.87 3.285-2.41 6.816c.567 4.414 2.942 7.028 2.942 7.028s2.515-3.922 2.586-6.536c.109-3.671-3.118-7.308-3.118-7.308Zm7.688 9.676c-2.586.351-6.234 3.246-6.234 3.246s2.835 2.086 7.3 2.191c3.578.07 6.555-3.11 6.555-3.11s-3.934-2.823-7.621-2.327Zm-3.578-16.387s-2.195 3.637-1.168 6.992c1.312 4.168 4.039 6.25 4.039 6.25s1.738-4.2 1.383-6.742c-.496-3.566-4.254-6.5-4.254-6.5Zm9.11 8.016c-2.446.777-5.493 4.203-5.493 4.203s3.117 1.52 7.402.847c3.473-.53 5.778-4.097 5.778-4.097s-4.254-2.047-7.688-.953Zm-6.24-15.29s-1.487 3.887.071 6.922c1.985 3.778 4.961 5.368 4.961 5.368s.957-4.38.176-6.747c-1.098-3.351-5.207-5.542-5.207-5.542Zm10.134 6.18c-2.23 1.164-4.57 4.98-4.57 4.98s3.261.919 7.3-.425c3.258-1.094 4.89-4.942 4.89-4.942s-4.5-1.238-7.62.387Zm-8.575-13.804s-.777 4.023 1.278 6.671c2.55 3.32 5.703 4.344 5.703 4.344s.176-4.379-.957-6.531c-1.7-3.074-6.023-4.484-6.023-4.484Zm10.844 4.234c-1.949 1.52-3.543 5.582-3.543 5.582s3.293.351 6.98-1.66c2.942-1.625 3.86-5.617 3.86-5.617s-4.535-.422-7.297 1.695Zm-10.629-12.074s-.074 4.023 2.371 6.214c3.012 2.754 6.239 3.211 6.239 3.211s-.567-4.234-2.055-6.144c-2.129-2.649-6.555-3.281-6.555-3.281Zm11.196 2.257c-1.63 1.801-2.48 6.004-2.48 6.004s3.26-.21 6.448-2.789c2.551-2.047 2.762-6.039 2.762-6.039s-4.426.281-6.73 2.824Zm-12.332-10.273s.605 3.883 3.332 5.613c3.402 2.157 6.59 2.047 6.59 2.047s-1.274-4.023-3.047-5.578c-2.48-2.223-6.875-2.082-6.875-2.082Zm11.199.281c-1.278 2.012-1.383 6.215-1.383 6.215s3.082-.777 5.738-3.777c2.13-2.403 1.668-6.32 1.668-6.32s-4.254 1.058-6.023 3.882Zm-13.715-8.086s1.277 3.637 4.184 4.871c3.648 1.52 6.695.848 6.695.848s-1.914-3.637-3.863-4.871c-2.797-1.766-7.016-.848-7.016-.848Zm10.844-1.625c-.887 2.157-.25 6.215-.25 6.215s2.87-1.27 4.926-4.625c1.668-2.683.53-6.39.53-6.39s-3.968 1.765-5.206 4.8Zm-14.739-5.648s1.84 3.281 4.852 3.988c3.793.848 6.59-.316 6.59-.316s-2.442-3.215-4.57-4.028c-2.942-1.199-6.872.356-6.872.356Zm10.204-3.39c-.496 2.222.816 6.038.816 6.038s2.55-1.695 3.965-5.297c1.137-2.894-.602-6.25-.602-6.25s-3.508 2.399-4.18 5.508Zm-15.309-3.036s2.34 2.895 5.352 3c3.793.176 6.343-1.414 6.343-1.414s-2.941-2.684-5.101-3.105c-3.086-.672-6.594 1.52-6.594 1.52Zm9.25-5.016c-.07 2.223 1.805 5.684 1.805 5.684s2.164-2.082 2.906-5.789c.602-2.969-1.629-5.934-1.629-5.934s-2.977 2.895-3.082 6.04Zm-15.414-.425s2.766 2.367 5.703 2.015c3.688-.496 5.848-2.437 5.848-2.437s-3.293-2.082-5.492-2.153c-3.012-.109-6.06 2.575-6.06 2.575Zm8.113-6.39c.285 2.155 2.73 5.19 2.73 5.19s1.735-2.367 1.84-6.074c.075-2.965-2.585-5.437-2.585-5.437s-2.41 3.285-1.985 6.32Zm-15.023 2.155s3.047 1.836 5.847.953c3.473-1.097 5.243-3.355 5.243-3.355s-3.508-1.45-5.668-1.129c-2.977.457-5.422 3.531-5.422 3.531Zm6.699-7.523c.672 2.012 3.508 4.555 3.508 4.555s1.273-2.579.742-6.18c-.426-2.86-3.438-4.8-3.438-4.8s-1.734 3.566-.812 6.425Zm-14.176 4.625s3.262 1.273 5.813-.07c3.152-1.66 4.5-4.13 4.5-4.13s-3.649-.812-5.633-.14c-2.8.883-4.68 4.34-4.68 4.34Zm5.211-8.438c.992 1.836 4.18 3.813 4.18 3.813s.781-2.719-.356-6.074c-.918-2.72-4.18-4.094-4.18-4.094s-1.027 3.742.356 6.355Zm-4.605-.882c-1.668-.282-4.395.777-4.395.777s1.309 1.8 4.004 2.719c2.125.742 4.57-.637 4.57-.637s-1.879-2.473-4.18-2.86Zm0 0"/>
    </g>
    <path d="M137.475 174.208c0-1.72.297-3.426.89-5.125a14.187 14.187 0 0 1 2.626-4.547c1.156-1.344 2.578-2.438 4.265-3.281 1.688-.844 3.598-1.266 5.735-1.266 2.539 0 4.71.578 6.515 1.734 1.813 1.149 3.145 2.64 4 4.485l-2.203 1.375c-.46-.938-1.015-1.723-1.672-2.36a9.103 9.103 0 0 0-2.11-1.562 8.751 8.751 0 0 0-2.327-.875 11.034 11.034 0 0 0-2.36-.266c-1.71 0-3.218.352-4.53 1.047-1.313.7-2.419 1.61-3.313 2.734a11.781 11.781 0 0 0-2.032 3.782 14 14 0 0 0-.671 4.28c0 1.575.27 3.087.812 4.532.55 1.45 1.3 2.73 2.25 3.844a10.821 10.821 0 0 0 3.36 2.64c1.3.657 2.718.985 4.25.985.8 0 1.624-.098 2.468-.297a9.71 9.71 0 0 0 2.438-.969c.789-.445 1.52-.992 2.187-1.64.664-.657 1.227-1.453 1.688-2.391l2.328 1.203a8.926 8.926 0 0 1-1.938 2.828c-.824.813-1.746 1.5-2.765 2.063a13.443 13.443 0 0 1-3.22 1.281 13.61 13.61 0 0 1-3.358.438c-1.95 0-3.743-.426-5.375-1.282a14.08 14.08 0 0 1-4.204-3.343 15.473 15.473 0 0 1-2.75-4.688 15.224 15.224 0 0 1-.984-5.36ZM186.01 186.16v2.485h-19.124v-28.484h18.765v2.484h-15.969v10.266h13.922v2.375h-13.922v10.875ZM207.957 165.489c-.805-.906-1.875-1.64-3.219-2.203-1.336-.563-2.855-.844-4.562-.844-2.512 0-4.344.477-5.5 1.422-1.149.95-1.719 2.242-1.719 3.875 0 .855.149 1.559.453 2.11.313.554.785 1.03 1.422 1.437.645.398 1.469.742 2.469 1.031 1.008.293 2.195.586 3.562.875 1.52.324 2.891.688 4.11 1.094 1.219.398 2.254.898 3.11 1.5.85.605 1.503 1.336 1.952 2.187.457.856.688 1.922.688 3.203 0 1.313-.258 2.454-.766 3.422-.5.961-1.21 1.762-2.125 2.407-.906.636-1.992 1.109-3.25 1.421-1.25.301-2.625.454-4.125.454-4.418 0-8.23-1.375-11.437-4.125l1.406-2.282c.508.532 1.117 1.04 1.828 1.516.707.48 1.492.902 2.36 1.266.874.367 1.804.648 2.796.843a15.8 15.8 0 0 0 3.125.297c2.27 0 4.04-.406 5.313-1.219 1.27-.812 1.906-2.05 1.906-3.718 0-.875-.184-1.614-.547-2.22-.355-.6-.898-1.124-1.625-1.562-.719-.445-1.617-.828-2.687-1.14a57.776 57.776 0 0 0-3.72-.969c-1.5-.352-2.812-.71-3.937-1.078-1.125-.375-2.078-.844-2.859-1.406-.773-.563-1.352-1.239-1.734-2.032-.387-.789-.578-1.757-.578-2.906 0-1.312.242-2.484.734-3.515a6.937 6.937 0 0 1 2.11-2.563c.913-.687 1.988-1.207 3.218-1.562 1.227-.364 2.594-.547 4.094-.547 1.894 0 3.582.289 5.062.859a13.799 13.799 0 0 1 4.047 2.422ZM215.667 188.645v-28.484h2.797v28.484ZM238.643 165.38v23.265h-2.797v-28.484h2.156l18.86 23.703v-23.672h2.812v28.453h-2.453ZM275.644 160.16h2.36l11.843 28.485h-2.969l-3.703-8.906h-12.797l-3.656 8.906h-3Zm6.89 17.376-5.734-14.094-5.812 14.094ZM296.731 165.38v23.265h-2.797v-28.484h2.157l18.86 23.703v-23.672h2.812v28.453h-2.454ZM323.014 174.208c0-1.72.297-3.426.89-5.125a14.187 14.187 0 0 1 2.625-4.547c1.157-1.344 2.578-2.438 4.266-3.281 1.687-.844 3.598-1.266 5.734-1.266 2.54 0 4.711.578 6.516 1.734 1.812 1.149 3.145 2.64 4 4.485l-2.203 1.375c-.461-.938-1.016-1.723-1.672-2.36a9.103 9.103 0 0 0-2.11-1.562 8.751 8.751 0 0 0-2.328-.875 11.034 11.034 0 0 0-2.359-.266c-1.71 0-3.219.352-4.531 1.047-1.313.7-2.418 1.61-3.313 2.734a11.781 11.781 0 0 0-2.03 3.782 14 14 0 0 0-.673 4.28c0 1.575.27 3.087.813 4.532.55 1.45 1.3 2.73 2.25 3.844a10.821 10.821 0 0 0 3.36 2.64c1.3.657 2.718.985 4.25.985.8 0 1.624-.098 2.468-.297a9.71 9.71 0 0 0 2.437-.969c.79-.445 1.52-.992 2.188-1.64.664-.657 1.226-1.453 1.687-2.391l2.328 1.203a8.926 8.926 0 0 1-1.937 2.828c-.824.813-1.746 1.5-2.766 2.063a13.443 13.443 0 0 1-3.218 1.281 13.61 13.61 0 0 1-3.36.438c-1.949 0-3.742-.426-5.375-1.282a14.08 14.08 0 0 1-4.203-3.343 15.473 15.473 0 0 1-2.75-4.688 15.224 15.224 0 0 1-.984-5.36ZM352.58 160.16l9.313 15.329 9.39-15.328h3.048l-11.047 17.89v10.594h-2.797v-10.672l-11-17.812ZM166.946 216.94c0 .648-.132 1.242-.39 1.78a4.35 4.35 0 0 1-1.031 1.391c-.43.387-.934.688-1.516.907a5.185 5.185 0 0 1-1.86.328h-8.062v-17.094h8.234c.594 0 1.13.133 1.61.39.488.25.898.586 1.234 1 .332.407.594.872.781 1.391a4.64 4.64 0 0 1 .282 1.578c0 .867-.22 1.657-.657 2.375a3.982 3.982 0 0 1-1.796 1.594c.976.293 1.75.836 2.312 1.625.57.781.86 1.695.86 2.734Zm-1.687-.282a3.454 3.454 0 0 0-.828-2.25 3.142 3.142 0 0 0-.938-.734 2.541 2.541 0 0 0-1.172-.281h-6.546v6.484h6.375a2.78 2.78 0 0 0 1.218-.266c.375-.176.703-.41.985-.703.28-.3.5-.644.656-1.031.164-.395.25-.8.25-1.219Zm-9.484-10.937v6.312h5.875c.414 0 .8-.086 1.156-.265a2.988 2.988 0 0 0 1.531-1.704 3.27 3.27 0 0 0 .219-1.187c0-.438-.07-.848-.203-1.234a3.013 3.013 0 0 0-.578-1 2.702 2.702 0 0 0-.875-.672 2.488 2.488 0 0 0-1.11-.25ZM173.708 221.58c-1.367 0-2.383-.453-3.047-1.36-.668-.906-1-2.253-1-4.046v-7.375h1.64v7.078c0 2.844.97 4.266 2.907 4.266.477 0 .953-.079 1.422-.235a4.405 4.405 0 0 0 1.281-.703c.395-.3.75-.66 1.063-1.078.312-.426.566-.899.765-1.422v-7.906h1.641v10.422c0 .46.191.687.578.687v1.438c-.2.03-.36.047-.484.047h-.25c-.387-.012-.7-.145-.938-.407-.242-.258-.36-.601-.36-1.031v-1.453a5.811 5.811 0 0 1-2.234 2.281 5.964 5.964 0 0 1-2.984.797ZM190.33 210.252c-1.105.031-2.07.34-2.89.922-.812.574-1.39 1.367-1.734 2.375v7.797h-1.625v-12.547h1.531v3.015c.469-.968 1.094-1.722 1.875-2.265.79-.54 1.633-.813 2.531-.813.133 0 .239.008.313.016ZM197.934 221.58c-.918 0-1.758-.172-2.516-.516a6.238 6.238 0 0 1-1.984-1.406 6.61 6.61 0 0 1-1.313-2.078 6.864 6.864 0 0 1-.468-2.547c0-.875.156-1.703.468-2.484a6.389 6.389 0 0 1 1.297-2.047 6.382 6.382 0 0 1 1.985-1.39 5.988 5.988 0 0 1 2.515-.532c.914 0 1.754.18 2.516.531a5.94 5.94 0 0 1 1.953 1.407c.55.593.977 1.277 1.281 2.046.301.774.453 1.59.453 2.454v.39c0 .125-.007.211-.015.25H193.37c.04.68.192 1.305.454 1.875.27.563.613 1.059 1.03 1.485a4.364 4.364 0 0 0 3.156 1.313c.396-.001.79-.052 1.189-.157a5.038 5.038 0 0 0 1.109-.453c.344-.196.648-.438.922-.72a2.76 2.76 0 0 0 .625-.937l1.422.391a4.03 4.03 0 0 1-.813 1.266 5.799 5.799 0 0 1-1.234.984c-.461.281-.969.496-1.531.64a6.574 6.574 0 0 1-1.766.235Zm4.625-7.172a4.88 4.88 0 0 0-.469-1.844 4.828 4.828 0 0 0-1.015-1.421 4.253 4.253 0 0 0-1.422-.938 4.342 4.342 0 0 0-1.72-.344c-.605 0-1.183.117-1.733.344a4.359 4.359 0 0 0-1.438.938 4.605 4.605 0 0 0-.984 1.437 5.7 5.7 0 0 0-.438 1.828ZM209.794 221.58a4.587 4.587 0 0 1-1.656-.297 4.009 4.009 0 0 1-1.312-.828 3.742 3.742 0 0 1-1.188-2.766c0-.55.125-1.054.375-1.515a3.635 3.635 0 0 1 1.094-1.203 5.116 5.116 0 0 1 1.656-.782 7.58 7.58 0 0 1 2.125-.28c.633 0 1.281.058 1.938.171a8.11 8.11 0 0 1 1.765.469v-1.125c0-1.102-.312-1.977-.937-2.625-.625-.656-1.492-.985-2.594-.985-.648 0-1.308.133-1.984.391-.68.25-1.36.617-2.047 1.094l-.578-1.078c1.625-1.094 3.195-1.641 4.718-1.641 1.57 0 2.805.445 3.704 1.328.906.887 1.359 2.106 1.359 3.656v5.657c0 .46.195.687.594.687v1.438c-.274.05-.48.078-.625.078-.418 0-.742-.102-.969-.313-.23-.207-.355-.5-.375-.875l-.047-.984a5.87 5.87 0 0 1-2.187 1.734 6.745 6.745 0 0 1-2.829.594Zm.391-1.25c.852 0 1.633-.156 2.344-.469.719-.32 1.258-.75 1.625-1.281.144-.145.254-.3.328-.469.07-.164.11-.32.11-.468v-2.047a10.436 10.436 0 0 0-1.704-.485 9.364 9.364 0 0 0-1.781-.172c-1.156 0-2.102.246-2.828.735-.719.48-1.078 1.11-1.078 1.89 0 .387.07.75.218 1.094.157.336.364.625.625.875.27.25.586.45.954.594.375.137.77.203 1.187.203ZM223.691 221.58c-1.367 0-2.383-.453-3.047-1.36-.668-.906-1-2.253-1-4.046v-7.375h1.64v7.078c0 2.844.97 4.266 2.907 4.266.477 0 .953-.079 1.422-.235a4.405 4.405 0 0 0 1.281-.703c.395-.3.75-.66 1.063-1.078.312-.426.566-.899.765-1.422v-7.906h1.641v10.422c0 .46.191.687.578.687v1.438c-.199.03-.36.047-.484.047h-.25c-.387-.012-.7-.145-.938-.407-.242-.258-.36-.601-.36-1.031v-1.453a5.811 5.811 0 0 1-2.233 2.281 5.964 5.964 0 0 1-2.985.797ZM245.341 221.58c-.867 0-1.668-.18-2.406-.531a6.167 6.167 0 0 1-1.906-1.438 6.77 6.77 0 0 1-1.235-2.047 6.922 6.922 0 0 1-.437-2.453c0-.883.14-1.722.422-2.515.289-.79.687-1.485 1.187-2.078a5.63 5.63 0 0 1 1.813-1.407 5.02 5.02 0 0 1 2.297-.531c1.062 0 2 .281 2.812.844.82.554 1.469 1.219 1.938 2v-7.656h1.64v15.453c0 .46.192.687.578.687v1.438a3 3 0 0 1-.578.078c-.387 0-.726-.125-1.015-.375-.293-.25-.438-.551-.438-.906v-1.235a5.348 5.348 0 0 1-2.016 1.953c-.855.48-1.742.719-2.656.719Zm.36-1.437c.406 0 .835-.079 1.296-.235a5.35 5.35 0 0 0 1.282-.672c.406-.281.75-.61 1.03-.984.282-.375.454-.781.517-1.219v-3.875a3.992 3.992 0 0 0-.704-1.219 5.325 5.325 0 0 0-1.046-.984 4.94 4.94 0 0 0-1.266-.672 3.821 3.821 0 0 0-1.313-.25c-.68 0-1.293.149-1.843.438a4.503 4.503 0 0 0-1.407 1.14 5.083 5.083 0 0 0-.89 1.625 5.656 5.656 0 0 0-.313 1.875c0 .68.117 1.324.36 1.938.238.605.566 1.136.984 1.594.414.46.906.824 1.469 1.093.57.274 1.187.407 1.844.407ZM260.575 221.58c-.918 0-1.758-.172-2.515-.516a6.238 6.238 0 0 1-1.985-1.406 6.61 6.61 0 0 1-1.312-2.078 6.864 6.864 0 0 1-.469-2.547c0-.875.156-1.703.469-2.484a6.389 6.389 0 0 1 1.297-2.047 6.382 6.382 0 0 1 1.984-1.39 5.988 5.988 0 0 1 2.516-.532c.914 0 1.754.18 2.515.531a5.94 5.94 0 0 1 1.953 1.407c.551.593.977 1.277 1.282 2.046.3.774.453 1.59.453 2.454v.39c0 .125-.008.211-.016.25h-10.734c.039.68.191 1.305.453 1.875.27.563.613 1.059 1.031 1.485a4.364 4.364 0 0 0 3.156 1.313c.395-.001.79-.052 1.188-.157a5.038 5.038 0 0 0 1.11-.453c.343-.196.648-.438.921-.72a2.76 2.76 0 0 0 .625-.937l1.422.391a4.03 4.03 0 0 1-.812 1.266 5.799 5.799 0 0 1-1.235.984c-.46.281-.969.496-1.531.64a6.574 6.574 0 0 1-1.766.235Zm4.625-7.172a4.88 4.88 0 0 0-.468-1.844 4.828 4.828 0 0 0-1.016-1.421 4.253 4.253 0 0 0-1.422-.938 4.342 4.342 0 0 0-1.719-.344c-.605 0-1.183.117-1.734.344a4.359 4.359 0 0 0-1.438.938 4.605 4.605 0 0 0-.984 1.437 5.7 5.7 0 0 0-.437 1.828ZM273.451 221.58c-.98 0-1.937-.156-2.875-.469-.93-.32-1.726-.789-2.39-1.406l.734-1.11c.707.587 1.426 1.024 2.156 1.313a6.49 6.49 0 0 0 2.36.422c1.008 0 1.812-.203 2.406-.61.602-.406.906-.988.906-1.75 0-.35-.086-.644-.25-.874-.156-.227-.39-.43-.703-.61a5.607 5.607 0 0 0-1.187-.468 40.04 40.04 0 0 0-1.64-.422 22.971 22.971 0 0 1-1.876-.532c-.531-.175-.969-.375-1.312-.593a2.174 2.174 0 0 1-.766-.828c-.168-.333-.25-.75-.25-1.25 0-.625.117-1.176.36-1.657.25-.488.585-.89 1.015-1.203a4.508 4.508 0 0 1 1.5-.703 6.533 6.533 0 0 1 1.812-.25c.97 0 1.844.156 2.625.469.79.312 1.426.73 1.907 1.25l-.797.953a4.533 4.533 0 0 0-1.703-1.078 6.135 6.135 0 0 0-2.078-.36c-.438 0-.84.047-1.204.141a2.789 2.789 0 0 0-.968.422 2.057 2.057 0 0 0-.672.734 2.16 2.16 0 0 0-.235 1.032c0 .343.051.62.157.828.113.21.3.39.562.547.258.148.582.28.969.406.394.117.875.234 1.437.36.801.198 1.504.398 2.11.593.613.187 1.125.414 1.531.672.414.25.727.562.938.937.207.367.312.813.312 1.344 0 1.156-.445 2.074-1.328 2.75-.887.668-2.074 1-3.563 1ZM292.636 206.424l-1.078-.422 1.406-2.234h1.734Zm-.078 15.156c-.918 0-1.758-.172-2.516-.516a6.238 6.238 0 0 1-1.984-1.406 6.61 6.61 0 0 1-1.313-2.078 6.864 6.864 0 0 1-.469-2.547c0-.875.157-1.703.47-2.484a6.389 6.389 0 0 1 1.296-2.047 6.382 6.382 0 0 1 1.984-1.39 5.988 5.988 0 0 1 2.516-.532c.914 0 1.754.18 2.516.531a5.94 5.94 0 0 1 1.953 1.407c.55.593.976 1.277 1.281 2.046.3.774.453 1.59.453 2.454v.39c0 .125-.008.211-.015.25h-10.735c.04.68.192 1.305.453 1.875.27.563.614 1.059 1.032 1.485a4.364 4.364 0 0 0 3.156 1.313c.394-.001.789-.052 1.187-.157a5.038 5.038 0 0 0 1.11-.453c.343-.196.648-.438.922-.72a2.76 2.76 0 0 0 .625-.937l1.421.391a4.03 4.03 0 0 1-.812 1.266 5.799 5.799 0 0 1-1.234.984c-.461.281-.97.496-1.532.64a6.574 6.574 0 0 1-1.765.235Zm4.625-7.172a4.88 4.88 0 0 0-.469-1.844 4.828 4.828 0 0 0-1.016-1.421 4.253 4.253 0 0 0-1.422-.938 4.342 4.342 0 0 0-1.718-.344c-.606 0-1.184.117-1.735.344a4.359 4.359 0 0 0-1.437.938 4.605 4.605 0 0 0-.985 1.437 5.7 5.7 0 0 0-.437 1.828ZM301.34 203.768h1.64v14.734c0 .469.126.84.376 1.11.258.261.625.39 1.094.39.175 0 .382-.024.625-.078.238-.051.46-.114.671-.188l.297 1.328a5.314 5.314 0 0 1-1.125.297c-.437.082-.82.125-1.14.125-.762 0-1.36-.207-1.797-.625-.43-.426-.64-1.023-.64-1.797ZM313.23 221.58c-.918 0-1.758-.172-2.516-.516a6.238 6.238 0 0 1-1.984-1.406 6.61 6.61 0 0 1-1.313-2.078 6.864 6.864 0 0 1-.469-2.547c0-.875.157-1.703.47-2.484a6.389 6.389 0 0 1 1.296-2.047 6.382 6.382 0 0 1 1.984-1.39 5.988 5.988 0 0 1 2.516-.532c.914 0 1.754.18 2.516.531a5.94 5.94 0 0 1 1.953 1.407c.55.593.976 1.277 1.281 2.046.3.774.453 1.59.453 2.454v.39c0 .125-.008.211-.016.25h-10.734c.04.68.192 1.305.453 1.875.27.563.614 1.059 1.031 1.485a4.364 4.364 0 0 0 3.156 1.313c.395-.001.79-.052 1.188-.157a5.038 5.038 0 0 0 1.11-.453c.343-.196.648-.438.921-.72a2.76 2.76 0 0 0 .625-.937l1.422.391a4.03 4.03 0 0 1-.812 1.266 5.799 5.799 0 0 1-1.235.984c-.46.281-.968.496-1.53.64a6.574 6.574 0 0 1-1.766.235Zm4.625-7.172a4.88 4.88 0 0 0-.47-1.844 4.828 4.828 0 0 0-1.015-1.421 4.253 4.253 0 0 0-1.422-.938 4.342 4.342 0 0 0-1.718-.344c-.606 0-1.184.117-1.735.344a4.359 4.359 0 0 0-1.437.938 4.605 4.605 0 0 0-.985 1.437 5.7 5.7 0 0 0-.437 1.828Zm-6.938-10.64h1.719l1.437 2.234-1.062.422ZM325.7 221.346l-5.11-12.547h1.688l4.312 11.031 4.328-11.031h1.594l-5.11 12.547ZM340.182 221.58c-.917 0-1.757-.172-2.515-.516a6.238 6.238 0 0 1-1.985-1.406 6.61 6.61 0 0 1-1.312-2.078 6.864 6.864 0 0 1-.469-2.547c0-.875.156-1.703.469-2.484a6.389 6.389 0 0 1 1.297-2.047 6.382 6.382 0 0 1 1.984-1.39 5.988 5.988 0 0 1 2.516-.532c.914 0 1.754.18 2.515.531a5.94 5.94 0 0 1 1.954 1.407c.55.593.976 1.277 1.28 2.046.302.774.454 1.59.454 2.454v.39c0 .125-.008.211-.016.25H335.62c.04.68.191 1.305.453 1.875.27.563.613 1.059 1.031 1.485a4.364 4.364 0 0 0 3.156 1.313c.395-.001.79-.052 1.188-.157a5.038 5.038 0 0 0 1.11-.453c.343-.196.648-.438.921-.72a2.76 2.76 0 0 0 .625-.937l1.422.391a4.03 4.03 0 0 1-.812 1.266 5.799 5.799 0 0 1-1.235.984c-.46.281-.968.496-1.53.64a6.574 6.574 0 0 1-1.767.235Zm4.625-7.172a4.88 4.88 0 0 0-.468-1.844 4.828 4.828 0 0 0-1.016-1.421 4.253 4.253 0 0 0-1.422-.938 4.342 4.342 0 0 0-1.719-.344c-.605 0-1.183.117-1.734.344a4.359 4.359 0 0 0-1.437.938 4.605 4.605 0 0 0-.985 1.437 5.7 5.7 0 0 0-.437 1.828ZM353.059 221.58c-.98 0-1.938-.156-2.875-.469-.93-.32-1.727-.789-2.391-1.406l.734-1.11c.707.587 1.426 1.024 2.157 1.313a6.49 6.49 0 0 0 2.359.422c1.008 0 1.813-.203 2.406-.61.602-.406.907-.988.907-1.75 0-.35-.086-.644-.25-.874-.157-.227-.391-.43-.704-.61a5.607 5.607 0 0 0-1.187-.468 40.04 40.04 0 0 0-1.64-.422 22.971 22.971 0 0 1-1.876-.532c-.531-.175-.968-.375-1.312-.593a2.174 2.174 0 0 1-.766-.828c-.168-.333-.25-.75-.25-1.25 0-.625.117-1.176.36-1.657.25-.488.585-.89 1.015-1.203a4.508 4.508 0 0 1 1.5-.703 6.533 6.533 0 0 1 1.813-.25c.968 0 1.843.156 2.625.469.789.312 1.425.73 1.906 1.25l-.797.953a4.533 4.533 0 0 0-1.703-1.078 6.135 6.135 0 0 0-2.078-.36c-.438 0-.84.047-1.203.141a2.789 2.789 0 0 0-.97.422 2.057 2.057 0 0 0-.671.734 2.16 2.16 0 0 0-.234 1.032c0 .343.05.62.156.828.113.21.3.39.562.547.258.148.582.28.97.406.394.117.874.234 1.437.36.8.198 1.504.398 2.109.593.613.187 1.125.414 1.531.672.414.25.727.562.938.937.207.367.312.813.312 1.344 0 1.156-.445 2.074-1.328 2.75-.887.668-2.074 1-3.562 1Zm0 0"
          fill="#00041a"/>
</svg>
