<svg xmlns="http://www.w3.org/2000/svg" width="500" viewBox="0 0 375 375" height="500" version="1.0">
    <defs>
        <clipPath id="a">
            <path d="M24 25h327v346.25H24Zm0 0"/>
        </clipPath>
        <clipPath id="b">
            <path d="M0 3.75h375V358H0Zm0 0"/>
        </clipPath>
    </defs>
    <g clip-path="url(#a)">
        <path fill="#35f"
              d="M212.21 371.25s-20.202-24.555-67.241-32.531C99.07 328.047 43.742 283.285 29.445 220.5 12.973 158.336 40.738 93.27 76.07 62.91c35.227-31.91 68.172-36.883 67.551-37.297.828.93-31.91 6.63-66.207 38.645-34.5 30.46-60.816 94.699-44.137 155.207 14.508 61.129 68.797 103.918 113.04 113.969a149.767 149.767 0 0 1 28.386 7.148c31.293 11.086 43.309 25.383 43.309 25.383Zm-49.315 0s20.203-24.555 67.242-32.531c45.793-10.672 101.222-55.434 115.418-118.219 16.472-62.164-11.293-127.23-46.625-157.59-35.227-31.91-68.172-36.883-67.551-37.297-.828.93 31.91 6.63 66.207 38.645 34.605 30.562 60.922 94.8 44.238 155.308-14.504 61.13-68.797 103.922-113.14 113.868a149.767 149.767 0 0 0-28.387 7.148c-31.29 11.086-43.309 25.383-43.309 25.383Zm0 0"/>
    </g>
    <g clip-path="url(#b)">
        <path fill="#35f"
              d="M131.395 299.762s12.847 4.351 17.097 14.605c5.387 12.848 3.004 23.52 3.004 23.52s-12.848-6.63-17.094-13.57c-6.113-9.743-3.007-24.555-3.007-24.555Zm-22.586 56.258s12.953 3.937 22.484-1.762c11.812-7.254 16.266-17.2 16.266-17.2s-14.297-2.175-21.86.934c-10.672 4.246-16.89 18.028-16.89 18.028Zm1.242-43.102c3.008 7.46 14.3 16.059 14.3 16.059s4.04-9.946 1.036-23.207c-2.383-10.567-13.989-17.094-13.989-17.094s-5.492 13.883-1.347 24.242Zm-29.942 26.215s11.813 6.008 21.965 2.07c12.64-4.973 18.649-13.883 18.649-13.883s-13.47-4.558-21.344-2.797c-10.879 2.383-19.27 14.61-19.27 14.61Zm7.977-41.547c1.66 7.664 10.984 17.922 10.984 17.922s5.594-8.91 4.973-22.172c-.52-10.672-10.672-18.856-10.672-18.856s-7.562 12.329-5.285 23.106Zm-33.36 20.203s10.36 7.875 20.825 5.8c13.054-2.694 20.308-10.151 20.308-10.151s-12.226-6.633-20.101-6.426c-10.88.312-21.031 10.777-21.031 10.777Zm14.403-39.27c.207 7.668 7.562 19.168 7.562 19.168s6.942-7.667 8.598-20.617c1.348-10.363-7.043-19.996-7.043-19.996s-9.535 10.672-9.117 21.446Zm-35.645 13.782s8.703 9.324 19.168 9.117c13.055-.313 21.344-6.426 21.344-6.426s-10.672-8.39-18.34-9.531c-10.672-1.45-22.172 6.84-22.172 6.84Zm20.203-35.746c-1.035 7.46 4.043 19.789 4.043 19.789s7.977-6.215 11.813-18.34c3.105-9.738-3.422-20.512-3.422-20.512s-10.879 8.496-12.433 19.063Zm-36.675 7.254s6.84 10.464 16.886 12.02c12.641 1.862 21.657-2.49 21.657-2.49s-8.809-10.05-16.059-12.327c-9.95-3.317-22.484 2.797-22.484 2.797Zm25.59-31.497c-2.278 6.942.52 19.79.52 19.79s8.702-4.665 14.503-15.75c4.664-8.91.207-20.309.207-20.309s-12.016 6.426-15.23 16.27Zm-36.676.723s4.765 11.293 14.297 14.508c11.812 4.039 21.449 1.242 21.449 1.242s-6.84-11.191-13.367-14.61c-9.325-4.765-22.38-1.14-22.38-1.14Zm29.84-26.316c-3.418 6.426-2.797 19.168-2.797 19.168s9.218-3.004 16.68-12.742c5.906-7.774 3.73-19.583 3.73-19.583S40.53 197.81 35.766 206.72Zm-35.54-5.492s2.696 11.71 11.294 16.476c10.777 5.906 20.41 4.867 20.41 4.867s-4.66-11.914-10.36-16.367c-8.082-6.32-21.343-4.976-21.343-4.976ZM33.485 180.3c-4.351 5.594-6.007 18.027-6.007 18.027s9.43-1.348 18.234-9.43c7.047-6.527 6.941-18.234 6.941-18.234s-12.949 1.863-19.168 9.637ZM.125 168.902s.621 11.813 8.082 17.72c9.426 7.456 18.855 8.183 18.855 8.183s-2.488-12.328-7.253-17.614c-6.63-7.355-19.684-8.289-19.684-8.289Zm35.64-15.75c-5.18 4.664-8.91 16.371-8.91 16.371s9.325.313 19.27-6.007c7.98-5.078 9.738-16.477 9.738-16.477s-12.843-.309-20.097 6.113ZM5.513 136.578s-1.45 11.5 4.87 18.543c7.77 8.809 16.782 11.086 16.782 11.086s-.309-12.328-4.039-18.234c-5.18-8.29-17.613-11.395-17.613-11.395Zm37.297-9.95c-5.801 3.63-11.293 14.302-11.293 14.302s8.91 1.965 19.582-2.489c8.601-3.523 12.226-14.296 12.226-14.296s-12.328-2.59-20.515 2.484ZM16.39 105.493s-3.317 10.778 1.554 18.754c6.008 9.738 14.297 13.469 14.297 13.469s1.762-11.914-.726-18.235c-3.52-8.91-15.125-13.988-15.125-13.988Zm38.129-3.625c-6.22 2.488-13.368 11.813-13.368 11.813s8.29 3.316 19.274.93c8.804-1.965 14.191-11.708 14.191-11.708s-11.394-4.558-20.097-1.035ZM32.656 76.898s-5.078 9.844-1.761 18.34c4.144 10.461 11.5 15.54 11.5 15.54s3.73-11.294 2.382-17.716c-1.863-9.222-12.12-16.164-12.12-16.164Zm37.715 2.59c-6.32 1.348-14.922 9.223-14.922 9.223s7.461 4.66 18.547 4.14c8.91-.413 15.645-8.804 15.645-8.804s-10.258-6.426-19.27-4.559ZM53.586 51.723s-6.527 8.703-4.766 17.406c2.176 10.879 8.496 16.988 8.496 16.988s5.594-10.152 5.286-16.68c-.313-9.324-9.016-17.714-9.016-17.714Zm36.16 8.804c-6.426.207-16.058 6.32-16.058 6.32s6.421 5.801 17.093 7.15c8.598 1.14 16.68-5.907 16.68-5.907s-8.703-7.875-17.715-7.563Zm-11.5-29.734s-7.773 7.25-7.566 15.953c.312 10.879 5.39 17.82 5.39 17.82s7.043-8.91 7.977-15.23c1.14-8.91-5.8-18.543-5.8-18.543Zm33.774 14.504c-6.215-.934-16.575 3.316-16.575 3.316s5.18 6.63 15.332 9.844c8.082 2.59 17.098-2.8 17.098-2.8s-7.254-9.012-15.855-10.36Zm-6.114-30.563s-8.703 5.696-10.047 14.09c-1.66 10.567 2.176 18.13 2.176 18.13s8.39-7.356 10.258-13.364c2.691-8.395-2.387-18.856-2.387-18.856Zm30.153 19.582c-5.907-1.968-16.579.414-16.579.414s3.832 7.25 13.16 12.122c7.458 3.832 16.993.207 16.993.207s-5.39-10.051-13.574-12.743Zm-.621-30.566s-9.43 3.938-12.125 11.914c-3.313 9.844-1.036 17.82-1.036 17.82s9.325-5.695 12.227-11.187c4.039-7.563.934-18.547.934-18.547Zm.414 24.453s7.043 3.938 13.363 1.863c7.773-2.695 11.71-7.976 11.71-7.976s-8.081-3.11-12.847-2.281c-6.84 1.14-12.226 8.394-12.226 8.394Zm107.855 271.559s-12.848 4.351-17.094 14.605c-5.386 12.848-3.004 23.52-3.004 23.52s12.848-6.63 17.094-13.57c6.113-9.743 3.004-24.555 3.004-24.555Zm5.7 38.125c-7.563-3.106-21.864-.93-21.864-.93s4.457 10.047 16.27 17.2c9.425 5.8 22.48 1.757 22.48 1.757s-6.32-13.676-16.887-18.027Zm14.296-49.11s-11.601 6.426-13.984 17.094c-3.008 13.266 1.035 23.211 1.035 23.211s11.293-8.602 14.195-16.059c4.246-10.464-1.246-24.246-1.246-24.246Zm11.918 35.746c-7.875-1.66-21.344 2.797-21.344 2.797s6.008 8.91 18.649 13.883c10.152 3.938 21.965-2.07 21.965-2.07s-8.29-12.227-19.27-14.61Zm6.008-50.043s-10.152 8.184-10.672 18.856c-.621 13.262 4.973 22.172 4.973 22.172s9.43-10.258 10.984-17.922c2.383-10.777-5.285-23.106-5.285-23.106Zm17.613 32.43c-7.875-.312-20.101 6.422-20.101 6.422s7.254 7.563 20.308 10.156c10.465 2.07 20.824-5.804 20.824-5.804s-10.05-10.36-21.03-10.774Zm-2.383-49.836s-8.394 9.633-7.046 19.996c1.66 12.95 8.601 20.618 8.601 20.618s7.356-11.5 7.563-19.168c.312-10.774-9.118-21.446-9.118-21.446Zm22.485 28.387c-7.567 1.039-18.239 9.531-18.239 9.531s8.29 6.113 21.344 6.426c10.465.207 19.168-9.117 19.168-9.117s-11.5-8.29-22.273-6.84Zm-10.465-48.074s-6.426 10.672-3.422 20.515c3.836 12.227 11.813 18.34 11.813 18.34s5.078-12.332 4.043-19.789c-1.454-10.465-12.434-19.066-12.434-19.066Zm26.625 23.52c-7.149 2.28-16.059 12.327-16.059 12.327s9.118 4.457 21.657 2.489c10.152-1.555 16.886-12.02 16.886-12.02s-12.433-6.008-22.484-2.797Zm-18.234-44.864s-4.352 11.398.207 20.309c5.8 11.085 14.503 15.75 14.503 15.75s2.801-12.848.52-19.79c-3.21-9.843-15.23-16.269-15.23-16.269Zm29.632 18.133c-6.527 3.418-13.367 14.61-13.367 14.61s9.535 2.69 21.344-1.243c9.531-3.215 14.3-14.508 14.3-14.508s-13.16-3.625-22.277 1.14Zm-25.074-40.512s-2.277 11.813 3.73 19.582c7.462 9.738 16.68 12.746 16.68 12.746s.52-12.847-2.797-19.168c-4.972-9.015-17.613-13.16-17.613-13.16Zm31.703 12.434c-5.695 4.457-10.36 16.37-10.36 16.37s9.638 1.036 20.411-4.87c8.602-4.766 11.293-16.473 11.293-16.473s-13.262-1.242-21.344 4.973Zm-31.082-35.434s-.207 11.813 6.942 18.234c8.808 8.082 18.238 9.43 18.238 9.43s-1.66-12.433-6.012-18.027c-6.215-7.774-19.168-9.637-19.168-9.637Zm32.742 6.629c-4.765 5.285-7.253 17.613-7.253 17.613s9.53-.62 18.855-8.183c7.46-6.008 8.082-17.72 8.082-17.72s-12.95.833-19.684 8.29Zm-36.054-30.148s1.758 11.398 9.738 16.472c9.945 6.32 19.27 6.012 19.27 6.012s-3.73-11.813-8.91-16.371c-7.255-6.528-20.098-6.113-20.098-6.113Zm32.738.828c-3.73 5.906-4.04 18.234-4.04 18.234s9.013-2.277 16.782-11.086c6.219-7.043 4.871-18.543 4.871-18.543s-12.433 3.106-17.613 11.395Zm-40.098-23.727s3.73 10.672 12.227 14.297c10.672 4.457 19.582 2.488 19.582 2.488s-5.594-10.672-11.293-14.297c-8.184-5.18-20.516-2.488-20.516-2.488Zm31.707-4.766c-2.59 6.32-.726 18.235-.726 18.235s8.39-3.73 14.402-13.57c4.867-7.875 1.555-18.754 1.555-18.754s-11.606 5.18-15.23 14.09Zm-43.101-16.578s5.387 9.637 14.191 11.707c11.09 2.489 19.274-.93 19.274-.93s-7.149-9.429-13.368-11.812c-8.597-3.523-20.097 1.035-20.097 1.035Zm29.84-9.945c-1.453 6.527 2.382 17.719 2.382 17.719s7.457-4.977 11.602-15.543c3.316-8.496-1.762-18.34-1.762-18.34s-10.254 7.047-12.222 16.164Zm-44.762-8.91s6.84 8.496 15.644 8.805c11.086.52 18.547-4.141 18.547-4.141s-8.597-7.875-14.918-9.121c-9.015-1.969-19.273 4.457-19.273 4.457Zm27.043-14.711c-.207 6.527 5.285 16.68 5.285 16.68s6.32-6.114 8.496-16.993c1.762-8.703-4.765-17.406-4.765-17.406s-8.704 8.496-9.016 17.719Zm-45.07-1.246s8.082 6.941 16.68 5.906c10.777-1.45 17.097-7.148 17.097-7.148s-9.637-6.114-16.059-6.32c-8.808-.313-17.718 7.562-17.718 7.562Zm23.726-18.754c.828 6.32 7.977 15.23 7.977 15.23s5.078-6.941 5.39-17.82c.207-8.703-7.566-15.953-7.566-15.953s-7.043 9.633-5.8 18.543Zm-43.93 6.32s8.91 5.39 17.094 2.801c10.156-3.215 15.336-9.844 15.336-9.844s-10.258-4.25-16.578-3.316c-8.703 1.348-15.852 10.36-15.852 10.36Zm19.583-22.066c1.968 5.906 10.257 13.363 10.257 13.363s3.73-7.562 2.176-18.129c-1.242-8.394-10.05-14.09-10.05-14.09s-5.079 10.461-2.384 18.856Zm-41.446 13.57s9.535 3.73 16.992-.207c9.223-4.867 13.16-12.121 13.16-12.121s-10.671-2.383-16.472-.414c-8.188 2.59-13.68 12.742-13.68 12.742Zm15.23-24.762c2.903 5.391 12.227 11.192 12.227 11.192s2.281-7.977-1.035-17.82c-2.695-7.98-12.226-12.02-12.226-12.02s-3.004 10.984 1.035 18.648Zm-13.468-2.59c-4.867-.828-12.848 2.282-12.848 2.282s3.836 5.281 11.711 7.976c6.215 2.176 13.363-1.863 13.363-1.863s-5.492-7.254-12.226-8.394Zm0 0"/>
    </g>
</svg>
