<svg xmlns="http://www.w3.org/2000/svg" width="500" viewBox="0 0 375 375" height="500" version="1.0">
    <defs>
        <clipPath id="a">
            <path d="M48 49h278v295.02H48Zm0 0"/>
        </clipPath>
        <clipPath id="b">
            <path d="M28.078 31.27h318.75V333H28.078Zm0 0"/>
        </clipPath>
        <clipPath id="c">
            <path d="M4 112.5h185V209H4Zm0 0"/>
        </clipPath>
        <clipPath id="d">
            <path d="M56 165h133v97.5H56Zm0 0"/>
        </clipPath>
        <clipPath id="e">
            <path d="M186 112.5h185V209H186Zm0 0"/>
        </clipPath>
        <clipPath id="f">
            <path d="M186 165h133v97.5H186Zm0 0"/>
        </clipPath>
    </defs>
    <g clip-path="url(#a)">
        <path fill="#35f"
              d="M208.457 344.02s-17.172-20.899-57.156-27.688c-39.012-9.082-86.04-47.172-98.196-100.605-14-52.907 9.602-108.278 39.633-134.114 29.942-27.156 57.95-31.386 57.418-31.742.707.793-27.125 5.645-56.273 32.89-29.328 25.923-51.695 80.59-37.516 132.083 12.328 52.023 58.477 88.437 96.082 96.992a127.49 127.49 0 0 1 24.13 6.082c26.597 9.434 36.812 21.602 36.812 21.602Zm-41.918 0s17.172-20.899 57.156-27.688c38.926-9.082 86.043-47.172 98.106-100.605 14.004-52.907-9.598-108.278-39.63-134.114-29.944-27.156-57.948-31.386-57.421-31.742-.703.793 27.125 5.645 56.277 32.89 29.414 26.012 51.782 80.677 37.606 132.173-12.332 52.02-58.477 88.437-96.172 96.902a127.34 127.34 0 0 0-24.129 6.082c-26.598 9.434-36.812 21.602-36.812 21.602Zm0 0"/>
    </g>
    <g clip-path="url(#b)">
        <path fill="#35f"
              d="M139.766 283.18s10.922 3.703 14.53 12.43c4.579 10.933 2.556 20.015 2.556 20.015s-10.922-5.64-14.532-11.55c-5.195-8.286-2.554-20.895-2.554-20.895Zm-19.2 47.875s11.008 3.351 19.11-1.496c10.043-6.172 13.828-14.637 13.828-14.637s-12.152-1.852-18.582.793c-9.07 3.613-14.356 15.34-14.356 15.34Zm1.059-36.68c2.55 6.352 12.152 13.668 12.152 13.668s3.434-8.465.88-19.75c-2.024-8.996-11.887-14.55-11.887-14.55s-4.668 11.816-1.145 20.632Zm-25.453 22.309s10.039 5.113 18.672 1.765c10.742-4.234 15.851-11.816 15.851-11.816s-11.449-3.88-18.14-2.383c-9.25 2.031-16.383 12.434-16.383 12.434Zm6.781-35.356c1.41 6.524 9.336 15.254 9.336 15.254s4.754-7.586 4.227-18.871c-.442-9.082-9.07-16.047-9.07-16.047s-6.43 10.492-4.493 19.664Zm-28.36 17.192s8.81 6.703 17.704 4.937c11.098-2.293 17.262-8.64 17.262-8.64s-10.391-5.641-17.086-5.465c-9.246.261-17.88 9.168-17.88 9.168Zm12.243-33.418c.176 6.527 6.43 16.312 6.43 16.312s5.902-6.523 7.308-17.547c1.145-8.816-5.988-17.015-5.988-17.015s-8.102 9.082-7.75 18.25Zm-30.293 11.726s7.395 7.938 16.293 7.762c11.094-.266 18.14-5.469 18.14-5.469s-9.07-7.14-15.59-8.11c-9.07-1.234-18.843 5.817-18.843 5.817Zm17.172-30.418c-.88 6.348 3.433 16.84 3.433 16.84s6.782-5.29 10.04-15.605c2.644-8.29-2.907-17.458-2.907-17.458s-9.246 7.231-10.566 16.223Zm-31.176 6.172s5.813 8.906 14.356 10.227c10.742 1.59 18.406-2.114 18.406-2.114s-7.489-8.554-13.653-10.492c-8.453-2.824-19.109 2.379-19.109 2.379Zm21.754-26.805c-1.938 5.907.437 16.84.437 16.84s7.399-3.965 12.332-13.402c3.961-7.582.176-17.281.176-17.281s-10.215 5.468-12.945 13.843Zm-31.176.618s4.051 9.609 12.153 12.343c10.039 3.442 18.23 1.059 18.23 1.059s-5.813-9.524-11.363-12.434c-7.926-4.054-19.02-.968-19.02-.968ZM58.48 204c-2.906 5.465-2.378 16.313-2.378 16.313s7.836-2.56 14.18-10.848c5.019-6.613 3.167-16.664 3.167-16.664S62.531 196.418 58.48 204Zm-30.207-4.676s2.29 9.965 9.598 14.02c9.16 5.027 17.348 4.144 17.348 4.144s-3.961-10.14-8.805-13.93c-6.871-5.378-18.14-4.234-18.14-4.234Zm28.27-17.808c-3.7 4.761-5.11 15.34-5.11 15.34s8.016-1.145 15.5-8.024c5.989-5.555 5.903-15.516 5.903-15.516s-11.012 1.586-16.293 8.2Zm-28.36-9.7s.528 10.051 6.872 15.079c8.011 6.347 16.027 6.964 16.027 6.964s-2.113-10.492-6.164-14.988c-5.637-6.262-16.734-7.055-16.734-7.055Zm30.297-13.402c-4.406 3.969-7.574 13.93-7.574 13.93s7.926.265 16.38-5.114c6.78-4.32 8.276-14.02 8.276-14.02s-10.917-.265-17.082 5.204Zm-25.718-14.11s-1.23 9.79 4.14 15.786c6.606 7.492 14.266 9.433 14.266 9.433s-.262-10.492-3.434-15.52c-4.402-7.054-14.972-9.698-14.972-9.698Zm31.707-8.464c-4.934 3.086-9.602 12.168-9.602 12.168s7.574 1.676 16.645-2.113c7.312-3 10.394-12.168 10.394-12.168s-10.48-2.207-17.437 2.113Zm-22.457-17.985s-2.82 9.168 1.32 15.957c5.105 8.29 12.152 11.465 12.152 11.465s1.496-10.14-.617-15.52c-2.992-7.581-12.855-11.902-12.855-11.902Zm32.406-3.085c-5.281 2.113-11.36 10.05-11.36 10.05s7.047 2.82 16.38.793c7.488-1.675 12.066-9.965 12.066-9.965s-9.688-3.878-17.086-.878ZM55.836 93.52s-4.313 8.375-1.496 15.605c3.523 8.906 9.777 13.227 9.777 13.227s3.168-9.614 2.024-15.079C64.555 99.426 55.836 93.52 55.836 93.52Zm32.059 2.203c-5.372 1.144-12.684 7.847-12.684 7.847s6.344 3.97 15.766 3.528c7.574-.356 13.296-7.496 13.296-7.496s-8.718-5.465-16.378-3.88Zm-14.27-23.63s-5.547 7.407-4.05 14.813c1.85 9.258 7.222 14.461 7.222 14.461s4.758-8.644 4.492-14.199c-.266-7.934-7.664-15.074-7.664-15.074Zm30.738 7.493c-5.46.176-13.652 5.379-13.652 5.379s5.46 4.937 14.531 6.086c7.313.969 14.18-5.028 14.18-5.028s-7.399-6.703-15.059-6.437ZM94.586 54.28s-6.606 6.172-6.43 13.578c.266 9.258 4.582 15.168 4.582 15.168s5.989-7.586 6.782-12.965c.968-7.582-4.934-15.78-4.934-15.78Zm28.71 12.344c-5.284-.793-14.089 2.82-14.089 2.82s4.402 5.645 13.031 8.38c6.871 2.202 14.532-2.384 14.532-2.384s-6.165-7.668-13.473-8.816Zm-5.194-26.012s-7.399 4.852-8.543 11.992c-1.41 8.993 1.847 15.43 1.847 15.43s7.137-6.258 8.719-11.375c2.293-7.14-2.023-16.047-2.023-16.047Zm25.628 16.664c-5.023-1.672-14.093.356-14.093.356s3.258 6.172 11.187 10.316c6.34 3.262 14.442.176 14.442.176s-4.578-8.555-11.536-10.848Zm-.53-26.007s-8.012 3.347-10.305 10.136c-2.817 8.38-.88 15.168-.88 15.168s7.926-4.851 10.391-9.523c3.438-6.438.793-15.781.793-15.781Zm.35 20.808s5.993 3.348 11.364 1.586c6.606-2.293 9.95-6.789 9.95-6.789s-6.868-2.645-10.919-1.941c-5.812.972-10.394 7.144-10.394 7.144Zm91.68 231.102s-10.917 3.703-14.53 12.43c-4.579 10.933-2.555 20.015-2.555 20.015s10.921-5.64 14.53-11.55c5.2-8.286 2.555-20.895 2.555-20.895Zm4.844 32.445c-6.43-2.645-18.582-.793-18.582-.793s3.79 8.555 13.828 14.637c8.012 4.937 19.11 1.5 19.11 1.5s-5.371-11.64-14.356-15.344Zm12.153-41.793s-9.864 5.465-11.887 14.547c-2.555 11.289.879 19.754.879 19.754s9.601-7.32 12.066-13.668c3.61-8.906-1.058-20.633-1.058-20.633Zm10.128 30.418c-6.69-1.41-18.14 2.383-18.14 2.383s5.105 7.582 15.851 11.816c8.63 3.348 18.672-1.765 18.672-1.765s-7.047-10.403-16.383-12.434Zm5.11-42.586s-8.633 6.965-9.07 16.047c-.532 11.285 4.226 18.871 4.226 18.871s8.012-8.73 9.336-15.254c2.023-9.172-4.492-19.664-4.492-19.664Zm14.973 27.598c-6.696-.266-17.086 5.468-17.086 5.468s6.164 6.434 17.261 8.641c8.895 1.762 17.7-4.937 17.7-4.937s-8.543-8.82-17.875-9.172Zm-2.028-42.41s-7.133 8.199-5.988 17.015c1.41 11.024 7.308 17.547 7.308 17.547s6.254-9.785 6.43-16.312c.266-9.168-7.75-18.25-7.75-18.25Zm19.11 24.16c-6.426.879-15.5 8.11-15.5 8.11s7.046 5.202 18.144 5.468c8.895.176 16.293-7.762 16.293-7.762s-9.777-7.05-18.937-5.816Zm-8.895-40.914s-5.46 9.082-2.906 17.457c3.258 10.406 10.039 15.61 10.039 15.61s4.316-10.493 3.437-16.845c-1.234-8.902-10.57-16.222-10.57-16.222Zm22.633 20.015c-6.074 1.942-13.649 10.492-13.649 10.492s7.75 3.793 18.407 2.118c8.629-1.325 14.355-10.227 14.355-10.227s-10.57-5.117-19.113-2.383Zm-15.5-38.18s-3.7 9.7.18 17.282c4.93 9.437 12.328 13.402 12.328 13.402s2.379-10.933.441-16.84c-2.73-8.375-12.95-13.843-12.95-13.843Zm25.187 15.43c-5.547 2.91-11.36 12.434-11.36 12.434s8.103 2.293 18.142-1.059c8.105-2.734 12.156-12.343 12.156-12.343s-11.188-3.086-18.938.968Zm-21.312-34.472s-1.938 10.05 3.172 16.664c6.34 8.289 14.18 10.843 14.18 10.843s.44-10.933-2.38-16.312c-4.226-7.668-14.972-11.195-14.972-11.195Zm26.949 10.578c-4.844 3.793-8.805 13.933-8.805 13.933s8.188.88 17.348-4.144c7.309-4.055 9.602-14.02 9.602-14.02s-11.274-1.058-18.145 4.23Zm-26.418-30.153s-.176 10.051 5.899 15.516c7.488 6.879 15.5 8.023 15.5 8.023s-1.41-10.578-5.106-15.34c-5.285-6.613-16.293-8.199-16.293-8.199Zm27.828 5.641c-4.05 4.496-6.164 14.988-6.164 14.988s8.102-.527 16.027-6.965c6.34-5.113 6.872-15.078 6.872-15.078s-11.012.707-16.735 7.055Zm-30.648-25.656s1.496 9.699 8.277 14.02c8.457 5.378 16.383 5.113 16.383 5.113s-3.172-10.051-7.574-13.934c-6.164-5.555-17.086-5.2-17.086-5.2Zm27.832.703c-3.172 5.027-3.438 15.52-3.438 15.52s7.664-1.942 14.27-9.434c5.281-5.996 4.137-15.785 4.137-15.785s-10.567 2.644-14.97 9.699Zm-34.086-20.191s3.172 9.082 10.394 12.167c9.07 3.793 16.645 2.118 16.645 2.118s-4.758-9.082-9.602-12.168c-6.957-4.41-17.437-2.118-17.437-2.118Zm26.95-4.055c-2.2 5.379-.614 15.52-.614 15.52s7.133-3.176 12.238-11.551c4.14-6.704 1.324-15.961 1.324-15.961s-9.867 4.41-12.949 11.992Zm-36.634-14.11s4.578 8.204 12.063 9.965c9.426 2.117 16.383-.793 16.383-.793s-6.079-8.023-11.364-10.05c-7.308-3-17.082.878-17.082.878Zm25.364-8.464c-1.235 5.554 2.023 15.078 2.023 15.078s6.34-4.23 9.863-13.227c2.82-7.23-1.496-15.605-1.496-15.605s-8.719 5.996-10.39 13.754Zm-38.047-7.582s5.812 7.23 13.297 7.496c9.425.441 15.765-3.528 15.765-3.528s-7.308-6.703-12.683-7.757c-7.66-1.676-16.38 3.789-16.38 3.789Zm22.984-12.52c-.176 5.555 4.492 14.195 4.492 14.195s5.371-5.203 7.223-14.46c1.496-7.407-4.05-14.813-4.05-14.813s-7.4 7.23-7.665 15.078Zm-38.309-1.059s6.872 5.907 14.18 5.028c9.16-1.235 14.531-6.086 14.531-6.086s-8.191-5.203-13.652-5.38c-7.484-.265-15.059 6.438-15.059 6.438Zm20.168-15.96c.704 5.378 6.782 12.964 6.782 12.964s4.316-5.91 4.578-15.168c.176-7.406-6.426-13.578-6.426-13.578s-5.992 8.2-4.934 15.782Zm-37.34 5.378s7.575 4.586 14.532 2.383c8.629-2.734 13.031-8.379 13.031-8.379s-8.719-3.613-14.09-2.82c-7.398 1.148-13.472 8.816-13.472 8.816Zm16.645-18.78c1.672 5.026 8.719 11.374 8.719 11.374s3.168-6.437 1.848-15.43c-1.055-7.14-8.543-11.992-8.543-11.992s-4.313 8.907-2.024 16.047Zm-35.226 11.55s8.101 3.176 14.44-.176c7.84-4.144 11.185-10.316 11.185-10.316s-9.07-2.028-14-.352c-6.958 2.203-11.625 10.844-11.625 10.844Zm12.945-21.07c2.465 4.582 10.39 9.52 10.39 9.52s1.938-6.79-.878-15.165c-2.29-6.789-10.395-10.226-10.395-10.226s-2.55 9.343.883 15.87Zm-11.45-2.207c-4.14-.704-10.921 1.941-10.921 1.941s3.258 4.496 9.953 6.79c5.285 1.85 11.36-1.587 11.36-1.587s-4.669-6.172-10.391-7.144Zm0 0"/>
    </g>
    <path fill="#fff"
          d="M83.16 166.152c-.031.192-.09.375-.183.547-3.813 7.184-15.278-3.265-19.965 0-4.403 2.692-4.676 20.067-5.192 40.73l-.203-.007c-7.933-6.309-37.039-8.55-46.676-24.113-9.636-15.551-3.71-36.348-3.71-36.348-.176 15.723 11.156 18.93 11.156 18.93s-9.98-12.512-2.707-30.598c7.273-18.086 24.172-21.477 24.172-21.477-20.29 7.61-19.434 28.75-8.278 34.664 11.16 5.915 16.903 1.352 35.508 5.915 6.309 1.554 16.656 8.097 16.078 11.757Zm0 0"/>
    <path fill="#fff"
          d="M83.16 166.152c.082 1.149.215 6.098-1.957 16.078-12.984-6.988-21.172-13.449-18.191-15.53 4.687-3.266 16.152 7.183 19.965 0 .093-.173.152-.356.183-.548ZM311.867 166.7c2.992 2.081-5.203 8.542-18.18 15.542l-.007-.012c-2.203-10.195-2.032-15.132-1.961-16.148.031.215.09.426.195.617 3.8 7.184 15.266-3.265 19.953 0Zm0 0"/>
    <path fill="#fff"
          d="M291.719 166.07c-.426-3.672 9.828-10.132 16.09-11.675 18.593-4.563 24.347 0 35.503-5.915 11.16-5.914 12-27.054-8.285-34.664 0 0 16.91 3.391 24.172 21.477 7.274 18.086-2.695 30.598-2.695 30.598s11.316-3.207 11.156-18.93c0 0 5.914 20.797-3.723 36.348-9.636 15.562-38.73 17.804-46.675 24.113h-.192c-.527-20.664-.789-38.031-5.203-40.723-4.687-3.265-16.152 7.184-19.953 0a1.81 1.81 0 0 1-.195-.617Zm0 0"/>
    <path fill="#fff"
          d="M317.16 211.297c.336 12.418 1.633 15.062-29.937 31.762-35.098 18.574-72.489 18.328-99.778 18.328s-64.691.246-99.793-18.328c-31.558-16.7-30.257-19.344-29.933-31.762.027-1.3.07-2.59.101-3.867.516-20.664.79-38.04 5.192-40.73-2.98 2.081 5.207 8.542 18.191 15.53 7.375 3.989 16.3 8.137 25.594 11.758 25.664 9.973 53.258 13.434 80.445 13.434h.403c27.19 0 54.78-3.461 80.437-13.434 9.305-3.62 18.23-7.77 25.606-11.746 12.976-7 21.171-13.46 18.18-15.543 4.413 2.692 4.675 20.059 5.202 40.723.02 1.277.059 2.574.09 3.875Zm0 0"/>
    <g clip-path="url(#c)">
        <path fill="#00041a"
              d="M57.617 208.613c-.258 0-.52-.086-.738-.258-2.652-2.113-8.05-3.812-14.297-5.777-11.676-3.676-26.207-8.246-32.648-18.64-9.801-15.82-4.098-36.434-3.852-37.305.164-.57.719-.934 1.313-.848.59.086 1.027.59 1.02 1.188-.095 8.91 3.694 13.547 6.702 15.816-2.562-5.164-5.672-15.176-.539-27.941C22 116.375 38.906 112.8 39.625 112.656a1.192 1.192 0 0 1 1.375.84 1.19 1.19 0 0 1-.727 1.438c-9.058 3.394-14.777 10.207-15.296 18.222-.395 6.156 2.414 11.762 7.152 14.274 5.793 3.074 9.965 3.199 15.738 3.37 4.828.141 10.84.321 19.496 2.446 5.801 1.422 14.79 6.856 16.614 10.934.636 1.414.375 2.449.046 3.074-2.644 4.988-8.226 3.043-12.714 1.48-2.996-1.043-6.098-2.12-7.614-1.062-.117.082-.113.094-.101.191.398 3.356 18.008 15.047 43.636 25.016 23.118 8.988 49.286 13.36 80.008 13.36a1.187 1.187 0 1 1 0 2.374c-31.02 0-57.472-4.425-80.87-13.52-21.231-8.257-44.43-21.058-45.134-26.948-.117-.985.278-1.848 1.102-2.426 2.52-1.75 6.195-.465 9.754.77 5.07 1.765 8.258 2.624 9.836-.348.117-.223.078-.559-.114-.989-1.394-3.105-9.394-8.218-15.015-9.597-8.414-2.067-14.04-2.23-19-2.38-5.863-.175-10.496-.312-16.781-3.644-5.563-2.953-8.868-9.437-8.407-16.527.254-3.992 1.645-7.707 3.98-10.934-3.683 3.118-7.335 7.516-9.808 13.668-6.93 17.246 2.438 29.285 2.532 29.407a1.185 1.185 0 0 1-1.254 1.882c-.094-.027-8.168-2.437-11.032-12.27-.828 7.31-.816 18.653 4.93 27.927 5.973 9.644 20.035 14.07 31.336 17.629 6.477 2.035 12.066 3.796 15.066 6.183.512.406.598 1.156.188 1.668-.234.297-.578.45-.93.45Zm0 0"/>
    </g>
    <g clip-path="url(#d)">
        <path fill="#00041a"
              d="M185.355 262.578c-27.074 0-63.78-.23-98.253-18.469-29.926-15.828-30.977-19.316-30.606-31.527l.04-1.32c.054-2.032.105-4.043.151-6.016.575-23.398 1.122-36.773 5.711-39.566a1.187 1.187 0 1 1 1.234 2.031c-3.698 2.254-4.124 19.422-4.57 37.594a1880.45 1880.45 0 0 1-.152 6.02l-.039 1.327c-.336 11.004-.418 13.618 29.34 29.36 34.398 18.199 71.297 18.164 98.195 18.191h1.035a1.187 1.187 0 1 1 0 2.375h-2.085Zm0 0"/>
    </g>
    <path fill="#00041a"
          d="M81.203 183.426a1.188 1.188 0 0 1-1.164-1.441c2.414-11.13 1.926-15.919 1.918-15.965a1.188 1.188 0 0 1 2.36-.274c.027.207.562 5.137-1.954 16.742a1.188 1.188 0 0 1-1.16.938ZM41.676 196.969c-.051 0-.106-.004-.156-.012-16.653-2.2-22.692-9.117-22.942-9.414a1.184 1.184 0 0 1 .137-1.672 1.19 1.19 0 0 1 1.672.133c.093.11 5.851 6.539 21.441 8.598a1.189 1.189 0 0 1-.152 2.367ZM41.676 191.77c-.043 0-.082 0-.13-.008-14.401-1.543-22.495-8.332-22.835-8.621a1.191 1.191 0 0 1-.133-1.672 1.192 1.192 0 0 1 1.676-.137c.078.066 7.918 6.61 21.547 8.066.652.07 1.125.657 1.058 1.309a1.192 1.192 0 0 1-1.183 1.063ZM41.676 186.695c-.063 0-.125-.004-.192-.015-9.476-1.535-15.109-4.567-15.343-4.692a1.192 1.192 0 0 1-.473-1.613 1.186 1.186 0 0 1 1.61-.477c.054.032 5.542 2.97 14.585 4.438.649.105 1.09.715.985 1.363a1.19 1.19 0 0 1-1.172.996ZM43.703 182.133c-.082 0-.164-.012-.25-.028a201.783 201.783 0 0 1-13.21-3.32 1.19 1.19 0 0 1-.805-1.476 1.189 1.189 0 0 1 1.476-.801c.063.015 6.066 1.781 13.04 3.273.64.137 1.05.77.91 1.41a1.188 1.188 0 0 1-1.16.942ZM45.227 176.68c-.02 0-.043 0-.067-.004-4.906-.258-11.902-2.367-12.2-2.457a1.19 1.19 0 0 1-.792-1.485 1.192 1.192 0 0 1 1.484-.789c.067.02 7.02 2.118 11.637 2.36a1.191 1.191 0 0 1 1.125 1.25 1.19 1.19 0 0 1-1.187 1.125ZM50.3 171.48c-.023 0-.042 0-.062-.003-10.273-.528-19.043-2.98-19.414-3.086a1.183 1.183 0 0 1-.816-1.465c.18-.63.836-.996 1.465-.82.09.023 8.89 2.484 18.886 3a1.193 1.193 0 0 1 1.125 1.246 1.19 1.19 0 0 1-1.183 1.128ZM55.496 165.773h-.043c-15.375-.55-26.144-3.304-26.25-3.332a1.188 1.188 0 1 1 .598-2.3c.101.023 10.64 2.718 25.738 3.257a1.188 1.188 0 0 1-.043 2.375ZM63.36 160.45c-.157 0-.317-.032-.47-.098-.023-.008-3.523-1.399-12.527-.918-9.59.511-14.722-.743-14.937-.797a1.182 1.182 0 0 1-.864-1.438 1.193 1.193 0 0 1 1.442-.867c.047.012 5.05 1.211 14.23.727 9.676-.512 13.438 1.043 13.594 1.109.602.258.883.957.621 1.562a1.194 1.194 0 0 1-1.09.72Zm0 0"/>
    <g clip-path="url(#e)">
        <path fill="#00041a"
              d="M317.266 208.613a1.19 1.19 0 0 1-.742-2.117c3-2.387 8.59-4.148 15.066-6.183 11.3-3.56 25.363-7.985 31.336-17.63 5.758-9.285 5.762-20.636 4.93-27.937-2.86 9.844-10.938 12.254-11.036 12.281-.5.141-1.027-.054-1.308-.484a1.185 1.185 0 0 1 .054-1.398c.391-.489 9.442-12.215 2.536-29.407-2.485-6.183-6.149-10.59-9.84-13.703 2.355 3.235 3.754 6.961 4.011 10.969.457 7.09-2.843 13.574-8.406 16.527-6.285 3.332-10.918 3.469-16.781 3.645-4.965.148-10.59.312-18.996 2.379-5.625 1.379-13.625 6.492-15.02 9.597-.191.43-.23.766-.113.989 1.574 2.968 4.766 2.113 9.832.347 3.559-1.234 7.238-2.52 9.758-.77.824.579 1.219 1.442 1.101 2.427-.703 5.89-23.906 18.69-45.132 26.949-23.399 9.094-49.852 13.52-80.871 13.52a1.187 1.187 0 1 1 0-2.376c30.718 0 56.894-4.37 80.007-13.36 25.63-9.968 43.235-21.66 43.637-25.015.012-.097.012-.11-.101-.191-1.516-1.059-4.618.02-7.614 1.062-4.488 1.563-10.07 3.508-12.719-1.48-.328-.625-.585-1.66.051-3.074 1.824-4.078 10.813-9.512 16.617-10.934 8.653-2.125 14.664-2.305 19.493-2.445 5.77-.172 9.941-.297 15.738-3.371 4.738-2.512 7.547-8.118 7.148-14.274-.515-8.015-6.234-14.828-15.293-18.222a1.188 1.188 0 0 1 .648-2.277c.72.144 17.626 3.718 25.048 22.19 5.152 12.821 1.996 22.864-.575 28.008 3.016-2.234 6.836-6.851 6.739-15.882a1.188 1.188 0 0 1 2.332-.336c.246.867 5.949 21.48-3.856 37.3-6.437 10.395-20.968 14.965-32.644 18.641-6.246 1.965-11.64 3.664-14.297 5.777-.219.172-.48.258-.738.258Zm0 0"/>
    </g>
    <g clip-path="url(#f)">
        <path fill="#00041a"
              d="M189.523 262.578h-2.082a1.187 1.187 0 1 1 0-2.375h2.075c26.832 0 63.199-.226 97.152-18.191 29.758-15.742 29.68-18.356 29.344-29.36l-.04-1.328c-.054-2.035-.1-4.05-.152-6.031-.445-18.168-.867-35.328-4.57-37.582a1.192 1.192 0 0 1-.402-1.633 1.197 1.197 0 0 1 1.636-.398c4.586 2.793 5.133 16.164 5.711 39.554.051 1.98.098 3.993.153 6.028l.039 1.32c.37 12.215-.68 15.7-30.606 31.527-34.469 18.239-71.18 18.47-98.258 18.47Zm0 0"/>
    </g>
    <path fill="#00041a"
          d="M293.68 183.426c-.547 0-1.04-.38-1.16-.938-2.516-11.605-1.98-16.535-1.957-16.742a1.188 1.188 0 1 1 2.359.277c-.008.09-.48 4.887 1.922 15.961a1.19 1.19 0 0 1-1.164 1.442ZM333.207 196.969a1.189 1.189 0 0 1-.152-2.367c15.75-2.082 21.386-8.528 21.437-8.594.43-.5 1.176-.563 1.672-.137.504.422.563 1.176.14 1.672-.25.297-6.288 7.215-22.94 9.414-.051.008-.106.012-.157.012ZM333.207 191.77a1.189 1.189 0 0 1-.125-2.371c13.676-1.465 21.469-8 21.543-8.067a1.188 1.188 0 1 1 1.543 1.809c-.336.289-8.434 7.078-22.832 8.62-.043.009-.09.009-.129.009ZM333.207 186.695a1.186 1.186 0 0 1-.191-2.36c9.043-1.468 14.535-4.405 14.586-4.437a1.194 1.194 0 0 1 1.613.477 1.19 1.19 0 0 1-.477 1.613c-.234.125-5.863 3.157-15.34 4.692a1.084 1.084 0 0 1-.191.015ZM331.176 182.133c-.547 0-1.04-.383-1.156-.942-.141-.64.27-1.273.91-1.41 6.972-1.492 12.976-3.258 13.039-3.273a1.188 1.188 0 0 1 .672 2.277c-.063.02-6.149 1.809-13.211 3.32a1.44 1.44 0 0 1-.254.028ZM329.656 176.68a1.184 1.184 0 0 1-1.183-1.125 1.185 1.185 0 0 1 1.12-1.25c4.618-.243 11.571-2.34 11.637-2.36a1.189 1.189 0 0 1 1.485.79 1.193 1.193 0 0 1-.793 1.484c-.297.09-7.293 2.199-12.203 2.457-.02.004-.043.004-.063.004ZM324.582 171.48a1.187 1.187 0 0 1-.059-2.375c9.997-.515 18.801-2.976 18.887-3a1.189 1.189 0 0 1 .649 2.286c-.372.105-9.141 2.558-19.41 3.086-.024.003-.044.003-.067.003ZM319.383 165.773a1.188 1.188 0 0 1-.04-2.375c15.098-.539 25.634-3.234 25.739-3.257a1.19 1.19 0 0 1 .598 2.3c-.106.028-10.875 2.782-26.25 3.332h-.047ZM311.531 160.445c-.465 0-.906-.273-1.097-.726a1.184 1.184 0 0 1 .625-1.551c.152-.066 3.918-1.621 13.59-1.11 9.18.489 14.183-.714 14.234-.726a1.2 1.2 0 0 1 1.437.867 1.188 1.188 0 0 1-.863 1.438c-.215.054-5.36 1.308-14.937.797-8.993-.48-12.5.91-12.536.921-.148.06-.3.09-.453.09ZM77.768 206.218a14.368 14.368 0 0 1 3.25-3.97 13.742 13.742 0 0 1 4.5-2.593c1.664-.57 3.437-.8 5.312-.687 1.883.105 3.774.683 5.672 1.734 2.258 1.25 3.938 2.82 5.031 4.703 1.094 1.887 1.602 3.844 1.532 5.875l-5.032.5c.051-.875-.023-1.672-.218-2.39a6.153 6.153 0 0 0-.86-1.938 7.419 7.419 0 0 0-1.312-1.516 9.562 9.562 0 0 0-1.578-1.125c-1.188-.656-2.36-.984-3.516-.984a7.779 7.779 0 0 0-3.234.656 9.71 9.71 0 0 0-2.766 1.89 11.196 11.196 0 0 0-2.047 2.641 10.8 10.8 0 0 0-1.203 3.391 9.412 9.412 0 0 0 0 3.438 8.409 8.409 0 0 0 1.266 3.062c.625.945 1.46 1.711 2.515 2.297.551.3 1.16.547 1.828.734a7.397 7.397 0 0 0 2.063.297 7.051 7.051 0 0 0 2.14-.312 6.099 6.099 0 0 0 2.032-1.094l2.672 4.375a8.74 8.74 0 0 1-3.016 1.5c-1.106.3-2.246.441-3.422.422a13.716 13.716 0 0 1-3.516-.5 15.245 15.245 0 0 1-3.234-1.297c-1.742-.969-3.125-2.219-4.156-3.75a14.293 14.293 0 0 1-2.14-4.906 15.128 15.128 0 0 1-.235-5.375c.25-1.82.805-3.516 1.672-5.078ZM117.385 235.54l-1.766 4.406-17.953-7.22 10.39-25.859 17.626 7.094-1.766 4.406-12.594-5.062-2.5 6.234 10.875 4.375-1.64 4.063-10.875-4.375-2.719 6.75ZM142.558 226.221c-.125-.207-.383-.53-.766-.968-.386-.438-.875-.891-1.468-1.36a13.747 13.747 0 0 0-1.97-1.328 9.98 9.98 0 0 0-2.296-.953c-1.437-.383-2.586-.406-3.437-.063-.856.336-1.415.977-1.672 1.922-.157.575-.153 1.075.015 1.5.164.43.461.856.89 1.282.427.418.993.843 1.704 1.28.719.43 1.547.915 2.484 1.454 1.22.7 2.301 1.398 3.25 2.094.957.699 1.727 1.453 2.313 2.265a6.196 6.196 0 0 1 1.14 2.641c.165.96.083 2.059-.25 3.297-.398 1.437-1.007 2.594-1.828 3.469-.812.882-1.765 1.515-2.859 1.89-1.086.375-2.266.54-3.547.5a16.016 16.016 0 0 1-3.89-.594 20.575 20.575 0 0 1-5.735-2.53c-1.805-1.145-3.344-2.49-4.625-4.032l3.563-3.86c.156.282.476.688.968 1.22.5.53 1.102 1.09 1.813 1.671a16.7 16.7 0 0 0 2.437 1.656c.914.524 1.895.922 2.938 1.204 2.875.78 4.562.257 5.062-1.579.157-.582.125-1.117-.093-1.609-.22-.488-.59-.969-1.11-1.437-.523-.47-1.18-.946-1.968-1.438a143.3 143.3 0 0 0-2.657-1.625c-1.199-.695-2.215-1.383-3.047-2.062-.824-.676-1.476-1.383-1.953-2.125a5.675 5.675 0 0 1-.89-2.344c-.118-.832-.032-1.766.25-2.797.375-1.375.957-2.52 1.75-3.438a7.656 7.656 0 0 1 2.828-2.078c1.094-.468 2.281-.722 3.562-.765 1.29-.051 2.625.11 4 .484 1.895.524 3.551 1.297 4.969 2.328 1.426 1.024 2.625 2.102 3.594 3.235ZM145.576 247.783l5-27.421 5.328.968-5 27.422ZM173.935 233.611l-.61 17.844-5.421-.187.953-27.86 4.203.141 13.89 18.781.61-18.25 5.406.188-.937 27.828-4.39-.156ZM204.684 223.16l4.766-.484 13.421 26.625-5.546.578-3.297-6.656-9.688 1-1.828 7.188-5.531.578Zm7.969 16.376-4.953-10.5-2.844 11.312ZM228.705 229.761l4.25 17.344-5.266 1.297-6.64-27.078 4.078-1 18.469 14.312-4.344-17.75 5.25-1.281 6.625 27.047-4.266 1.047ZM251.591 227.695c-.625-1.57-.957-3.242-1-5.015-.039-1.782.246-3.493.86-5.141.605-1.645 1.546-3.16 2.828-4.547 1.281-1.383 2.925-2.477 4.937-3.281 2.395-.946 4.664-1.242 6.813-.89 2.156.355 3.992 1.198 5.515 2.53l-2.797 4.22c-.648-.602-1.312-1.056-2-1.36a6.214 6.214 0 0 0-2.03-.563 8.382 8.382 0 0 0-3.875.578c-1.263.5-2.259 1.196-2.985 2.079a7.972 7.972 0 0 0-1.547 2.921 9.495 9.495 0 0 0-.297 3.329c.094 1.156.344 2.246.75 3.265a11.052 11.052 0 0 0 1.86 3.078c.789.918 1.675 1.649 2.656 2.188.988.531 2.05.855 3.187.969a7.207 7.207 0 0 0 3.36-.5 8.849 8.849 0 0 0 1.75-.954 7.57 7.57 0 0 0 1.53-1.406 7.4 7.4 0 0 0 1.095-1.86c.289-.687.441-1.44.453-2.265l5.062.719a8.46 8.46 0 0 1-.75 3.281 12.594 12.594 0 0 1-1.844 2.922 13.95 13.95 0 0 1-2.609 2.406c-.992.7-2.008 1.25-3.047 1.657-1.844.742-3.687 1.027-5.531.859a14.631 14.631 0 0 1-5.188-1.469 15.158 15.158 0 0 1-4.28-3.234 14.359 14.359 0 0 1-2.876-4.516ZM274.003 203.256l12.531 8.39-.422-15.125 5.125-2.86-.047 20.798 4.735 8.5-4.703 2.61-4.766-8.579-17.594-10.875Zm0 0"/>
</svg>
