<?xml version="1.0" standalone="no"?>
<!DOCTYPE svg PUBLIC "-//W3C//DTD SVG 20010904//EN"
 "http://www.w3.org/TR/2001/REC-SVG-20010904/DTD/svg10.dtd">
<svg version="1.0" xmlns="http://www.w3.org/2000/svg"
 width="512.000000pt" height="512.000000pt" viewBox="0 0 512.000000 512.000000"
 preserveAspectRatio="xMidYMid meet">
<metadata>
Created by potrace 1.14, written by Peter Selinger 2001-2017
</metadata>
<g transform="translate(0.000000,512.000000) scale(0.100000,-0.100000)"
fill="#000000" stroke="none">
<path d="M1898 4657 c-23 -18 -52 -47 -64 -65 -26 -38 -48 -150 -39 -201 l6
-36 -108 -55 c-59 -30 -111 -57 -116 -59 -5 -2 7 18 27 43 39 52 51 97 42 159
-8 62 -26 117 -36 117 -14 0 -80 -71 -98 -105 -18 -33 -23 -150 -9 -220 l7
-40 -72 -52 c-40 -29 -86 -62 -101 -74 l-28 -21 22 42 c32 61 35 124 10 191
-12 30 -28 64 -36 75 -15 18 -16 18 -45 -16 -46 -53 -64 -124 -50 -201 6 -34
18 -80 27 -101 l15 -39 -68 -72 c-37 -40 -74 -79 -81 -87 -11 -12 -11 -8 -3
20 17 58 11 102 -19 165 -29 58 -63 105 -76 105 -3 0 -18 -25 -32 -56 -36 -80
-30 -157 20 -255 l37 -73 -27 -40 c-15 -23 -44 -70 -66 -106 l-39 -65 6 45
c10 72 -15 139 -78 205 -30 32 -58 55 -64 51 -14 -8 -32 -87 -32 -138 0 -56
37 -135 90 -192 l42 -45 -35 -83 c-20 -46 -39 -95 -42 -111 -12 -48 -22 -39
-27 23 -3 46 -11 70 -34 102 -31 44 -140 125 -152 113 -16 -15 -7 -160 11
-197 20 -39 83 -110 131 -146 26 -20 27 -25 19 -59 -8 -37 -10 -38 -57 -41
-39 -3 -56 2 -95 27 -26 17 -66 37 -89 45 -40 14 -42 14 -42 -4 0 -11 -3 -20
-6 -20 -34 0 -89 80 -100 146 -15 99 53 214 161 270 30 16 55 35 55 42 0 44
-164 -33 -248 -118 -131 -131 -184 -337 -129 -499 13 -37 13 -40 0 -30 -26 23
-56 93 -62 149 -4 40 -10 55 -21 55 -23 0 -38 -77 -39 -200 -1 -167 32 -275
110 -360 55 -60 115 -101 198 -136 40 -17 57 -29 44 -29 -29 0 -29 -14 3 -77
46 -93 138 -152 263 -169 l51 -7 25 -83 c14 -46 28 -91 32 -100 3 -9 -7 -3
-23 12 -51 48 -100 64 -194 63 -124 -1 -127 -3 -85 -66 64 -95 140 -132 278
-136 l78 -2 49 -92 48 -92 -54 31 c-45 25 -66 31 -118 31 -73 0 -176 -28 -176
-47 0 -21 87 -96 137 -118 40 -18 61 -20 147 -15 56 2 108 7 116 11 11 5 35
-18 83 -79 37 -47 65 -85 63 -85 -2 0 -25 10 -51 21 -66 29 -150 22 -239 -19
-37 -17 -66 -36 -66 -41 0 -14 74 -68 120 -88 55 -25 161 -19 248 12 l73 26
78 -68 c44 -37 78 -69 76 -71 -1 -2 -24 2 -49 9 -26 6 -65 9 -87 6 -52 -7
-135 -48 -185 -91 l-39 -34 70 -33 c56 -27 82 -34 130 -33 69 1 154 29 219 72
l43 30 83 -54 83 -54 -54 0 c-73 0 -146 -36 -214 -104 -30 -30 -55 -59 -55
-64 0 -18 92 -42 160 -42 80 0 161 36 237 104 l47 43 66 -27 c36 -15 79 -32
95 -37 l30 -10 -45 -8 c-67 -11 -104 -29 -154 -75 -48 -44 -113 -137 -102
-147 3 -3 28 -10 56 -14 72 -11 153 5 210 41 47 30 137 118 156 152 9 17 17
16 124 -11 99 -26 236 -71 263 -88 4 -2 -18 -20 -50 -40 -50 -30 -111 -74
-187 -135 l-21 -17 29 -30 c17 -17 35 -31 41 -31 6 0 29 18 50 41 49 50 210
159 235 159 24 0 184 -108 235 -159 22 -22 45 -40 51 -41 5 0 23 13 38 29 l27
28 -52 47 c-29 26 -88 69 -132 96 l-79 49 38 16 c72 31 187 66 269 84 l81 18
24 -34 c32 -47 121 -126 167 -149 42 -21 207 -32 232 -15 29 19 -89 165 -165
204 -16 8 -52 18 -79 23 -49 7 -50 7 -20 17 17 5 59 22 95 37 l66 27 47 -43
c74 -66 157 -104 232 -104 67 0 165 24 165 41 0 6 -26 36 -57 66 -71 70 -139
103 -212 103 l-54 0 83 54 83 54 43 -30 c64 -43 150 -70 221 -70 49 0 76 6
130 32 l68 32 -39 34 c-85 74 -198 108 -281 85 -21 -6 -40 -9 -41 -8 -1 1 33
33 77 70 l78 68 73 -26 c87 -31 193 -37 248 -12 46 20 120 74 120 88 0 5 -29
24 -66 41 -86 40 -170 48 -240 20 l-52 -19 66 84 c64 80 68 83 97 76 16 -4 75
-8 130 -8 77 0 108 4 134 19 44 23 121 95 121 112 0 14 -70 37 -146 49 -51 8
-116 -8 -167 -41 l-37 -24 50 92 49 93 93 6 c144 10 200 38 263 132 42 63 39
65 -83 66 -95 1 -140 -14 -189 -61 -18 -18 -33 -30 -33 -27 0 2 13 47 29 99
l28 94 74 16 c134 28 207 80 250 174 24 54 24 66 -3 66 -15 1 -2 10 36 26 172
74 263 176 301 336 28 117 11 363 -25 363 -11 0 -17 -16 -22 -57 -7 -59 -35
-125 -62 -147 -15 -12 -15 -9 -1 29 75 212 -45 489 -258 595 -72 36 -117 45
-117 22 0 -7 20 -23 45 -35 105 -51 169 -142 168 -241 0 -65 -19 -115 -58
-153 -33 -33 -45 -35 -45 -8 0 11 -2 20 -4 20 -13 0 -88 -36 -128 -61 -38 -25
-55 -30 -94 -27 -47 3 -49 4 -58 42 -8 37 -7 41 20 60 44 31 104 97 127 141
17 31 22 58 22 117 0 42 -3 80 -7 84 -12 11 -118 -66 -149 -109 -16 -23 -33
-64 -40 -98 l-12 -59 -44 111 -44 110 41 45 c53 57 90 136 90 192 0 51 -18
130 -32 138 -14 9 -84 -62 -116 -116 -22 -37 -27 -57 -27 -111 l0 -66 -48 81
c-27 45 -56 89 -64 98 -15 16 -13 24 22 93 57 112 59 225 4 295 l-19 25 -21
-25 c-35 -43 -79 -143 -79 -182 0 -20 5 -49 10 -64 6 -15 9 -28 7 -30 -1 -2
-38 35 -80 82 l-78 84 19 53 c27 72 36 146 23 194 -12 43 -65 123 -82 123 -16
0 -59 -103 -66 -158 -4 -41 -1 -60 21 -107 22 -48 23 -55 8 -44 -10 8 -56 41
-101 74 l-81 60 7 45 c14 78 9 182 -10 217 -19 36 -82 103 -97 103 -10 0 -28
-55 -36 -117 -9 -62 3 -107 42 -159 20 -25 32 -45 27 -43 -5 2 -57 29 -116 59
l-108 55 6 36 c10 58 -13 164 -46 209 -29 40 -105 98 -115 87 -13 -12 -16
-125 -4 -166 7 -27 29 -62 58 -94 41 -44 44 -49 22 -43 -14 3 -2 -6 25 -19
l50 -26 -42 6 c-63 8 -119 -4 -165 -35 -50 -34 -112 -110 -99 -123 5 -5 36
-11 69 -14 78 -7 148 23 220 97 l52 53 49 -23 c55 -25 197 -116 166 -105 -11
4 -47 9 -80 12 -48 4 -69 1 -105 -16 -47 -22 -120 -83 -120 -100 0 -13 87 -41
131 -41 54 0 139 34 186 75 23 19 44 35 48 35 9 0 178 -134 195 -155 11 -13 3
-12 -39 4 -89 36 -174 23 -262 -40 -37 -26 -29 -38 43 -69 74 -32 166 -25 251
19 l61 31 44 -42 c46 -45 137 -158 127 -158 -3 0 -22 11 -43 24 -49 32 -114
48 -160 40 -51 -9 -142 -44 -142 -54 0 -12 57 -58 101 -80 61 -32 175 -25 270
14 16 7 60 -58 119 -173 l22 -44 -42 33 c-49 39 -101 59 -152 60 -45 0 -136
-19 -143 -30 -9 -14 74 -98 118 -119 47 -23 154 -32 218 -18 l35 7 36 -97 c54
-149 54 -146 -4 -88 -34 34 -67 57 -93 64 -43 12 -168 15 -178 5 -9 -10 20
-60 61 -106 47 -52 105 -78 206 -92 78 -12 110 -31 64 -40 -150 -29 -188 -34
-215 -29 -30 5 -33 3 -33 -20 0 -16 -9 -31 -27 -42 -43 -27 -84 -68 -94 -92
-8 -21 4 -175 17 -216 5 -14 -14 -27 -98 -67 -304 -143 -563 -219 -898 -262
-141 -18 -716 -18 -860 0 -331 41 -656 139 -938 281 -56 28 -63 35 -58 54 4
12 9 63 13 114 7 108 0 123 -76 179 -38 26 -48 39 -44 54 5 19 1 20 -48 19
-49 -2 -204 22 -215 34 -2 2 -2 10 1 18 4 9 24 15 59 16 74 2 158 28 197 60
43 36 89 101 89 126 0 18 -6 19 -87 15 -102 -5 -140 -21 -196 -82 l-37 -41 29
85 c56 163 50 152 84 144 65 -14 177 -6 223 16 51 25 129 109 115 123 -5 5
-42 14 -83 19 -91 13 -137 2 -203 -49 l-48 -36 47 89 c26 49 55 99 64 111 l17
22 55 -19 c75 -26 178 -26 229 0 44 22 101 68 101 80 0 17 -116 53 -175 54
-60 1 -74 -4 -161 -60 -25 -16 -22 -11 19 41 26 33 67 82 91 109 l43 49 69
-34 c61 -30 78 -34 149 -34 70 0 86 4 128 28 57 34 54 42 -36 87 -72 36 -132
39 -209 10 l-53 -19 45 41 c55 50 156 128 165 128 4 0 25 -16 48 -35 47 -41
132 -75 186 -75 40 0 131 27 131 39 0 15 -77 80 -119 101 -37 18 -56 21 -105
17 -34 -3 -70 -8 -81 -12 -31 -10 111 80 165 105 l48 23 53 -53 c29 -29 77
-64 107 -78 46 -21 64 -24 114 -18 33 3 64 8 69 12 15 9 -51 92 -98 124 -51
33 -105 45 -165 35 -53 -9 -49 -4 27 29 53 24 53 31 0 10 -12 -4 -2 12 27 43
46 50 68 101 68 158 0 46 -12 105 -21 105 -4 0 -27 -15 -51 -33z m-1575 -1279
c-9 -27 -13 -68 -11 -109 5 -97 42 -153 130 -198 60 -31 76 -34 199 -42 247
-17 356 -49 441 -130 35 -33 39 -41 27 -55 -15 -19 -52 -16 -149 11 -80 23
-114 16 -136 -27 -21 -40 -44 -190 -44 -284 0 -39 -3 -105 -6 -147 l-7 -76
-26 13 c-14 7 -91 35 -171 61 -207 68 -283 106 -356 179 -45 45 -67 77 -83
121 -25 65 -49 240 -37 270 6 17 9 16 22 -11 33 -64 122 -130 144 -108 5 5 -4
35 -22 73 -71 142 -39 356 70 474 14 15 27 27 28 27 1 0 -5 -19 -13 -42z
m4535 -56 c74 -139 82 -286 24 -405 -37 -75 -38 -77 -14 -77 29 0 92 49 122
96 l28 44 5 -29 c4 -17 2 -65 -3 -108 -21 -182 -91 -285 -245 -362 -38 -18
-139 -57 -225 -86 -86 -29 -166 -57 -177 -63 -18 -10 -21 -8 -27 20 -3 17 -6
74 -6 127 0 110 -15 260 -31 311 -16 48 -47 80 -80 80 -15 0 -56 -9 -91 -20
-76 -24 -111 -25 -128 -5 -11 13 -8 21 21 51 76 79 202 116 445 133 106 7 142
13 185 33 59 27 102 66 126 112 24 46 28 145 9 202 l-16 47 24 -22 c13 -13 38
-48 54 -79z m-3867 -513 c39 -12 82 -19 98 -16 l27 6 -7 -52 c-4 -29 -8 -60
-8 -70 -1 -17 -5 -16 -48 8 -60 32 -164 109 -175 130 -13 22 28 20 113 -6z
m3215 -24 c-26 -25 -78 -63 -115 -85 -75 -45 -71 -48 -84 52 l-6 47 32 -5 c18
-3 58 3 92 14 33 11 76 20 95 21 l35 0 -49 -44z m-3318 -30 c113 -106 501
-292 776 -371 280 -81 516 -109 906 -108 385 1 587 25 875 106 276 77 647 252
777 368 33 29 49 37 53 28 27 -76 47 -615 26 -680 -16 -49 -81 -105 -206 -180
-323 -191 -616 -289 -990 -330 -165 -18 -939 -18 -1090 0 -322 39 -531 96
-760 207 -156 75 -337 183 -383 228 -65 62 -65 63 -59 352 4 227 20 415 34
415 2 0 21 -16 41 -35z m-191 -451 c11 -30 -4 -33 -24 -6 -22 29 -22 30 -2 25
12 -3 23 -12 26 -19z m3747 -9 c-14 -19 -28 -35 -29 -35 -9 0 10 47 23 58 30
23 33 12 6 -23z m-3675 -53 c-1 -33 -2 -34 -9 -12 -12 36 -12 62 0 55 6 -3 10
-23 9 -43z m3592 -4 l-9 -33 -1 36 c-1 20 2 39 6 43 13 12 15 -10 4 -46z
m-3492 -297 l-1 -36 -23 50 c-31 65 -31 74 0 45 18 -17 25 -33 24 -59z m3406
13 l-24 -59 -1 39 c0 27 7 47 22 63 12 13 23 21 25 20 2 -2 -8 -30 -22 -63z
m-3250 -78 c18 -13 18 -15 1 -57 -18 -44 -23 -127 -11 -171 7 -26 -48 55 -85
125 l-24 46 39 35 c45 39 53 42 80 22z m3149 -21 c45 -40 45 -44 -28 -159
l-44 -69 6 71 c3 55 0 83 -13 119 -17 44 -17 47 0 60 27 19 35 16 79 -22z
m-2929 -171 c-19 -31 -40 -73 -46 -92 -12 -36 -8 -150 7 -187 8 -21 -66 57
-105 111 l-24 33 27 32 c31 36 80 130 90 172 l6 27 40 -20 39 -20 -34 -56z
m2737 -59 c14 -22 33 -46 42 -54 9 -7 16 -18 16 -23 0 -9 -129 -168 -135 -168
-2 0 3 17 11 38 30 83 7 203 -55 290 l-22 31 38 20 38 19 20 -57 c12 -31 33
-74 47 -96z m-2496 37 c147 -50 331 -88 512 -107 165 -18 919 -21 1082 -5 246
24 489 79 656 148 l71 29 -23 -46 c-49 -95 -47 -195 8 -314 18 -39 27 -71 22
-76 -86 -74 -132 -111 -137 -111 -4 0 3 19 15 43 30 57 30 160 0 237 -36 91
-37 91 -81 42 -21 -23 -47 -59 -57 -80 -25 -51 -30 -163 -11 -238 8 -32 17
-65 19 -73 3 -13 -142 -111 -164 -111 -4 0 8 20 26 45 40 52 61 135 51 204
-10 70 -26 131 -35 131 -20 0 -114 -98 -138 -144 -25 -47 -27 -60 -27 -173 0
-100 -3 -124 -15 -129 -24 -10 -153 -54 -158 -54 -3 0 14 21 37 46 24 25 50
62 58 82 20 46 31 226 14 236 -18 11 -110 -45 -152 -93 -44 -50 -77 -140 -86
-238 l-6 -61 -91 -22 c-98 -24 -306 -98 -306 -109 0 -4 17 -15 38 -25 l37 -18
-42 -21 -43 -21 -42 21 -42 22 37 17 c20 10 37 21 37 25 0 11 -206 84 -306
109 l-91 22 -6 62 c-9 97 -42 187 -86 237 -41 47 -134 105 -151 94 -15 -9 -12
-155 5 -212 10 -33 32 -70 61 -102 25 -28 44 -51 42 -51 -5 0 -134 44 -158 54
-12 5 -15 29 -15 129 0 107 -3 128 -23 169 -21 43 -122 148 -142 148 -10 0
-27 -69 -36 -142 -9 -74 15 -151 63 -208 l38 -44 -60 33 c-118 66 -137 81
-130 99 21 49 35 124 35 183 0 53 -6 77 -30 125 -33 67 -85 123 -99 108 -20
-20 -52 -121 -58 -179 -5 -53 -2 -71 20 -119 14 -31 23 -56 20 -56 -6 0 -47
34 -107 87 l-38 35 30 66 c55 122 59 201 13 298 l-30 64 28 -14 c15 -8 81 -33
147 -54z"/>
<path d="M474 2978 c-17 -28 32 -36 259 -41 110 -2 147 0 147 9 0 20 -30 26
-140 30 -58 3 -140 6 -183 8 -43 1 -80 -1 -83 -6z"/>
<path d="M393 2923 c-8 -20 -4 -22 83 -38 124 -24 283 -33 296 -18 14 17 4 20
-132 33 -63 7 -143 18 -178 25 -54 11 -64 11 -69 -2z"/>
<path d="M410 2836 c0 -17 106 -43 215 -53 64 -5 75 -4 75 10 0 11 -13 18 -47
22 -27 4 -84 13 -129 21 -100 18 -114 18 -114 0z"/>
<path d="M440 2756 c0 -27 177 -57 190 -31 3 6 -28 17 -70 27 -95 21 -120 22
-120 4z"/>
<path d="M400 2696 c0 -14 39 -28 154 -55 27 -7 51 -10 53 -7 17 16 -15 35
-91 54 -102 26 -116 27 -116 8z"/>
<path d="M355 2662 c-23 -23 21 -46 143 -77 71 -18 102 -14 82 10 -7 8 -22 15
-34 15 -11 0 -58 13 -103 29 -45 16 -85 26 -88 23z"/>
<path d="M250 2635 c0 -50 297 -162 333 -126 15 15 -6 31 -40 31 -40 0 -177
49 -226 80 -54 34 -67 37 -67 15z"/>
<path d="M255 2579 c-20 -31 112 -107 234 -135 78 -18 112 -14 91 11 -7 8 -23
15 -36 15 -41 0 -180 49 -220 78 -57 41 -62 43 -69 31z"/>
<path d="M4440 2981 c-174 -7 -200 -11 -200 -34 0 -10 40 -12 168 -9 188 4
237 11 237 32 0 18 5 18 -205 11z"/>
<path d="M4655 2924 c-33 -7 -115 -18 -183 -25 -112 -11 -144 -20 -128 -36 14
-14 268 10 363 33 22 6 31 28 16 37 -5 2 -35 -2 -68 -9z"/>
<path d="M4570 2833 c-134 -22 -155 -27 -152 -38 8 -29 292 11 292 41 0 17
-24 17 -140 -3z"/>
<path d="M4555 2751 c-71 -17 -87 -33 -39 -39 41 -5 164 28 164 44 0 18 -35
17 -125 -5z"/>
<path d="M4591 2686 c-80 -20 -105 -36 -82 -50 10 -6 197 37 208 47 9 10 -8
27 -25 26 -9 0 -55 -11 -101 -23z"/>
<path d="M4717 2654 c-15 -8 -62 -24 -104 -35 -86 -21 -91 -25 -75 -41 22 -22
239 47 230 74 -6 18 -20 19 -51 2z"/>
<path d="M4820 2630 c-35 -28 -170 -79 -232 -88 -37 -5 -53 -12 -53 -22 0 -37
178 4 278 64 48 29 66 55 42 62 -5 2 -21 -5 -35 -16z"/>
<path d="M4809 2559 c-38 -31 -185 -89 -229 -89 -36 0 -58 -16 -43 -31 15 -15
113 3 199 38 71 28 141 83 130 101 -10 17 -16 15 -57 -19z"/>
<path d="M3931 2451 c-24 -18 -25 -23 -22 -115 1 -53 0 -96 -4 -96 -3 0 -40
23 -81 51 -78 52 -97 56 -137 27 -16 -12 -5 -21 104 -88 104 -64 124 -81 145
-120 37 -71 39 -73 60 -61 49 27 48 26 15 84 -31 54 -31 56 -31 196 0 152 -2
158 -49 122z"/>
<path d="M1183 2400 c-83 -19 -143 -101 -143 -195 0 -62 14 -97 57 -137 48
-46 126 -62 188 -38 25 10 25 11 10 40 -14 28 -19 30 -55 24 -98 -16 -156 64
-116 160 19 47 61 76 108 76 50 0 84 -23 98 -66 10 -30 16 -34 46 -34 41 0 43
14 13 77 -34 69 -127 112 -206 93z"/>
<path d="M1461 2263 c-12 -25 -55 -131 -112 -275 l-18 -46 125 -50 125 -51 9
25 c6 14 10 29 10 34 0 4 -37 23 -82 41 -46 18 -84 33 -86 34 -5 4 30 85 36
85 4 0 37 -12 75 -27 58 -23 70 -25 78 -12 20 32 9 46 -61 73 -38 15 -70 30
-70 32 0 15 31 74 38 74 5 0 42 -13 82 -30 40 -16 76 -30 79 -30 4 0 12 14 18
31 11 27 10 31 -10 38 -12 5 -62 25 -111 45 -50 20 -95 36 -101 36 -7 0 -17
-12 -24 -27z"/>
<path d="M3522 2249 c-118 -59 -135 -220 -32 -313 83 -74 194 -68 264 14 24
29 44 76 35 84 -2 2 -19 7 -36 11 -26 5 -33 3 -33 -8 0 -26 -49 -75 -81 -82
-99 -22 -183 133 -115 212 20 23 32 28 73 28 26 0 55 -4 63 -8 11 -5 21 1 33
22 l18 30 -30 16 c-42 21 -108 19 -159 -6z"/>
<path d="M3302 2173 c-13 -3 -25 -10 -28 -17 -3 -7 6 -59 20 -117 13 -57 23
-105 21 -107 -2 -2 -55 37 -119 87 -64 50 -124 91 -133 91 -48 -1 -48 -9 -1
-196 l45 -179 33 3 c19 1 36 5 38 7 3 2 -7 52 -22 111 -15 59 -25 108 -23 110
2 3 56 -36 120 -86 103 -79 120 -89 147 -84 16 4 30 8 30 9 0 4 -81 338 -86
358 -3 9 -8 16 -12 16 -4 -1 -17 -4 -30 -6z"/>
<path d="M1761 2146 c-32 -18 -50 -53 -51 -97 0 -39 24 -67 95 -111 57 -36 69
-52 55 -77 -6 -12 -18 -21 -28 -21 -25 1 -94 34 -120 60 l-24 23 -26 -26 c-25
-25 -25 -27 -9 -45 37 -41 119 -76 179 -77 49 0 61 4 83 26 33 33 44 98 22
129 -9 13 -44 41 -79 64 -68 44 -85 76 -50 95 26 14 78 -2 112 -34 l26 -25 24
25 c23 24 23 25 4 46 -48 53 -157 76 -213 45z"/>
<path d="M2020 1926 c-18 -102 -31 -188 -29 -190 2 -2 19 -6 36 -9 28 -6 34
-3 38 16 14 57 64 351 61 354 -2 2 -19 6 -38 9 l-34 6 -34 -186z"/>
<path d="M2791 2057 c-10 -25 -101 -362 -101 -372 0 -3 17 -5 37 -3 35 3 38 6
50 47 7 25 16 48 20 52 5 4 34 9 66 11 l59 5 21 -44 c19 -39 24 -43 59 -43 21
0 38 5 38 11 0 5 -41 89 -91 185 -86 165 -92 174 -120 174 -22 0 -32 -6 -38
-23z m83 -148 l25 -56 -46 -7 c-26 -3 -47 -5 -49 -3 -1 1 5 32 14 70 9 37 19
64 23 60 5 -5 19 -33 33 -64z"/>
<path d="M2300 1978 c0 -51 -3 -137 -7 -190 l-6 -98 41 0 42 0 1 93 c1 146 2
146 102 13 77 -102 91 -116 117 -116 36 0 38 9 43 223 l3 157 -37 0 -37 0 -7
-120 -8 -120 -91 125 c-84 115 -94 125 -123 125 l-33 0 0 -92z"/>
<path d="M2065 4496 c-16 -8 -51 -32 -77 -54 l-47 -39 70 -13 c56 -11 76 -11
107 -1 46 16 135 78 127 91 -6 9 -94 30 -128 30 -12 -1 -35 -7 -52 -14z"/>
<path d="M2923 4497 c-23 -7 -45 -15 -48 -19 -8 -8 68 -65 114 -84 41 -17 70
-18 137 -2 l51 12 -46 39 c-76 66 -121 78 -208 54z"/>
</g>
</svg>
